G04 #@! TF.GenerationSoftware,KiCad,Pcbnew,5.0.0-fee4fd1~66~ubuntu18.04.1*
G04 #@! TF.CreationDate,2018-09-09T19:59:57+02:00*
G04 #@! TF.ProjectId,new-joy-board,6E65772D6A6F792D626F6172642E6B69,rev?*
G04 #@! TF.SameCoordinates,Original*
G04 #@! TF.FileFunction,Legend,Bot*
G04 #@! TF.FilePolarity,Positive*
%FSLAX46Y46*%
G04 Gerber Fmt 4.6, Leading zero omitted, Abs format (unit mm)*
G04 Created by KiCad (PCBNEW 5.0.0-fee4fd1~66~ubuntu18.04.1) date Sun Sep  9 19:59:57 2018*
%MOMM*%
%LPD*%
G01*
G04 APERTURE LIST*
%ADD10C,0.150000*%
G04 APERTURE END LIST*
D10*
G04 #@! TO.C,U10*
X99220000Y-93665000D02*
X99220000Y-82865000D01*
X99220000Y-82865000D02*
X119220000Y-82865000D01*
X119220000Y-82865000D02*
X119220000Y-93665000D01*
X119220000Y-93665000D02*
X99220000Y-93665000D01*
X109172380Y-87026904D02*
X109981904Y-87026904D01*
X110077142Y-87074523D01*
X110124761Y-87122142D01*
X110172380Y-87217380D01*
X110172380Y-87407857D01*
X110124761Y-87503095D01*
X110077142Y-87550714D01*
X109981904Y-87598333D01*
X109172380Y-87598333D01*
X110172380Y-88598333D02*
X110172380Y-88026904D01*
X110172380Y-88312619D02*
X109172380Y-88312619D01*
X109315238Y-88217380D01*
X109410476Y-88122142D01*
X109458095Y-88026904D01*
X109172380Y-89217380D02*
X109172380Y-89312619D01*
X109220000Y-89407857D01*
X109267619Y-89455476D01*
X109362857Y-89503095D01*
X109553333Y-89550714D01*
X109791428Y-89550714D01*
X109981904Y-89503095D01*
X110077142Y-89455476D01*
X110124761Y-89407857D01*
X110172380Y-89312619D01*
X110172380Y-89217380D01*
X110124761Y-89122142D01*
X110077142Y-89074523D01*
X109981904Y-89026904D01*
X109791428Y-88979285D01*
X109553333Y-88979285D01*
X109362857Y-89026904D01*
X109267619Y-89074523D01*
X109220000Y-89122142D01*
X109172380Y-89217380D01*
X104346190Y-83907380D02*
X104012857Y-84907380D01*
X103679523Y-83907380D01*
X103155714Y-83907380D02*
X102965238Y-83907380D01*
X102870000Y-83955000D01*
X102774761Y-84050238D01*
X102727142Y-84240714D01*
X102727142Y-84574047D01*
X102774761Y-84764523D01*
X102870000Y-84859761D01*
X102965238Y-84907380D01*
X103155714Y-84907380D01*
X103250952Y-84859761D01*
X103346190Y-84764523D01*
X103393809Y-84574047D01*
X103393809Y-84240714D01*
X103346190Y-84050238D01*
X103250952Y-83955000D01*
X103155714Y-83907380D01*
X102298571Y-84526428D02*
X101536666Y-84526428D01*
X101917619Y-84907380D02*
X101917619Y-84145476D01*
X103631904Y-86495000D02*
X103727142Y-86447380D01*
X103870000Y-86447380D01*
X104012857Y-86495000D01*
X104108095Y-86590238D01*
X104155714Y-86685476D01*
X104203333Y-86875952D01*
X104203333Y-87018809D01*
X104155714Y-87209285D01*
X104108095Y-87304523D01*
X104012857Y-87399761D01*
X103870000Y-87447380D01*
X103774761Y-87447380D01*
X103631904Y-87399761D01*
X103584285Y-87352142D01*
X103584285Y-87018809D01*
X103774761Y-87018809D01*
X103155714Y-87447380D02*
X103155714Y-86447380D01*
X102584285Y-87447380D01*
X102584285Y-86447380D01*
X102108095Y-87447380D02*
X102108095Y-86447380D01*
X101870000Y-86447380D01*
X101727142Y-86495000D01*
X101631904Y-86590238D01*
X101584285Y-86685476D01*
X101536666Y-86875952D01*
X101536666Y-87018809D01*
X101584285Y-87209285D01*
X101631904Y-87304523D01*
X101727142Y-87399761D01*
X101870000Y-87447380D01*
X102108095Y-87447380D01*
X104012857Y-89987380D02*
X104012857Y-88987380D01*
X103536666Y-89987380D02*
X103536666Y-88987380D01*
X102965238Y-89987380D01*
X102965238Y-88987380D01*
X102489047Y-89606428D02*
X101727142Y-89606428D01*
X102108095Y-89987380D02*
X102108095Y-89225476D01*
X103608095Y-92003571D02*
X103274761Y-92003571D01*
X103131904Y-92527380D02*
X103608095Y-92527380D01*
X103608095Y-91527380D01*
X103131904Y-91527380D01*
X102703333Y-92527380D02*
X102703333Y-91527380D01*
X102131904Y-92527380D01*
X102131904Y-91527380D01*
G04 #@! TD*
M02*
