M48
;DRILL file {KiCad 5.0.0-fee4fd1~66~ubuntu18.04.1} date Sat Sep 15 17:45:34 2018
;FORMAT={-:-/ absolute / inch / decimal}
FMAT,2
INCH,TZ
T1C0.0157
T2C0.0300
T3C0.0512
T4C0.0598
T5C0.1260
%
G90
G05
M72
T1
X3.775Y-1.9
X3.775Y-2.05
X3.775Y-2.75
X3.775Y-2.9187
X3.775Y-3.3
X3.7846Y-2.4654
X3.98Y-2.2246
X3.98Y-3.08
X4.05Y-1.9
X4.05Y-2.475
X4.05Y-2.725
X4.05Y-3.3
X4.325Y-1.875
X4.325Y-2.48
X4.325Y-2.74
X4.325Y-3.3
X4.4Y-2.12
X4.4Y-2.9754
X4.6Y-1.9
X4.6Y-2.275
X4.6Y-2.725
X4.6Y-3.125
X4.6Y-3.3
X4.625Y-2.45
T2
X3.375Y-4.2
X3.375Y-4.3
X3.375Y-4.4
X3.375Y-4.5
X3.375Y-4.6
X3.375Y-4.7
X3.375Y-4.8
X3.375Y-4.9
X3.375Y-5.
X3.375Y-5.1
X3.375Y-5.2
X3.375Y-5.3
X3.375Y-5.4
X3.375Y-5.5
X3.375Y-5.6
X3.375Y-5.7
X3.375Y-5.8
X3.375Y-5.9
X3.375Y-6.
X4.375Y-4.2
X4.375Y-4.3
X4.375Y-4.4
X4.375Y-4.5
X4.375Y-4.6
X4.375Y-4.7
X4.375Y-4.8
X4.375Y-4.9
X4.375Y-5.
X4.375Y-5.1
X4.375Y-5.2
X4.375Y-5.3
X4.375Y-5.4
X4.375Y-5.5
X4.375Y-5.6
X4.375Y-5.7
X4.375Y-5.8
X4.375Y-5.9
X4.375Y-6.
X4.55Y-5.1
X4.55Y-5.2
X4.55Y-5.3
X4.55Y-5.4
X4.55Y-5.5
X4.55Y-5.6
X4.55Y-5.7
X4.55Y-5.8
X4.775Y-4.85
X4.775Y-4.95
X4.875Y-4.85
X4.875Y-4.95
X4.975Y-4.85
X4.975Y-4.95
X5.075Y-4.85
X5.075Y-4.95
X3.675Y-0.975
X3.675Y-1.075
X3.675Y-1.175
X3.675Y-1.275
T3
X3.1063Y-1.7797
X3.1063Y-1.9766
X3.5Y-1.5829
X3.5Y-1.8781
X3.5Y-2.1734
X3.5984Y-1.6813
X3.5984Y-2.075
X3.1063Y-2.9766
X3.1063Y-3.1734
X3.5Y-2.7797
X3.5Y-3.075
X3.5Y-3.3703
X3.5984Y-2.8781
X3.5984Y-3.2719
X4.8016Y-1.6781
X4.8016Y-2.0719
X4.9Y-1.5797
X4.9Y-1.875
X4.9Y-2.1703
X5.2937Y-1.7766
X5.2937Y-1.9734
X4.8016Y-2.8781
X4.8016Y-3.2719
X4.9Y-2.7797
X4.9Y-3.075
X4.9Y-3.3703
X5.2937Y-2.9766
X5.2937Y-3.1734
T4
X3.25Y-0.875
X3.45Y-0.875
T5
X5.25Y-2.475
X3.15Y-2.475
X5.25Y-0.85
X3.15Y-1.225
X3.15Y-3.675
X5.25Y-3.675
X5.25Y-6.025
T0
M30
