G04 #@! TF.GenerationSoftware,KiCad,Pcbnew,5.0.0-fee4fd1~66~ubuntu18.04.1*
G04 #@! TF.CreationDate,2018-09-21T15:09:39+02:00*
G04 #@! TF.ProjectId,new-joy-board,6E65772D6A6F792D626F6172642E6B69,rev?*
G04 #@! TF.SameCoordinates,Original*
G04 #@! TF.FileFunction,Copper,L1,Top,Signal*
G04 #@! TF.FilePolarity,Positive*
%FSLAX46Y46*%
G04 Gerber Fmt 4.6, Leading zero omitted, Abs format (unit mm)*
G04 Created by KiCad (PCBNEW 5.0.0-fee4fd1~66~ubuntu18.04.1) date Fri Sep 21 15:09:39 2018*
%MOMM*%
%LPD*%
G01*
G04 APERTURE LIST*
G04 #@! TA.AperFunction,ComponentPad*
%ADD10C,6.500000*%
G04 #@! TD*
G04 #@! TA.AperFunction,ComponentPad*
%ADD11C,1.950000*%
G04 #@! TD*
G04 #@! TA.AperFunction,ComponentPad*
%ADD12C,1.524000*%
G04 #@! TD*
G04 #@! TA.AperFunction,ComponentPad*
%ADD13R,3.000000X3.000000*%
G04 #@! TD*
G04 #@! TA.AperFunction,ComponentPad*
%ADD14C,3.000000*%
G04 #@! TD*
G04 #@! TA.AperFunction,SMDPad,CuDef*
%ADD15R,0.600000X1.550000*%
G04 #@! TD*
G04 #@! TA.AperFunction,Conductor*
%ADD16C,0.100000*%
G04 #@! TD*
G04 #@! TA.AperFunction,SMDPad,CuDef*
%ADD17C,1.150000*%
G04 #@! TD*
G04 #@! TA.AperFunction,ViaPad*
%ADD18C,0.600000*%
G04 #@! TD*
G04 #@! TA.AperFunction,Conductor*
%ADD19C,0.500000*%
G04 #@! TD*
G04 #@! TA.AperFunction,Conductor*
%ADD20C,0.250000*%
G04 #@! TD*
G04 APERTURE END LIST*
D10*
G04 #@! TO.P,REF\002A\002A,1*
G04 #@! TO.N,N/C*
X133350000Y-153035000D03*
G04 #@! TD*
D11*
G04 #@! TO.P,J2,2*
G04 #@! TO.N,Net-(J2-Pad2)*
X124460000Y-47625000D03*
G04 #@! TO.P,J2,4*
G04 #@! TO.N,/SDA2BUF*
X121960000Y-42625000D03*
G04 #@! TO.P,J2,1*
G04 #@! TO.N,-BATT*
X124460000Y-40125000D03*
G04 #@! TO.P,J2,5*
G04 #@! TO.N,+5V*
X121960000Y-52625000D03*
G04 #@! TO.P,J2,3*
G04 #@! TO.N,/SCL2BUF*
X124460000Y-55125000D03*
G04 #@! TO.P,J2,S1*
G04 #@! TO.N,-BATT*
X134460000Y-50125000D03*
G04 #@! TO.P,J2,S2*
X134460000Y-45125000D03*
G04 #@! TD*
D12*
G04 #@! TO.P,U4,1*
G04 #@! TO.N,+3V3*
X85725000Y-106680000D03*
G04 #@! TO.P,U4,2*
G04 #@! TO.N,Net-(U4-Pad2)*
X85725000Y-109220000D03*
G04 #@! TO.P,U4,3*
G04 #@! TO.N,Net-(U4-Pad3)*
X85725000Y-111760000D03*
G04 #@! TO.P,U4,4*
G04 #@! TO.N,Net-(U4-Pad4)*
X85725000Y-114300000D03*
G04 #@! TO.P,U4,5*
G04 #@! TO.N,Net-(U4-Pad5)*
X85725000Y-116840000D03*
G04 #@! TO.P,U4,6*
G04 #@! TO.N,Net-(U4-Pad6)*
X85725000Y-119380000D03*
G04 #@! TO.P,U4,7*
G04 #@! TO.N,Net-(U4-Pad7)*
X85725000Y-121920000D03*
G04 #@! TO.P,U4,8*
G04 #@! TO.N,Net-(U4-Pad8)*
X85725000Y-124460000D03*
G04 #@! TO.P,U4,9*
G04 #@! TO.N,Net-(U4-Pad9)*
X85725000Y-127000000D03*
G04 #@! TO.P,U4,10*
G04 #@! TO.N,/SDA0ESP*
X85725000Y-129540000D03*
G04 #@! TO.P,U4,11*
G04 #@! TO.N,/SCL0ESP*
X85725000Y-132080000D03*
G04 #@! TO.P,U4,12*
G04 #@! TO.N,/SDA1ESP*
X85725000Y-134620000D03*
G04 #@! TO.P,U4,13*
G04 #@! TO.N,/SCL1ESP*
X85725000Y-137160000D03*
G04 #@! TO.P,U4,14*
G04 #@! TO.N,Net-(U4-Pad14)*
X85725000Y-139700000D03*
G04 #@! TO.P,U4,15*
G04 #@! TO.N,Net-(U4-Pad15)*
X85725000Y-142240000D03*
G04 #@! TO.P,U4,16*
G04 #@! TO.N,Net-(U4-Pad16)*
X85725000Y-144780000D03*
G04 #@! TO.P,U4,17*
G04 #@! TO.N,Net-(U4-Pad17)*
X85725000Y-147320000D03*
G04 #@! TO.P,U4,18*
G04 #@! TO.N,Net-(U4-Pad18)*
X85725000Y-149860000D03*
G04 #@! TO.P,U4,19*
G04 #@! TO.N,+5V*
X85725000Y-152400000D03*
G04 #@! TO.P,U4,20*
G04 #@! TO.N,Net-(U4-Pad20)*
X111125000Y-152400000D03*
G04 #@! TO.P,U4,21*
G04 #@! TO.N,Net-(U4-Pad21)*
X111125000Y-149860000D03*
G04 #@! TO.P,U4,22*
G04 #@! TO.N,Net-(U4-Pad22)*
X111125000Y-147320000D03*
G04 #@! TO.P,U4,23*
G04 #@! TO.N,Net-(U4-Pad23)*
X111125000Y-144780000D03*
G04 #@! TO.P,U4,24*
G04 #@! TO.N,Net-(U4-Pad24)*
X111125000Y-142240000D03*
G04 #@! TO.P,U4,25*
G04 #@! TO.N,/SDA2ESP*
X111125000Y-139700000D03*
G04 #@! TO.P,U4,26*
G04 #@! TO.N,/SCL2ESP*
X111125000Y-137160000D03*
G04 #@! TO.P,U4,27*
G04 #@! TO.N,/SDA3ESP*
X111125000Y-134620000D03*
G04 #@! TO.P,U4,28*
G04 #@! TO.N,/SCL3ESP*
X111125000Y-132080000D03*
G04 #@! TO.P,U4,29*
G04 #@! TO.N,/CS0*
X111125000Y-129540000D03*
G04 #@! TO.P,U4,30*
G04 #@! TO.N,/CLK*
X111125000Y-127000000D03*
G04 #@! TO.P,U4,31*
G04 #@! TO.N,/CE*
X111125000Y-124460000D03*
G04 #@! TO.P,U4,32*
G04 #@! TO.N,-BATT*
X111125000Y-121920000D03*
G04 #@! TO.P,U4,33*
G04 #@! TO.N,/IRQ*
X111125000Y-119380000D03*
G04 #@! TO.P,U4,34*
G04 #@! TO.N,Net-(U4-Pad34)*
X111125000Y-116840000D03*
G04 #@! TO.P,U4,35*
G04 #@! TO.N,Net-(U4-Pad35)*
X111125000Y-114300000D03*
G04 #@! TO.P,U4,36*
G04 #@! TO.N,/MISO*
X111125000Y-111760000D03*
G04 #@! TO.P,U4,37*
G04 #@! TO.N,/MOSI*
X111125000Y-109220000D03*
G04 #@! TO.P,U4,38*
G04 #@! TO.N,-BATT*
X111125000Y-106680000D03*
G04 #@! TD*
D11*
G04 #@! TO.P,J0,2*
G04 #@! TO.N,Net-(J0-Pad2)*
X88900000Y-78105000D03*
G04 #@! TO.P,J0,4*
G04 #@! TO.N,/SDA0BUF*
X91400000Y-83105000D03*
G04 #@! TO.P,J0,1*
G04 #@! TO.N,-BATT*
X88900000Y-85605000D03*
G04 #@! TO.P,J0,5*
G04 #@! TO.N,+5V*
X91400000Y-73105000D03*
G04 #@! TO.P,J0,3*
G04 #@! TO.N,/SCL0BUF*
X88900000Y-70605000D03*
G04 #@! TO.P,J0,S1*
G04 #@! TO.N,-BATT*
X78900000Y-75605000D03*
G04 #@! TO.P,J0,S2*
X78900000Y-80605000D03*
G04 #@! TD*
G04 #@! TO.P,J1,S2*
G04 #@! TO.N,-BATT*
X78900000Y-50205000D03*
G04 #@! TO.P,J1,S1*
X78900000Y-45205000D03*
G04 #@! TO.P,J1,3*
G04 #@! TO.N,/SCL1BUF*
X88900000Y-40205000D03*
G04 #@! TO.P,J1,5*
G04 #@! TO.N,+5V*
X91400000Y-42705000D03*
G04 #@! TO.P,J1,1*
G04 #@! TO.N,-BATT*
X88900000Y-55205000D03*
G04 #@! TO.P,J1,4*
G04 #@! TO.N,/SDA1BUF*
X91400000Y-52705000D03*
G04 #@! TO.P,J1,2*
G04 #@! TO.N,Net-(J1-Pad2)*
X88900000Y-47705000D03*
G04 #@! TD*
G04 #@! TO.P,J3,2*
G04 #@! TO.N,Net-(J3-Pad2)*
X124460000Y-78105000D03*
G04 #@! TO.P,J3,4*
G04 #@! TO.N,/SDA3BUF*
X121960000Y-73105000D03*
G04 #@! TO.P,J3,1*
G04 #@! TO.N,-BATT*
X124460000Y-70605000D03*
G04 #@! TO.P,J3,5*
G04 #@! TO.N,+5V*
X121960000Y-83105000D03*
G04 #@! TO.P,J3,3*
G04 #@! TO.N,/SCL3BUF*
X124460000Y-85605000D03*
G04 #@! TO.P,J3,S1*
G04 #@! TO.N,-BATT*
X134460000Y-80605000D03*
G04 #@! TO.P,J3,S2*
X134460000Y-75605000D03*
G04 #@! TD*
D12*
G04 #@! TO.P,U7,1*
G04 #@! TO.N,+3V3*
X115570000Y-129540000D03*
G04 #@! TO.P,U7,2*
G04 #@! TO.N,-BATT*
X115570000Y-132080000D03*
G04 #@! TO.P,U7,3*
G04 #@! TO.N,/SCL3ESP*
X115570000Y-134620000D03*
G04 #@! TO.P,U7,4*
G04 #@! TO.N,/SDA3ESP*
X115570000Y-137160000D03*
G04 #@! TO.P,U7,5*
G04 #@! TO.N,Net-(U7-Pad5)*
X115570000Y-139700000D03*
G04 #@! TO.P,U7,6*
G04 #@! TO.N,Net-(U7-Pad6)*
X115570000Y-142240000D03*
G04 #@! TO.P,U7,7*
G04 #@! TO.N,Net-(U7-Pad7)*
X115570000Y-144780000D03*
G04 #@! TO.P,U7,8*
G04 #@! TO.N,Net-(U7-Pad8)*
X115570000Y-147320000D03*
G04 #@! TD*
D13*
G04 #@! TO.P,J4,1*
G04 #@! TO.N,+BATT*
X82550000Y-22225000D03*
D14*
G04 #@! TO.P,J4,2*
G04 #@! TO.N,-BATT*
X87630000Y-22225000D03*
G04 #@! TD*
D10*
G04 #@! TO.P,REF\002A\002A,1*
G04 #@! TO.N,N/C*
X80010000Y-93345000D03*
G04 #@! TD*
G04 #@! TO.P,REF\002A\002A,1*
G04 #@! TO.N,N/C*
X80010000Y-62865000D03*
G04 #@! TD*
G04 #@! TO.P,REF\002A\002A,1*
G04 #@! TO.N,N/C*
X80010000Y-31115000D03*
G04 #@! TD*
G04 #@! TO.P,REF\002A\002A,1*
G04 #@! TO.N,N/C*
X133350000Y-21590000D03*
G04 #@! TD*
G04 #@! TO.P,REF\002A\002A,1*
G04 #@! TO.N,N/C*
X133350000Y-62865000D03*
G04 #@! TD*
G04 #@! TO.P,REF\002A\002A,1*
G04 #@! TO.N,N/C*
X133350000Y-93345000D03*
G04 #@! TD*
D15*
G04 #@! TO.P,U0,1*
G04 #@! TO.N,Net-(U0-Pad1)*
X97155000Y-79535000D03*
G04 #@! TO.P,U0,2*
G04 #@! TO.N,/SDA0BUF*
X98425000Y-79535000D03*
G04 #@! TO.P,U0,3*
G04 #@! TO.N,/SDA0ESP*
X99695000Y-79535000D03*
G04 #@! TO.P,U0,4*
G04 #@! TO.N,-BATT*
X100965000Y-79535000D03*
G04 #@! TO.P,U0,5*
G04 #@! TO.N,Net-(U0-Pad5)*
X100965000Y-74135000D03*
G04 #@! TO.P,U0,6*
G04 #@! TO.N,/SCL0ESP*
X99695000Y-74135000D03*
G04 #@! TO.P,U0,7*
G04 #@! TO.N,/SCL0BUF*
X98425000Y-74135000D03*
G04 #@! TO.P,U0,8*
G04 #@! TO.N,+5V*
X97155000Y-74135000D03*
G04 #@! TD*
G04 #@! TO.P,U1,8*
G04 #@! TO.N,+5V*
X97155000Y-52545000D03*
G04 #@! TO.P,U1,7*
G04 #@! TO.N,/SCL1BUF*
X98425000Y-52545000D03*
G04 #@! TO.P,U1,6*
G04 #@! TO.N,/SCL1ESP*
X99695000Y-52545000D03*
G04 #@! TO.P,U1,5*
G04 #@! TO.N,Net-(U1-Pad5)*
X100965000Y-52545000D03*
G04 #@! TO.P,U1,4*
G04 #@! TO.N,-BATT*
X100965000Y-57945000D03*
G04 #@! TO.P,U1,3*
G04 #@! TO.N,/SDA1ESP*
X99695000Y-57945000D03*
G04 #@! TO.P,U1,2*
G04 #@! TO.N,/SDA1BUF*
X98425000Y-57945000D03*
G04 #@! TO.P,U1,1*
G04 #@! TO.N,Net-(U1-Pad1)*
X97155000Y-57945000D03*
G04 #@! TD*
G04 #@! TO.P,U2,1*
G04 #@! TO.N,Net-(U2-Pad1)*
X115570000Y-52545000D03*
G04 #@! TO.P,U2,2*
G04 #@! TO.N,/SDA2BUF*
X114300000Y-52545000D03*
G04 #@! TO.P,U2,3*
G04 #@! TO.N,/SDA2ESP*
X113030000Y-52545000D03*
G04 #@! TO.P,U2,4*
G04 #@! TO.N,-BATT*
X111760000Y-52545000D03*
G04 #@! TO.P,U2,5*
G04 #@! TO.N,Net-(U2-Pad5)*
X111760000Y-57945000D03*
G04 #@! TO.P,U2,6*
G04 #@! TO.N,/SCL2ESP*
X113030000Y-57945000D03*
G04 #@! TO.P,U2,7*
G04 #@! TO.N,/SCL2BUF*
X114300000Y-57945000D03*
G04 #@! TO.P,U2,8*
G04 #@! TO.N,+5V*
X115570000Y-57945000D03*
G04 #@! TD*
G04 #@! TO.P,U3,8*
G04 #@! TO.N,+5V*
X115570000Y-79535000D03*
G04 #@! TO.P,U3,7*
G04 #@! TO.N,/SCL3BUF*
X114300000Y-79535000D03*
G04 #@! TO.P,U3,6*
G04 #@! TO.N,/SCL3ESP*
X113030000Y-79535000D03*
G04 #@! TO.P,U3,5*
G04 #@! TO.N,Net-(U3-Pad5)*
X111760000Y-79535000D03*
G04 #@! TO.P,U3,4*
G04 #@! TO.N,-BATT*
X111760000Y-74135000D03*
G04 #@! TO.P,U3,3*
G04 #@! TO.N,/SDA3ESP*
X113030000Y-74135000D03*
G04 #@! TO.P,U3,2*
G04 #@! TO.N,/SDA3BUF*
X114300000Y-74135000D03*
G04 #@! TO.P,U3,1*
G04 #@! TO.N,Net-(U3-Pad1)*
X115570000Y-74135000D03*
G04 #@! TD*
D12*
G04 #@! TO.P,U10,1*
G04 #@! TO.N,+5V*
X93345000Y-24765000D03*
G04 #@! TO.P,U10,2*
G04 #@! TO.N,-BATT*
X93345000Y-27305000D03*
G04 #@! TO.P,U10,3*
G04 #@! TO.N,+BATT*
X93345000Y-29845000D03*
G04 #@! TO.P,U10,4*
G04 #@! TO.N,Net-(U10-Pad4)*
X93345000Y-32385000D03*
G04 #@! TD*
D16*
G04 #@! TO.N,/SCL3ESP*
G04 #@! TO.C,R1*
G36*
X112742505Y-81196204D02*
X112766773Y-81199804D01*
X112790572Y-81205765D01*
X112813671Y-81214030D01*
X112835850Y-81224520D01*
X112856893Y-81237132D01*
X112876599Y-81251747D01*
X112894777Y-81268223D01*
X112911253Y-81286401D01*
X112925868Y-81306107D01*
X112938480Y-81327150D01*
X112948970Y-81349329D01*
X112957235Y-81372428D01*
X112963196Y-81396227D01*
X112966796Y-81420495D01*
X112968000Y-81444999D01*
X112968000Y-82095001D01*
X112966796Y-82119505D01*
X112963196Y-82143773D01*
X112957235Y-82167572D01*
X112948970Y-82190671D01*
X112938480Y-82212850D01*
X112925868Y-82233893D01*
X112911253Y-82253599D01*
X112894777Y-82271777D01*
X112876599Y-82288253D01*
X112856893Y-82302868D01*
X112835850Y-82315480D01*
X112813671Y-82325970D01*
X112790572Y-82334235D01*
X112766773Y-82340196D01*
X112742505Y-82343796D01*
X112718001Y-82345000D01*
X111817999Y-82345000D01*
X111793495Y-82343796D01*
X111769227Y-82340196D01*
X111745428Y-82334235D01*
X111722329Y-82325970D01*
X111700150Y-82315480D01*
X111679107Y-82302868D01*
X111659401Y-82288253D01*
X111641223Y-82271777D01*
X111624747Y-82253599D01*
X111610132Y-82233893D01*
X111597520Y-82212850D01*
X111587030Y-82190671D01*
X111578765Y-82167572D01*
X111572804Y-82143773D01*
X111569204Y-82119505D01*
X111568000Y-82095001D01*
X111568000Y-81444999D01*
X111569204Y-81420495D01*
X111572804Y-81396227D01*
X111578765Y-81372428D01*
X111587030Y-81349329D01*
X111597520Y-81327150D01*
X111610132Y-81306107D01*
X111624747Y-81286401D01*
X111641223Y-81268223D01*
X111659401Y-81251747D01*
X111679107Y-81237132D01*
X111700150Y-81224520D01*
X111722329Y-81214030D01*
X111745428Y-81205765D01*
X111769227Y-81199804D01*
X111793495Y-81196204D01*
X111817999Y-81195000D01*
X112718001Y-81195000D01*
X112742505Y-81196204D01*
X112742505Y-81196204D01*
G37*
D17*
G04 #@! TD*
G04 #@! TO.P,R1,2*
G04 #@! TO.N,/SCL3ESP*
X112268000Y-81770000D03*
D16*
G04 #@! TO.N,+3V3*
G04 #@! TO.C,R1*
G36*
X112742505Y-83246204D02*
X112766773Y-83249804D01*
X112790572Y-83255765D01*
X112813671Y-83264030D01*
X112835850Y-83274520D01*
X112856893Y-83287132D01*
X112876599Y-83301747D01*
X112894777Y-83318223D01*
X112911253Y-83336401D01*
X112925868Y-83356107D01*
X112938480Y-83377150D01*
X112948970Y-83399329D01*
X112957235Y-83422428D01*
X112963196Y-83446227D01*
X112966796Y-83470495D01*
X112968000Y-83494999D01*
X112968000Y-84145001D01*
X112966796Y-84169505D01*
X112963196Y-84193773D01*
X112957235Y-84217572D01*
X112948970Y-84240671D01*
X112938480Y-84262850D01*
X112925868Y-84283893D01*
X112911253Y-84303599D01*
X112894777Y-84321777D01*
X112876599Y-84338253D01*
X112856893Y-84352868D01*
X112835850Y-84365480D01*
X112813671Y-84375970D01*
X112790572Y-84384235D01*
X112766773Y-84390196D01*
X112742505Y-84393796D01*
X112718001Y-84395000D01*
X111817999Y-84395000D01*
X111793495Y-84393796D01*
X111769227Y-84390196D01*
X111745428Y-84384235D01*
X111722329Y-84375970D01*
X111700150Y-84365480D01*
X111679107Y-84352868D01*
X111659401Y-84338253D01*
X111641223Y-84321777D01*
X111624747Y-84303599D01*
X111610132Y-84283893D01*
X111597520Y-84262850D01*
X111587030Y-84240671D01*
X111578765Y-84217572D01*
X111572804Y-84193773D01*
X111569204Y-84169505D01*
X111568000Y-84145001D01*
X111568000Y-83494999D01*
X111569204Y-83470495D01*
X111572804Y-83446227D01*
X111578765Y-83422428D01*
X111587030Y-83399329D01*
X111597520Y-83377150D01*
X111610132Y-83356107D01*
X111624747Y-83336401D01*
X111641223Y-83318223D01*
X111659401Y-83301747D01*
X111679107Y-83287132D01*
X111700150Y-83274520D01*
X111722329Y-83264030D01*
X111745428Y-83255765D01*
X111769227Y-83249804D01*
X111793495Y-83246204D01*
X111817999Y-83245000D01*
X112718001Y-83245000D01*
X112742505Y-83246204D01*
X112742505Y-83246204D01*
G37*
D17*
G04 #@! TD*
G04 #@! TO.P,R1,1*
G04 #@! TO.N,+3V3*
X112268000Y-83820000D03*
D16*
G04 #@! TO.N,/SDA3ESP*
G04 #@! TO.C,R2*
G36*
X112742505Y-71072204D02*
X112766773Y-71075804D01*
X112790572Y-71081765D01*
X112813671Y-71090030D01*
X112835850Y-71100520D01*
X112856893Y-71113132D01*
X112876599Y-71127747D01*
X112894777Y-71144223D01*
X112911253Y-71162401D01*
X112925868Y-71182107D01*
X112938480Y-71203150D01*
X112948970Y-71225329D01*
X112957235Y-71248428D01*
X112963196Y-71272227D01*
X112966796Y-71296495D01*
X112968000Y-71320999D01*
X112968000Y-71971001D01*
X112966796Y-71995505D01*
X112963196Y-72019773D01*
X112957235Y-72043572D01*
X112948970Y-72066671D01*
X112938480Y-72088850D01*
X112925868Y-72109893D01*
X112911253Y-72129599D01*
X112894777Y-72147777D01*
X112876599Y-72164253D01*
X112856893Y-72178868D01*
X112835850Y-72191480D01*
X112813671Y-72201970D01*
X112790572Y-72210235D01*
X112766773Y-72216196D01*
X112742505Y-72219796D01*
X112718001Y-72221000D01*
X111817999Y-72221000D01*
X111793495Y-72219796D01*
X111769227Y-72216196D01*
X111745428Y-72210235D01*
X111722329Y-72201970D01*
X111700150Y-72191480D01*
X111679107Y-72178868D01*
X111659401Y-72164253D01*
X111641223Y-72147777D01*
X111624747Y-72129599D01*
X111610132Y-72109893D01*
X111597520Y-72088850D01*
X111587030Y-72066671D01*
X111578765Y-72043572D01*
X111572804Y-72019773D01*
X111569204Y-71995505D01*
X111568000Y-71971001D01*
X111568000Y-71320999D01*
X111569204Y-71296495D01*
X111572804Y-71272227D01*
X111578765Y-71248428D01*
X111587030Y-71225329D01*
X111597520Y-71203150D01*
X111610132Y-71182107D01*
X111624747Y-71162401D01*
X111641223Y-71144223D01*
X111659401Y-71127747D01*
X111679107Y-71113132D01*
X111700150Y-71100520D01*
X111722329Y-71090030D01*
X111745428Y-71081765D01*
X111769227Y-71075804D01*
X111793495Y-71072204D01*
X111817999Y-71071000D01*
X112718001Y-71071000D01*
X112742505Y-71072204D01*
X112742505Y-71072204D01*
G37*
D17*
G04 #@! TD*
G04 #@! TO.P,R2,2*
G04 #@! TO.N,/SDA3ESP*
X112268000Y-71646000D03*
D16*
G04 #@! TO.N,+3V3*
G04 #@! TO.C,R2*
G36*
X112742505Y-69022204D02*
X112766773Y-69025804D01*
X112790572Y-69031765D01*
X112813671Y-69040030D01*
X112835850Y-69050520D01*
X112856893Y-69063132D01*
X112876599Y-69077747D01*
X112894777Y-69094223D01*
X112911253Y-69112401D01*
X112925868Y-69132107D01*
X112938480Y-69153150D01*
X112948970Y-69175329D01*
X112957235Y-69198428D01*
X112963196Y-69222227D01*
X112966796Y-69246495D01*
X112968000Y-69270999D01*
X112968000Y-69921001D01*
X112966796Y-69945505D01*
X112963196Y-69969773D01*
X112957235Y-69993572D01*
X112948970Y-70016671D01*
X112938480Y-70038850D01*
X112925868Y-70059893D01*
X112911253Y-70079599D01*
X112894777Y-70097777D01*
X112876599Y-70114253D01*
X112856893Y-70128868D01*
X112835850Y-70141480D01*
X112813671Y-70151970D01*
X112790572Y-70160235D01*
X112766773Y-70166196D01*
X112742505Y-70169796D01*
X112718001Y-70171000D01*
X111817999Y-70171000D01*
X111793495Y-70169796D01*
X111769227Y-70166196D01*
X111745428Y-70160235D01*
X111722329Y-70151970D01*
X111700150Y-70141480D01*
X111679107Y-70128868D01*
X111659401Y-70114253D01*
X111641223Y-70097777D01*
X111624747Y-70079599D01*
X111610132Y-70059893D01*
X111597520Y-70038850D01*
X111587030Y-70016671D01*
X111578765Y-69993572D01*
X111572804Y-69969773D01*
X111569204Y-69945505D01*
X111568000Y-69921001D01*
X111568000Y-69270999D01*
X111569204Y-69246495D01*
X111572804Y-69222227D01*
X111578765Y-69198428D01*
X111587030Y-69175329D01*
X111597520Y-69153150D01*
X111610132Y-69132107D01*
X111624747Y-69112401D01*
X111641223Y-69094223D01*
X111659401Y-69077747D01*
X111679107Y-69063132D01*
X111700150Y-69050520D01*
X111722329Y-69040030D01*
X111745428Y-69031765D01*
X111769227Y-69025804D01*
X111793495Y-69022204D01*
X111817999Y-69021000D01*
X112718001Y-69021000D01*
X112742505Y-69022204D01*
X112742505Y-69022204D01*
G37*
D17*
G04 #@! TD*
G04 #@! TO.P,R2,1*
G04 #@! TO.N,+3V3*
X112268000Y-69596000D03*
D16*
G04 #@! TO.N,/SCL2ESP*
G04 #@! TO.C,R3*
G36*
X112234505Y-59996204D02*
X112258773Y-59999804D01*
X112282572Y-60005765D01*
X112305671Y-60014030D01*
X112327850Y-60024520D01*
X112348893Y-60037132D01*
X112368599Y-60051747D01*
X112386777Y-60068223D01*
X112403253Y-60086401D01*
X112417868Y-60106107D01*
X112430480Y-60127150D01*
X112440970Y-60149329D01*
X112449235Y-60172428D01*
X112455196Y-60196227D01*
X112458796Y-60220495D01*
X112460000Y-60244999D01*
X112460000Y-60895001D01*
X112458796Y-60919505D01*
X112455196Y-60943773D01*
X112449235Y-60967572D01*
X112440970Y-60990671D01*
X112430480Y-61012850D01*
X112417868Y-61033893D01*
X112403253Y-61053599D01*
X112386777Y-61071777D01*
X112368599Y-61088253D01*
X112348893Y-61102868D01*
X112327850Y-61115480D01*
X112305671Y-61125970D01*
X112282572Y-61134235D01*
X112258773Y-61140196D01*
X112234505Y-61143796D01*
X112210001Y-61145000D01*
X111309999Y-61145000D01*
X111285495Y-61143796D01*
X111261227Y-61140196D01*
X111237428Y-61134235D01*
X111214329Y-61125970D01*
X111192150Y-61115480D01*
X111171107Y-61102868D01*
X111151401Y-61088253D01*
X111133223Y-61071777D01*
X111116747Y-61053599D01*
X111102132Y-61033893D01*
X111089520Y-61012850D01*
X111079030Y-60990671D01*
X111070765Y-60967572D01*
X111064804Y-60943773D01*
X111061204Y-60919505D01*
X111060000Y-60895001D01*
X111060000Y-60244999D01*
X111061204Y-60220495D01*
X111064804Y-60196227D01*
X111070765Y-60172428D01*
X111079030Y-60149329D01*
X111089520Y-60127150D01*
X111102132Y-60106107D01*
X111116747Y-60086401D01*
X111133223Y-60068223D01*
X111151401Y-60051747D01*
X111171107Y-60037132D01*
X111192150Y-60024520D01*
X111214329Y-60014030D01*
X111237428Y-60005765D01*
X111261227Y-59999804D01*
X111285495Y-59996204D01*
X111309999Y-59995000D01*
X112210001Y-59995000D01*
X112234505Y-59996204D01*
X112234505Y-59996204D01*
G37*
D17*
G04 #@! TD*
G04 #@! TO.P,R3,2*
G04 #@! TO.N,/SCL2ESP*
X111760000Y-60570000D03*
D16*
G04 #@! TO.N,+3V3*
G04 #@! TO.C,R3*
G36*
X112234505Y-62046204D02*
X112258773Y-62049804D01*
X112282572Y-62055765D01*
X112305671Y-62064030D01*
X112327850Y-62074520D01*
X112348893Y-62087132D01*
X112368599Y-62101747D01*
X112386777Y-62118223D01*
X112403253Y-62136401D01*
X112417868Y-62156107D01*
X112430480Y-62177150D01*
X112440970Y-62199329D01*
X112449235Y-62222428D01*
X112455196Y-62246227D01*
X112458796Y-62270495D01*
X112460000Y-62294999D01*
X112460000Y-62945001D01*
X112458796Y-62969505D01*
X112455196Y-62993773D01*
X112449235Y-63017572D01*
X112440970Y-63040671D01*
X112430480Y-63062850D01*
X112417868Y-63083893D01*
X112403253Y-63103599D01*
X112386777Y-63121777D01*
X112368599Y-63138253D01*
X112348893Y-63152868D01*
X112327850Y-63165480D01*
X112305671Y-63175970D01*
X112282572Y-63184235D01*
X112258773Y-63190196D01*
X112234505Y-63193796D01*
X112210001Y-63195000D01*
X111309999Y-63195000D01*
X111285495Y-63193796D01*
X111261227Y-63190196D01*
X111237428Y-63184235D01*
X111214329Y-63175970D01*
X111192150Y-63165480D01*
X111171107Y-63152868D01*
X111151401Y-63138253D01*
X111133223Y-63121777D01*
X111116747Y-63103599D01*
X111102132Y-63083893D01*
X111089520Y-63062850D01*
X111079030Y-63040671D01*
X111070765Y-63017572D01*
X111064804Y-62993773D01*
X111061204Y-62969505D01*
X111060000Y-62945001D01*
X111060000Y-62294999D01*
X111061204Y-62270495D01*
X111064804Y-62246227D01*
X111070765Y-62222428D01*
X111079030Y-62199329D01*
X111089520Y-62177150D01*
X111102132Y-62156107D01*
X111116747Y-62136401D01*
X111133223Y-62118223D01*
X111151401Y-62101747D01*
X111171107Y-62087132D01*
X111192150Y-62074520D01*
X111214329Y-62064030D01*
X111237428Y-62055765D01*
X111261227Y-62049804D01*
X111285495Y-62046204D01*
X111309999Y-62045000D01*
X112210001Y-62045000D01*
X112234505Y-62046204D01*
X112234505Y-62046204D01*
G37*
D17*
G04 #@! TD*
G04 #@! TO.P,R3,1*
G04 #@! TO.N,+3V3*
X111760000Y-62620000D03*
D16*
G04 #@! TO.N,+3V3*
G04 #@! TO.C,R4*
G36*
X112234505Y-47296204D02*
X112258773Y-47299804D01*
X112282572Y-47305765D01*
X112305671Y-47314030D01*
X112327850Y-47324520D01*
X112348893Y-47337132D01*
X112368599Y-47351747D01*
X112386777Y-47368223D01*
X112403253Y-47386401D01*
X112417868Y-47406107D01*
X112430480Y-47427150D01*
X112440970Y-47449329D01*
X112449235Y-47472428D01*
X112455196Y-47496227D01*
X112458796Y-47520495D01*
X112460000Y-47544999D01*
X112460000Y-48195001D01*
X112458796Y-48219505D01*
X112455196Y-48243773D01*
X112449235Y-48267572D01*
X112440970Y-48290671D01*
X112430480Y-48312850D01*
X112417868Y-48333893D01*
X112403253Y-48353599D01*
X112386777Y-48371777D01*
X112368599Y-48388253D01*
X112348893Y-48402868D01*
X112327850Y-48415480D01*
X112305671Y-48425970D01*
X112282572Y-48434235D01*
X112258773Y-48440196D01*
X112234505Y-48443796D01*
X112210001Y-48445000D01*
X111309999Y-48445000D01*
X111285495Y-48443796D01*
X111261227Y-48440196D01*
X111237428Y-48434235D01*
X111214329Y-48425970D01*
X111192150Y-48415480D01*
X111171107Y-48402868D01*
X111151401Y-48388253D01*
X111133223Y-48371777D01*
X111116747Y-48353599D01*
X111102132Y-48333893D01*
X111089520Y-48312850D01*
X111079030Y-48290671D01*
X111070765Y-48267572D01*
X111064804Y-48243773D01*
X111061204Y-48219505D01*
X111060000Y-48195001D01*
X111060000Y-47544999D01*
X111061204Y-47520495D01*
X111064804Y-47496227D01*
X111070765Y-47472428D01*
X111079030Y-47449329D01*
X111089520Y-47427150D01*
X111102132Y-47406107D01*
X111116747Y-47386401D01*
X111133223Y-47368223D01*
X111151401Y-47351747D01*
X111171107Y-47337132D01*
X111192150Y-47324520D01*
X111214329Y-47314030D01*
X111237428Y-47305765D01*
X111261227Y-47299804D01*
X111285495Y-47296204D01*
X111309999Y-47295000D01*
X112210001Y-47295000D01*
X112234505Y-47296204D01*
X112234505Y-47296204D01*
G37*
D17*
G04 #@! TD*
G04 #@! TO.P,R4,1*
G04 #@! TO.N,+3V3*
X111760000Y-47870000D03*
D16*
G04 #@! TO.N,/SDA2ESP*
G04 #@! TO.C,R4*
G36*
X112234505Y-49346204D02*
X112258773Y-49349804D01*
X112282572Y-49355765D01*
X112305671Y-49364030D01*
X112327850Y-49374520D01*
X112348893Y-49387132D01*
X112368599Y-49401747D01*
X112386777Y-49418223D01*
X112403253Y-49436401D01*
X112417868Y-49456107D01*
X112430480Y-49477150D01*
X112440970Y-49499329D01*
X112449235Y-49522428D01*
X112455196Y-49546227D01*
X112458796Y-49570495D01*
X112460000Y-49594999D01*
X112460000Y-50245001D01*
X112458796Y-50269505D01*
X112455196Y-50293773D01*
X112449235Y-50317572D01*
X112440970Y-50340671D01*
X112430480Y-50362850D01*
X112417868Y-50383893D01*
X112403253Y-50403599D01*
X112386777Y-50421777D01*
X112368599Y-50438253D01*
X112348893Y-50452868D01*
X112327850Y-50465480D01*
X112305671Y-50475970D01*
X112282572Y-50484235D01*
X112258773Y-50490196D01*
X112234505Y-50493796D01*
X112210001Y-50495000D01*
X111309999Y-50495000D01*
X111285495Y-50493796D01*
X111261227Y-50490196D01*
X111237428Y-50484235D01*
X111214329Y-50475970D01*
X111192150Y-50465480D01*
X111171107Y-50452868D01*
X111151401Y-50438253D01*
X111133223Y-50421777D01*
X111116747Y-50403599D01*
X111102132Y-50383893D01*
X111089520Y-50362850D01*
X111079030Y-50340671D01*
X111070765Y-50317572D01*
X111064804Y-50293773D01*
X111061204Y-50269505D01*
X111060000Y-50245001D01*
X111060000Y-49594999D01*
X111061204Y-49570495D01*
X111064804Y-49546227D01*
X111070765Y-49522428D01*
X111079030Y-49499329D01*
X111089520Y-49477150D01*
X111102132Y-49456107D01*
X111116747Y-49436401D01*
X111133223Y-49418223D01*
X111151401Y-49401747D01*
X111171107Y-49387132D01*
X111192150Y-49374520D01*
X111214329Y-49364030D01*
X111237428Y-49355765D01*
X111261227Y-49349804D01*
X111285495Y-49346204D01*
X111309999Y-49345000D01*
X112210001Y-49345000D01*
X112234505Y-49346204D01*
X112234505Y-49346204D01*
G37*
D17*
G04 #@! TD*
G04 #@! TO.P,R4,2*
G04 #@! TO.N,/SDA2ESP*
X111760000Y-49920000D03*
D16*
G04 #@! TO.N,/SCL1ESP*
G04 #@! TO.C,R5*
G36*
X101439505Y-49346204D02*
X101463773Y-49349804D01*
X101487572Y-49355765D01*
X101510671Y-49364030D01*
X101532850Y-49374520D01*
X101553893Y-49387132D01*
X101573599Y-49401747D01*
X101591777Y-49418223D01*
X101608253Y-49436401D01*
X101622868Y-49456107D01*
X101635480Y-49477150D01*
X101645970Y-49499329D01*
X101654235Y-49522428D01*
X101660196Y-49546227D01*
X101663796Y-49570495D01*
X101665000Y-49594999D01*
X101665000Y-50245001D01*
X101663796Y-50269505D01*
X101660196Y-50293773D01*
X101654235Y-50317572D01*
X101645970Y-50340671D01*
X101635480Y-50362850D01*
X101622868Y-50383893D01*
X101608253Y-50403599D01*
X101591777Y-50421777D01*
X101573599Y-50438253D01*
X101553893Y-50452868D01*
X101532850Y-50465480D01*
X101510671Y-50475970D01*
X101487572Y-50484235D01*
X101463773Y-50490196D01*
X101439505Y-50493796D01*
X101415001Y-50495000D01*
X100514999Y-50495000D01*
X100490495Y-50493796D01*
X100466227Y-50490196D01*
X100442428Y-50484235D01*
X100419329Y-50475970D01*
X100397150Y-50465480D01*
X100376107Y-50452868D01*
X100356401Y-50438253D01*
X100338223Y-50421777D01*
X100321747Y-50403599D01*
X100307132Y-50383893D01*
X100294520Y-50362850D01*
X100284030Y-50340671D01*
X100275765Y-50317572D01*
X100269804Y-50293773D01*
X100266204Y-50269505D01*
X100265000Y-50245001D01*
X100265000Y-49594999D01*
X100266204Y-49570495D01*
X100269804Y-49546227D01*
X100275765Y-49522428D01*
X100284030Y-49499329D01*
X100294520Y-49477150D01*
X100307132Y-49456107D01*
X100321747Y-49436401D01*
X100338223Y-49418223D01*
X100356401Y-49401747D01*
X100376107Y-49387132D01*
X100397150Y-49374520D01*
X100419329Y-49364030D01*
X100442428Y-49355765D01*
X100466227Y-49349804D01*
X100490495Y-49346204D01*
X100514999Y-49345000D01*
X101415001Y-49345000D01*
X101439505Y-49346204D01*
X101439505Y-49346204D01*
G37*
D17*
G04 #@! TD*
G04 #@! TO.P,R5,2*
G04 #@! TO.N,/SCL1ESP*
X100965000Y-49920000D03*
D16*
G04 #@! TO.N,+3V3*
G04 #@! TO.C,R5*
G36*
X101439505Y-47296204D02*
X101463773Y-47299804D01*
X101487572Y-47305765D01*
X101510671Y-47314030D01*
X101532850Y-47324520D01*
X101553893Y-47337132D01*
X101573599Y-47351747D01*
X101591777Y-47368223D01*
X101608253Y-47386401D01*
X101622868Y-47406107D01*
X101635480Y-47427150D01*
X101645970Y-47449329D01*
X101654235Y-47472428D01*
X101660196Y-47496227D01*
X101663796Y-47520495D01*
X101665000Y-47544999D01*
X101665000Y-48195001D01*
X101663796Y-48219505D01*
X101660196Y-48243773D01*
X101654235Y-48267572D01*
X101645970Y-48290671D01*
X101635480Y-48312850D01*
X101622868Y-48333893D01*
X101608253Y-48353599D01*
X101591777Y-48371777D01*
X101573599Y-48388253D01*
X101553893Y-48402868D01*
X101532850Y-48415480D01*
X101510671Y-48425970D01*
X101487572Y-48434235D01*
X101463773Y-48440196D01*
X101439505Y-48443796D01*
X101415001Y-48445000D01*
X100514999Y-48445000D01*
X100490495Y-48443796D01*
X100466227Y-48440196D01*
X100442428Y-48434235D01*
X100419329Y-48425970D01*
X100397150Y-48415480D01*
X100376107Y-48402868D01*
X100356401Y-48388253D01*
X100338223Y-48371777D01*
X100321747Y-48353599D01*
X100307132Y-48333893D01*
X100294520Y-48312850D01*
X100284030Y-48290671D01*
X100275765Y-48267572D01*
X100269804Y-48243773D01*
X100266204Y-48219505D01*
X100265000Y-48195001D01*
X100265000Y-47544999D01*
X100266204Y-47520495D01*
X100269804Y-47496227D01*
X100275765Y-47472428D01*
X100284030Y-47449329D01*
X100294520Y-47427150D01*
X100307132Y-47406107D01*
X100321747Y-47386401D01*
X100338223Y-47368223D01*
X100356401Y-47351747D01*
X100376107Y-47337132D01*
X100397150Y-47324520D01*
X100419329Y-47314030D01*
X100442428Y-47305765D01*
X100466227Y-47299804D01*
X100490495Y-47296204D01*
X100514999Y-47295000D01*
X101415001Y-47295000D01*
X101439505Y-47296204D01*
X101439505Y-47296204D01*
G37*
D17*
G04 #@! TD*
G04 #@! TO.P,R5,1*
G04 #@! TO.N,+3V3*
X100965000Y-47870000D03*
D16*
G04 #@! TO.N,/SDA1ESP*
G04 #@! TO.C,R6*
G36*
X101439505Y-59996204D02*
X101463773Y-59999804D01*
X101487572Y-60005765D01*
X101510671Y-60014030D01*
X101532850Y-60024520D01*
X101553893Y-60037132D01*
X101573599Y-60051747D01*
X101591777Y-60068223D01*
X101608253Y-60086401D01*
X101622868Y-60106107D01*
X101635480Y-60127150D01*
X101645970Y-60149329D01*
X101654235Y-60172428D01*
X101660196Y-60196227D01*
X101663796Y-60220495D01*
X101665000Y-60244999D01*
X101665000Y-60895001D01*
X101663796Y-60919505D01*
X101660196Y-60943773D01*
X101654235Y-60967572D01*
X101645970Y-60990671D01*
X101635480Y-61012850D01*
X101622868Y-61033893D01*
X101608253Y-61053599D01*
X101591777Y-61071777D01*
X101573599Y-61088253D01*
X101553893Y-61102868D01*
X101532850Y-61115480D01*
X101510671Y-61125970D01*
X101487572Y-61134235D01*
X101463773Y-61140196D01*
X101439505Y-61143796D01*
X101415001Y-61145000D01*
X100514999Y-61145000D01*
X100490495Y-61143796D01*
X100466227Y-61140196D01*
X100442428Y-61134235D01*
X100419329Y-61125970D01*
X100397150Y-61115480D01*
X100376107Y-61102868D01*
X100356401Y-61088253D01*
X100338223Y-61071777D01*
X100321747Y-61053599D01*
X100307132Y-61033893D01*
X100294520Y-61012850D01*
X100284030Y-60990671D01*
X100275765Y-60967572D01*
X100269804Y-60943773D01*
X100266204Y-60919505D01*
X100265000Y-60895001D01*
X100265000Y-60244999D01*
X100266204Y-60220495D01*
X100269804Y-60196227D01*
X100275765Y-60172428D01*
X100284030Y-60149329D01*
X100294520Y-60127150D01*
X100307132Y-60106107D01*
X100321747Y-60086401D01*
X100338223Y-60068223D01*
X100356401Y-60051747D01*
X100376107Y-60037132D01*
X100397150Y-60024520D01*
X100419329Y-60014030D01*
X100442428Y-60005765D01*
X100466227Y-59999804D01*
X100490495Y-59996204D01*
X100514999Y-59995000D01*
X101415001Y-59995000D01*
X101439505Y-59996204D01*
X101439505Y-59996204D01*
G37*
D17*
G04 #@! TD*
G04 #@! TO.P,R6,2*
G04 #@! TO.N,/SDA1ESP*
X100965000Y-60570000D03*
D16*
G04 #@! TO.N,+3V3*
G04 #@! TO.C,R6*
G36*
X101439505Y-62046204D02*
X101463773Y-62049804D01*
X101487572Y-62055765D01*
X101510671Y-62064030D01*
X101532850Y-62074520D01*
X101553893Y-62087132D01*
X101573599Y-62101747D01*
X101591777Y-62118223D01*
X101608253Y-62136401D01*
X101622868Y-62156107D01*
X101635480Y-62177150D01*
X101645970Y-62199329D01*
X101654235Y-62222428D01*
X101660196Y-62246227D01*
X101663796Y-62270495D01*
X101665000Y-62294999D01*
X101665000Y-62945001D01*
X101663796Y-62969505D01*
X101660196Y-62993773D01*
X101654235Y-63017572D01*
X101645970Y-63040671D01*
X101635480Y-63062850D01*
X101622868Y-63083893D01*
X101608253Y-63103599D01*
X101591777Y-63121777D01*
X101573599Y-63138253D01*
X101553893Y-63152868D01*
X101532850Y-63165480D01*
X101510671Y-63175970D01*
X101487572Y-63184235D01*
X101463773Y-63190196D01*
X101439505Y-63193796D01*
X101415001Y-63195000D01*
X100514999Y-63195000D01*
X100490495Y-63193796D01*
X100466227Y-63190196D01*
X100442428Y-63184235D01*
X100419329Y-63175970D01*
X100397150Y-63165480D01*
X100376107Y-63152868D01*
X100356401Y-63138253D01*
X100338223Y-63121777D01*
X100321747Y-63103599D01*
X100307132Y-63083893D01*
X100294520Y-63062850D01*
X100284030Y-63040671D01*
X100275765Y-63017572D01*
X100269804Y-62993773D01*
X100266204Y-62969505D01*
X100265000Y-62945001D01*
X100265000Y-62294999D01*
X100266204Y-62270495D01*
X100269804Y-62246227D01*
X100275765Y-62222428D01*
X100284030Y-62199329D01*
X100294520Y-62177150D01*
X100307132Y-62156107D01*
X100321747Y-62136401D01*
X100338223Y-62118223D01*
X100356401Y-62101747D01*
X100376107Y-62087132D01*
X100397150Y-62074520D01*
X100419329Y-62064030D01*
X100442428Y-62055765D01*
X100466227Y-62049804D01*
X100490495Y-62046204D01*
X100514999Y-62045000D01*
X101415001Y-62045000D01*
X101439505Y-62046204D01*
X101439505Y-62046204D01*
G37*
D17*
G04 #@! TD*
G04 #@! TO.P,R6,1*
G04 #@! TO.N,+3V3*
X100965000Y-62620000D03*
D16*
G04 #@! TO.N,+3V3*
G04 #@! TO.C,R7*
G36*
X101439505Y-69131204D02*
X101463773Y-69134804D01*
X101487572Y-69140765D01*
X101510671Y-69149030D01*
X101532850Y-69159520D01*
X101553893Y-69172132D01*
X101573599Y-69186747D01*
X101591777Y-69203223D01*
X101608253Y-69221401D01*
X101622868Y-69241107D01*
X101635480Y-69262150D01*
X101645970Y-69284329D01*
X101654235Y-69307428D01*
X101660196Y-69331227D01*
X101663796Y-69355495D01*
X101665000Y-69379999D01*
X101665000Y-70030001D01*
X101663796Y-70054505D01*
X101660196Y-70078773D01*
X101654235Y-70102572D01*
X101645970Y-70125671D01*
X101635480Y-70147850D01*
X101622868Y-70168893D01*
X101608253Y-70188599D01*
X101591777Y-70206777D01*
X101573599Y-70223253D01*
X101553893Y-70237868D01*
X101532850Y-70250480D01*
X101510671Y-70260970D01*
X101487572Y-70269235D01*
X101463773Y-70275196D01*
X101439505Y-70278796D01*
X101415001Y-70280000D01*
X100514999Y-70280000D01*
X100490495Y-70278796D01*
X100466227Y-70275196D01*
X100442428Y-70269235D01*
X100419329Y-70260970D01*
X100397150Y-70250480D01*
X100376107Y-70237868D01*
X100356401Y-70223253D01*
X100338223Y-70206777D01*
X100321747Y-70188599D01*
X100307132Y-70168893D01*
X100294520Y-70147850D01*
X100284030Y-70125671D01*
X100275765Y-70102572D01*
X100269804Y-70078773D01*
X100266204Y-70054505D01*
X100265000Y-70030001D01*
X100265000Y-69379999D01*
X100266204Y-69355495D01*
X100269804Y-69331227D01*
X100275765Y-69307428D01*
X100284030Y-69284329D01*
X100294520Y-69262150D01*
X100307132Y-69241107D01*
X100321747Y-69221401D01*
X100338223Y-69203223D01*
X100356401Y-69186747D01*
X100376107Y-69172132D01*
X100397150Y-69159520D01*
X100419329Y-69149030D01*
X100442428Y-69140765D01*
X100466227Y-69134804D01*
X100490495Y-69131204D01*
X100514999Y-69130000D01*
X101415001Y-69130000D01*
X101439505Y-69131204D01*
X101439505Y-69131204D01*
G37*
D17*
G04 #@! TD*
G04 #@! TO.P,R7,1*
G04 #@! TO.N,+3V3*
X100965000Y-69705000D03*
D16*
G04 #@! TO.N,/SCL0ESP*
G04 #@! TO.C,R7*
G36*
X101439505Y-71181204D02*
X101463773Y-71184804D01*
X101487572Y-71190765D01*
X101510671Y-71199030D01*
X101532850Y-71209520D01*
X101553893Y-71222132D01*
X101573599Y-71236747D01*
X101591777Y-71253223D01*
X101608253Y-71271401D01*
X101622868Y-71291107D01*
X101635480Y-71312150D01*
X101645970Y-71334329D01*
X101654235Y-71357428D01*
X101660196Y-71381227D01*
X101663796Y-71405495D01*
X101665000Y-71429999D01*
X101665000Y-72080001D01*
X101663796Y-72104505D01*
X101660196Y-72128773D01*
X101654235Y-72152572D01*
X101645970Y-72175671D01*
X101635480Y-72197850D01*
X101622868Y-72218893D01*
X101608253Y-72238599D01*
X101591777Y-72256777D01*
X101573599Y-72273253D01*
X101553893Y-72287868D01*
X101532850Y-72300480D01*
X101510671Y-72310970D01*
X101487572Y-72319235D01*
X101463773Y-72325196D01*
X101439505Y-72328796D01*
X101415001Y-72330000D01*
X100514999Y-72330000D01*
X100490495Y-72328796D01*
X100466227Y-72325196D01*
X100442428Y-72319235D01*
X100419329Y-72310970D01*
X100397150Y-72300480D01*
X100376107Y-72287868D01*
X100356401Y-72273253D01*
X100338223Y-72256777D01*
X100321747Y-72238599D01*
X100307132Y-72218893D01*
X100294520Y-72197850D01*
X100284030Y-72175671D01*
X100275765Y-72152572D01*
X100269804Y-72128773D01*
X100266204Y-72104505D01*
X100265000Y-72080001D01*
X100265000Y-71429999D01*
X100266204Y-71405495D01*
X100269804Y-71381227D01*
X100275765Y-71357428D01*
X100284030Y-71334329D01*
X100294520Y-71312150D01*
X100307132Y-71291107D01*
X100321747Y-71271401D01*
X100338223Y-71253223D01*
X100356401Y-71236747D01*
X100376107Y-71222132D01*
X100397150Y-71209520D01*
X100419329Y-71199030D01*
X100442428Y-71190765D01*
X100466227Y-71184804D01*
X100490495Y-71181204D01*
X100514999Y-71180000D01*
X101415001Y-71180000D01*
X101439505Y-71181204D01*
X101439505Y-71181204D01*
G37*
D17*
G04 #@! TD*
G04 #@! TO.P,R7,2*
G04 #@! TO.N,/SCL0ESP*
X100965000Y-71755000D03*
D16*
G04 #@! TO.N,+3V3*
G04 #@! TO.C,R8*
G36*
X101439505Y-83391204D02*
X101463773Y-83394804D01*
X101487572Y-83400765D01*
X101510671Y-83409030D01*
X101532850Y-83419520D01*
X101553893Y-83432132D01*
X101573599Y-83446747D01*
X101591777Y-83463223D01*
X101608253Y-83481401D01*
X101622868Y-83501107D01*
X101635480Y-83522150D01*
X101645970Y-83544329D01*
X101654235Y-83567428D01*
X101660196Y-83591227D01*
X101663796Y-83615495D01*
X101665000Y-83639999D01*
X101665000Y-84290001D01*
X101663796Y-84314505D01*
X101660196Y-84338773D01*
X101654235Y-84362572D01*
X101645970Y-84385671D01*
X101635480Y-84407850D01*
X101622868Y-84428893D01*
X101608253Y-84448599D01*
X101591777Y-84466777D01*
X101573599Y-84483253D01*
X101553893Y-84497868D01*
X101532850Y-84510480D01*
X101510671Y-84520970D01*
X101487572Y-84529235D01*
X101463773Y-84535196D01*
X101439505Y-84538796D01*
X101415001Y-84540000D01*
X100514999Y-84540000D01*
X100490495Y-84538796D01*
X100466227Y-84535196D01*
X100442428Y-84529235D01*
X100419329Y-84520970D01*
X100397150Y-84510480D01*
X100376107Y-84497868D01*
X100356401Y-84483253D01*
X100338223Y-84466777D01*
X100321747Y-84448599D01*
X100307132Y-84428893D01*
X100294520Y-84407850D01*
X100284030Y-84385671D01*
X100275765Y-84362572D01*
X100269804Y-84338773D01*
X100266204Y-84314505D01*
X100265000Y-84290001D01*
X100265000Y-83639999D01*
X100266204Y-83615495D01*
X100269804Y-83591227D01*
X100275765Y-83567428D01*
X100284030Y-83544329D01*
X100294520Y-83522150D01*
X100307132Y-83501107D01*
X100321747Y-83481401D01*
X100338223Y-83463223D01*
X100356401Y-83446747D01*
X100376107Y-83432132D01*
X100397150Y-83419520D01*
X100419329Y-83409030D01*
X100442428Y-83400765D01*
X100466227Y-83394804D01*
X100490495Y-83391204D01*
X100514999Y-83390000D01*
X101415001Y-83390000D01*
X101439505Y-83391204D01*
X101439505Y-83391204D01*
G37*
D17*
G04 #@! TD*
G04 #@! TO.P,R8,1*
G04 #@! TO.N,+3V3*
X100965000Y-83965000D03*
D16*
G04 #@! TO.N,/SDA0ESP*
G04 #@! TO.C,R8*
G36*
X101439505Y-81341204D02*
X101463773Y-81344804D01*
X101487572Y-81350765D01*
X101510671Y-81359030D01*
X101532850Y-81369520D01*
X101553893Y-81382132D01*
X101573599Y-81396747D01*
X101591777Y-81413223D01*
X101608253Y-81431401D01*
X101622868Y-81451107D01*
X101635480Y-81472150D01*
X101645970Y-81494329D01*
X101654235Y-81517428D01*
X101660196Y-81541227D01*
X101663796Y-81565495D01*
X101665000Y-81589999D01*
X101665000Y-82240001D01*
X101663796Y-82264505D01*
X101660196Y-82288773D01*
X101654235Y-82312572D01*
X101645970Y-82335671D01*
X101635480Y-82357850D01*
X101622868Y-82378893D01*
X101608253Y-82398599D01*
X101591777Y-82416777D01*
X101573599Y-82433253D01*
X101553893Y-82447868D01*
X101532850Y-82460480D01*
X101510671Y-82470970D01*
X101487572Y-82479235D01*
X101463773Y-82485196D01*
X101439505Y-82488796D01*
X101415001Y-82490000D01*
X100514999Y-82490000D01*
X100490495Y-82488796D01*
X100466227Y-82485196D01*
X100442428Y-82479235D01*
X100419329Y-82470970D01*
X100397150Y-82460480D01*
X100376107Y-82447868D01*
X100356401Y-82433253D01*
X100338223Y-82416777D01*
X100321747Y-82398599D01*
X100307132Y-82378893D01*
X100294520Y-82357850D01*
X100284030Y-82335671D01*
X100275765Y-82312572D01*
X100269804Y-82288773D01*
X100266204Y-82264505D01*
X100265000Y-82240001D01*
X100265000Y-81589999D01*
X100266204Y-81565495D01*
X100269804Y-81541227D01*
X100275765Y-81517428D01*
X100284030Y-81494329D01*
X100294520Y-81472150D01*
X100307132Y-81451107D01*
X100321747Y-81431401D01*
X100338223Y-81413223D01*
X100356401Y-81396747D01*
X100376107Y-81382132D01*
X100397150Y-81369520D01*
X100419329Y-81359030D01*
X100442428Y-81350765D01*
X100466227Y-81344804D01*
X100490495Y-81341204D01*
X100514999Y-81340000D01*
X101415001Y-81340000D01*
X101439505Y-81341204D01*
X101439505Y-81341204D01*
G37*
D17*
G04 #@! TD*
G04 #@! TO.P,R8,2*
G04 #@! TO.N,/SDA0ESP*
X100965000Y-81915000D03*
D16*
G04 #@! TO.N,/SCL3BUF*
G04 #@! TO.C,R9*
G36*
X115282505Y-81214204D02*
X115306773Y-81217804D01*
X115330572Y-81223765D01*
X115353671Y-81232030D01*
X115375850Y-81242520D01*
X115396893Y-81255132D01*
X115416599Y-81269747D01*
X115434777Y-81286223D01*
X115451253Y-81304401D01*
X115465868Y-81324107D01*
X115478480Y-81345150D01*
X115488970Y-81367329D01*
X115497235Y-81390428D01*
X115503196Y-81414227D01*
X115506796Y-81438495D01*
X115508000Y-81462999D01*
X115508000Y-82113001D01*
X115506796Y-82137505D01*
X115503196Y-82161773D01*
X115497235Y-82185572D01*
X115488970Y-82208671D01*
X115478480Y-82230850D01*
X115465868Y-82251893D01*
X115451253Y-82271599D01*
X115434777Y-82289777D01*
X115416599Y-82306253D01*
X115396893Y-82320868D01*
X115375850Y-82333480D01*
X115353671Y-82343970D01*
X115330572Y-82352235D01*
X115306773Y-82358196D01*
X115282505Y-82361796D01*
X115258001Y-82363000D01*
X114357999Y-82363000D01*
X114333495Y-82361796D01*
X114309227Y-82358196D01*
X114285428Y-82352235D01*
X114262329Y-82343970D01*
X114240150Y-82333480D01*
X114219107Y-82320868D01*
X114199401Y-82306253D01*
X114181223Y-82289777D01*
X114164747Y-82271599D01*
X114150132Y-82251893D01*
X114137520Y-82230850D01*
X114127030Y-82208671D01*
X114118765Y-82185572D01*
X114112804Y-82161773D01*
X114109204Y-82137505D01*
X114108000Y-82113001D01*
X114108000Y-81462999D01*
X114109204Y-81438495D01*
X114112804Y-81414227D01*
X114118765Y-81390428D01*
X114127030Y-81367329D01*
X114137520Y-81345150D01*
X114150132Y-81324107D01*
X114164747Y-81304401D01*
X114181223Y-81286223D01*
X114199401Y-81269747D01*
X114219107Y-81255132D01*
X114240150Y-81242520D01*
X114262329Y-81232030D01*
X114285428Y-81223765D01*
X114309227Y-81217804D01*
X114333495Y-81214204D01*
X114357999Y-81213000D01*
X115258001Y-81213000D01*
X115282505Y-81214204D01*
X115282505Y-81214204D01*
G37*
D17*
G04 #@! TD*
G04 #@! TO.P,R9,2*
G04 #@! TO.N,/SCL3BUF*
X114808000Y-81788000D03*
D16*
G04 #@! TO.N,+5V*
G04 #@! TO.C,R9*
G36*
X115282505Y-83264204D02*
X115306773Y-83267804D01*
X115330572Y-83273765D01*
X115353671Y-83282030D01*
X115375850Y-83292520D01*
X115396893Y-83305132D01*
X115416599Y-83319747D01*
X115434777Y-83336223D01*
X115451253Y-83354401D01*
X115465868Y-83374107D01*
X115478480Y-83395150D01*
X115488970Y-83417329D01*
X115497235Y-83440428D01*
X115503196Y-83464227D01*
X115506796Y-83488495D01*
X115508000Y-83512999D01*
X115508000Y-84163001D01*
X115506796Y-84187505D01*
X115503196Y-84211773D01*
X115497235Y-84235572D01*
X115488970Y-84258671D01*
X115478480Y-84280850D01*
X115465868Y-84301893D01*
X115451253Y-84321599D01*
X115434777Y-84339777D01*
X115416599Y-84356253D01*
X115396893Y-84370868D01*
X115375850Y-84383480D01*
X115353671Y-84393970D01*
X115330572Y-84402235D01*
X115306773Y-84408196D01*
X115282505Y-84411796D01*
X115258001Y-84413000D01*
X114357999Y-84413000D01*
X114333495Y-84411796D01*
X114309227Y-84408196D01*
X114285428Y-84402235D01*
X114262329Y-84393970D01*
X114240150Y-84383480D01*
X114219107Y-84370868D01*
X114199401Y-84356253D01*
X114181223Y-84339777D01*
X114164747Y-84321599D01*
X114150132Y-84301893D01*
X114137520Y-84280850D01*
X114127030Y-84258671D01*
X114118765Y-84235572D01*
X114112804Y-84211773D01*
X114109204Y-84187505D01*
X114108000Y-84163001D01*
X114108000Y-83512999D01*
X114109204Y-83488495D01*
X114112804Y-83464227D01*
X114118765Y-83440428D01*
X114127030Y-83417329D01*
X114137520Y-83395150D01*
X114150132Y-83374107D01*
X114164747Y-83354401D01*
X114181223Y-83336223D01*
X114199401Y-83319747D01*
X114219107Y-83305132D01*
X114240150Y-83292520D01*
X114262329Y-83282030D01*
X114285428Y-83273765D01*
X114309227Y-83267804D01*
X114333495Y-83264204D01*
X114357999Y-83263000D01*
X115258001Y-83263000D01*
X115282505Y-83264204D01*
X115282505Y-83264204D01*
G37*
D17*
G04 #@! TD*
G04 #@! TO.P,R9,1*
G04 #@! TO.N,+5V*
X114808000Y-83838000D03*
D16*
G04 #@! TO.N,+5V*
G04 #@! TO.C,R10*
G36*
X115282505Y-69013204D02*
X115306773Y-69016804D01*
X115330572Y-69022765D01*
X115353671Y-69031030D01*
X115375850Y-69041520D01*
X115396893Y-69054132D01*
X115416599Y-69068747D01*
X115434777Y-69085223D01*
X115451253Y-69103401D01*
X115465868Y-69123107D01*
X115478480Y-69144150D01*
X115488970Y-69166329D01*
X115497235Y-69189428D01*
X115503196Y-69213227D01*
X115506796Y-69237495D01*
X115508000Y-69261999D01*
X115508000Y-69912001D01*
X115506796Y-69936505D01*
X115503196Y-69960773D01*
X115497235Y-69984572D01*
X115488970Y-70007671D01*
X115478480Y-70029850D01*
X115465868Y-70050893D01*
X115451253Y-70070599D01*
X115434777Y-70088777D01*
X115416599Y-70105253D01*
X115396893Y-70119868D01*
X115375850Y-70132480D01*
X115353671Y-70142970D01*
X115330572Y-70151235D01*
X115306773Y-70157196D01*
X115282505Y-70160796D01*
X115258001Y-70162000D01*
X114357999Y-70162000D01*
X114333495Y-70160796D01*
X114309227Y-70157196D01*
X114285428Y-70151235D01*
X114262329Y-70142970D01*
X114240150Y-70132480D01*
X114219107Y-70119868D01*
X114199401Y-70105253D01*
X114181223Y-70088777D01*
X114164747Y-70070599D01*
X114150132Y-70050893D01*
X114137520Y-70029850D01*
X114127030Y-70007671D01*
X114118765Y-69984572D01*
X114112804Y-69960773D01*
X114109204Y-69936505D01*
X114108000Y-69912001D01*
X114108000Y-69261999D01*
X114109204Y-69237495D01*
X114112804Y-69213227D01*
X114118765Y-69189428D01*
X114127030Y-69166329D01*
X114137520Y-69144150D01*
X114150132Y-69123107D01*
X114164747Y-69103401D01*
X114181223Y-69085223D01*
X114199401Y-69068747D01*
X114219107Y-69054132D01*
X114240150Y-69041520D01*
X114262329Y-69031030D01*
X114285428Y-69022765D01*
X114309227Y-69016804D01*
X114333495Y-69013204D01*
X114357999Y-69012000D01*
X115258001Y-69012000D01*
X115282505Y-69013204D01*
X115282505Y-69013204D01*
G37*
D17*
G04 #@! TD*
G04 #@! TO.P,R10,1*
G04 #@! TO.N,+5V*
X114808000Y-69587000D03*
D16*
G04 #@! TO.N,/SDA3BUF*
G04 #@! TO.C,R10*
G36*
X115282505Y-71063204D02*
X115306773Y-71066804D01*
X115330572Y-71072765D01*
X115353671Y-71081030D01*
X115375850Y-71091520D01*
X115396893Y-71104132D01*
X115416599Y-71118747D01*
X115434777Y-71135223D01*
X115451253Y-71153401D01*
X115465868Y-71173107D01*
X115478480Y-71194150D01*
X115488970Y-71216329D01*
X115497235Y-71239428D01*
X115503196Y-71263227D01*
X115506796Y-71287495D01*
X115508000Y-71311999D01*
X115508000Y-71962001D01*
X115506796Y-71986505D01*
X115503196Y-72010773D01*
X115497235Y-72034572D01*
X115488970Y-72057671D01*
X115478480Y-72079850D01*
X115465868Y-72100893D01*
X115451253Y-72120599D01*
X115434777Y-72138777D01*
X115416599Y-72155253D01*
X115396893Y-72169868D01*
X115375850Y-72182480D01*
X115353671Y-72192970D01*
X115330572Y-72201235D01*
X115306773Y-72207196D01*
X115282505Y-72210796D01*
X115258001Y-72212000D01*
X114357999Y-72212000D01*
X114333495Y-72210796D01*
X114309227Y-72207196D01*
X114285428Y-72201235D01*
X114262329Y-72192970D01*
X114240150Y-72182480D01*
X114219107Y-72169868D01*
X114199401Y-72155253D01*
X114181223Y-72138777D01*
X114164747Y-72120599D01*
X114150132Y-72100893D01*
X114137520Y-72079850D01*
X114127030Y-72057671D01*
X114118765Y-72034572D01*
X114112804Y-72010773D01*
X114109204Y-71986505D01*
X114108000Y-71962001D01*
X114108000Y-71311999D01*
X114109204Y-71287495D01*
X114112804Y-71263227D01*
X114118765Y-71239428D01*
X114127030Y-71216329D01*
X114137520Y-71194150D01*
X114150132Y-71173107D01*
X114164747Y-71153401D01*
X114181223Y-71135223D01*
X114199401Y-71118747D01*
X114219107Y-71104132D01*
X114240150Y-71091520D01*
X114262329Y-71081030D01*
X114285428Y-71072765D01*
X114309227Y-71066804D01*
X114333495Y-71063204D01*
X114357999Y-71062000D01*
X115258001Y-71062000D01*
X115282505Y-71063204D01*
X115282505Y-71063204D01*
G37*
D17*
G04 #@! TD*
G04 #@! TO.P,R10,2*
G04 #@! TO.N,/SDA3BUF*
X114808000Y-71637000D03*
D16*
G04 #@! TO.N,+5V*
G04 #@! TO.C,R11*
G36*
X115409505Y-62046204D02*
X115433773Y-62049804D01*
X115457572Y-62055765D01*
X115480671Y-62064030D01*
X115502850Y-62074520D01*
X115523893Y-62087132D01*
X115543599Y-62101747D01*
X115561777Y-62118223D01*
X115578253Y-62136401D01*
X115592868Y-62156107D01*
X115605480Y-62177150D01*
X115615970Y-62199329D01*
X115624235Y-62222428D01*
X115630196Y-62246227D01*
X115633796Y-62270495D01*
X115635000Y-62294999D01*
X115635000Y-62945001D01*
X115633796Y-62969505D01*
X115630196Y-62993773D01*
X115624235Y-63017572D01*
X115615970Y-63040671D01*
X115605480Y-63062850D01*
X115592868Y-63083893D01*
X115578253Y-63103599D01*
X115561777Y-63121777D01*
X115543599Y-63138253D01*
X115523893Y-63152868D01*
X115502850Y-63165480D01*
X115480671Y-63175970D01*
X115457572Y-63184235D01*
X115433773Y-63190196D01*
X115409505Y-63193796D01*
X115385001Y-63195000D01*
X114484999Y-63195000D01*
X114460495Y-63193796D01*
X114436227Y-63190196D01*
X114412428Y-63184235D01*
X114389329Y-63175970D01*
X114367150Y-63165480D01*
X114346107Y-63152868D01*
X114326401Y-63138253D01*
X114308223Y-63121777D01*
X114291747Y-63103599D01*
X114277132Y-63083893D01*
X114264520Y-63062850D01*
X114254030Y-63040671D01*
X114245765Y-63017572D01*
X114239804Y-62993773D01*
X114236204Y-62969505D01*
X114235000Y-62945001D01*
X114235000Y-62294999D01*
X114236204Y-62270495D01*
X114239804Y-62246227D01*
X114245765Y-62222428D01*
X114254030Y-62199329D01*
X114264520Y-62177150D01*
X114277132Y-62156107D01*
X114291747Y-62136401D01*
X114308223Y-62118223D01*
X114326401Y-62101747D01*
X114346107Y-62087132D01*
X114367150Y-62074520D01*
X114389329Y-62064030D01*
X114412428Y-62055765D01*
X114436227Y-62049804D01*
X114460495Y-62046204D01*
X114484999Y-62045000D01*
X115385001Y-62045000D01*
X115409505Y-62046204D01*
X115409505Y-62046204D01*
G37*
D17*
G04 #@! TD*
G04 #@! TO.P,R11,1*
G04 #@! TO.N,+5V*
X114935000Y-62620000D03*
D16*
G04 #@! TO.N,/SCL2BUF*
G04 #@! TO.C,R11*
G36*
X115409505Y-59996204D02*
X115433773Y-59999804D01*
X115457572Y-60005765D01*
X115480671Y-60014030D01*
X115502850Y-60024520D01*
X115523893Y-60037132D01*
X115543599Y-60051747D01*
X115561777Y-60068223D01*
X115578253Y-60086401D01*
X115592868Y-60106107D01*
X115605480Y-60127150D01*
X115615970Y-60149329D01*
X115624235Y-60172428D01*
X115630196Y-60196227D01*
X115633796Y-60220495D01*
X115635000Y-60244999D01*
X115635000Y-60895001D01*
X115633796Y-60919505D01*
X115630196Y-60943773D01*
X115624235Y-60967572D01*
X115615970Y-60990671D01*
X115605480Y-61012850D01*
X115592868Y-61033893D01*
X115578253Y-61053599D01*
X115561777Y-61071777D01*
X115543599Y-61088253D01*
X115523893Y-61102868D01*
X115502850Y-61115480D01*
X115480671Y-61125970D01*
X115457572Y-61134235D01*
X115433773Y-61140196D01*
X115409505Y-61143796D01*
X115385001Y-61145000D01*
X114484999Y-61145000D01*
X114460495Y-61143796D01*
X114436227Y-61140196D01*
X114412428Y-61134235D01*
X114389329Y-61125970D01*
X114367150Y-61115480D01*
X114346107Y-61102868D01*
X114326401Y-61088253D01*
X114308223Y-61071777D01*
X114291747Y-61053599D01*
X114277132Y-61033893D01*
X114264520Y-61012850D01*
X114254030Y-60990671D01*
X114245765Y-60967572D01*
X114239804Y-60943773D01*
X114236204Y-60919505D01*
X114235000Y-60895001D01*
X114235000Y-60244999D01*
X114236204Y-60220495D01*
X114239804Y-60196227D01*
X114245765Y-60172428D01*
X114254030Y-60149329D01*
X114264520Y-60127150D01*
X114277132Y-60106107D01*
X114291747Y-60086401D01*
X114308223Y-60068223D01*
X114326401Y-60051747D01*
X114346107Y-60037132D01*
X114367150Y-60024520D01*
X114389329Y-60014030D01*
X114412428Y-60005765D01*
X114436227Y-59999804D01*
X114460495Y-59996204D01*
X114484999Y-59995000D01*
X115385001Y-59995000D01*
X115409505Y-59996204D01*
X115409505Y-59996204D01*
G37*
D17*
G04 #@! TD*
G04 #@! TO.P,R11,2*
G04 #@! TO.N,/SCL2BUF*
X114935000Y-60570000D03*
D16*
G04 #@! TO.N,+5V*
G04 #@! TO.C,R12*
G36*
X115409505Y-47296204D02*
X115433773Y-47299804D01*
X115457572Y-47305765D01*
X115480671Y-47314030D01*
X115502850Y-47324520D01*
X115523893Y-47337132D01*
X115543599Y-47351747D01*
X115561777Y-47368223D01*
X115578253Y-47386401D01*
X115592868Y-47406107D01*
X115605480Y-47427150D01*
X115615970Y-47449329D01*
X115624235Y-47472428D01*
X115630196Y-47496227D01*
X115633796Y-47520495D01*
X115635000Y-47544999D01*
X115635000Y-48195001D01*
X115633796Y-48219505D01*
X115630196Y-48243773D01*
X115624235Y-48267572D01*
X115615970Y-48290671D01*
X115605480Y-48312850D01*
X115592868Y-48333893D01*
X115578253Y-48353599D01*
X115561777Y-48371777D01*
X115543599Y-48388253D01*
X115523893Y-48402868D01*
X115502850Y-48415480D01*
X115480671Y-48425970D01*
X115457572Y-48434235D01*
X115433773Y-48440196D01*
X115409505Y-48443796D01*
X115385001Y-48445000D01*
X114484999Y-48445000D01*
X114460495Y-48443796D01*
X114436227Y-48440196D01*
X114412428Y-48434235D01*
X114389329Y-48425970D01*
X114367150Y-48415480D01*
X114346107Y-48402868D01*
X114326401Y-48388253D01*
X114308223Y-48371777D01*
X114291747Y-48353599D01*
X114277132Y-48333893D01*
X114264520Y-48312850D01*
X114254030Y-48290671D01*
X114245765Y-48267572D01*
X114239804Y-48243773D01*
X114236204Y-48219505D01*
X114235000Y-48195001D01*
X114235000Y-47544999D01*
X114236204Y-47520495D01*
X114239804Y-47496227D01*
X114245765Y-47472428D01*
X114254030Y-47449329D01*
X114264520Y-47427150D01*
X114277132Y-47406107D01*
X114291747Y-47386401D01*
X114308223Y-47368223D01*
X114326401Y-47351747D01*
X114346107Y-47337132D01*
X114367150Y-47324520D01*
X114389329Y-47314030D01*
X114412428Y-47305765D01*
X114436227Y-47299804D01*
X114460495Y-47296204D01*
X114484999Y-47295000D01*
X115385001Y-47295000D01*
X115409505Y-47296204D01*
X115409505Y-47296204D01*
G37*
D17*
G04 #@! TD*
G04 #@! TO.P,R12,1*
G04 #@! TO.N,+5V*
X114935000Y-47870000D03*
D16*
G04 #@! TO.N,/SDA2BUF*
G04 #@! TO.C,R12*
G36*
X115409505Y-49346204D02*
X115433773Y-49349804D01*
X115457572Y-49355765D01*
X115480671Y-49364030D01*
X115502850Y-49374520D01*
X115523893Y-49387132D01*
X115543599Y-49401747D01*
X115561777Y-49418223D01*
X115578253Y-49436401D01*
X115592868Y-49456107D01*
X115605480Y-49477150D01*
X115615970Y-49499329D01*
X115624235Y-49522428D01*
X115630196Y-49546227D01*
X115633796Y-49570495D01*
X115635000Y-49594999D01*
X115635000Y-50245001D01*
X115633796Y-50269505D01*
X115630196Y-50293773D01*
X115624235Y-50317572D01*
X115615970Y-50340671D01*
X115605480Y-50362850D01*
X115592868Y-50383893D01*
X115578253Y-50403599D01*
X115561777Y-50421777D01*
X115543599Y-50438253D01*
X115523893Y-50452868D01*
X115502850Y-50465480D01*
X115480671Y-50475970D01*
X115457572Y-50484235D01*
X115433773Y-50490196D01*
X115409505Y-50493796D01*
X115385001Y-50495000D01*
X114484999Y-50495000D01*
X114460495Y-50493796D01*
X114436227Y-50490196D01*
X114412428Y-50484235D01*
X114389329Y-50475970D01*
X114367150Y-50465480D01*
X114346107Y-50452868D01*
X114326401Y-50438253D01*
X114308223Y-50421777D01*
X114291747Y-50403599D01*
X114277132Y-50383893D01*
X114264520Y-50362850D01*
X114254030Y-50340671D01*
X114245765Y-50317572D01*
X114239804Y-50293773D01*
X114236204Y-50269505D01*
X114235000Y-50245001D01*
X114235000Y-49594999D01*
X114236204Y-49570495D01*
X114239804Y-49546227D01*
X114245765Y-49522428D01*
X114254030Y-49499329D01*
X114264520Y-49477150D01*
X114277132Y-49456107D01*
X114291747Y-49436401D01*
X114308223Y-49418223D01*
X114326401Y-49401747D01*
X114346107Y-49387132D01*
X114367150Y-49374520D01*
X114389329Y-49364030D01*
X114412428Y-49355765D01*
X114436227Y-49349804D01*
X114460495Y-49346204D01*
X114484999Y-49345000D01*
X115385001Y-49345000D01*
X115409505Y-49346204D01*
X115409505Y-49346204D01*
G37*
D17*
G04 #@! TD*
G04 #@! TO.P,R12,2*
G04 #@! TO.N,/SDA2BUF*
X114935000Y-49920000D03*
D16*
G04 #@! TO.N,+5V*
G04 #@! TO.C,R13*
G36*
X98264505Y-47296204D02*
X98288773Y-47299804D01*
X98312572Y-47305765D01*
X98335671Y-47314030D01*
X98357850Y-47324520D01*
X98378893Y-47337132D01*
X98398599Y-47351747D01*
X98416777Y-47368223D01*
X98433253Y-47386401D01*
X98447868Y-47406107D01*
X98460480Y-47427150D01*
X98470970Y-47449329D01*
X98479235Y-47472428D01*
X98485196Y-47496227D01*
X98488796Y-47520495D01*
X98490000Y-47544999D01*
X98490000Y-48195001D01*
X98488796Y-48219505D01*
X98485196Y-48243773D01*
X98479235Y-48267572D01*
X98470970Y-48290671D01*
X98460480Y-48312850D01*
X98447868Y-48333893D01*
X98433253Y-48353599D01*
X98416777Y-48371777D01*
X98398599Y-48388253D01*
X98378893Y-48402868D01*
X98357850Y-48415480D01*
X98335671Y-48425970D01*
X98312572Y-48434235D01*
X98288773Y-48440196D01*
X98264505Y-48443796D01*
X98240001Y-48445000D01*
X97339999Y-48445000D01*
X97315495Y-48443796D01*
X97291227Y-48440196D01*
X97267428Y-48434235D01*
X97244329Y-48425970D01*
X97222150Y-48415480D01*
X97201107Y-48402868D01*
X97181401Y-48388253D01*
X97163223Y-48371777D01*
X97146747Y-48353599D01*
X97132132Y-48333893D01*
X97119520Y-48312850D01*
X97109030Y-48290671D01*
X97100765Y-48267572D01*
X97094804Y-48243773D01*
X97091204Y-48219505D01*
X97090000Y-48195001D01*
X97090000Y-47544999D01*
X97091204Y-47520495D01*
X97094804Y-47496227D01*
X97100765Y-47472428D01*
X97109030Y-47449329D01*
X97119520Y-47427150D01*
X97132132Y-47406107D01*
X97146747Y-47386401D01*
X97163223Y-47368223D01*
X97181401Y-47351747D01*
X97201107Y-47337132D01*
X97222150Y-47324520D01*
X97244329Y-47314030D01*
X97267428Y-47305765D01*
X97291227Y-47299804D01*
X97315495Y-47296204D01*
X97339999Y-47295000D01*
X98240001Y-47295000D01*
X98264505Y-47296204D01*
X98264505Y-47296204D01*
G37*
D17*
G04 #@! TD*
G04 #@! TO.P,R13,1*
G04 #@! TO.N,+5V*
X97790000Y-47870000D03*
D16*
G04 #@! TO.N,/SCL1BUF*
G04 #@! TO.C,R13*
G36*
X98264505Y-49346204D02*
X98288773Y-49349804D01*
X98312572Y-49355765D01*
X98335671Y-49364030D01*
X98357850Y-49374520D01*
X98378893Y-49387132D01*
X98398599Y-49401747D01*
X98416777Y-49418223D01*
X98433253Y-49436401D01*
X98447868Y-49456107D01*
X98460480Y-49477150D01*
X98470970Y-49499329D01*
X98479235Y-49522428D01*
X98485196Y-49546227D01*
X98488796Y-49570495D01*
X98490000Y-49594999D01*
X98490000Y-50245001D01*
X98488796Y-50269505D01*
X98485196Y-50293773D01*
X98479235Y-50317572D01*
X98470970Y-50340671D01*
X98460480Y-50362850D01*
X98447868Y-50383893D01*
X98433253Y-50403599D01*
X98416777Y-50421777D01*
X98398599Y-50438253D01*
X98378893Y-50452868D01*
X98357850Y-50465480D01*
X98335671Y-50475970D01*
X98312572Y-50484235D01*
X98288773Y-50490196D01*
X98264505Y-50493796D01*
X98240001Y-50495000D01*
X97339999Y-50495000D01*
X97315495Y-50493796D01*
X97291227Y-50490196D01*
X97267428Y-50484235D01*
X97244329Y-50475970D01*
X97222150Y-50465480D01*
X97201107Y-50452868D01*
X97181401Y-50438253D01*
X97163223Y-50421777D01*
X97146747Y-50403599D01*
X97132132Y-50383893D01*
X97119520Y-50362850D01*
X97109030Y-50340671D01*
X97100765Y-50317572D01*
X97094804Y-50293773D01*
X97091204Y-50269505D01*
X97090000Y-50245001D01*
X97090000Y-49594999D01*
X97091204Y-49570495D01*
X97094804Y-49546227D01*
X97100765Y-49522428D01*
X97109030Y-49499329D01*
X97119520Y-49477150D01*
X97132132Y-49456107D01*
X97146747Y-49436401D01*
X97163223Y-49418223D01*
X97181401Y-49401747D01*
X97201107Y-49387132D01*
X97222150Y-49374520D01*
X97244329Y-49364030D01*
X97267428Y-49355765D01*
X97291227Y-49349804D01*
X97315495Y-49346204D01*
X97339999Y-49345000D01*
X98240001Y-49345000D01*
X98264505Y-49346204D01*
X98264505Y-49346204D01*
G37*
D17*
G04 #@! TD*
G04 #@! TO.P,R13,2*
G04 #@! TO.N,/SCL1BUF*
X97790000Y-49920000D03*
D16*
G04 #@! TO.N,+5V*
G04 #@! TO.C,R14*
G36*
X98264505Y-62046204D02*
X98288773Y-62049804D01*
X98312572Y-62055765D01*
X98335671Y-62064030D01*
X98357850Y-62074520D01*
X98378893Y-62087132D01*
X98398599Y-62101747D01*
X98416777Y-62118223D01*
X98433253Y-62136401D01*
X98447868Y-62156107D01*
X98460480Y-62177150D01*
X98470970Y-62199329D01*
X98479235Y-62222428D01*
X98485196Y-62246227D01*
X98488796Y-62270495D01*
X98490000Y-62294999D01*
X98490000Y-62945001D01*
X98488796Y-62969505D01*
X98485196Y-62993773D01*
X98479235Y-63017572D01*
X98470970Y-63040671D01*
X98460480Y-63062850D01*
X98447868Y-63083893D01*
X98433253Y-63103599D01*
X98416777Y-63121777D01*
X98398599Y-63138253D01*
X98378893Y-63152868D01*
X98357850Y-63165480D01*
X98335671Y-63175970D01*
X98312572Y-63184235D01*
X98288773Y-63190196D01*
X98264505Y-63193796D01*
X98240001Y-63195000D01*
X97339999Y-63195000D01*
X97315495Y-63193796D01*
X97291227Y-63190196D01*
X97267428Y-63184235D01*
X97244329Y-63175970D01*
X97222150Y-63165480D01*
X97201107Y-63152868D01*
X97181401Y-63138253D01*
X97163223Y-63121777D01*
X97146747Y-63103599D01*
X97132132Y-63083893D01*
X97119520Y-63062850D01*
X97109030Y-63040671D01*
X97100765Y-63017572D01*
X97094804Y-62993773D01*
X97091204Y-62969505D01*
X97090000Y-62945001D01*
X97090000Y-62294999D01*
X97091204Y-62270495D01*
X97094804Y-62246227D01*
X97100765Y-62222428D01*
X97109030Y-62199329D01*
X97119520Y-62177150D01*
X97132132Y-62156107D01*
X97146747Y-62136401D01*
X97163223Y-62118223D01*
X97181401Y-62101747D01*
X97201107Y-62087132D01*
X97222150Y-62074520D01*
X97244329Y-62064030D01*
X97267428Y-62055765D01*
X97291227Y-62049804D01*
X97315495Y-62046204D01*
X97339999Y-62045000D01*
X98240001Y-62045000D01*
X98264505Y-62046204D01*
X98264505Y-62046204D01*
G37*
D17*
G04 #@! TD*
G04 #@! TO.P,R14,1*
G04 #@! TO.N,+5V*
X97790000Y-62620000D03*
D16*
G04 #@! TO.N,/SDA1BUF*
G04 #@! TO.C,R14*
G36*
X98264505Y-59996204D02*
X98288773Y-59999804D01*
X98312572Y-60005765D01*
X98335671Y-60014030D01*
X98357850Y-60024520D01*
X98378893Y-60037132D01*
X98398599Y-60051747D01*
X98416777Y-60068223D01*
X98433253Y-60086401D01*
X98447868Y-60106107D01*
X98460480Y-60127150D01*
X98470970Y-60149329D01*
X98479235Y-60172428D01*
X98485196Y-60196227D01*
X98488796Y-60220495D01*
X98490000Y-60244999D01*
X98490000Y-60895001D01*
X98488796Y-60919505D01*
X98485196Y-60943773D01*
X98479235Y-60967572D01*
X98470970Y-60990671D01*
X98460480Y-61012850D01*
X98447868Y-61033893D01*
X98433253Y-61053599D01*
X98416777Y-61071777D01*
X98398599Y-61088253D01*
X98378893Y-61102868D01*
X98357850Y-61115480D01*
X98335671Y-61125970D01*
X98312572Y-61134235D01*
X98288773Y-61140196D01*
X98264505Y-61143796D01*
X98240001Y-61145000D01*
X97339999Y-61145000D01*
X97315495Y-61143796D01*
X97291227Y-61140196D01*
X97267428Y-61134235D01*
X97244329Y-61125970D01*
X97222150Y-61115480D01*
X97201107Y-61102868D01*
X97181401Y-61088253D01*
X97163223Y-61071777D01*
X97146747Y-61053599D01*
X97132132Y-61033893D01*
X97119520Y-61012850D01*
X97109030Y-60990671D01*
X97100765Y-60967572D01*
X97094804Y-60943773D01*
X97091204Y-60919505D01*
X97090000Y-60895001D01*
X97090000Y-60244999D01*
X97091204Y-60220495D01*
X97094804Y-60196227D01*
X97100765Y-60172428D01*
X97109030Y-60149329D01*
X97119520Y-60127150D01*
X97132132Y-60106107D01*
X97146747Y-60086401D01*
X97163223Y-60068223D01*
X97181401Y-60051747D01*
X97201107Y-60037132D01*
X97222150Y-60024520D01*
X97244329Y-60014030D01*
X97267428Y-60005765D01*
X97291227Y-59999804D01*
X97315495Y-59996204D01*
X97339999Y-59995000D01*
X98240001Y-59995000D01*
X98264505Y-59996204D01*
X98264505Y-59996204D01*
G37*
D17*
G04 #@! TD*
G04 #@! TO.P,R14,2*
G04 #@! TO.N,/SDA1BUF*
X97790000Y-60570000D03*
D16*
G04 #@! TO.N,/SCL0BUF*
G04 #@! TO.C,R15*
G36*
X98264505Y-71181204D02*
X98288773Y-71184804D01*
X98312572Y-71190765D01*
X98335671Y-71199030D01*
X98357850Y-71209520D01*
X98378893Y-71222132D01*
X98398599Y-71236747D01*
X98416777Y-71253223D01*
X98433253Y-71271401D01*
X98447868Y-71291107D01*
X98460480Y-71312150D01*
X98470970Y-71334329D01*
X98479235Y-71357428D01*
X98485196Y-71381227D01*
X98488796Y-71405495D01*
X98490000Y-71429999D01*
X98490000Y-72080001D01*
X98488796Y-72104505D01*
X98485196Y-72128773D01*
X98479235Y-72152572D01*
X98470970Y-72175671D01*
X98460480Y-72197850D01*
X98447868Y-72218893D01*
X98433253Y-72238599D01*
X98416777Y-72256777D01*
X98398599Y-72273253D01*
X98378893Y-72287868D01*
X98357850Y-72300480D01*
X98335671Y-72310970D01*
X98312572Y-72319235D01*
X98288773Y-72325196D01*
X98264505Y-72328796D01*
X98240001Y-72330000D01*
X97339999Y-72330000D01*
X97315495Y-72328796D01*
X97291227Y-72325196D01*
X97267428Y-72319235D01*
X97244329Y-72310970D01*
X97222150Y-72300480D01*
X97201107Y-72287868D01*
X97181401Y-72273253D01*
X97163223Y-72256777D01*
X97146747Y-72238599D01*
X97132132Y-72218893D01*
X97119520Y-72197850D01*
X97109030Y-72175671D01*
X97100765Y-72152572D01*
X97094804Y-72128773D01*
X97091204Y-72104505D01*
X97090000Y-72080001D01*
X97090000Y-71429999D01*
X97091204Y-71405495D01*
X97094804Y-71381227D01*
X97100765Y-71357428D01*
X97109030Y-71334329D01*
X97119520Y-71312150D01*
X97132132Y-71291107D01*
X97146747Y-71271401D01*
X97163223Y-71253223D01*
X97181401Y-71236747D01*
X97201107Y-71222132D01*
X97222150Y-71209520D01*
X97244329Y-71199030D01*
X97267428Y-71190765D01*
X97291227Y-71184804D01*
X97315495Y-71181204D01*
X97339999Y-71180000D01*
X98240001Y-71180000D01*
X98264505Y-71181204D01*
X98264505Y-71181204D01*
G37*
D17*
G04 #@! TD*
G04 #@! TO.P,R15,2*
G04 #@! TO.N,/SCL0BUF*
X97790000Y-71755000D03*
D16*
G04 #@! TO.N,+5V*
G04 #@! TO.C,R15*
G36*
X98264505Y-69131204D02*
X98288773Y-69134804D01*
X98312572Y-69140765D01*
X98335671Y-69149030D01*
X98357850Y-69159520D01*
X98378893Y-69172132D01*
X98398599Y-69186747D01*
X98416777Y-69203223D01*
X98433253Y-69221401D01*
X98447868Y-69241107D01*
X98460480Y-69262150D01*
X98470970Y-69284329D01*
X98479235Y-69307428D01*
X98485196Y-69331227D01*
X98488796Y-69355495D01*
X98490000Y-69379999D01*
X98490000Y-70030001D01*
X98488796Y-70054505D01*
X98485196Y-70078773D01*
X98479235Y-70102572D01*
X98470970Y-70125671D01*
X98460480Y-70147850D01*
X98447868Y-70168893D01*
X98433253Y-70188599D01*
X98416777Y-70206777D01*
X98398599Y-70223253D01*
X98378893Y-70237868D01*
X98357850Y-70250480D01*
X98335671Y-70260970D01*
X98312572Y-70269235D01*
X98288773Y-70275196D01*
X98264505Y-70278796D01*
X98240001Y-70280000D01*
X97339999Y-70280000D01*
X97315495Y-70278796D01*
X97291227Y-70275196D01*
X97267428Y-70269235D01*
X97244329Y-70260970D01*
X97222150Y-70250480D01*
X97201107Y-70237868D01*
X97181401Y-70223253D01*
X97163223Y-70206777D01*
X97146747Y-70188599D01*
X97132132Y-70168893D01*
X97119520Y-70147850D01*
X97109030Y-70125671D01*
X97100765Y-70102572D01*
X97094804Y-70078773D01*
X97091204Y-70054505D01*
X97090000Y-70030001D01*
X97090000Y-69379999D01*
X97091204Y-69355495D01*
X97094804Y-69331227D01*
X97100765Y-69307428D01*
X97109030Y-69284329D01*
X97119520Y-69262150D01*
X97132132Y-69241107D01*
X97146747Y-69221401D01*
X97163223Y-69203223D01*
X97181401Y-69186747D01*
X97201107Y-69172132D01*
X97222150Y-69159520D01*
X97244329Y-69149030D01*
X97267428Y-69140765D01*
X97291227Y-69134804D01*
X97315495Y-69131204D01*
X97339999Y-69130000D01*
X98240001Y-69130000D01*
X98264505Y-69131204D01*
X98264505Y-69131204D01*
G37*
D17*
G04 #@! TD*
G04 #@! TO.P,R15,1*
G04 #@! TO.N,+5V*
X97790000Y-69705000D03*
D16*
G04 #@! TO.N,/SDA0BUF*
G04 #@! TO.C,R16*
G36*
X98264505Y-81341204D02*
X98288773Y-81344804D01*
X98312572Y-81350765D01*
X98335671Y-81359030D01*
X98357850Y-81369520D01*
X98378893Y-81382132D01*
X98398599Y-81396747D01*
X98416777Y-81413223D01*
X98433253Y-81431401D01*
X98447868Y-81451107D01*
X98460480Y-81472150D01*
X98470970Y-81494329D01*
X98479235Y-81517428D01*
X98485196Y-81541227D01*
X98488796Y-81565495D01*
X98490000Y-81589999D01*
X98490000Y-82240001D01*
X98488796Y-82264505D01*
X98485196Y-82288773D01*
X98479235Y-82312572D01*
X98470970Y-82335671D01*
X98460480Y-82357850D01*
X98447868Y-82378893D01*
X98433253Y-82398599D01*
X98416777Y-82416777D01*
X98398599Y-82433253D01*
X98378893Y-82447868D01*
X98357850Y-82460480D01*
X98335671Y-82470970D01*
X98312572Y-82479235D01*
X98288773Y-82485196D01*
X98264505Y-82488796D01*
X98240001Y-82490000D01*
X97339999Y-82490000D01*
X97315495Y-82488796D01*
X97291227Y-82485196D01*
X97267428Y-82479235D01*
X97244329Y-82470970D01*
X97222150Y-82460480D01*
X97201107Y-82447868D01*
X97181401Y-82433253D01*
X97163223Y-82416777D01*
X97146747Y-82398599D01*
X97132132Y-82378893D01*
X97119520Y-82357850D01*
X97109030Y-82335671D01*
X97100765Y-82312572D01*
X97094804Y-82288773D01*
X97091204Y-82264505D01*
X97090000Y-82240001D01*
X97090000Y-81589999D01*
X97091204Y-81565495D01*
X97094804Y-81541227D01*
X97100765Y-81517428D01*
X97109030Y-81494329D01*
X97119520Y-81472150D01*
X97132132Y-81451107D01*
X97146747Y-81431401D01*
X97163223Y-81413223D01*
X97181401Y-81396747D01*
X97201107Y-81382132D01*
X97222150Y-81369520D01*
X97244329Y-81359030D01*
X97267428Y-81350765D01*
X97291227Y-81344804D01*
X97315495Y-81341204D01*
X97339999Y-81340000D01*
X98240001Y-81340000D01*
X98264505Y-81341204D01*
X98264505Y-81341204D01*
G37*
D17*
G04 #@! TD*
G04 #@! TO.P,R16,2*
G04 #@! TO.N,/SDA0BUF*
X97790000Y-81915000D03*
D16*
G04 #@! TO.N,+5V*
G04 #@! TO.C,R16*
G36*
X98264505Y-83391204D02*
X98288773Y-83394804D01*
X98312572Y-83400765D01*
X98335671Y-83409030D01*
X98357850Y-83419520D01*
X98378893Y-83432132D01*
X98398599Y-83446747D01*
X98416777Y-83463223D01*
X98433253Y-83481401D01*
X98447868Y-83501107D01*
X98460480Y-83522150D01*
X98470970Y-83544329D01*
X98479235Y-83567428D01*
X98485196Y-83591227D01*
X98488796Y-83615495D01*
X98490000Y-83639999D01*
X98490000Y-84290001D01*
X98488796Y-84314505D01*
X98485196Y-84338773D01*
X98479235Y-84362572D01*
X98470970Y-84385671D01*
X98460480Y-84407850D01*
X98447868Y-84428893D01*
X98433253Y-84448599D01*
X98416777Y-84466777D01*
X98398599Y-84483253D01*
X98378893Y-84497868D01*
X98357850Y-84510480D01*
X98335671Y-84520970D01*
X98312572Y-84529235D01*
X98288773Y-84535196D01*
X98264505Y-84538796D01*
X98240001Y-84540000D01*
X97339999Y-84540000D01*
X97315495Y-84538796D01*
X97291227Y-84535196D01*
X97267428Y-84529235D01*
X97244329Y-84520970D01*
X97222150Y-84510480D01*
X97201107Y-84497868D01*
X97181401Y-84483253D01*
X97163223Y-84466777D01*
X97146747Y-84448599D01*
X97132132Y-84428893D01*
X97119520Y-84407850D01*
X97109030Y-84385671D01*
X97100765Y-84362572D01*
X97094804Y-84338773D01*
X97091204Y-84314505D01*
X97090000Y-84290001D01*
X97090000Y-83639999D01*
X97091204Y-83615495D01*
X97094804Y-83591227D01*
X97100765Y-83567428D01*
X97109030Y-83544329D01*
X97119520Y-83522150D01*
X97132132Y-83501107D01*
X97146747Y-83481401D01*
X97163223Y-83463223D01*
X97181401Y-83446747D01*
X97201107Y-83432132D01*
X97222150Y-83419520D01*
X97244329Y-83409030D01*
X97267428Y-83400765D01*
X97291227Y-83394804D01*
X97315495Y-83391204D01*
X97339999Y-83390000D01*
X98240001Y-83390000D01*
X98264505Y-83391204D01*
X98264505Y-83391204D01*
G37*
D17*
G04 #@! TD*
G04 #@! TO.P,R16,1*
G04 #@! TO.N,+5V*
X97790000Y-83965000D03*
D12*
G04 #@! TO.P,U5,2*
G04 #@! TO.N,/CLK*
X126365000Y-125730000D03*
G04 #@! TO.P,U5,1*
G04 #@! TO.N,/MISO*
X128905000Y-125730000D03*
G04 #@! TO.P,U5,3*
G04 #@! TO.N,/CE*
X123825000Y-125730000D03*
G04 #@! TO.P,U5,4*
G04 #@! TO.N,-BATT*
X121285000Y-125730000D03*
G04 #@! TO.P,U5,5*
G04 #@! TO.N,/IRQ*
X128905000Y-123190000D03*
G04 #@! TO.P,U5,6*
G04 #@! TO.N,/MOSI*
X126365000Y-123190000D03*
G04 #@! TO.P,U5,7*
G04 #@! TO.N,/CS0*
X123825000Y-123190000D03*
G04 #@! TO.P,U5,8*
G04 #@! TO.N,+3V3*
X121285000Y-123190000D03*
G04 #@! TD*
D18*
G04 #@! TO.N,+5V*
X95885000Y-69850000D03*
X95885000Y-83820000D03*
X95885000Y-48260000D03*
X95885000Y-74135000D03*
X95885000Y-52070000D03*
X96130000Y-62620000D03*
X116840000Y-57785000D03*
X116840000Y-48260000D03*
X116840000Y-79375000D03*
X116840000Y-83820000D03*
X117475000Y-62230000D03*
X116840000Y-69215000D03*
G04 #@! TO.N,+3V3*
X102870000Y-83820000D03*
X102870000Y-69215000D03*
X102870000Y-62865000D03*
X109855000Y-47625000D03*
X109855000Y-62992000D03*
X109855000Y-83820000D03*
X109855000Y-69596000D03*
X102870000Y-48260000D03*
G04 #@! TO.N,-BATT*
X101092000Y-78232000D03*
X111760000Y-75575000D03*
X101092000Y-56505000D03*
X111760000Y-53848000D03*
G04 #@! TD*
D19*
G04 #@! TO.N,+5V*
X97790000Y-69705000D02*
X96030000Y-69705000D01*
X96030000Y-69705000D02*
X95885000Y-69850000D01*
X97790000Y-83965000D02*
X96030000Y-83965000D01*
X96030000Y-83965000D02*
X95885000Y-83820000D01*
X97790000Y-47870000D02*
X96275000Y-47870000D01*
X96275000Y-47870000D02*
X95885000Y-48260000D01*
X97155000Y-74135000D02*
X95885000Y-74135000D01*
X96680000Y-52070000D02*
X97155000Y-52545000D01*
X95885000Y-52070000D02*
X96680000Y-52070000D01*
X97790000Y-62620000D02*
X96130000Y-62620000D01*
X115570000Y-57945000D02*
X116680000Y-57945000D01*
X116680000Y-57945000D02*
X116840000Y-57785000D01*
X114935000Y-47870000D02*
X116450000Y-47870000D01*
X116450000Y-47870000D02*
X116840000Y-48260000D01*
X115570000Y-79535000D02*
X116680000Y-79535000D01*
X116680000Y-79535000D02*
X116840000Y-79375000D01*
X114808000Y-83838000D02*
X116822000Y-83838000D01*
X116822000Y-83838000D02*
X116840000Y-83820000D01*
X114935000Y-62620000D02*
X117085000Y-62620000D01*
X117085000Y-62620000D02*
X117475000Y-62230000D01*
X114808000Y-69587000D02*
X116468000Y-69587000D01*
X116468000Y-69587000D02*
X116840000Y-69215000D01*
G04 #@! TO.N,+3V3*
X100965000Y-83965000D02*
X102725000Y-83965000D01*
X102725000Y-83965000D02*
X102870000Y-83820000D01*
X102380000Y-69705000D02*
X102870000Y-69215000D01*
X100965000Y-69705000D02*
X102380000Y-69705000D01*
X102625000Y-62620000D02*
X102870000Y-62865000D01*
X100965000Y-62620000D02*
X102625000Y-62620000D01*
X111760000Y-47870000D02*
X110100000Y-47870000D01*
X110100000Y-47870000D02*
X109855000Y-47625000D01*
X110227000Y-62620000D02*
X109855000Y-62992000D01*
X111760000Y-62620000D02*
X110227000Y-62620000D01*
X112268000Y-83820000D02*
X109855000Y-83820000D01*
X112268000Y-69596000D02*
X109855000Y-69596000D01*
X100965000Y-47870000D02*
X102480000Y-47870000D01*
X102480000Y-47870000D02*
X102870000Y-48260000D01*
D20*
G04 #@! TO.N,/SDA0BUF*
X91400000Y-81955000D02*
X91400000Y-83105000D01*
X95885000Y-77470000D02*
X91400000Y-81955000D01*
X97790000Y-77470000D02*
X95885000Y-77470000D01*
X98425000Y-79535000D02*
X98425000Y-78105000D01*
X98425000Y-78105000D02*
X97790000Y-77470000D01*
X98425000Y-81280000D02*
X97790000Y-81915000D01*
X98425000Y-79535000D02*
X98425000Y-81280000D01*
G04 #@! TO.N,/SCL0BUF*
X92830000Y-70605000D02*
X88900000Y-70605000D01*
X98425000Y-75565000D02*
X97790000Y-76200000D01*
X98425000Y-74135000D02*
X98425000Y-75565000D01*
X97790000Y-76200000D02*
X95250000Y-76200000D01*
X95250000Y-76200000D02*
X93345000Y-74295000D01*
X93345000Y-74295000D02*
X93345000Y-71120000D01*
X93345000Y-71120000D02*
X92830000Y-70605000D01*
X98425000Y-72390000D02*
X97790000Y-71755000D01*
X98425000Y-74135000D02*
X98425000Y-72390000D01*
G04 #@! TO.N,/SCL0ESP*
X100965000Y-71755000D02*
X99695000Y-71755000D01*
X99695000Y-71755000D02*
X99695000Y-74135000D01*
X99695000Y-74610000D02*
X101285000Y-76200000D01*
X104140000Y-76200000D02*
X104775000Y-76835000D01*
X99695000Y-74135000D02*
X99695000Y-74610000D01*
X86486999Y-131318001D02*
X85725000Y-132080000D01*
X101285000Y-76200000D02*
X104140000Y-76200000D01*
X104775000Y-76835000D02*
X104775000Y-113030000D01*
X104775000Y-113030000D02*
X86486999Y-131318001D01*
G04 #@! TO.N,/SDA0ESP*
X99695000Y-79535000D02*
X99695000Y-81915000D01*
X99695000Y-81915000D02*
X100965000Y-81915000D01*
X86486999Y-128778001D02*
X85725000Y-129540000D01*
X103505000Y-111760000D02*
X86486999Y-128778001D01*
X103609956Y-111655044D02*
X103505000Y-111760000D01*
X104140000Y-111125000D02*
X103505000Y-111760000D01*
X99695000Y-78510000D02*
X100735000Y-77470000D01*
X99695000Y-79535000D02*
X99695000Y-78510000D01*
X104140000Y-78105000D02*
X104140000Y-111125000D01*
X100735000Y-77470000D02*
X103505000Y-77470000D01*
X103505000Y-77470000D02*
X104140000Y-78105000D01*
G04 #@! TO.N,/SCL3ESP*
X113030000Y-81008000D02*
X112268000Y-81770000D01*
X113030000Y-79535000D02*
X113030000Y-81008000D01*
X108585000Y-78105000D02*
X108585000Y-129540000D01*
X109220000Y-77470000D02*
X108585000Y-78105000D01*
X112395000Y-77470000D02*
X109220000Y-77470000D01*
X108585000Y-129540000D02*
X111125000Y-132080000D01*
X113030000Y-79535000D02*
X113030000Y-78105000D01*
X113030000Y-78105000D02*
X112395000Y-77470000D01*
X111886999Y-131318001D02*
X111125000Y-132080000D01*
X113030000Y-132080000D02*
X115570000Y-134620000D01*
X111125000Y-132080000D02*
X113030000Y-132080000D01*
G04 #@! TO.N,/SDA3ESP*
X113030000Y-72408000D02*
X112268000Y-71646000D01*
X113030000Y-74135000D02*
X113030000Y-72408000D01*
X107950000Y-131445000D02*
X111125000Y-134620000D01*
X107950000Y-76835000D02*
X107950000Y-131445000D01*
X112395000Y-76200000D02*
X108585000Y-76200000D01*
X108585000Y-76200000D02*
X107950000Y-76835000D01*
X113030000Y-74135000D02*
X113030000Y-75565000D01*
X113030000Y-75565000D02*
X112395000Y-76200000D01*
X113030000Y-134620000D02*
X115570000Y-137160000D01*
X111125000Y-134620000D02*
X113030000Y-134620000D01*
G04 #@! TO.N,/SDA1ESP*
X99695000Y-57945000D02*
X99695000Y-60325000D01*
X99940000Y-60570000D02*
X100965000Y-60570000D01*
X99695000Y-60325000D02*
X99940000Y-60570000D01*
X86486999Y-133858001D02*
X85725000Y-134620000D01*
X99695000Y-56920000D02*
X100735000Y-55880000D01*
X100735000Y-55880000D02*
X104775000Y-55880000D01*
X99695000Y-57945000D02*
X99695000Y-56920000D01*
X104775000Y-55880000D02*
X105410000Y-56515000D01*
X105410000Y-56515000D02*
X105410000Y-114935000D01*
X105410000Y-114935000D02*
X86486999Y-133858001D01*
G04 #@! TO.N,/SCL1ESP*
X99695000Y-52545000D02*
X99695000Y-50165000D01*
X99940000Y-49920000D02*
X100965000Y-49920000D01*
X99695000Y-50165000D02*
X99940000Y-49920000D01*
X86486999Y-136398001D02*
X85725000Y-137160000D01*
X99695000Y-53020000D02*
X101285000Y-54610000D01*
X105410000Y-54610000D02*
X106045000Y-55245000D01*
X99695000Y-52545000D02*
X99695000Y-53020000D01*
X101285000Y-54610000D02*
X105410000Y-54610000D01*
X106045000Y-55245000D02*
X106045000Y-116840000D01*
X106045000Y-116840000D02*
X86486999Y-136398001D01*
G04 #@! TO.N,/SCL2ESP*
X113030000Y-59300000D02*
X111760000Y-60570000D01*
X113030000Y-57945000D02*
X113030000Y-59300000D01*
X107315000Y-133350000D02*
X111125000Y-137160000D01*
X107950000Y-55880000D02*
X107315000Y-56515000D01*
X112395000Y-55880000D02*
X107950000Y-55880000D01*
X113030000Y-57945000D02*
X113030000Y-56515000D01*
X107315000Y-56515000D02*
X107315000Y-133350000D01*
X113030000Y-56515000D02*
X112395000Y-55880000D01*
G04 #@! TO.N,/SDA2ESP*
X113030000Y-51190000D02*
X113030000Y-52070000D01*
X111760000Y-49920000D02*
X113030000Y-51190000D01*
X113030000Y-52070000D02*
X113030000Y-52545000D01*
X106680000Y-55245000D02*
X106680000Y-135255000D01*
X106680000Y-135255000D02*
X111125000Y-139700000D01*
X107315000Y-54610000D02*
X106680000Y-55245000D01*
X112395000Y-54610000D02*
X107315000Y-54610000D01*
X113030000Y-52545000D02*
X113030000Y-53975000D01*
X113030000Y-53975000D02*
X112395000Y-54610000D01*
G04 #@! TO.N,/SCL2BUF*
X114935000Y-60570000D02*
X114300000Y-59935000D01*
X114300000Y-59935000D02*
X114300000Y-57945000D01*
X123705000Y-55880000D02*
X124460000Y-55125000D01*
X114808000Y-55880000D02*
X123705000Y-55880000D01*
X114300000Y-57945000D02*
X114300000Y-56388000D01*
X114300000Y-56388000D02*
X114808000Y-55880000D01*
G04 #@! TO.N,/SDA2BUF*
X114935000Y-49920000D02*
X114300000Y-50555000D01*
X114300000Y-50555000D02*
X114300000Y-52545000D01*
X120443000Y-42625000D02*
X121960000Y-42625000D01*
X114300000Y-53848000D02*
X114808000Y-54356000D01*
X114808000Y-54356000D02*
X116840000Y-54356000D01*
X116840000Y-54356000D02*
X118364000Y-52832000D01*
X114300000Y-52545000D02*
X114300000Y-53848000D01*
X118364000Y-52832000D02*
X118364000Y-44704000D01*
X118364000Y-44704000D02*
X120443000Y-42625000D01*
G04 #@! TO.N,/SCL3BUF*
X124460000Y-85605000D02*
X124460000Y-82296000D01*
X124460000Y-82296000D02*
X119888000Y-77724000D01*
X119888000Y-77724000D02*
X114808000Y-77724000D01*
X114300000Y-78232000D02*
X114300000Y-79535000D01*
X114808000Y-77724000D02*
X114300000Y-78232000D01*
X114808000Y-81788000D02*
X114184628Y-81164628D01*
X114300000Y-81280000D02*
X114808000Y-81788000D01*
X114300000Y-79535000D02*
X114300000Y-81280000D01*
G04 #@! TO.N,/SDA3BUF*
X118865000Y-76200000D02*
X121960000Y-73105000D01*
X114808000Y-76200000D02*
X118865000Y-76200000D01*
X114300000Y-74135000D02*
X114300000Y-75692000D01*
X114300000Y-75692000D02*
X114808000Y-76200000D01*
X114300000Y-72145000D02*
X114808000Y-71637000D01*
X114300000Y-74135000D02*
X114300000Y-72145000D01*
G04 #@! TO.N,/SDA1BUF*
X97790000Y-60570000D02*
X98180000Y-60570000D01*
X98425000Y-60325000D02*
X98425000Y-57945000D01*
X98180000Y-60570000D02*
X98425000Y-60325000D01*
X93940000Y-55245000D02*
X91400000Y-52705000D01*
X97790000Y-55245000D02*
X93940000Y-55245000D01*
X98425000Y-57945000D02*
X98425000Y-55880000D01*
X98425000Y-55880000D02*
X97790000Y-55245000D01*
G04 #@! TO.N,/SCL1BUF*
X88900000Y-43815000D02*
X88900000Y-40205000D01*
X98425000Y-53975000D02*
X97790000Y-54610000D01*
X95885000Y-54610000D02*
X94615000Y-53340000D01*
X98425000Y-52545000D02*
X98425000Y-53975000D01*
X97790000Y-54610000D02*
X95885000Y-54610000D01*
X94615000Y-53340000D02*
X94615000Y-49530000D01*
X94615000Y-49530000D02*
X88900000Y-43815000D01*
X98425000Y-50555000D02*
X97790000Y-49920000D01*
X98425000Y-52545000D02*
X98425000Y-50555000D01*
G04 #@! TO.N,-BATT*
X100965000Y-79535000D02*
X100965000Y-78359000D01*
X100965000Y-78359000D02*
X101092000Y-78232000D01*
X111760000Y-74135000D02*
X111760000Y-75575000D01*
X100965000Y-57945000D02*
X100965000Y-56632000D01*
X100965000Y-56632000D02*
X101092000Y-56505000D01*
X111760000Y-52545000D02*
X111760000Y-53848000D01*
G04 #@! TO.N,/CS0*
X122737999Y-122102999D02*
X113482001Y-122102999D01*
X123825000Y-123190000D02*
X122737999Y-122102999D01*
X113482001Y-122102999D02*
X112395000Y-123190000D01*
X112395000Y-123190000D02*
X110490000Y-123190000D01*
X110490000Y-123190000D02*
X109220000Y-124460000D01*
X109220000Y-127635000D02*
X111125000Y-129540000D01*
X109220000Y-124460000D02*
X109220000Y-127635000D01*
G04 #@! TO.N,/CLK*
X111125000Y-127000000D02*
X119380000Y-127000000D01*
X119380000Y-127000000D02*
X120015000Y-127635000D01*
X124460000Y-127635000D02*
X126365000Y-125730000D01*
X120015000Y-127635000D02*
X124460000Y-127635000D01*
G04 #@! TO.N,/CE*
X122555000Y-124460000D02*
X123825000Y-125730000D01*
X111125000Y-124460000D02*
X122555000Y-124460000D01*
G04 #@! TO.N,/IRQ*
X125095000Y-119380000D02*
X128905000Y-123190000D01*
X111125000Y-119380000D02*
X125095000Y-119380000D01*
G04 #@! TO.N,/MISO*
X111125000Y-111760000D02*
X120015000Y-111760000D01*
X120015000Y-111760000D02*
X130175000Y-121920000D01*
X130175000Y-121920000D02*
X130175000Y-125095000D01*
X130175000Y-125095000D02*
X129540000Y-125730000D01*
X129540000Y-125730000D02*
X128905000Y-125730000D01*
G04 #@! TO.N,/MOSI*
X111125000Y-109220000D02*
X119380000Y-109220000D01*
X119380000Y-109220000D02*
X131445000Y-121285000D01*
X131445000Y-121285000D02*
X131445000Y-126365000D01*
X127635000Y-124460000D02*
X126365000Y-123190000D01*
X131445000Y-126365000D02*
X130810000Y-127000000D01*
X130810000Y-127000000D02*
X130175000Y-127635000D01*
X130175000Y-127635000D02*
X128905000Y-127635000D01*
X128905000Y-127635000D02*
X127635000Y-126365000D01*
X127635000Y-126365000D02*
X127635000Y-124460000D01*
G04 #@! TD*
M02*
