M48
;DRILL file {KiCad 5.0.0-fee4fd1~66~ubuntu18.04.1} date Sun Sep  9 19:53:52 2018
;FORMAT={-:-/ absolute / inch / decimal}
FMAT,2
INCH,TZ
T1C0.0157
T2C0.0300
T3C0.0512
T4C0.0598
T5C0.1260
%
G90
G05
M72
T1
X3.2484Y-4.2984
X3.2484Y-4.2984
X3.25Y-4.9
X3.375Y-5.7
X3.7Y-4.725
X3.75Y-5.65
X3.85Y-4.325
X3.85Y-4.95
X3.85Y-5.25
X3.85Y-5.85
X5.1914Y-4.225
X5.1914Y-4.825
X5.1914Y-5.4
X5.1914Y-5.975
X5.25Y-4.425
X5.25Y-5.575
X5.525Y-4.55
X5.575Y-4.35
X5.575Y-4.8164
X5.575Y-5.4
X5.575Y-5.8
X5.575Y-5.975
X5.6Y-4.05
T2
X4.15Y-3.95
X4.25Y-3.95
X4.35Y-3.95
X4.45Y-3.95
X4.55Y-3.95
X4.65Y-3.95
X4.75Y-3.95
X4.85Y-3.95
X3.95Y-3.325
X3.95Y-3.425
X3.95Y-3.525
X3.95Y-3.625
X3.9935Y-4.2807
X3.9935Y-4.3807
X3.9935Y-4.4807
X3.9935Y-4.5807
X3.9935Y-4.6807
X3.9935Y-4.7807
X3.9935Y-4.8807
X3.9935Y-4.9807
X3.9935Y-5.0807
X3.9935Y-5.1807
X3.9935Y-5.2807
X3.9935Y-5.3807
X3.9935Y-5.4807
X3.9935Y-5.5807
X3.9935Y-5.6807
X3.9935Y-5.7807
X3.9935Y-5.8807
X3.9935Y-5.9807
X3.9935Y-6.0807
X4.9935Y-4.2807
X4.9935Y-4.3807
X4.9935Y-4.4807
X4.9935Y-4.5807
X4.9935Y-4.6807
X4.9935Y-4.7807
X4.9935Y-4.8807
X4.9935Y-4.9807
X4.9935Y-5.0807
X4.9935Y-5.1807
X4.9935Y-5.2807
X4.9935Y-5.3807
X4.9935Y-5.4807
X4.9935Y-5.5807
X4.9935Y-5.6807
X4.9935Y-5.7807
X4.9935Y-5.8807
X4.9935Y-5.9807
X4.9935Y-6.0807
T3
X2.7563Y-4.2047
X2.7563Y-4.4016
X3.15Y-4.0079
X3.15Y-4.3031
X3.15Y-4.5984
X3.2484Y-4.1063
X3.2484Y-4.5
X5.7016Y-4.1031
X5.7016Y-4.4969
X5.8Y-4.0047
X5.8Y-4.3
X5.8Y-4.5953
X6.1937Y-4.2016
X6.1937Y-4.3984
X5.7016Y-5.3031
X5.7016Y-5.6969
X5.8Y-5.2047
X5.8Y-5.5
X5.8Y-5.7953
X6.1937Y-5.4016
X6.1937Y-5.5984
X2.7563Y-5.4016
X2.7563Y-5.5984
X3.15Y-5.2047
X3.15Y-5.5
X3.15Y-5.7953
X3.2484Y-5.3031
X3.2484Y-5.6969
T4
X3.2Y-3.2
X3.4Y-3.2
T5
X2.8Y-3.2
X2.8Y-4.9
X6.15Y-3.2
X2.8Y-6.1
X6.15Y-6.1
X6.15Y-4.9
T0
M30
