G04 #@! TF.GenerationSoftware,KiCad,Pcbnew,5.0.0-fee4fd1~66~ubuntu18.04.1*
G04 #@! TF.CreationDate,2018-09-22T13:52:50+02:00*
G04 #@! TF.ProjectId,new-joy-board,6E65772D6A6F792D626F6172642E6B69,rev?*
G04 #@! TF.SameCoordinates,Original*
G04 #@! TF.FileFunction,Soldermask,Top*
G04 #@! TF.FilePolarity,Negative*
%FSLAX46Y46*%
G04 Gerber Fmt 4.6, Leading zero omitted, Abs format (unit mm)*
G04 Created by KiCad (PCBNEW 5.0.0-fee4fd1~66~ubuntu18.04.1) date Sat Sep 22 13:52:50 2018*
%MOMM*%
%LPD*%
G01*
G04 APERTURE LIST*
%ADD10C,6.900000*%
%ADD11C,2.350000*%
%ADD12C,2.800000*%
%ADD13C,1.924000*%
%ADD14R,3.400000X3.400000*%
%ADD15C,3.400000*%
%ADD16R,1.000000X1.950000*%
%ADD17C,0.100000*%
%ADD18C,1.550000*%
G04 APERTURE END LIST*
D10*
G04 #@! TO.C,REF\002A\002A*
X133350000Y-153035000D03*
G04 #@! TD*
D11*
G04 #@! TO.C,J2*
X124460000Y-47625000D03*
X121960000Y-42625000D03*
X124460000Y-40125000D03*
X121960000Y-52625000D03*
X124460000Y-55125000D03*
X134460000Y-50125000D03*
X134460000Y-45125000D03*
D12*
X129460000Y-55125000D03*
X129460000Y-40125000D03*
G04 #@! TD*
D13*
G04 #@! TO.C,U4*
X85725000Y-106680000D03*
X85725000Y-109220000D03*
X85725000Y-111760000D03*
X85725000Y-114300000D03*
X85725000Y-116840000D03*
X85725000Y-119380000D03*
X85725000Y-121920000D03*
X85725000Y-124460000D03*
X85725000Y-127000000D03*
X85725000Y-129540000D03*
X85725000Y-132080000D03*
X85725000Y-134620000D03*
X85725000Y-137160000D03*
X85725000Y-139700000D03*
X85725000Y-142240000D03*
X85725000Y-144780000D03*
X85725000Y-147320000D03*
X85725000Y-149860000D03*
X85725000Y-152400000D03*
X111125000Y-152400000D03*
X111125000Y-149860000D03*
X111125000Y-147320000D03*
X111125000Y-144780000D03*
X111125000Y-142240000D03*
X111125000Y-139700000D03*
X111125000Y-137160000D03*
X111125000Y-134620000D03*
X111125000Y-132080000D03*
X111125000Y-129540000D03*
X111125000Y-127000000D03*
X111125000Y-124460000D03*
X111125000Y-121920000D03*
X111125000Y-119380000D03*
X111125000Y-116840000D03*
X111125000Y-114300000D03*
X111125000Y-111760000D03*
X111125000Y-109220000D03*
X111125000Y-106680000D03*
G04 #@! TD*
D11*
G04 #@! TO.C,J0*
X88900000Y-78105000D03*
X91400000Y-83105000D03*
X88900000Y-85605000D03*
X91400000Y-73105000D03*
X88900000Y-70605000D03*
X78900000Y-75605000D03*
X78900000Y-80605000D03*
D12*
X83900000Y-70605000D03*
X83900000Y-85605000D03*
G04 #@! TD*
G04 #@! TO.C,J1*
X83900000Y-55205000D03*
X83900000Y-40205000D03*
D11*
X78900000Y-50205000D03*
X78900000Y-45205000D03*
X88900000Y-40205000D03*
X91400000Y-42705000D03*
X88900000Y-55205000D03*
X91400000Y-52705000D03*
X88900000Y-47705000D03*
G04 #@! TD*
G04 #@! TO.C,J3*
X124460000Y-78105000D03*
X121960000Y-73105000D03*
X124460000Y-70605000D03*
X121960000Y-83105000D03*
X124460000Y-85605000D03*
X134460000Y-80605000D03*
X134460000Y-75605000D03*
D12*
X129460000Y-85605000D03*
X129460000Y-70605000D03*
G04 #@! TD*
D13*
G04 #@! TO.C,U7*
X115570000Y-129540000D03*
X115570000Y-132080000D03*
X115570000Y-134620000D03*
X115570000Y-137160000D03*
X115570000Y-139700000D03*
X115570000Y-142240000D03*
X115570000Y-144780000D03*
X115570000Y-147320000D03*
G04 #@! TD*
D14*
G04 #@! TO.C,J4*
X82550000Y-22225000D03*
D15*
X87630000Y-22225000D03*
G04 #@! TD*
D10*
G04 #@! TO.C,REF\002A\002A*
X80010000Y-93345000D03*
G04 #@! TD*
G04 #@! TO.C,REF\002A\002A*
X80010000Y-62865000D03*
G04 #@! TD*
G04 #@! TO.C,REF\002A\002A*
X80010000Y-31115000D03*
G04 #@! TD*
G04 #@! TO.C,REF\002A\002A*
X133350000Y-21590000D03*
G04 #@! TD*
G04 #@! TO.C,REF\002A\002A*
X133350000Y-62865000D03*
G04 #@! TD*
G04 #@! TO.C,REF\002A\002A*
X133350000Y-93345000D03*
G04 #@! TD*
D16*
G04 #@! TO.C,U0*
X97155000Y-79535000D03*
X98425000Y-79535000D03*
X99695000Y-79535000D03*
X100965000Y-79535000D03*
X100965000Y-74135000D03*
X99695000Y-74135000D03*
X98425000Y-74135000D03*
X97155000Y-74135000D03*
G04 #@! TD*
G04 #@! TO.C,U1*
X97155000Y-52545000D03*
X98425000Y-52545000D03*
X99695000Y-52545000D03*
X100965000Y-52545000D03*
X100965000Y-57945000D03*
X99695000Y-57945000D03*
X98425000Y-57945000D03*
X97155000Y-57945000D03*
G04 #@! TD*
G04 #@! TO.C,U2*
X115570000Y-52545000D03*
X114300000Y-52545000D03*
X113030000Y-52545000D03*
X111760000Y-52545000D03*
X111760000Y-57945000D03*
X113030000Y-57945000D03*
X114300000Y-57945000D03*
X115570000Y-57945000D03*
G04 #@! TD*
G04 #@! TO.C,U3*
X115570000Y-79535000D03*
X114300000Y-79535000D03*
X113030000Y-79535000D03*
X111760000Y-79535000D03*
X111760000Y-74135000D03*
X113030000Y-74135000D03*
X114300000Y-74135000D03*
X115570000Y-74135000D03*
G04 #@! TD*
D13*
G04 #@! TO.C,U10*
X93345000Y-24765000D03*
X93345000Y-27305000D03*
X93345000Y-29845000D03*
X93345000Y-32385000D03*
G04 #@! TD*
D17*
G04 #@! TO.C,R1*
G36*
X112864071Y-80996623D02*
X112896781Y-81001475D01*
X112928857Y-81009509D01*
X112959991Y-81020649D01*
X112989884Y-81034787D01*
X113018247Y-81051787D01*
X113044807Y-81071485D01*
X113069308Y-81093692D01*
X113091515Y-81118193D01*
X113111213Y-81144753D01*
X113128213Y-81173116D01*
X113142351Y-81203009D01*
X113153491Y-81234143D01*
X113161525Y-81266219D01*
X113166377Y-81298929D01*
X113168000Y-81331956D01*
X113168000Y-82208044D01*
X113166377Y-82241071D01*
X113161525Y-82273781D01*
X113153491Y-82305857D01*
X113142351Y-82336991D01*
X113128213Y-82366884D01*
X113111213Y-82395247D01*
X113091515Y-82421807D01*
X113069308Y-82446308D01*
X113044807Y-82468515D01*
X113018247Y-82488213D01*
X112989884Y-82505213D01*
X112959991Y-82519351D01*
X112928857Y-82530491D01*
X112896781Y-82538525D01*
X112864071Y-82543377D01*
X112831044Y-82545000D01*
X111704956Y-82545000D01*
X111671929Y-82543377D01*
X111639219Y-82538525D01*
X111607143Y-82530491D01*
X111576009Y-82519351D01*
X111546116Y-82505213D01*
X111517753Y-82488213D01*
X111491193Y-82468515D01*
X111466692Y-82446308D01*
X111444485Y-82421807D01*
X111424787Y-82395247D01*
X111407787Y-82366884D01*
X111393649Y-82336991D01*
X111382509Y-82305857D01*
X111374475Y-82273781D01*
X111369623Y-82241071D01*
X111368000Y-82208044D01*
X111368000Y-81331956D01*
X111369623Y-81298929D01*
X111374475Y-81266219D01*
X111382509Y-81234143D01*
X111393649Y-81203009D01*
X111407787Y-81173116D01*
X111424787Y-81144753D01*
X111444485Y-81118193D01*
X111466692Y-81093692D01*
X111491193Y-81071485D01*
X111517753Y-81051787D01*
X111546116Y-81034787D01*
X111576009Y-81020649D01*
X111607143Y-81009509D01*
X111639219Y-81001475D01*
X111671929Y-80996623D01*
X111704956Y-80995000D01*
X112831044Y-80995000D01*
X112864071Y-80996623D01*
X112864071Y-80996623D01*
G37*
D18*
X112268000Y-81770000D03*
D17*
G36*
X112864071Y-83046623D02*
X112896781Y-83051475D01*
X112928857Y-83059509D01*
X112959991Y-83070649D01*
X112989884Y-83084787D01*
X113018247Y-83101787D01*
X113044807Y-83121485D01*
X113069308Y-83143692D01*
X113091515Y-83168193D01*
X113111213Y-83194753D01*
X113128213Y-83223116D01*
X113142351Y-83253009D01*
X113153491Y-83284143D01*
X113161525Y-83316219D01*
X113166377Y-83348929D01*
X113168000Y-83381956D01*
X113168000Y-84258044D01*
X113166377Y-84291071D01*
X113161525Y-84323781D01*
X113153491Y-84355857D01*
X113142351Y-84386991D01*
X113128213Y-84416884D01*
X113111213Y-84445247D01*
X113091515Y-84471807D01*
X113069308Y-84496308D01*
X113044807Y-84518515D01*
X113018247Y-84538213D01*
X112989884Y-84555213D01*
X112959991Y-84569351D01*
X112928857Y-84580491D01*
X112896781Y-84588525D01*
X112864071Y-84593377D01*
X112831044Y-84595000D01*
X111704956Y-84595000D01*
X111671929Y-84593377D01*
X111639219Y-84588525D01*
X111607143Y-84580491D01*
X111576009Y-84569351D01*
X111546116Y-84555213D01*
X111517753Y-84538213D01*
X111491193Y-84518515D01*
X111466692Y-84496308D01*
X111444485Y-84471807D01*
X111424787Y-84445247D01*
X111407787Y-84416884D01*
X111393649Y-84386991D01*
X111382509Y-84355857D01*
X111374475Y-84323781D01*
X111369623Y-84291071D01*
X111368000Y-84258044D01*
X111368000Y-83381956D01*
X111369623Y-83348929D01*
X111374475Y-83316219D01*
X111382509Y-83284143D01*
X111393649Y-83253009D01*
X111407787Y-83223116D01*
X111424787Y-83194753D01*
X111444485Y-83168193D01*
X111466692Y-83143692D01*
X111491193Y-83121485D01*
X111517753Y-83101787D01*
X111546116Y-83084787D01*
X111576009Y-83070649D01*
X111607143Y-83059509D01*
X111639219Y-83051475D01*
X111671929Y-83046623D01*
X111704956Y-83045000D01*
X112831044Y-83045000D01*
X112864071Y-83046623D01*
X112864071Y-83046623D01*
G37*
D18*
X112268000Y-83820000D03*
G04 #@! TD*
D17*
G04 #@! TO.C,R2*
G36*
X112864071Y-70872623D02*
X112896781Y-70877475D01*
X112928857Y-70885509D01*
X112959991Y-70896649D01*
X112989884Y-70910787D01*
X113018247Y-70927787D01*
X113044807Y-70947485D01*
X113069308Y-70969692D01*
X113091515Y-70994193D01*
X113111213Y-71020753D01*
X113128213Y-71049116D01*
X113142351Y-71079009D01*
X113153491Y-71110143D01*
X113161525Y-71142219D01*
X113166377Y-71174929D01*
X113168000Y-71207956D01*
X113168000Y-72084044D01*
X113166377Y-72117071D01*
X113161525Y-72149781D01*
X113153491Y-72181857D01*
X113142351Y-72212991D01*
X113128213Y-72242884D01*
X113111213Y-72271247D01*
X113091515Y-72297807D01*
X113069308Y-72322308D01*
X113044807Y-72344515D01*
X113018247Y-72364213D01*
X112989884Y-72381213D01*
X112959991Y-72395351D01*
X112928857Y-72406491D01*
X112896781Y-72414525D01*
X112864071Y-72419377D01*
X112831044Y-72421000D01*
X111704956Y-72421000D01*
X111671929Y-72419377D01*
X111639219Y-72414525D01*
X111607143Y-72406491D01*
X111576009Y-72395351D01*
X111546116Y-72381213D01*
X111517753Y-72364213D01*
X111491193Y-72344515D01*
X111466692Y-72322308D01*
X111444485Y-72297807D01*
X111424787Y-72271247D01*
X111407787Y-72242884D01*
X111393649Y-72212991D01*
X111382509Y-72181857D01*
X111374475Y-72149781D01*
X111369623Y-72117071D01*
X111368000Y-72084044D01*
X111368000Y-71207956D01*
X111369623Y-71174929D01*
X111374475Y-71142219D01*
X111382509Y-71110143D01*
X111393649Y-71079009D01*
X111407787Y-71049116D01*
X111424787Y-71020753D01*
X111444485Y-70994193D01*
X111466692Y-70969692D01*
X111491193Y-70947485D01*
X111517753Y-70927787D01*
X111546116Y-70910787D01*
X111576009Y-70896649D01*
X111607143Y-70885509D01*
X111639219Y-70877475D01*
X111671929Y-70872623D01*
X111704956Y-70871000D01*
X112831044Y-70871000D01*
X112864071Y-70872623D01*
X112864071Y-70872623D01*
G37*
D18*
X112268000Y-71646000D03*
D17*
G36*
X112864071Y-68822623D02*
X112896781Y-68827475D01*
X112928857Y-68835509D01*
X112959991Y-68846649D01*
X112989884Y-68860787D01*
X113018247Y-68877787D01*
X113044807Y-68897485D01*
X113069308Y-68919692D01*
X113091515Y-68944193D01*
X113111213Y-68970753D01*
X113128213Y-68999116D01*
X113142351Y-69029009D01*
X113153491Y-69060143D01*
X113161525Y-69092219D01*
X113166377Y-69124929D01*
X113168000Y-69157956D01*
X113168000Y-70034044D01*
X113166377Y-70067071D01*
X113161525Y-70099781D01*
X113153491Y-70131857D01*
X113142351Y-70162991D01*
X113128213Y-70192884D01*
X113111213Y-70221247D01*
X113091515Y-70247807D01*
X113069308Y-70272308D01*
X113044807Y-70294515D01*
X113018247Y-70314213D01*
X112989884Y-70331213D01*
X112959991Y-70345351D01*
X112928857Y-70356491D01*
X112896781Y-70364525D01*
X112864071Y-70369377D01*
X112831044Y-70371000D01*
X111704956Y-70371000D01*
X111671929Y-70369377D01*
X111639219Y-70364525D01*
X111607143Y-70356491D01*
X111576009Y-70345351D01*
X111546116Y-70331213D01*
X111517753Y-70314213D01*
X111491193Y-70294515D01*
X111466692Y-70272308D01*
X111444485Y-70247807D01*
X111424787Y-70221247D01*
X111407787Y-70192884D01*
X111393649Y-70162991D01*
X111382509Y-70131857D01*
X111374475Y-70099781D01*
X111369623Y-70067071D01*
X111368000Y-70034044D01*
X111368000Y-69157956D01*
X111369623Y-69124929D01*
X111374475Y-69092219D01*
X111382509Y-69060143D01*
X111393649Y-69029009D01*
X111407787Y-68999116D01*
X111424787Y-68970753D01*
X111444485Y-68944193D01*
X111466692Y-68919692D01*
X111491193Y-68897485D01*
X111517753Y-68877787D01*
X111546116Y-68860787D01*
X111576009Y-68846649D01*
X111607143Y-68835509D01*
X111639219Y-68827475D01*
X111671929Y-68822623D01*
X111704956Y-68821000D01*
X112831044Y-68821000D01*
X112864071Y-68822623D01*
X112864071Y-68822623D01*
G37*
D18*
X112268000Y-69596000D03*
G04 #@! TD*
D17*
G04 #@! TO.C,R3*
G36*
X112356071Y-59796623D02*
X112388781Y-59801475D01*
X112420857Y-59809509D01*
X112451991Y-59820649D01*
X112481884Y-59834787D01*
X112510247Y-59851787D01*
X112536807Y-59871485D01*
X112561308Y-59893692D01*
X112583515Y-59918193D01*
X112603213Y-59944753D01*
X112620213Y-59973116D01*
X112634351Y-60003009D01*
X112645491Y-60034143D01*
X112653525Y-60066219D01*
X112658377Y-60098929D01*
X112660000Y-60131956D01*
X112660000Y-61008044D01*
X112658377Y-61041071D01*
X112653525Y-61073781D01*
X112645491Y-61105857D01*
X112634351Y-61136991D01*
X112620213Y-61166884D01*
X112603213Y-61195247D01*
X112583515Y-61221807D01*
X112561308Y-61246308D01*
X112536807Y-61268515D01*
X112510247Y-61288213D01*
X112481884Y-61305213D01*
X112451991Y-61319351D01*
X112420857Y-61330491D01*
X112388781Y-61338525D01*
X112356071Y-61343377D01*
X112323044Y-61345000D01*
X111196956Y-61345000D01*
X111163929Y-61343377D01*
X111131219Y-61338525D01*
X111099143Y-61330491D01*
X111068009Y-61319351D01*
X111038116Y-61305213D01*
X111009753Y-61288213D01*
X110983193Y-61268515D01*
X110958692Y-61246308D01*
X110936485Y-61221807D01*
X110916787Y-61195247D01*
X110899787Y-61166884D01*
X110885649Y-61136991D01*
X110874509Y-61105857D01*
X110866475Y-61073781D01*
X110861623Y-61041071D01*
X110860000Y-61008044D01*
X110860000Y-60131956D01*
X110861623Y-60098929D01*
X110866475Y-60066219D01*
X110874509Y-60034143D01*
X110885649Y-60003009D01*
X110899787Y-59973116D01*
X110916787Y-59944753D01*
X110936485Y-59918193D01*
X110958692Y-59893692D01*
X110983193Y-59871485D01*
X111009753Y-59851787D01*
X111038116Y-59834787D01*
X111068009Y-59820649D01*
X111099143Y-59809509D01*
X111131219Y-59801475D01*
X111163929Y-59796623D01*
X111196956Y-59795000D01*
X112323044Y-59795000D01*
X112356071Y-59796623D01*
X112356071Y-59796623D01*
G37*
D18*
X111760000Y-60570000D03*
D17*
G36*
X112356071Y-61846623D02*
X112388781Y-61851475D01*
X112420857Y-61859509D01*
X112451991Y-61870649D01*
X112481884Y-61884787D01*
X112510247Y-61901787D01*
X112536807Y-61921485D01*
X112561308Y-61943692D01*
X112583515Y-61968193D01*
X112603213Y-61994753D01*
X112620213Y-62023116D01*
X112634351Y-62053009D01*
X112645491Y-62084143D01*
X112653525Y-62116219D01*
X112658377Y-62148929D01*
X112660000Y-62181956D01*
X112660000Y-63058044D01*
X112658377Y-63091071D01*
X112653525Y-63123781D01*
X112645491Y-63155857D01*
X112634351Y-63186991D01*
X112620213Y-63216884D01*
X112603213Y-63245247D01*
X112583515Y-63271807D01*
X112561308Y-63296308D01*
X112536807Y-63318515D01*
X112510247Y-63338213D01*
X112481884Y-63355213D01*
X112451991Y-63369351D01*
X112420857Y-63380491D01*
X112388781Y-63388525D01*
X112356071Y-63393377D01*
X112323044Y-63395000D01*
X111196956Y-63395000D01*
X111163929Y-63393377D01*
X111131219Y-63388525D01*
X111099143Y-63380491D01*
X111068009Y-63369351D01*
X111038116Y-63355213D01*
X111009753Y-63338213D01*
X110983193Y-63318515D01*
X110958692Y-63296308D01*
X110936485Y-63271807D01*
X110916787Y-63245247D01*
X110899787Y-63216884D01*
X110885649Y-63186991D01*
X110874509Y-63155857D01*
X110866475Y-63123781D01*
X110861623Y-63091071D01*
X110860000Y-63058044D01*
X110860000Y-62181956D01*
X110861623Y-62148929D01*
X110866475Y-62116219D01*
X110874509Y-62084143D01*
X110885649Y-62053009D01*
X110899787Y-62023116D01*
X110916787Y-61994753D01*
X110936485Y-61968193D01*
X110958692Y-61943692D01*
X110983193Y-61921485D01*
X111009753Y-61901787D01*
X111038116Y-61884787D01*
X111068009Y-61870649D01*
X111099143Y-61859509D01*
X111131219Y-61851475D01*
X111163929Y-61846623D01*
X111196956Y-61845000D01*
X112323044Y-61845000D01*
X112356071Y-61846623D01*
X112356071Y-61846623D01*
G37*
D18*
X111760000Y-62620000D03*
G04 #@! TD*
D17*
G04 #@! TO.C,R4*
G36*
X112356071Y-47096623D02*
X112388781Y-47101475D01*
X112420857Y-47109509D01*
X112451991Y-47120649D01*
X112481884Y-47134787D01*
X112510247Y-47151787D01*
X112536807Y-47171485D01*
X112561308Y-47193692D01*
X112583515Y-47218193D01*
X112603213Y-47244753D01*
X112620213Y-47273116D01*
X112634351Y-47303009D01*
X112645491Y-47334143D01*
X112653525Y-47366219D01*
X112658377Y-47398929D01*
X112660000Y-47431956D01*
X112660000Y-48308044D01*
X112658377Y-48341071D01*
X112653525Y-48373781D01*
X112645491Y-48405857D01*
X112634351Y-48436991D01*
X112620213Y-48466884D01*
X112603213Y-48495247D01*
X112583515Y-48521807D01*
X112561308Y-48546308D01*
X112536807Y-48568515D01*
X112510247Y-48588213D01*
X112481884Y-48605213D01*
X112451991Y-48619351D01*
X112420857Y-48630491D01*
X112388781Y-48638525D01*
X112356071Y-48643377D01*
X112323044Y-48645000D01*
X111196956Y-48645000D01*
X111163929Y-48643377D01*
X111131219Y-48638525D01*
X111099143Y-48630491D01*
X111068009Y-48619351D01*
X111038116Y-48605213D01*
X111009753Y-48588213D01*
X110983193Y-48568515D01*
X110958692Y-48546308D01*
X110936485Y-48521807D01*
X110916787Y-48495247D01*
X110899787Y-48466884D01*
X110885649Y-48436991D01*
X110874509Y-48405857D01*
X110866475Y-48373781D01*
X110861623Y-48341071D01*
X110860000Y-48308044D01*
X110860000Y-47431956D01*
X110861623Y-47398929D01*
X110866475Y-47366219D01*
X110874509Y-47334143D01*
X110885649Y-47303009D01*
X110899787Y-47273116D01*
X110916787Y-47244753D01*
X110936485Y-47218193D01*
X110958692Y-47193692D01*
X110983193Y-47171485D01*
X111009753Y-47151787D01*
X111038116Y-47134787D01*
X111068009Y-47120649D01*
X111099143Y-47109509D01*
X111131219Y-47101475D01*
X111163929Y-47096623D01*
X111196956Y-47095000D01*
X112323044Y-47095000D01*
X112356071Y-47096623D01*
X112356071Y-47096623D01*
G37*
D18*
X111760000Y-47870000D03*
D17*
G36*
X112356071Y-49146623D02*
X112388781Y-49151475D01*
X112420857Y-49159509D01*
X112451991Y-49170649D01*
X112481884Y-49184787D01*
X112510247Y-49201787D01*
X112536807Y-49221485D01*
X112561308Y-49243692D01*
X112583515Y-49268193D01*
X112603213Y-49294753D01*
X112620213Y-49323116D01*
X112634351Y-49353009D01*
X112645491Y-49384143D01*
X112653525Y-49416219D01*
X112658377Y-49448929D01*
X112660000Y-49481956D01*
X112660000Y-50358044D01*
X112658377Y-50391071D01*
X112653525Y-50423781D01*
X112645491Y-50455857D01*
X112634351Y-50486991D01*
X112620213Y-50516884D01*
X112603213Y-50545247D01*
X112583515Y-50571807D01*
X112561308Y-50596308D01*
X112536807Y-50618515D01*
X112510247Y-50638213D01*
X112481884Y-50655213D01*
X112451991Y-50669351D01*
X112420857Y-50680491D01*
X112388781Y-50688525D01*
X112356071Y-50693377D01*
X112323044Y-50695000D01*
X111196956Y-50695000D01*
X111163929Y-50693377D01*
X111131219Y-50688525D01*
X111099143Y-50680491D01*
X111068009Y-50669351D01*
X111038116Y-50655213D01*
X111009753Y-50638213D01*
X110983193Y-50618515D01*
X110958692Y-50596308D01*
X110936485Y-50571807D01*
X110916787Y-50545247D01*
X110899787Y-50516884D01*
X110885649Y-50486991D01*
X110874509Y-50455857D01*
X110866475Y-50423781D01*
X110861623Y-50391071D01*
X110860000Y-50358044D01*
X110860000Y-49481956D01*
X110861623Y-49448929D01*
X110866475Y-49416219D01*
X110874509Y-49384143D01*
X110885649Y-49353009D01*
X110899787Y-49323116D01*
X110916787Y-49294753D01*
X110936485Y-49268193D01*
X110958692Y-49243692D01*
X110983193Y-49221485D01*
X111009753Y-49201787D01*
X111038116Y-49184787D01*
X111068009Y-49170649D01*
X111099143Y-49159509D01*
X111131219Y-49151475D01*
X111163929Y-49146623D01*
X111196956Y-49145000D01*
X112323044Y-49145000D01*
X112356071Y-49146623D01*
X112356071Y-49146623D01*
G37*
D18*
X111760000Y-49920000D03*
G04 #@! TD*
D17*
G04 #@! TO.C,R5*
G36*
X101561071Y-49146623D02*
X101593781Y-49151475D01*
X101625857Y-49159509D01*
X101656991Y-49170649D01*
X101686884Y-49184787D01*
X101715247Y-49201787D01*
X101741807Y-49221485D01*
X101766308Y-49243692D01*
X101788515Y-49268193D01*
X101808213Y-49294753D01*
X101825213Y-49323116D01*
X101839351Y-49353009D01*
X101850491Y-49384143D01*
X101858525Y-49416219D01*
X101863377Y-49448929D01*
X101865000Y-49481956D01*
X101865000Y-50358044D01*
X101863377Y-50391071D01*
X101858525Y-50423781D01*
X101850491Y-50455857D01*
X101839351Y-50486991D01*
X101825213Y-50516884D01*
X101808213Y-50545247D01*
X101788515Y-50571807D01*
X101766308Y-50596308D01*
X101741807Y-50618515D01*
X101715247Y-50638213D01*
X101686884Y-50655213D01*
X101656991Y-50669351D01*
X101625857Y-50680491D01*
X101593781Y-50688525D01*
X101561071Y-50693377D01*
X101528044Y-50695000D01*
X100401956Y-50695000D01*
X100368929Y-50693377D01*
X100336219Y-50688525D01*
X100304143Y-50680491D01*
X100273009Y-50669351D01*
X100243116Y-50655213D01*
X100214753Y-50638213D01*
X100188193Y-50618515D01*
X100163692Y-50596308D01*
X100141485Y-50571807D01*
X100121787Y-50545247D01*
X100104787Y-50516884D01*
X100090649Y-50486991D01*
X100079509Y-50455857D01*
X100071475Y-50423781D01*
X100066623Y-50391071D01*
X100065000Y-50358044D01*
X100065000Y-49481956D01*
X100066623Y-49448929D01*
X100071475Y-49416219D01*
X100079509Y-49384143D01*
X100090649Y-49353009D01*
X100104787Y-49323116D01*
X100121787Y-49294753D01*
X100141485Y-49268193D01*
X100163692Y-49243692D01*
X100188193Y-49221485D01*
X100214753Y-49201787D01*
X100243116Y-49184787D01*
X100273009Y-49170649D01*
X100304143Y-49159509D01*
X100336219Y-49151475D01*
X100368929Y-49146623D01*
X100401956Y-49145000D01*
X101528044Y-49145000D01*
X101561071Y-49146623D01*
X101561071Y-49146623D01*
G37*
D18*
X100965000Y-49920000D03*
D17*
G36*
X101561071Y-47096623D02*
X101593781Y-47101475D01*
X101625857Y-47109509D01*
X101656991Y-47120649D01*
X101686884Y-47134787D01*
X101715247Y-47151787D01*
X101741807Y-47171485D01*
X101766308Y-47193692D01*
X101788515Y-47218193D01*
X101808213Y-47244753D01*
X101825213Y-47273116D01*
X101839351Y-47303009D01*
X101850491Y-47334143D01*
X101858525Y-47366219D01*
X101863377Y-47398929D01*
X101865000Y-47431956D01*
X101865000Y-48308044D01*
X101863377Y-48341071D01*
X101858525Y-48373781D01*
X101850491Y-48405857D01*
X101839351Y-48436991D01*
X101825213Y-48466884D01*
X101808213Y-48495247D01*
X101788515Y-48521807D01*
X101766308Y-48546308D01*
X101741807Y-48568515D01*
X101715247Y-48588213D01*
X101686884Y-48605213D01*
X101656991Y-48619351D01*
X101625857Y-48630491D01*
X101593781Y-48638525D01*
X101561071Y-48643377D01*
X101528044Y-48645000D01*
X100401956Y-48645000D01*
X100368929Y-48643377D01*
X100336219Y-48638525D01*
X100304143Y-48630491D01*
X100273009Y-48619351D01*
X100243116Y-48605213D01*
X100214753Y-48588213D01*
X100188193Y-48568515D01*
X100163692Y-48546308D01*
X100141485Y-48521807D01*
X100121787Y-48495247D01*
X100104787Y-48466884D01*
X100090649Y-48436991D01*
X100079509Y-48405857D01*
X100071475Y-48373781D01*
X100066623Y-48341071D01*
X100065000Y-48308044D01*
X100065000Y-47431956D01*
X100066623Y-47398929D01*
X100071475Y-47366219D01*
X100079509Y-47334143D01*
X100090649Y-47303009D01*
X100104787Y-47273116D01*
X100121787Y-47244753D01*
X100141485Y-47218193D01*
X100163692Y-47193692D01*
X100188193Y-47171485D01*
X100214753Y-47151787D01*
X100243116Y-47134787D01*
X100273009Y-47120649D01*
X100304143Y-47109509D01*
X100336219Y-47101475D01*
X100368929Y-47096623D01*
X100401956Y-47095000D01*
X101528044Y-47095000D01*
X101561071Y-47096623D01*
X101561071Y-47096623D01*
G37*
D18*
X100965000Y-47870000D03*
G04 #@! TD*
D17*
G04 #@! TO.C,R6*
G36*
X101561071Y-59796623D02*
X101593781Y-59801475D01*
X101625857Y-59809509D01*
X101656991Y-59820649D01*
X101686884Y-59834787D01*
X101715247Y-59851787D01*
X101741807Y-59871485D01*
X101766308Y-59893692D01*
X101788515Y-59918193D01*
X101808213Y-59944753D01*
X101825213Y-59973116D01*
X101839351Y-60003009D01*
X101850491Y-60034143D01*
X101858525Y-60066219D01*
X101863377Y-60098929D01*
X101865000Y-60131956D01*
X101865000Y-61008044D01*
X101863377Y-61041071D01*
X101858525Y-61073781D01*
X101850491Y-61105857D01*
X101839351Y-61136991D01*
X101825213Y-61166884D01*
X101808213Y-61195247D01*
X101788515Y-61221807D01*
X101766308Y-61246308D01*
X101741807Y-61268515D01*
X101715247Y-61288213D01*
X101686884Y-61305213D01*
X101656991Y-61319351D01*
X101625857Y-61330491D01*
X101593781Y-61338525D01*
X101561071Y-61343377D01*
X101528044Y-61345000D01*
X100401956Y-61345000D01*
X100368929Y-61343377D01*
X100336219Y-61338525D01*
X100304143Y-61330491D01*
X100273009Y-61319351D01*
X100243116Y-61305213D01*
X100214753Y-61288213D01*
X100188193Y-61268515D01*
X100163692Y-61246308D01*
X100141485Y-61221807D01*
X100121787Y-61195247D01*
X100104787Y-61166884D01*
X100090649Y-61136991D01*
X100079509Y-61105857D01*
X100071475Y-61073781D01*
X100066623Y-61041071D01*
X100065000Y-61008044D01*
X100065000Y-60131956D01*
X100066623Y-60098929D01*
X100071475Y-60066219D01*
X100079509Y-60034143D01*
X100090649Y-60003009D01*
X100104787Y-59973116D01*
X100121787Y-59944753D01*
X100141485Y-59918193D01*
X100163692Y-59893692D01*
X100188193Y-59871485D01*
X100214753Y-59851787D01*
X100243116Y-59834787D01*
X100273009Y-59820649D01*
X100304143Y-59809509D01*
X100336219Y-59801475D01*
X100368929Y-59796623D01*
X100401956Y-59795000D01*
X101528044Y-59795000D01*
X101561071Y-59796623D01*
X101561071Y-59796623D01*
G37*
D18*
X100965000Y-60570000D03*
D17*
G36*
X101561071Y-61846623D02*
X101593781Y-61851475D01*
X101625857Y-61859509D01*
X101656991Y-61870649D01*
X101686884Y-61884787D01*
X101715247Y-61901787D01*
X101741807Y-61921485D01*
X101766308Y-61943692D01*
X101788515Y-61968193D01*
X101808213Y-61994753D01*
X101825213Y-62023116D01*
X101839351Y-62053009D01*
X101850491Y-62084143D01*
X101858525Y-62116219D01*
X101863377Y-62148929D01*
X101865000Y-62181956D01*
X101865000Y-63058044D01*
X101863377Y-63091071D01*
X101858525Y-63123781D01*
X101850491Y-63155857D01*
X101839351Y-63186991D01*
X101825213Y-63216884D01*
X101808213Y-63245247D01*
X101788515Y-63271807D01*
X101766308Y-63296308D01*
X101741807Y-63318515D01*
X101715247Y-63338213D01*
X101686884Y-63355213D01*
X101656991Y-63369351D01*
X101625857Y-63380491D01*
X101593781Y-63388525D01*
X101561071Y-63393377D01*
X101528044Y-63395000D01*
X100401956Y-63395000D01*
X100368929Y-63393377D01*
X100336219Y-63388525D01*
X100304143Y-63380491D01*
X100273009Y-63369351D01*
X100243116Y-63355213D01*
X100214753Y-63338213D01*
X100188193Y-63318515D01*
X100163692Y-63296308D01*
X100141485Y-63271807D01*
X100121787Y-63245247D01*
X100104787Y-63216884D01*
X100090649Y-63186991D01*
X100079509Y-63155857D01*
X100071475Y-63123781D01*
X100066623Y-63091071D01*
X100065000Y-63058044D01*
X100065000Y-62181956D01*
X100066623Y-62148929D01*
X100071475Y-62116219D01*
X100079509Y-62084143D01*
X100090649Y-62053009D01*
X100104787Y-62023116D01*
X100121787Y-61994753D01*
X100141485Y-61968193D01*
X100163692Y-61943692D01*
X100188193Y-61921485D01*
X100214753Y-61901787D01*
X100243116Y-61884787D01*
X100273009Y-61870649D01*
X100304143Y-61859509D01*
X100336219Y-61851475D01*
X100368929Y-61846623D01*
X100401956Y-61845000D01*
X101528044Y-61845000D01*
X101561071Y-61846623D01*
X101561071Y-61846623D01*
G37*
D18*
X100965000Y-62620000D03*
G04 #@! TD*
D17*
G04 #@! TO.C,R7*
G36*
X101561071Y-68931623D02*
X101593781Y-68936475D01*
X101625857Y-68944509D01*
X101656991Y-68955649D01*
X101686884Y-68969787D01*
X101715247Y-68986787D01*
X101741807Y-69006485D01*
X101766308Y-69028692D01*
X101788515Y-69053193D01*
X101808213Y-69079753D01*
X101825213Y-69108116D01*
X101839351Y-69138009D01*
X101850491Y-69169143D01*
X101858525Y-69201219D01*
X101863377Y-69233929D01*
X101865000Y-69266956D01*
X101865000Y-70143044D01*
X101863377Y-70176071D01*
X101858525Y-70208781D01*
X101850491Y-70240857D01*
X101839351Y-70271991D01*
X101825213Y-70301884D01*
X101808213Y-70330247D01*
X101788515Y-70356807D01*
X101766308Y-70381308D01*
X101741807Y-70403515D01*
X101715247Y-70423213D01*
X101686884Y-70440213D01*
X101656991Y-70454351D01*
X101625857Y-70465491D01*
X101593781Y-70473525D01*
X101561071Y-70478377D01*
X101528044Y-70480000D01*
X100401956Y-70480000D01*
X100368929Y-70478377D01*
X100336219Y-70473525D01*
X100304143Y-70465491D01*
X100273009Y-70454351D01*
X100243116Y-70440213D01*
X100214753Y-70423213D01*
X100188193Y-70403515D01*
X100163692Y-70381308D01*
X100141485Y-70356807D01*
X100121787Y-70330247D01*
X100104787Y-70301884D01*
X100090649Y-70271991D01*
X100079509Y-70240857D01*
X100071475Y-70208781D01*
X100066623Y-70176071D01*
X100065000Y-70143044D01*
X100065000Y-69266956D01*
X100066623Y-69233929D01*
X100071475Y-69201219D01*
X100079509Y-69169143D01*
X100090649Y-69138009D01*
X100104787Y-69108116D01*
X100121787Y-69079753D01*
X100141485Y-69053193D01*
X100163692Y-69028692D01*
X100188193Y-69006485D01*
X100214753Y-68986787D01*
X100243116Y-68969787D01*
X100273009Y-68955649D01*
X100304143Y-68944509D01*
X100336219Y-68936475D01*
X100368929Y-68931623D01*
X100401956Y-68930000D01*
X101528044Y-68930000D01*
X101561071Y-68931623D01*
X101561071Y-68931623D01*
G37*
D18*
X100965000Y-69705000D03*
D17*
G36*
X101561071Y-70981623D02*
X101593781Y-70986475D01*
X101625857Y-70994509D01*
X101656991Y-71005649D01*
X101686884Y-71019787D01*
X101715247Y-71036787D01*
X101741807Y-71056485D01*
X101766308Y-71078692D01*
X101788515Y-71103193D01*
X101808213Y-71129753D01*
X101825213Y-71158116D01*
X101839351Y-71188009D01*
X101850491Y-71219143D01*
X101858525Y-71251219D01*
X101863377Y-71283929D01*
X101865000Y-71316956D01*
X101865000Y-72193044D01*
X101863377Y-72226071D01*
X101858525Y-72258781D01*
X101850491Y-72290857D01*
X101839351Y-72321991D01*
X101825213Y-72351884D01*
X101808213Y-72380247D01*
X101788515Y-72406807D01*
X101766308Y-72431308D01*
X101741807Y-72453515D01*
X101715247Y-72473213D01*
X101686884Y-72490213D01*
X101656991Y-72504351D01*
X101625857Y-72515491D01*
X101593781Y-72523525D01*
X101561071Y-72528377D01*
X101528044Y-72530000D01*
X100401956Y-72530000D01*
X100368929Y-72528377D01*
X100336219Y-72523525D01*
X100304143Y-72515491D01*
X100273009Y-72504351D01*
X100243116Y-72490213D01*
X100214753Y-72473213D01*
X100188193Y-72453515D01*
X100163692Y-72431308D01*
X100141485Y-72406807D01*
X100121787Y-72380247D01*
X100104787Y-72351884D01*
X100090649Y-72321991D01*
X100079509Y-72290857D01*
X100071475Y-72258781D01*
X100066623Y-72226071D01*
X100065000Y-72193044D01*
X100065000Y-71316956D01*
X100066623Y-71283929D01*
X100071475Y-71251219D01*
X100079509Y-71219143D01*
X100090649Y-71188009D01*
X100104787Y-71158116D01*
X100121787Y-71129753D01*
X100141485Y-71103193D01*
X100163692Y-71078692D01*
X100188193Y-71056485D01*
X100214753Y-71036787D01*
X100243116Y-71019787D01*
X100273009Y-71005649D01*
X100304143Y-70994509D01*
X100336219Y-70986475D01*
X100368929Y-70981623D01*
X100401956Y-70980000D01*
X101528044Y-70980000D01*
X101561071Y-70981623D01*
X101561071Y-70981623D01*
G37*
D18*
X100965000Y-71755000D03*
G04 #@! TD*
D17*
G04 #@! TO.C,R8*
G36*
X101561071Y-83191623D02*
X101593781Y-83196475D01*
X101625857Y-83204509D01*
X101656991Y-83215649D01*
X101686884Y-83229787D01*
X101715247Y-83246787D01*
X101741807Y-83266485D01*
X101766308Y-83288692D01*
X101788515Y-83313193D01*
X101808213Y-83339753D01*
X101825213Y-83368116D01*
X101839351Y-83398009D01*
X101850491Y-83429143D01*
X101858525Y-83461219D01*
X101863377Y-83493929D01*
X101865000Y-83526956D01*
X101865000Y-84403044D01*
X101863377Y-84436071D01*
X101858525Y-84468781D01*
X101850491Y-84500857D01*
X101839351Y-84531991D01*
X101825213Y-84561884D01*
X101808213Y-84590247D01*
X101788515Y-84616807D01*
X101766308Y-84641308D01*
X101741807Y-84663515D01*
X101715247Y-84683213D01*
X101686884Y-84700213D01*
X101656991Y-84714351D01*
X101625857Y-84725491D01*
X101593781Y-84733525D01*
X101561071Y-84738377D01*
X101528044Y-84740000D01*
X100401956Y-84740000D01*
X100368929Y-84738377D01*
X100336219Y-84733525D01*
X100304143Y-84725491D01*
X100273009Y-84714351D01*
X100243116Y-84700213D01*
X100214753Y-84683213D01*
X100188193Y-84663515D01*
X100163692Y-84641308D01*
X100141485Y-84616807D01*
X100121787Y-84590247D01*
X100104787Y-84561884D01*
X100090649Y-84531991D01*
X100079509Y-84500857D01*
X100071475Y-84468781D01*
X100066623Y-84436071D01*
X100065000Y-84403044D01*
X100065000Y-83526956D01*
X100066623Y-83493929D01*
X100071475Y-83461219D01*
X100079509Y-83429143D01*
X100090649Y-83398009D01*
X100104787Y-83368116D01*
X100121787Y-83339753D01*
X100141485Y-83313193D01*
X100163692Y-83288692D01*
X100188193Y-83266485D01*
X100214753Y-83246787D01*
X100243116Y-83229787D01*
X100273009Y-83215649D01*
X100304143Y-83204509D01*
X100336219Y-83196475D01*
X100368929Y-83191623D01*
X100401956Y-83190000D01*
X101528044Y-83190000D01*
X101561071Y-83191623D01*
X101561071Y-83191623D01*
G37*
D18*
X100965000Y-83965000D03*
D17*
G36*
X101561071Y-81141623D02*
X101593781Y-81146475D01*
X101625857Y-81154509D01*
X101656991Y-81165649D01*
X101686884Y-81179787D01*
X101715247Y-81196787D01*
X101741807Y-81216485D01*
X101766308Y-81238692D01*
X101788515Y-81263193D01*
X101808213Y-81289753D01*
X101825213Y-81318116D01*
X101839351Y-81348009D01*
X101850491Y-81379143D01*
X101858525Y-81411219D01*
X101863377Y-81443929D01*
X101865000Y-81476956D01*
X101865000Y-82353044D01*
X101863377Y-82386071D01*
X101858525Y-82418781D01*
X101850491Y-82450857D01*
X101839351Y-82481991D01*
X101825213Y-82511884D01*
X101808213Y-82540247D01*
X101788515Y-82566807D01*
X101766308Y-82591308D01*
X101741807Y-82613515D01*
X101715247Y-82633213D01*
X101686884Y-82650213D01*
X101656991Y-82664351D01*
X101625857Y-82675491D01*
X101593781Y-82683525D01*
X101561071Y-82688377D01*
X101528044Y-82690000D01*
X100401956Y-82690000D01*
X100368929Y-82688377D01*
X100336219Y-82683525D01*
X100304143Y-82675491D01*
X100273009Y-82664351D01*
X100243116Y-82650213D01*
X100214753Y-82633213D01*
X100188193Y-82613515D01*
X100163692Y-82591308D01*
X100141485Y-82566807D01*
X100121787Y-82540247D01*
X100104787Y-82511884D01*
X100090649Y-82481991D01*
X100079509Y-82450857D01*
X100071475Y-82418781D01*
X100066623Y-82386071D01*
X100065000Y-82353044D01*
X100065000Y-81476956D01*
X100066623Y-81443929D01*
X100071475Y-81411219D01*
X100079509Y-81379143D01*
X100090649Y-81348009D01*
X100104787Y-81318116D01*
X100121787Y-81289753D01*
X100141485Y-81263193D01*
X100163692Y-81238692D01*
X100188193Y-81216485D01*
X100214753Y-81196787D01*
X100243116Y-81179787D01*
X100273009Y-81165649D01*
X100304143Y-81154509D01*
X100336219Y-81146475D01*
X100368929Y-81141623D01*
X100401956Y-81140000D01*
X101528044Y-81140000D01*
X101561071Y-81141623D01*
X101561071Y-81141623D01*
G37*
D18*
X100965000Y-81915000D03*
G04 #@! TD*
D17*
G04 #@! TO.C,R9*
G36*
X115404071Y-81014623D02*
X115436781Y-81019475D01*
X115468857Y-81027509D01*
X115499991Y-81038649D01*
X115529884Y-81052787D01*
X115558247Y-81069787D01*
X115584807Y-81089485D01*
X115609308Y-81111692D01*
X115631515Y-81136193D01*
X115651213Y-81162753D01*
X115668213Y-81191116D01*
X115682351Y-81221009D01*
X115693491Y-81252143D01*
X115701525Y-81284219D01*
X115706377Y-81316929D01*
X115708000Y-81349956D01*
X115708000Y-82226044D01*
X115706377Y-82259071D01*
X115701525Y-82291781D01*
X115693491Y-82323857D01*
X115682351Y-82354991D01*
X115668213Y-82384884D01*
X115651213Y-82413247D01*
X115631515Y-82439807D01*
X115609308Y-82464308D01*
X115584807Y-82486515D01*
X115558247Y-82506213D01*
X115529884Y-82523213D01*
X115499991Y-82537351D01*
X115468857Y-82548491D01*
X115436781Y-82556525D01*
X115404071Y-82561377D01*
X115371044Y-82563000D01*
X114244956Y-82563000D01*
X114211929Y-82561377D01*
X114179219Y-82556525D01*
X114147143Y-82548491D01*
X114116009Y-82537351D01*
X114086116Y-82523213D01*
X114057753Y-82506213D01*
X114031193Y-82486515D01*
X114006692Y-82464308D01*
X113984485Y-82439807D01*
X113964787Y-82413247D01*
X113947787Y-82384884D01*
X113933649Y-82354991D01*
X113922509Y-82323857D01*
X113914475Y-82291781D01*
X113909623Y-82259071D01*
X113908000Y-82226044D01*
X113908000Y-81349956D01*
X113909623Y-81316929D01*
X113914475Y-81284219D01*
X113922509Y-81252143D01*
X113933649Y-81221009D01*
X113947787Y-81191116D01*
X113964787Y-81162753D01*
X113984485Y-81136193D01*
X114006692Y-81111692D01*
X114031193Y-81089485D01*
X114057753Y-81069787D01*
X114086116Y-81052787D01*
X114116009Y-81038649D01*
X114147143Y-81027509D01*
X114179219Y-81019475D01*
X114211929Y-81014623D01*
X114244956Y-81013000D01*
X115371044Y-81013000D01*
X115404071Y-81014623D01*
X115404071Y-81014623D01*
G37*
D18*
X114808000Y-81788000D03*
D17*
G36*
X115404071Y-83064623D02*
X115436781Y-83069475D01*
X115468857Y-83077509D01*
X115499991Y-83088649D01*
X115529884Y-83102787D01*
X115558247Y-83119787D01*
X115584807Y-83139485D01*
X115609308Y-83161692D01*
X115631515Y-83186193D01*
X115651213Y-83212753D01*
X115668213Y-83241116D01*
X115682351Y-83271009D01*
X115693491Y-83302143D01*
X115701525Y-83334219D01*
X115706377Y-83366929D01*
X115708000Y-83399956D01*
X115708000Y-84276044D01*
X115706377Y-84309071D01*
X115701525Y-84341781D01*
X115693491Y-84373857D01*
X115682351Y-84404991D01*
X115668213Y-84434884D01*
X115651213Y-84463247D01*
X115631515Y-84489807D01*
X115609308Y-84514308D01*
X115584807Y-84536515D01*
X115558247Y-84556213D01*
X115529884Y-84573213D01*
X115499991Y-84587351D01*
X115468857Y-84598491D01*
X115436781Y-84606525D01*
X115404071Y-84611377D01*
X115371044Y-84613000D01*
X114244956Y-84613000D01*
X114211929Y-84611377D01*
X114179219Y-84606525D01*
X114147143Y-84598491D01*
X114116009Y-84587351D01*
X114086116Y-84573213D01*
X114057753Y-84556213D01*
X114031193Y-84536515D01*
X114006692Y-84514308D01*
X113984485Y-84489807D01*
X113964787Y-84463247D01*
X113947787Y-84434884D01*
X113933649Y-84404991D01*
X113922509Y-84373857D01*
X113914475Y-84341781D01*
X113909623Y-84309071D01*
X113908000Y-84276044D01*
X113908000Y-83399956D01*
X113909623Y-83366929D01*
X113914475Y-83334219D01*
X113922509Y-83302143D01*
X113933649Y-83271009D01*
X113947787Y-83241116D01*
X113964787Y-83212753D01*
X113984485Y-83186193D01*
X114006692Y-83161692D01*
X114031193Y-83139485D01*
X114057753Y-83119787D01*
X114086116Y-83102787D01*
X114116009Y-83088649D01*
X114147143Y-83077509D01*
X114179219Y-83069475D01*
X114211929Y-83064623D01*
X114244956Y-83063000D01*
X115371044Y-83063000D01*
X115404071Y-83064623D01*
X115404071Y-83064623D01*
G37*
D18*
X114808000Y-83838000D03*
G04 #@! TD*
D17*
G04 #@! TO.C,R10*
G36*
X115404071Y-68813623D02*
X115436781Y-68818475D01*
X115468857Y-68826509D01*
X115499991Y-68837649D01*
X115529884Y-68851787D01*
X115558247Y-68868787D01*
X115584807Y-68888485D01*
X115609308Y-68910692D01*
X115631515Y-68935193D01*
X115651213Y-68961753D01*
X115668213Y-68990116D01*
X115682351Y-69020009D01*
X115693491Y-69051143D01*
X115701525Y-69083219D01*
X115706377Y-69115929D01*
X115708000Y-69148956D01*
X115708000Y-70025044D01*
X115706377Y-70058071D01*
X115701525Y-70090781D01*
X115693491Y-70122857D01*
X115682351Y-70153991D01*
X115668213Y-70183884D01*
X115651213Y-70212247D01*
X115631515Y-70238807D01*
X115609308Y-70263308D01*
X115584807Y-70285515D01*
X115558247Y-70305213D01*
X115529884Y-70322213D01*
X115499991Y-70336351D01*
X115468857Y-70347491D01*
X115436781Y-70355525D01*
X115404071Y-70360377D01*
X115371044Y-70362000D01*
X114244956Y-70362000D01*
X114211929Y-70360377D01*
X114179219Y-70355525D01*
X114147143Y-70347491D01*
X114116009Y-70336351D01*
X114086116Y-70322213D01*
X114057753Y-70305213D01*
X114031193Y-70285515D01*
X114006692Y-70263308D01*
X113984485Y-70238807D01*
X113964787Y-70212247D01*
X113947787Y-70183884D01*
X113933649Y-70153991D01*
X113922509Y-70122857D01*
X113914475Y-70090781D01*
X113909623Y-70058071D01*
X113908000Y-70025044D01*
X113908000Y-69148956D01*
X113909623Y-69115929D01*
X113914475Y-69083219D01*
X113922509Y-69051143D01*
X113933649Y-69020009D01*
X113947787Y-68990116D01*
X113964787Y-68961753D01*
X113984485Y-68935193D01*
X114006692Y-68910692D01*
X114031193Y-68888485D01*
X114057753Y-68868787D01*
X114086116Y-68851787D01*
X114116009Y-68837649D01*
X114147143Y-68826509D01*
X114179219Y-68818475D01*
X114211929Y-68813623D01*
X114244956Y-68812000D01*
X115371044Y-68812000D01*
X115404071Y-68813623D01*
X115404071Y-68813623D01*
G37*
D18*
X114808000Y-69587000D03*
D17*
G36*
X115404071Y-70863623D02*
X115436781Y-70868475D01*
X115468857Y-70876509D01*
X115499991Y-70887649D01*
X115529884Y-70901787D01*
X115558247Y-70918787D01*
X115584807Y-70938485D01*
X115609308Y-70960692D01*
X115631515Y-70985193D01*
X115651213Y-71011753D01*
X115668213Y-71040116D01*
X115682351Y-71070009D01*
X115693491Y-71101143D01*
X115701525Y-71133219D01*
X115706377Y-71165929D01*
X115708000Y-71198956D01*
X115708000Y-72075044D01*
X115706377Y-72108071D01*
X115701525Y-72140781D01*
X115693491Y-72172857D01*
X115682351Y-72203991D01*
X115668213Y-72233884D01*
X115651213Y-72262247D01*
X115631515Y-72288807D01*
X115609308Y-72313308D01*
X115584807Y-72335515D01*
X115558247Y-72355213D01*
X115529884Y-72372213D01*
X115499991Y-72386351D01*
X115468857Y-72397491D01*
X115436781Y-72405525D01*
X115404071Y-72410377D01*
X115371044Y-72412000D01*
X114244956Y-72412000D01*
X114211929Y-72410377D01*
X114179219Y-72405525D01*
X114147143Y-72397491D01*
X114116009Y-72386351D01*
X114086116Y-72372213D01*
X114057753Y-72355213D01*
X114031193Y-72335515D01*
X114006692Y-72313308D01*
X113984485Y-72288807D01*
X113964787Y-72262247D01*
X113947787Y-72233884D01*
X113933649Y-72203991D01*
X113922509Y-72172857D01*
X113914475Y-72140781D01*
X113909623Y-72108071D01*
X113908000Y-72075044D01*
X113908000Y-71198956D01*
X113909623Y-71165929D01*
X113914475Y-71133219D01*
X113922509Y-71101143D01*
X113933649Y-71070009D01*
X113947787Y-71040116D01*
X113964787Y-71011753D01*
X113984485Y-70985193D01*
X114006692Y-70960692D01*
X114031193Y-70938485D01*
X114057753Y-70918787D01*
X114086116Y-70901787D01*
X114116009Y-70887649D01*
X114147143Y-70876509D01*
X114179219Y-70868475D01*
X114211929Y-70863623D01*
X114244956Y-70862000D01*
X115371044Y-70862000D01*
X115404071Y-70863623D01*
X115404071Y-70863623D01*
G37*
D18*
X114808000Y-71637000D03*
G04 #@! TD*
D17*
G04 #@! TO.C,R11*
G36*
X115531071Y-61846623D02*
X115563781Y-61851475D01*
X115595857Y-61859509D01*
X115626991Y-61870649D01*
X115656884Y-61884787D01*
X115685247Y-61901787D01*
X115711807Y-61921485D01*
X115736308Y-61943692D01*
X115758515Y-61968193D01*
X115778213Y-61994753D01*
X115795213Y-62023116D01*
X115809351Y-62053009D01*
X115820491Y-62084143D01*
X115828525Y-62116219D01*
X115833377Y-62148929D01*
X115835000Y-62181956D01*
X115835000Y-63058044D01*
X115833377Y-63091071D01*
X115828525Y-63123781D01*
X115820491Y-63155857D01*
X115809351Y-63186991D01*
X115795213Y-63216884D01*
X115778213Y-63245247D01*
X115758515Y-63271807D01*
X115736308Y-63296308D01*
X115711807Y-63318515D01*
X115685247Y-63338213D01*
X115656884Y-63355213D01*
X115626991Y-63369351D01*
X115595857Y-63380491D01*
X115563781Y-63388525D01*
X115531071Y-63393377D01*
X115498044Y-63395000D01*
X114371956Y-63395000D01*
X114338929Y-63393377D01*
X114306219Y-63388525D01*
X114274143Y-63380491D01*
X114243009Y-63369351D01*
X114213116Y-63355213D01*
X114184753Y-63338213D01*
X114158193Y-63318515D01*
X114133692Y-63296308D01*
X114111485Y-63271807D01*
X114091787Y-63245247D01*
X114074787Y-63216884D01*
X114060649Y-63186991D01*
X114049509Y-63155857D01*
X114041475Y-63123781D01*
X114036623Y-63091071D01*
X114035000Y-63058044D01*
X114035000Y-62181956D01*
X114036623Y-62148929D01*
X114041475Y-62116219D01*
X114049509Y-62084143D01*
X114060649Y-62053009D01*
X114074787Y-62023116D01*
X114091787Y-61994753D01*
X114111485Y-61968193D01*
X114133692Y-61943692D01*
X114158193Y-61921485D01*
X114184753Y-61901787D01*
X114213116Y-61884787D01*
X114243009Y-61870649D01*
X114274143Y-61859509D01*
X114306219Y-61851475D01*
X114338929Y-61846623D01*
X114371956Y-61845000D01*
X115498044Y-61845000D01*
X115531071Y-61846623D01*
X115531071Y-61846623D01*
G37*
D18*
X114935000Y-62620000D03*
D17*
G36*
X115531071Y-59796623D02*
X115563781Y-59801475D01*
X115595857Y-59809509D01*
X115626991Y-59820649D01*
X115656884Y-59834787D01*
X115685247Y-59851787D01*
X115711807Y-59871485D01*
X115736308Y-59893692D01*
X115758515Y-59918193D01*
X115778213Y-59944753D01*
X115795213Y-59973116D01*
X115809351Y-60003009D01*
X115820491Y-60034143D01*
X115828525Y-60066219D01*
X115833377Y-60098929D01*
X115835000Y-60131956D01*
X115835000Y-61008044D01*
X115833377Y-61041071D01*
X115828525Y-61073781D01*
X115820491Y-61105857D01*
X115809351Y-61136991D01*
X115795213Y-61166884D01*
X115778213Y-61195247D01*
X115758515Y-61221807D01*
X115736308Y-61246308D01*
X115711807Y-61268515D01*
X115685247Y-61288213D01*
X115656884Y-61305213D01*
X115626991Y-61319351D01*
X115595857Y-61330491D01*
X115563781Y-61338525D01*
X115531071Y-61343377D01*
X115498044Y-61345000D01*
X114371956Y-61345000D01*
X114338929Y-61343377D01*
X114306219Y-61338525D01*
X114274143Y-61330491D01*
X114243009Y-61319351D01*
X114213116Y-61305213D01*
X114184753Y-61288213D01*
X114158193Y-61268515D01*
X114133692Y-61246308D01*
X114111485Y-61221807D01*
X114091787Y-61195247D01*
X114074787Y-61166884D01*
X114060649Y-61136991D01*
X114049509Y-61105857D01*
X114041475Y-61073781D01*
X114036623Y-61041071D01*
X114035000Y-61008044D01*
X114035000Y-60131956D01*
X114036623Y-60098929D01*
X114041475Y-60066219D01*
X114049509Y-60034143D01*
X114060649Y-60003009D01*
X114074787Y-59973116D01*
X114091787Y-59944753D01*
X114111485Y-59918193D01*
X114133692Y-59893692D01*
X114158193Y-59871485D01*
X114184753Y-59851787D01*
X114213116Y-59834787D01*
X114243009Y-59820649D01*
X114274143Y-59809509D01*
X114306219Y-59801475D01*
X114338929Y-59796623D01*
X114371956Y-59795000D01*
X115498044Y-59795000D01*
X115531071Y-59796623D01*
X115531071Y-59796623D01*
G37*
D18*
X114935000Y-60570000D03*
G04 #@! TD*
D17*
G04 #@! TO.C,R12*
G36*
X115531071Y-47096623D02*
X115563781Y-47101475D01*
X115595857Y-47109509D01*
X115626991Y-47120649D01*
X115656884Y-47134787D01*
X115685247Y-47151787D01*
X115711807Y-47171485D01*
X115736308Y-47193692D01*
X115758515Y-47218193D01*
X115778213Y-47244753D01*
X115795213Y-47273116D01*
X115809351Y-47303009D01*
X115820491Y-47334143D01*
X115828525Y-47366219D01*
X115833377Y-47398929D01*
X115835000Y-47431956D01*
X115835000Y-48308044D01*
X115833377Y-48341071D01*
X115828525Y-48373781D01*
X115820491Y-48405857D01*
X115809351Y-48436991D01*
X115795213Y-48466884D01*
X115778213Y-48495247D01*
X115758515Y-48521807D01*
X115736308Y-48546308D01*
X115711807Y-48568515D01*
X115685247Y-48588213D01*
X115656884Y-48605213D01*
X115626991Y-48619351D01*
X115595857Y-48630491D01*
X115563781Y-48638525D01*
X115531071Y-48643377D01*
X115498044Y-48645000D01*
X114371956Y-48645000D01*
X114338929Y-48643377D01*
X114306219Y-48638525D01*
X114274143Y-48630491D01*
X114243009Y-48619351D01*
X114213116Y-48605213D01*
X114184753Y-48588213D01*
X114158193Y-48568515D01*
X114133692Y-48546308D01*
X114111485Y-48521807D01*
X114091787Y-48495247D01*
X114074787Y-48466884D01*
X114060649Y-48436991D01*
X114049509Y-48405857D01*
X114041475Y-48373781D01*
X114036623Y-48341071D01*
X114035000Y-48308044D01*
X114035000Y-47431956D01*
X114036623Y-47398929D01*
X114041475Y-47366219D01*
X114049509Y-47334143D01*
X114060649Y-47303009D01*
X114074787Y-47273116D01*
X114091787Y-47244753D01*
X114111485Y-47218193D01*
X114133692Y-47193692D01*
X114158193Y-47171485D01*
X114184753Y-47151787D01*
X114213116Y-47134787D01*
X114243009Y-47120649D01*
X114274143Y-47109509D01*
X114306219Y-47101475D01*
X114338929Y-47096623D01*
X114371956Y-47095000D01*
X115498044Y-47095000D01*
X115531071Y-47096623D01*
X115531071Y-47096623D01*
G37*
D18*
X114935000Y-47870000D03*
D17*
G36*
X115531071Y-49146623D02*
X115563781Y-49151475D01*
X115595857Y-49159509D01*
X115626991Y-49170649D01*
X115656884Y-49184787D01*
X115685247Y-49201787D01*
X115711807Y-49221485D01*
X115736308Y-49243692D01*
X115758515Y-49268193D01*
X115778213Y-49294753D01*
X115795213Y-49323116D01*
X115809351Y-49353009D01*
X115820491Y-49384143D01*
X115828525Y-49416219D01*
X115833377Y-49448929D01*
X115835000Y-49481956D01*
X115835000Y-50358044D01*
X115833377Y-50391071D01*
X115828525Y-50423781D01*
X115820491Y-50455857D01*
X115809351Y-50486991D01*
X115795213Y-50516884D01*
X115778213Y-50545247D01*
X115758515Y-50571807D01*
X115736308Y-50596308D01*
X115711807Y-50618515D01*
X115685247Y-50638213D01*
X115656884Y-50655213D01*
X115626991Y-50669351D01*
X115595857Y-50680491D01*
X115563781Y-50688525D01*
X115531071Y-50693377D01*
X115498044Y-50695000D01*
X114371956Y-50695000D01*
X114338929Y-50693377D01*
X114306219Y-50688525D01*
X114274143Y-50680491D01*
X114243009Y-50669351D01*
X114213116Y-50655213D01*
X114184753Y-50638213D01*
X114158193Y-50618515D01*
X114133692Y-50596308D01*
X114111485Y-50571807D01*
X114091787Y-50545247D01*
X114074787Y-50516884D01*
X114060649Y-50486991D01*
X114049509Y-50455857D01*
X114041475Y-50423781D01*
X114036623Y-50391071D01*
X114035000Y-50358044D01*
X114035000Y-49481956D01*
X114036623Y-49448929D01*
X114041475Y-49416219D01*
X114049509Y-49384143D01*
X114060649Y-49353009D01*
X114074787Y-49323116D01*
X114091787Y-49294753D01*
X114111485Y-49268193D01*
X114133692Y-49243692D01*
X114158193Y-49221485D01*
X114184753Y-49201787D01*
X114213116Y-49184787D01*
X114243009Y-49170649D01*
X114274143Y-49159509D01*
X114306219Y-49151475D01*
X114338929Y-49146623D01*
X114371956Y-49145000D01*
X115498044Y-49145000D01*
X115531071Y-49146623D01*
X115531071Y-49146623D01*
G37*
D18*
X114935000Y-49920000D03*
G04 #@! TD*
D17*
G04 #@! TO.C,R13*
G36*
X98386071Y-47096623D02*
X98418781Y-47101475D01*
X98450857Y-47109509D01*
X98481991Y-47120649D01*
X98511884Y-47134787D01*
X98540247Y-47151787D01*
X98566807Y-47171485D01*
X98591308Y-47193692D01*
X98613515Y-47218193D01*
X98633213Y-47244753D01*
X98650213Y-47273116D01*
X98664351Y-47303009D01*
X98675491Y-47334143D01*
X98683525Y-47366219D01*
X98688377Y-47398929D01*
X98690000Y-47431956D01*
X98690000Y-48308044D01*
X98688377Y-48341071D01*
X98683525Y-48373781D01*
X98675491Y-48405857D01*
X98664351Y-48436991D01*
X98650213Y-48466884D01*
X98633213Y-48495247D01*
X98613515Y-48521807D01*
X98591308Y-48546308D01*
X98566807Y-48568515D01*
X98540247Y-48588213D01*
X98511884Y-48605213D01*
X98481991Y-48619351D01*
X98450857Y-48630491D01*
X98418781Y-48638525D01*
X98386071Y-48643377D01*
X98353044Y-48645000D01*
X97226956Y-48645000D01*
X97193929Y-48643377D01*
X97161219Y-48638525D01*
X97129143Y-48630491D01*
X97098009Y-48619351D01*
X97068116Y-48605213D01*
X97039753Y-48588213D01*
X97013193Y-48568515D01*
X96988692Y-48546308D01*
X96966485Y-48521807D01*
X96946787Y-48495247D01*
X96929787Y-48466884D01*
X96915649Y-48436991D01*
X96904509Y-48405857D01*
X96896475Y-48373781D01*
X96891623Y-48341071D01*
X96890000Y-48308044D01*
X96890000Y-47431956D01*
X96891623Y-47398929D01*
X96896475Y-47366219D01*
X96904509Y-47334143D01*
X96915649Y-47303009D01*
X96929787Y-47273116D01*
X96946787Y-47244753D01*
X96966485Y-47218193D01*
X96988692Y-47193692D01*
X97013193Y-47171485D01*
X97039753Y-47151787D01*
X97068116Y-47134787D01*
X97098009Y-47120649D01*
X97129143Y-47109509D01*
X97161219Y-47101475D01*
X97193929Y-47096623D01*
X97226956Y-47095000D01*
X98353044Y-47095000D01*
X98386071Y-47096623D01*
X98386071Y-47096623D01*
G37*
D18*
X97790000Y-47870000D03*
D17*
G36*
X98386071Y-49146623D02*
X98418781Y-49151475D01*
X98450857Y-49159509D01*
X98481991Y-49170649D01*
X98511884Y-49184787D01*
X98540247Y-49201787D01*
X98566807Y-49221485D01*
X98591308Y-49243692D01*
X98613515Y-49268193D01*
X98633213Y-49294753D01*
X98650213Y-49323116D01*
X98664351Y-49353009D01*
X98675491Y-49384143D01*
X98683525Y-49416219D01*
X98688377Y-49448929D01*
X98690000Y-49481956D01*
X98690000Y-50358044D01*
X98688377Y-50391071D01*
X98683525Y-50423781D01*
X98675491Y-50455857D01*
X98664351Y-50486991D01*
X98650213Y-50516884D01*
X98633213Y-50545247D01*
X98613515Y-50571807D01*
X98591308Y-50596308D01*
X98566807Y-50618515D01*
X98540247Y-50638213D01*
X98511884Y-50655213D01*
X98481991Y-50669351D01*
X98450857Y-50680491D01*
X98418781Y-50688525D01*
X98386071Y-50693377D01*
X98353044Y-50695000D01*
X97226956Y-50695000D01*
X97193929Y-50693377D01*
X97161219Y-50688525D01*
X97129143Y-50680491D01*
X97098009Y-50669351D01*
X97068116Y-50655213D01*
X97039753Y-50638213D01*
X97013193Y-50618515D01*
X96988692Y-50596308D01*
X96966485Y-50571807D01*
X96946787Y-50545247D01*
X96929787Y-50516884D01*
X96915649Y-50486991D01*
X96904509Y-50455857D01*
X96896475Y-50423781D01*
X96891623Y-50391071D01*
X96890000Y-50358044D01*
X96890000Y-49481956D01*
X96891623Y-49448929D01*
X96896475Y-49416219D01*
X96904509Y-49384143D01*
X96915649Y-49353009D01*
X96929787Y-49323116D01*
X96946787Y-49294753D01*
X96966485Y-49268193D01*
X96988692Y-49243692D01*
X97013193Y-49221485D01*
X97039753Y-49201787D01*
X97068116Y-49184787D01*
X97098009Y-49170649D01*
X97129143Y-49159509D01*
X97161219Y-49151475D01*
X97193929Y-49146623D01*
X97226956Y-49145000D01*
X98353044Y-49145000D01*
X98386071Y-49146623D01*
X98386071Y-49146623D01*
G37*
D18*
X97790000Y-49920000D03*
G04 #@! TD*
D17*
G04 #@! TO.C,R14*
G36*
X98386071Y-61846623D02*
X98418781Y-61851475D01*
X98450857Y-61859509D01*
X98481991Y-61870649D01*
X98511884Y-61884787D01*
X98540247Y-61901787D01*
X98566807Y-61921485D01*
X98591308Y-61943692D01*
X98613515Y-61968193D01*
X98633213Y-61994753D01*
X98650213Y-62023116D01*
X98664351Y-62053009D01*
X98675491Y-62084143D01*
X98683525Y-62116219D01*
X98688377Y-62148929D01*
X98690000Y-62181956D01*
X98690000Y-63058044D01*
X98688377Y-63091071D01*
X98683525Y-63123781D01*
X98675491Y-63155857D01*
X98664351Y-63186991D01*
X98650213Y-63216884D01*
X98633213Y-63245247D01*
X98613515Y-63271807D01*
X98591308Y-63296308D01*
X98566807Y-63318515D01*
X98540247Y-63338213D01*
X98511884Y-63355213D01*
X98481991Y-63369351D01*
X98450857Y-63380491D01*
X98418781Y-63388525D01*
X98386071Y-63393377D01*
X98353044Y-63395000D01*
X97226956Y-63395000D01*
X97193929Y-63393377D01*
X97161219Y-63388525D01*
X97129143Y-63380491D01*
X97098009Y-63369351D01*
X97068116Y-63355213D01*
X97039753Y-63338213D01*
X97013193Y-63318515D01*
X96988692Y-63296308D01*
X96966485Y-63271807D01*
X96946787Y-63245247D01*
X96929787Y-63216884D01*
X96915649Y-63186991D01*
X96904509Y-63155857D01*
X96896475Y-63123781D01*
X96891623Y-63091071D01*
X96890000Y-63058044D01*
X96890000Y-62181956D01*
X96891623Y-62148929D01*
X96896475Y-62116219D01*
X96904509Y-62084143D01*
X96915649Y-62053009D01*
X96929787Y-62023116D01*
X96946787Y-61994753D01*
X96966485Y-61968193D01*
X96988692Y-61943692D01*
X97013193Y-61921485D01*
X97039753Y-61901787D01*
X97068116Y-61884787D01*
X97098009Y-61870649D01*
X97129143Y-61859509D01*
X97161219Y-61851475D01*
X97193929Y-61846623D01*
X97226956Y-61845000D01*
X98353044Y-61845000D01*
X98386071Y-61846623D01*
X98386071Y-61846623D01*
G37*
D18*
X97790000Y-62620000D03*
D17*
G36*
X98386071Y-59796623D02*
X98418781Y-59801475D01*
X98450857Y-59809509D01*
X98481991Y-59820649D01*
X98511884Y-59834787D01*
X98540247Y-59851787D01*
X98566807Y-59871485D01*
X98591308Y-59893692D01*
X98613515Y-59918193D01*
X98633213Y-59944753D01*
X98650213Y-59973116D01*
X98664351Y-60003009D01*
X98675491Y-60034143D01*
X98683525Y-60066219D01*
X98688377Y-60098929D01*
X98690000Y-60131956D01*
X98690000Y-61008044D01*
X98688377Y-61041071D01*
X98683525Y-61073781D01*
X98675491Y-61105857D01*
X98664351Y-61136991D01*
X98650213Y-61166884D01*
X98633213Y-61195247D01*
X98613515Y-61221807D01*
X98591308Y-61246308D01*
X98566807Y-61268515D01*
X98540247Y-61288213D01*
X98511884Y-61305213D01*
X98481991Y-61319351D01*
X98450857Y-61330491D01*
X98418781Y-61338525D01*
X98386071Y-61343377D01*
X98353044Y-61345000D01*
X97226956Y-61345000D01*
X97193929Y-61343377D01*
X97161219Y-61338525D01*
X97129143Y-61330491D01*
X97098009Y-61319351D01*
X97068116Y-61305213D01*
X97039753Y-61288213D01*
X97013193Y-61268515D01*
X96988692Y-61246308D01*
X96966485Y-61221807D01*
X96946787Y-61195247D01*
X96929787Y-61166884D01*
X96915649Y-61136991D01*
X96904509Y-61105857D01*
X96896475Y-61073781D01*
X96891623Y-61041071D01*
X96890000Y-61008044D01*
X96890000Y-60131956D01*
X96891623Y-60098929D01*
X96896475Y-60066219D01*
X96904509Y-60034143D01*
X96915649Y-60003009D01*
X96929787Y-59973116D01*
X96946787Y-59944753D01*
X96966485Y-59918193D01*
X96988692Y-59893692D01*
X97013193Y-59871485D01*
X97039753Y-59851787D01*
X97068116Y-59834787D01*
X97098009Y-59820649D01*
X97129143Y-59809509D01*
X97161219Y-59801475D01*
X97193929Y-59796623D01*
X97226956Y-59795000D01*
X98353044Y-59795000D01*
X98386071Y-59796623D01*
X98386071Y-59796623D01*
G37*
D18*
X97790000Y-60570000D03*
G04 #@! TD*
D17*
G04 #@! TO.C,R15*
G36*
X98386071Y-70981623D02*
X98418781Y-70986475D01*
X98450857Y-70994509D01*
X98481991Y-71005649D01*
X98511884Y-71019787D01*
X98540247Y-71036787D01*
X98566807Y-71056485D01*
X98591308Y-71078692D01*
X98613515Y-71103193D01*
X98633213Y-71129753D01*
X98650213Y-71158116D01*
X98664351Y-71188009D01*
X98675491Y-71219143D01*
X98683525Y-71251219D01*
X98688377Y-71283929D01*
X98690000Y-71316956D01*
X98690000Y-72193044D01*
X98688377Y-72226071D01*
X98683525Y-72258781D01*
X98675491Y-72290857D01*
X98664351Y-72321991D01*
X98650213Y-72351884D01*
X98633213Y-72380247D01*
X98613515Y-72406807D01*
X98591308Y-72431308D01*
X98566807Y-72453515D01*
X98540247Y-72473213D01*
X98511884Y-72490213D01*
X98481991Y-72504351D01*
X98450857Y-72515491D01*
X98418781Y-72523525D01*
X98386071Y-72528377D01*
X98353044Y-72530000D01*
X97226956Y-72530000D01*
X97193929Y-72528377D01*
X97161219Y-72523525D01*
X97129143Y-72515491D01*
X97098009Y-72504351D01*
X97068116Y-72490213D01*
X97039753Y-72473213D01*
X97013193Y-72453515D01*
X96988692Y-72431308D01*
X96966485Y-72406807D01*
X96946787Y-72380247D01*
X96929787Y-72351884D01*
X96915649Y-72321991D01*
X96904509Y-72290857D01*
X96896475Y-72258781D01*
X96891623Y-72226071D01*
X96890000Y-72193044D01*
X96890000Y-71316956D01*
X96891623Y-71283929D01*
X96896475Y-71251219D01*
X96904509Y-71219143D01*
X96915649Y-71188009D01*
X96929787Y-71158116D01*
X96946787Y-71129753D01*
X96966485Y-71103193D01*
X96988692Y-71078692D01*
X97013193Y-71056485D01*
X97039753Y-71036787D01*
X97068116Y-71019787D01*
X97098009Y-71005649D01*
X97129143Y-70994509D01*
X97161219Y-70986475D01*
X97193929Y-70981623D01*
X97226956Y-70980000D01*
X98353044Y-70980000D01*
X98386071Y-70981623D01*
X98386071Y-70981623D01*
G37*
D18*
X97790000Y-71755000D03*
D17*
G36*
X98386071Y-68931623D02*
X98418781Y-68936475D01*
X98450857Y-68944509D01*
X98481991Y-68955649D01*
X98511884Y-68969787D01*
X98540247Y-68986787D01*
X98566807Y-69006485D01*
X98591308Y-69028692D01*
X98613515Y-69053193D01*
X98633213Y-69079753D01*
X98650213Y-69108116D01*
X98664351Y-69138009D01*
X98675491Y-69169143D01*
X98683525Y-69201219D01*
X98688377Y-69233929D01*
X98690000Y-69266956D01*
X98690000Y-70143044D01*
X98688377Y-70176071D01*
X98683525Y-70208781D01*
X98675491Y-70240857D01*
X98664351Y-70271991D01*
X98650213Y-70301884D01*
X98633213Y-70330247D01*
X98613515Y-70356807D01*
X98591308Y-70381308D01*
X98566807Y-70403515D01*
X98540247Y-70423213D01*
X98511884Y-70440213D01*
X98481991Y-70454351D01*
X98450857Y-70465491D01*
X98418781Y-70473525D01*
X98386071Y-70478377D01*
X98353044Y-70480000D01*
X97226956Y-70480000D01*
X97193929Y-70478377D01*
X97161219Y-70473525D01*
X97129143Y-70465491D01*
X97098009Y-70454351D01*
X97068116Y-70440213D01*
X97039753Y-70423213D01*
X97013193Y-70403515D01*
X96988692Y-70381308D01*
X96966485Y-70356807D01*
X96946787Y-70330247D01*
X96929787Y-70301884D01*
X96915649Y-70271991D01*
X96904509Y-70240857D01*
X96896475Y-70208781D01*
X96891623Y-70176071D01*
X96890000Y-70143044D01*
X96890000Y-69266956D01*
X96891623Y-69233929D01*
X96896475Y-69201219D01*
X96904509Y-69169143D01*
X96915649Y-69138009D01*
X96929787Y-69108116D01*
X96946787Y-69079753D01*
X96966485Y-69053193D01*
X96988692Y-69028692D01*
X97013193Y-69006485D01*
X97039753Y-68986787D01*
X97068116Y-68969787D01*
X97098009Y-68955649D01*
X97129143Y-68944509D01*
X97161219Y-68936475D01*
X97193929Y-68931623D01*
X97226956Y-68930000D01*
X98353044Y-68930000D01*
X98386071Y-68931623D01*
X98386071Y-68931623D01*
G37*
D18*
X97790000Y-69705000D03*
G04 #@! TD*
D17*
G04 #@! TO.C,R16*
G36*
X98386071Y-81141623D02*
X98418781Y-81146475D01*
X98450857Y-81154509D01*
X98481991Y-81165649D01*
X98511884Y-81179787D01*
X98540247Y-81196787D01*
X98566807Y-81216485D01*
X98591308Y-81238692D01*
X98613515Y-81263193D01*
X98633213Y-81289753D01*
X98650213Y-81318116D01*
X98664351Y-81348009D01*
X98675491Y-81379143D01*
X98683525Y-81411219D01*
X98688377Y-81443929D01*
X98690000Y-81476956D01*
X98690000Y-82353044D01*
X98688377Y-82386071D01*
X98683525Y-82418781D01*
X98675491Y-82450857D01*
X98664351Y-82481991D01*
X98650213Y-82511884D01*
X98633213Y-82540247D01*
X98613515Y-82566807D01*
X98591308Y-82591308D01*
X98566807Y-82613515D01*
X98540247Y-82633213D01*
X98511884Y-82650213D01*
X98481991Y-82664351D01*
X98450857Y-82675491D01*
X98418781Y-82683525D01*
X98386071Y-82688377D01*
X98353044Y-82690000D01*
X97226956Y-82690000D01*
X97193929Y-82688377D01*
X97161219Y-82683525D01*
X97129143Y-82675491D01*
X97098009Y-82664351D01*
X97068116Y-82650213D01*
X97039753Y-82633213D01*
X97013193Y-82613515D01*
X96988692Y-82591308D01*
X96966485Y-82566807D01*
X96946787Y-82540247D01*
X96929787Y-82511884D01*
X96915649Y-82481991D01*
X96904509Y-82450857D01*
X96896475Y-82418781D01*
X96891623Y-82386071D01*
X96890000Y-82353044D01*
X96890000Y-81476956D01*
X96891623Y-81443929D01*
X96896475Y-81411219D01*
X96904509Y-81379143D01*
X96915649Y-81348009D01*
X96929787Y-81318116D01*
X96946787Y-81289753D01*
X96966485Y-81263193D01*
X96988692Y-81238692D01*
X97013193Y-81216485D01*
X97039753Y-81196787D01*
X97068116Y-81179787D01*
X97098009Y-81165649D01*
X97129143Y-81154509D01*
X97161219Y-81146475D01*
X97193929Y-81141623D01*
X97226956Y-81140000D01*
X98353044Y-81140000D01*
X98386071Y-81141623D01*
X98386071Y-81141623D01*
G37*
D18*
X97790000Y-81915000D03*
D17*
G36*
X98386071Y-83191623D02*
X98418781Y-83196475D01*
X98450857Y-83204509D01*
X98481991Y-83215649D01*
X98511884Y-83229787D01*
X98540247Y-83246787D01*
X98566807Y-83266485D01*
X98591308Y-83288692D01*
X98613515Y-83313193D01*
X98633213Y-83339753D01*
X98650213Y-83368116D01*
X98664351Y-83398009D01*
X98675491Y-83429143D01*
X98683525Y-83461219D01*
X98688377Y-83493929D01*
X98690000Y-83526956D01*
X98690000Y-84403044D01*
X98688377Y-84436071D01*
X98683525Y-84468781D01*
X98675491Y-84500857D01*
X98664351Y-84531991D01*
X98650213Y-84561884D01*
X98633213Y-84590247D01*
X98613515Y-84616807D01*
X98591308Y-84641308D01*
X98566807Y-84663515D01*
X98540247Y-84683213D01*
X98511884Y-84700213D01*
X98481991Y-84714351D01*
X98450857Y-84725491D01*
X98418781Y-84733525D01*
X98386071Y-84738377D01*
X98353044Y-84740000D01*
X97226956Y-84740000D01*
X97193929Y-84738377D01*
X97161219Y-84733525D01*
X97129143Y-84725491D01*
X97098009Y-84714351D01*
X97068116Y-84700213D01*
X97039753Y-84683213D01*
X97013193Y-84663515D01*
X96988692Y-84641308D01*
X96966485Y-84616807D01*
X96946787Y-84590247D01*
X96929787Y-84561884D01*
X96915649Y-84531991D01*
X96904509Y-84500857D01*
X96896475Y-84468781D01*
X96891623Y-84436071D01*
X96890000Y-84403044D01*
X96890000Y-83526956D01*
X96891623Y-83493929D01*
X96896475Y-83461219D01*
X96904509Y-83429143D01*
X96915649Y-83398009D01*
X96929787Y-83368116D01*
X96946787Y-83339753D01*
X96966485Y-83313193D01*
X96988692Y-83288692D01*
X97013193Y-83266485D01*
X97039753Y-83246787D01*
X97068116Y-83229787D01*
X97098009Y-83215649D01*
X97129143Y-83204509D01*
X97161219Y-83196475D01*
X97193929Y-83191623D01*
X97226956Y-83190000D01*
X98353044Y-83190000D01*
X98386071Y-83191623D01*
X98386071Y-83191623D01*
G37*
D18*
X97790000Y-83965000D03*
G04 #@! TD*
D13*
G04 #@! TO.C,U5*
X126365000Y-125730000D03*
X128905000Y-125730000D03*
X123825000Y-125730000D03*
X121285000Y-125730000D03*
X128905000Y-123190000D03*
X126365000Y-123190000D03*
X123825000Y-123190000D03*
X121285000Y-123190000D03*
G04 #@! TD*
M02*
