G04 #@! TF.GenerationSoftware,KiCad,Pcbnew,5.0.0-fee4fd1~66~ubuntu18.04.1*
G04 #@! TF.CreationDate,2018-09-15T17:45:39+02:00*
G04 #@! TF.ProjectId,new-joy-board,6E65772D6A6F792D626F6172642E6B69,rev?*
G04 #@! TF.SameCoordinates,Original*
G04 #@! TF.FileFunction,Legend,Bot*
G04 #@! TF.FilePolarity,Positive*
%FSLAX46Y46*%
G04 Gerber Fmt 4.6, Leading zero omitted, Abs format (unit mm)*
G04 Created by KiCad (PCBNEW 5.0.0-fee4fd1~66~ubuntu18.04.1) date Sat Sep 15 17:45:39 2018*
%MOMM*%
%LPD*%
G01*
G04 APERTURE LIST*
%ADD10C,0.150000*%
%ADD11C,0.120000*%
G04 APERTURE END LIST*
D10*
G04 #@! TO.C,U10*
X92235000Y-33975000D02*
X92235000Y-23175000D01*
X92235000Y-23175000D02*
X112235000Y-23175000D01*
X112235000Y-23175000D02*
X112235000Y-33975000D01*
X112235000Y-33975000D02*
X92235000Y-33975000D01*
D11*
G04 #@! TO.C,C1*
X99135000Y-76183748D02*
X99135000Y-76706252D01*
X97715000Y-76183748D02*
X97715000Y-76706252D01*
G04 #@! TO.C,C2*
X96595000Y-54348748D02*
X96595000Y-54871252D01*
X95175000Y-54348748D02*
X95175000Y-54871252D01*
G04 #@! TO.C,C3*
X112955000Y-55116252D02*
X112955000Y-54593748D01*
X114375000Y-55116252D02*
X114375000Y-54593748D01*
G04 #@! TO.C,C4*
X114860000Y-76461252D02*
X114860000Y-75938748D01*
X116280000Y-76461252D02*
X116280000Y-75938748D01*
G04 #@! TO.C,C5*
X95175000Y-76183748D02*
X95175000Y-76706252D01*
X96595000Y-76183748D02*
X96595000Y-76706252D01*
G04 #@! TO.C,C6*
X97470000Y-54348748D02*
X97470000Y-54871252D01*
X98890000Y-54348748D02*
X98890000Y-54871252D01*
G04 #@! TO.C,C7*
X116915000Y-55116252D02*
X116915000Y-54593748D01*
X115495000Y-55116252D02*
X115495000Y-54593748D01*
G04 #@! TO.C,C8*
X113740000Y-76461252D02*
X113740000Y-75938748D01*
X112320000Y-76461252D02*
X112320000Y-75938748D01*
G04 #@! TO.C,U10*
D10*
X102187380Y-27336904D02*
X102996904Y-27336904D01*
X103092142Y-27384523D01*
X103139761Y-27432142D01*
X103187380Y-27527380D01*
X103187380Y-27717857D01*
X103139761Y-27813095D01*
X103092142Y-27860714D01*
X102996904Y-27908333D01*
X102187380Y-27908333D01*
X103187380Y-28908333D02*
X103187380Y-28336904D01*
X103187380Y-28622619D02*
X102187380Y-28622619D01*
X102330238Y-28527380D01*
X102425476Y-28432142D01*
X102473095Y-28336904D01*
X102187380Y-29527380D02*
X102187380Y-29622619D01*
X102235000Y-29717857D01*
X102282619Y-29765476D01*
X102377857Y-29813095D01*
X102568333Y-29860714D01*
X102806428Y-29860714D01*
X102996904Y-29813095D01*
X103092142Y-29765476D01*
X103139761Y-29717857D01*
X103187380Y-29622619D01*
X103187380Y-29527380D01*
X103139761Y-29432142D01*
X103092142Y-29384523D01*
X102996904Y-29336904D01*
X102806428Y-29289285D01*
X102568333Y-29289285D01*
X102377857Y-29336904D01*
X102282619Y-29384523D01*
X102235000Y-29432142D01*
X102187380Y-29527380D01*
X97361190Y-24217380D02*
X97027857Y-25217380D01*
X96694523Y-24217380D01*
X96170714Y-24217380D02*
X95980238Y-24217380D01*
X95885000Y-24265000D01*
X95789761Y-24360238D01*
X95742142Y-24550714D01*
X95742142Y-24884047D01*
X95789761Y-25074523D01*
X95885000Y-25169761D01*
X95980238Y-25217380D01*
X96170714Y-25217380D01*
X96265952Y-25169761D01*
X96361190Y-25074523D01*
X96408809Y-24884047D01*
X96408809Y-24550714D01*
X96361190Y-24360238D01*
X96265952Y-24265000D01*
X96170714Y-24217380D01*
X95313571Y-24836428D02*
X94551666Y-24836428D01*
X94932619Y-25217380D02*
X94932619Y-24455476D01*
X96646904Y-26805000D02*
X96742142Y-26757380D01*
X96885000Y-26757380D01*
X97027857Y-26805000D01*
X97123095Y-26900238D01*
X97170714Y-26995476D01*
X97218333Y-27185952D01*
X97218333Y-27328809D01*
X97170714Y-27519285D01*
X97123095Y-27614523D01*
X97027857Y-27709761D01*
X96885000Y-27757380D01*
X96789761Y-27757380D01*
X96646904Y-27709761D01*
X96599285Y-27662142D01*
X96599285Y-27328809D01*
X96789761Y-27328809D01*
X96170714Y-27757380D02*
X96170714Y-26757380D01*
X95599285Y-27757380D01*
X95599285Y-26757380D01*
X95123095Y-27757380D02*
X95123095Y-26757380D01*
X94885000Y-26757380D01*
X94742142Y-26805000D01*
X94646904Y-26900238D01*
X94599285Y-26995476D01*
X94551666Y-27185952D01*
X94551666Y-27328809D01*
X94599285Y-27519285D01*
X94646904Y-27614523D01*
X94742142Y-27709761D01*
X94885000Y-27757380D01*
X95123095Y-27757380D01*
X97027857Y-30297380D02*
X97027857Y-29297380D01*
X96551666Y-30297380D02*
X96551666Y-29297380D01*
X95980238Y-30297380D01*
X95980238Y-29297380D01*
X95504047Y-29916428D02*
X94742142Y-29916428D01*
X95123095Y-30297380D02*
X95123095Y-29535476D01*
X96623095Y-32313571D02*
X96289761Y-32313571D01*
X96146904Y-32837380D02*
X96623095Y-32837380D01*
X96623095Y-31837380D01*
X96146904Y-31837380D01*
X95718333Y-32837380D02*
X95718333Y-31837380D01*
X95146904Y-32837380D01*
X95146904Y-31837380D01*
G04 #@! TO.C,C1*
X97132142Y-76278333D02*
X97179761Y-76230714D01*
X97227380Y-76087857D01*
X97227380Y-75992619D01*
X97179761Y-75849761D01*
X97084523Y-75754523D01*
X96989285Y-75706904D01*
X96798809Y-75659285D01*
X96655952Y-75659285D01*
X96465476Y-75706904D01*
X96370238Y-75754523D01*
X96275000Y-75849761D01*
X96227380Y-75992619D01*
X96227380Y-76087857D01*
X96275000Y-76230714D01*
X96322619Y-76278333D01*
X97227380Y-77230714D02*
X97227380Y-76659285D01*
X97227380Y-76945000D02*
X96227380Y-76945000D01*
X96370238Y-76849761D01*
X96465476Y-76754523D01*
X96513095Y-76659285D01*
G04 #@! TO.C,C2*
X94592142Y-54443333D02*
X94639761Y-54395714D01*
X94687380Y-54252857D01*
X94687380Y-54157619D01*
X94639761Y-54014761D01*
X94544523Y-53919523D01*
X94449285Y-53871904D01*
X94258809Y-53824285D01*
X94115952Y-53824285D01*
X93925476Y-53871904D01*
X93830238Y-53919523D01*
X93735000Y-54014761D01*
X93687380Y-54157619D01*
X93687380Y-54252857D01*
X93735000Y-54395714D01*
X93782619Y-54443333D01*
X93782619Y-54824285D02*
X93735000Y-54871904D01*
X93687380Y-54967142D01*
X93687380Y-55205238D01*
X93735000Y-55300476D01*
X93782619Y-55348095D01*
X93877857Y-55395714D01*
X93973095Y-55395714D01*
X94115952Y-55348095D01*
X94687380Y-54776666D01*
X94687380Y-55395714D01*
G04 #@! TO.C,C3*
X115672142Y-54688333D02*
X115719761Y-54640714D01*
X115767380Y-54497857D01*
X115767380Y-54402619D01*
X115719761Y-54259761D01*
X115624523Y-54164523D01*
X115529285Y-54116904D01*
X115338809Y-54069285D01*
X115195952Y-54069285D01*
X115005476Y-54116904D01*
X114910238Y-54164523D01*
X114815000Y-54259761D01*
X114767380Y-54402619D01*
X114767380Y-54497857D01*
X114815000Y-54640714D01*
X114862619Y-54688333D01*
X114767380Y-55021666D02*
X114767380Y-55640714D01*
X115148333Y-55307380D01*
X115148333Y-55450238D01*
X115195952Y-55545476D01*
X115243571Y-55593095D01*
X115338809Y-55640714D01*
X115576904Y-55640714D01*
X115672142Y-55593095D01*
X115719761Y-55545476D01*
X115767380Y-55450238D01*
X115767380Y-55164523D01*
X115719761Y-55069285D01*
X115672142Y-55021666D01*
G04 #@! TO.C,C4*
X117577142Y-76033333D02*
X117624761Y-75985714D01*
X117672380Y-75842857D01*
X117672380Y-75747619D01*
X117624761Y-75604761D01*
X117529523Y-75509523D01*
X117434285Y-75461904D01*
X117243809Y-75414285D01*
X117100952Y-75414285D01*
X116910476Y-75461904D01*
X116815238Y-75509523D01*
X116720000Y-75604761D01*
X116672380Y-75747619D01*
X116672380Y-75842857D01*
X116720000Y-75985714D01*
X116767619Y-76033333D01*
X117005714Y-76890476D02*
X117672380Y-76890476D01*
X116624761Y-76652380D02*
X117339047Y-76414285D01*
X117339047Y-77033333D01*
G04 #@! TO.C,C5*
X94592142Y-76278333D02*
X94639761Y-76230714D01*
X94687380Y-76087857D01*
X94687380Y-75992619D01*
X94639761Y-75849761D01*
X94544523Y-75754523D01*
X94449285Y-75706904D01*
X94258809Y-75659285D01*
X94115952Y-75659285D01*
X93925476Y-75706904D01*
X93830238Y-75754523D01*
X93735000Y-75849761D01*
X93687380Y-75992619D01*
X93687380Y-76087857D01*
X93735000Y-76230714D01*
X93782619Y-76278333D01*
X93687380Y-77183095D02*
X93687380Y-76706904D01*
X94163571Y-76659285D01*
X94115952Y-76706904D01*
X94068333Y-76802142D01*
X94068333Y-77040238D01*
X94115952Y-77135476D01*
X94163571Y-77183095D01*
X94258809Y-77230714D01*
X94496904Y-77230714D01*
X94592142Y-77183095D01*
X94639761Y-77135476D01*
X94687380Y-77040238D01*
X94687380Y-76802142D01*
X94639761Y-76706904D01*
X94592142Y-76659285D01*
G04 #@! TO.C,C6*
X96887142Y-54443333D02*
X96934761Y-54395714D01*
X96982380Y-54252857D01*
X96982380Y-54157619D01*
X96934761Y-54014761D01*
X96839523Y-53919523D01*
X96744285Y-53871904D01*
X96553809Y-53824285D01*
X96410952Y-53824285D01*
X96220476Y-53871904D01*
X96125238Y-53919523D01*
X96030000Y-54014761D01*
X95982380Y-54157619D01*
X95982380Y-54252857D01*
X96030000Y-54395714D01*
X96077619Y-54443333D01*
X95982380Y-55300476D02*
X95982380Y-55110000D01*
X96030000Y-55014761D01*
X96077619Y-54967142D01*
X96220476Y-54871904D01*
X96410952Y-54824285D01*
X96791904Y-54824285D01*
X96887142Y-54871904D01*
X96934761Y-54919523D01*
X96982380Y-55014761D01*
X96982380Y-55205238D01*
X96934761Y-55300476D01*
X96887142Y-55348095D01*
X96791904Y-55395714D01*
X96553809Y-55395714D01*
X96458571Y-55348095D01*
X96410952Y-55300476D01*
X96363333Y-55205238D01*
X96363333Y-55014761D01*
X96410952Y-54919523D01*
X96458571Y-54871904D01*
X96553809Y-54824285D01*
G04 #@! TO.C,C7*
X118212142Y-54688333D02*
X118259761Y-54640714D01*
X118307380Y-54497857D01*
X118307380Y-54402619D01*
X118259761Y-54259761D01*
X118164523Y-54164523D01*
X118069285Y-54116904D01*
X117878809Y-54069285D01*
X117735952Y-54069285D01*
X117545476Y-54116904D01*
X117450238Y-54164523D01*
X117355000Y-54259761D01*
X117307380Y-54402619D01*
X117307380Y-54497857D01*
X117355000Y-54640714D01*
X117402619Y-54688333D01*
X117307380Y-55021666D02*
X117307380Y-55688333D01*
X118307380Y-55259761D01*
G04 #@! TO.C,C8*
X115037142Y-76033333D02*
X115084761Y-75985714D01*
X115132380Y-75842857D01*
X115132380Y-75747619D01*
X115084761Y-75604761D01*
X114989523Y-75509523D01*
X114894285Y-75461904D01*
X114703809Y-75414285D01*
X114560952Y-75414285D01*
X114370476Y-75461904D01*
X114275238Y-75509523D01*
X114180000Y-75604761D01*
X114132380Y-75747619D01*
X114132380Y-75842857D01*
X114180000Y-75985714D01*
X114227619Y-76033333D01*
X114560952Y-76604761D02*
X114513333Y-76509523D01*
X114465714Y-76461904D01*
X114370476Y-76414285D01*
X114322857Y-76414285D01*
X114227619Y-76461904D01*
X114180000Y-76509523D01*
X114132380Y-76604761D01*
X114132380Y-76795238D01*
X114180000Y-76890476D01*
X114227619Y-76938095D01*
X114322857Y-76985714D01*
X114370476Y-76985714D01*
X114465714Y-76938095D01*
X114513333Y-76890476D01*
X114560952Y-76795238D01*
X114560952Y-76604761D01*
X114608571Y-76509523D01*
X114656190Y-76461904D01*
X114751428Y-76414285D01*
X114941904Y-76414285D01*
X115037142Y-76461904D01*
X115084761Y-76509523D01*
X115132380Y-76604761D01*
X115132380Y-76795238D01*
X115084761Y-76890476D01*
X115037142Y-76938095D01*
X114941904Y-76985714D01*
X114751428Y-76985714D01*
X114656190Y-76938095D01*
X114608571Y-76890476D01*
X114560952Y-76795238D01*
G04 #@! TD*
M02*
