G04 #@! TF.GenerationSoftware,KiCad,Pcbnew,5.0.0-fee4fd1~66~ubuntu18.04.1*
G04 #@! TF.CreationDate,2018-09-30T19:23:13+02:00*
G04 #@! TF.ProjectId,new-joy-board,6E65772D6A6F792D626F6172642E6B69,rev?*
G04 #@! TF.SameCoordinates,Original*
G04 #@! TF.FileFunction,Legend,Top*
G04 #@! TF.FilePolarity,Positive*
%FSLAX46Y46*%
G04 Gerber Fmt 4.6, Leading zero omitted, Abs format (unit mm)*
G04 Created by KiCad (PCBNEW 5.0.0-fee4fd1~66~ubuntu18.04.1) date Sun Sep 30 19:23:13 2018*
%MOMM*%
%LPD*%
G01*
G04 APERTURE LIST*
%ADD10C,0.127000*%
%ADD11C,0.200000*%
%ADD12C,0.120000*%
%ADD13C,0.150000*%
%ADD14C,0.050000*%
G04 APERTURE END LIST*
D10*
G04 #@! TO.C,J2*
X124460000Y-57625000D02*
X136960000Y-57625000D01*
X136960000Y-57625000D02*
X136960000Y-37625000D01*
X136960000Y-37625000D02*
X124460000Y-37625000D01*
D11*
X124160000Y-36725000D02*
G75*
G03X124160000Y-36725000I-100000J0D01*
G01*
D10*
X124460000Y-57625000D02*
X124460000Y-56325000D01*
X124460000Y-53925000D02*
X124460000Y-48825000D01*
X124460000Y-46425000D02*
X124460000Y-41325000D01*
X124460000Y-37625000D02*
X124460000Y-38925000D01*
G04 #@! TO.C,J0*
X88900000Y-68105000D02*
X76400000Y-68105000D01*
X76400000Y-68105000D02*
X76400000Y-88105000D01*
X76400000Y-88105000D02*
X88900000Y-88105000D01*
D11*
X89400000Y-89005000D02*
G75*
G03X89400000Y-89005000I-100000J0D01*
G01*
D10*
X88900000Y-68105000D02*
X88900000Y-69405000D01*
X88900000Y-71805000D02*
X88900000Y-76905000D01*
X88900000Y-79305000D02*
X88900000Y-84405000D01*
X88900000Y-88105000D02*
X88900000Y-86805000D01*
G04 #@! TO.C,J1*
X88900000Y-57705000D02*
X88900000Y-56405000D01*
X88900000Y-48905000D02*
X88900000Y-54005000D01*
X88900000Y-41405000D02*
X88900000Y-46505000D01*
X88900000Y-37705000D02*
X88900000Y-39005000D01*
D11*
X89400000Y-58605000D02*
G75*
G03X89400000Y-58605000I-100000J0D01*
G01*
D10*
X76400000Y-57705000D02*
X88900000Y-57705000D01*
X76400000Y-37705000D02*
X76400000Y-57705000D01*
X88900000Y-37705000D02*
X76400000Y-37705000D01*
G04 #@! TO.C,J3*
X124460000Y-88105000D02*
X136960000Y-88105000D01*
X136960000Y-88105000D02*
X136960000Y-68105000D01*
X136960000Y-68105000D02*
X124460000Y-68105000D01*
D11*
X124160000Y-67205000D02*
G75*
G03X124160000Y-67205000I-100000J0D01*
G01*
D10*
X124460000Y-88105000D02*
X124460000Y-86805000D01*
X124460000Y-84405000D02*
X124460000Y-79305000D01*
X124460000Y-76905000D02*
X124460000Y-71805000D01*
X124460000Y-68105000D02*
X124460000Y-69405000D01*
D12*
G04 #@! TO.C,J4*
X90170000Y-24765000D02*
X80010000Y-24765000D01*
X90170000Y-26035000D02*
X90170000Y-18415000D01*
X90170000Y-18415000D02*
X80010000Y-18415000D01*
X80010000Y-18415000D02*
X80010000Y-26035000D01*
X80010000Y-26035000D02*
X90170000Y-26035000D01*
D13*
G04 #@! TO.C,U0*
X96485000Y-78910000D02*
X96535000Y-78910000D01*
X96485000Y-74760000D02*
X96630000Y-74760000D01*
X101635000Y-74760000D02*
X101490000Y-74760000D01*
X101635000Y-78910000D02*
X101490000Y-78910000D01*
X96485000Y-78910000D02*
X96485000Y-74760000D01*
X101635000Y-78910000D02*
X101635000Y-74760000D01*
X96535000Y-78910000D02*
X96535000Y-80310000D01*
G04 #@! TO.C,U1*
X96535000Y-57320000D02*
X96535000Y-58720000D01*
X101635000Y-57320000D02*
X101635000Y-53170000D01*
X96485000Y-57320000D02*
X96485000Y-53170000D01*
X101635000Y-57320000D02*
X101490000Y-57320000D01*
X101635000Y-53170000D02*
X101490000Y-53170000D01*
X96485000Y-53170000D02*
X96630000Y-53170000D01*
X96485000Y-57320000D02*
X96535000Y-57320000D01*
G04 #@! TO.C,U2*
X116240000Y-53170000D02*
X116190000Y-53170000D01*
X116240000Y-57320000D02*
X116095000Y-57320000D01*
X111090000Y-57320000D02*
X111235000Y-57320000D01*
X111090000Y-53170000D02*
X111235000Y-53170000D01*
X116240000Y-53170000D02*
X116240000Y-57320000D01*
X111090000Y-53170000D02*
X111090000Y-57320000D01*
X116190000Y-53170000D02*
X116190000Y-51770000D01*
G04 #@! TO.C,U3*
X116190000Y-74760000D02*
X116190000Y-73360000D01*
X111090000Y-74760000D02*
X111090000Y-78910000D01*
X116240000Y-74760000D02*
X116240000Y-78910000D01*
X111090000Y-74760000D02*
X111235000Y-74760000D01*
X111090000Y-78910000D02*
X111235000Y-78910000D01*
X116240000Y-78910000D02*
X116095000Y-78910000D01*
X116240000Y-74760000D02*
X116190000Y-74760000D01*
D12*
G04 #@! TO.C,R1*
X112978000Y-83056252D02*
X112978000Y-82533748D01*
X111558000Y-83056252D02*
X111558000Y-82533748D01*
G04 #@! TO.C,R2*
X111558000Y-70359748D02*
X111558000Y-70882252D01*
X112978000Y-70359748D02*
X112978000Y-70882252D01*
G04 #@! TO.C,R3*
X112470000Y-61856252D02*
X112470000Y-61333748D01*
X111050000Y-61856252D02*
X111050000Y-61333748D01*
G04 #@! TO.C,R4*
X112470000Y-48633748D02*
X112470000Y-49156252D01*
X111050000Y-48633748D02*
X111050000Y-49156252D01*
G04 #@! TO.C,R5*
X100255000Y-48633748D02*
X100255000Y-49156252D01*
X101675000Y-48633748D02*
X101675000Y-49156252D01*
G04 #@! TO.C,R6*
X101675000Y-61856252D02*
X101675000Y-61333748D01*
X100255000Y-61856252D02*
X100255000Y-61333748D01*
G04 #@! TO.C,R7*
X101675000Y-70468748D02*
X101675000Y-70991252D01*
X100255000Y-70468748D02*
X100255000Y-70991252D01*
G04 #@! TO.C,R8*
X100255000Y-83201252D02*
X100255000Y-82678748D01*
X101675000Y-83201252D02*
X101675000Y-82678748D01*
G04 #@! TO.C,R9*
X115518000Y-83074252D02*
X115518000Y-82551748D01*
X114098000Y-83074252D02*
X114098000Y-82551748D01*
G04 #@! TO.C,R10*
X115518000Y-70350748D02*
X115518000Y-70873252D01*
X114098000Y-70350748D02*
X114098000Y-70873252D01*
G04 #@! TO.C,R11*
X114225000Y-61856252D02*
X114225000Y-61333748D01*
X115645000Y-61856252D02*
X115645000Y-61333748D01*
G04 #@! TO.C,R12*
X115645000Y-48633748D02*
X115645000Y-49156252D01*
X114225000Y-48633748D02*
X114225000Y-49156252D01*
G04 #@! TO.C,R13*
X98500000Y-48633748D02*
X98500000Y-49156252D01*
X97080000Y-48633748D02*
X97080000Y-49156252D01*
G04 #@! TO.C,R14*
X97080000Y-61856252D02*
X97080000Y-61333748D01*
X98500000Y-61856252D02*
X98500000Y-61333748D01*
G04 #@! TO.C,R15*
X97080000Y-70468748D02*
X97080000Y-70991252D01*
X98500000Y-70468748D02*
X98500000Y-70991252D01*
G04 #@! TO.C,R16*
X98500000Y-83201252D02*
X98500000Y-82678748D01*
X97080000Y-83201252D02*
X97080000Y-82678748D01*
D13*
G04 #@! TO.C,U4*
X93345000Y-149860000D02*
X93345000Y-156210000D01*
X93345000Y-156210000D02*
X103505000Y-156210000D01*
X103505000Y-156210000D02*
X103505000Y-149860000D01*
X103505000Y-149860000D02*
X93345000Y-149860000D01*
X83425000Y-102165000D02*
X113425000Y-102165000D01*
X83425000Y-156915000D02*
X113425000Y-156915000D01*
X83425000Y-102165000D02*
X83425000Y-156915000D01*
X113425000Y-102165000D02*
X113425000Y-156915000D01*
G04 #@! TO.C,U5*
X119785000Y-126730000D02*
X134985000Y-126730000D01*
X134985000Y-126730000D02*
X134985000Y-98230000D01*
X134985000Y-98230000D02*
X119785000Y-98230000D01*
X119785000Y-98230000D02*
X119785000Y-126730000D01*
G04 #@! TO.C,U7*
X135146051Y-144780000D02*
G75*
G03X135146051Y-144780000I-1796051J0D01*
G01*
X135146051Y-132080000D02*
G75*
G03X135146051Y-132080000I-1796051J0D01*
G01*
X137160000Y-128270000D02*
X114300000Y-128270000D01*
X137160000Y-148590000D02*
X137160000Y-128270000D01*
X114300000Y-148590000D02*
X137160000Y-148590000D01*
X114300000Y-128270000D02*
X114300000Y-148590000D01*
G04 #@! TO.C,J2*
D14*
X118472955Y-55524200D02*
X119187770Y-55524200D01*
X119330732Y-55571854D01*
X119426041Y-55667162D01*
X119473695Y-55810125D01*
X119473695Y-55905434D01*
X118568264Y-55095311D02*
X118520610Y-55047657D01*
X118472955Y-54952348D01*
X118472955Y-54714077D01*
X118520610Y-54618768D01*
X118568264Y-54571114D01*
X118663572Y-54523460D01*
X118758881Y-54523460D01*
X118901844Y-54571114D01*
X119473695Y-55142965D01*
X119473695Y-54523460D01*
X138324681Y-57689665D02*
X138372420Y-57546448D01*
X138372420Y-57307753D01*
X138324681Y-57212275D01*
X138276942Y-57164536D01*
X138181464Y-57116797D01*
X138085986Y-57116797D01*
X137990508Y-57164536D01*
X137942769Y-57212275D01*
X137895030Y-57307753D01*
X137847291Y-57498709D01*
X137799552Y-57594187D01*
X137751813Y-57641926D01*
X137656335Y-57689665D01*
X137560857Y-57689665D01*
X137465379Y-57641926D01*
X137417640Y-57594187D01*
X137369900Y-57498709D01*
X137369900Y-57260014D01*
X137417640Y-57116797D01*
X138372420Y-56687145D02*
X137369900Y-56687145D01*
X137369900Y-56448450D01*
X137417640Y-56305233D01*
X137513118Y-56209755D01*
X137608596Y-56162016D01*
X137799552Y-56114277D01*
X137942769Y-56114277D01*
X138133725Y-56162016D01*
X138229203Y-56209755D01*
X138324681Y-56305233D01*
X138372420Y-56448450D01*
X138372420Y-56687145D01*
X138324681Y-55732364D02*
X138372420Y-55589147D01*
X138372420Y-55350452D01*
X138324681Y-55254974D01*
X138276942Y-55207235D01*
X138181464Y-55159496D01*
X138085986Y-55159496D01*
X137990508Y-55207235D01*
X137942769Y-55254974D01*
X137895030Y-55350452D01*
X137847291Y-55541408D01*
X137799552Y-55636886D01*
X137751813Y-55684625D01*
X137656335Y-55732364D01*
X137560857Y-55732364D01*
X137465379Y-55684625D01*
X137417640Y-55636886D01*
X137369900Y-55541408D01*
X137369900Y-55302713D01*
X137417640Y-55159496D01*
X137990508Y-54729844D02*
X137990508Y-53966020D01*
X137369900Y-53011239D02*
X137369900Y-53488629D01*
X137847291Y-53536368D01*
X137799552Y-53488629D01*
X137751813Y-53393151D01*
X137751813Y-53154456D01*
X137799552Y-53058978D01*
X137847291Y-53011239D01*
X137942769Y-52963500D01*
X138181464Y-52963500D01*
X138276942Y-53011239D01*
X138324681Y-53058978D01*
X138372420Y-53154456D01*
X138372420Y-53393151D01*
X138324681Y-53488629D01*
X138276942Y-53536368D01*
X137369900Y-52342892D02*
X137369900Y-52247414D01*
X137417640Y-52151936D01*
X137465379Y-52104197D01*
X137560857Y-52056458D01*
X137751813Y-52008719D01*
X137990508Y-52008719D01*
X138181464Y-52056458D01*
X138276942Y-52104197D01*
X138324681Y-52151936D01*
X138372420Y-52247414D01*
X138372420Y-52342892D01*
X138324681Y-52438370D01*
X138276942Y-52486109D01*
X138181464Y-52533848D01*
X137990508Y-52581587D01*
X137751813Y-52581587D01*
X137560857Y-52533848D01*
X137465379Y-52486109D01*
X137417640Y-52438370D01*
X137369900Y-52342892D01*
X137369900Y-51292633D02*
X138085986Y-51292633D01*
X138229203Y-51340372D01*
X138324681Y-51435850D01*
X138372420Y-51579067D01*
X138372420Y-51674545D01*
G04 #@! TO.C,J0*
X93790995Y-70872960D02*
X94505810Y-70872960D01*
X94648772Y-70920614D01*
X94744081Y-71015922D01*
X94791735Y-71158885D01*
X94791735Y-71254194D01*
X93790995Y-70205800D02*
X93790995Y-70110491D01*
X93838650Y-70015182D01*
X93886304Y-69967528D01*
X93981612Y-69919874D01*
X94172230Y-69872220D01*
X94410501Y-69872220D01*
X94601118Y-69919874D01*
X94696427Y-69967528D01*
X94744081Y-70015182D01*
X94791735Y-70110491D01*
X94791735Y-70205800D01*
X94744081Y-70301108D01*
X94696427Y-70348762D01*
X94601118Y-70396417D01*
X94410501Y-70444071D01*
X94172230Y-70444071D01*
X93981612Y-70396417D01*
X93886304Y-70348762D01*
X93838650Y-70301108D01*
X93790995Y-70205800D01*
X75846881Y-74485105D02*
X75894620Y-74341888D01*
X75894620Y-74103193D01*
X75846881Y-74007715D01*
X75799142Y-73959976D01*
X75703664Y-73912237D01*
X75608186Y-73912237D01*
X75512708Y-73959976D01*
X75464969Y-74007715D01*
X75417230Y-74103193D01*
X75369491Y-74294149D01*
X75321752Y-74389627D01*
X75274013Y-74437366D01*
X75178535Y-74485105D01*
X75083057Y-74485105D01*
X74987579Y-74437366D01*
X74939840Y-74389627D01*
X74892100Y-74294149D01*
X74892100Y-74055454D01*
X74939840Y-73912237D01*
X75894620Y-73482585D02*
X74892100Y-73482585D01*
X74892100Y-73243890D01*
X74939840Y-73100673D01*
X75035318Y-73005195D01*
X75130796Y-72957456D01*
X75321752Y-72909717D01*
X75464969Y-72909717D01*
X75655925Y-72957456D01*
X75751403Y-73005195D01*
X75846881Y-73100673D01*
X75894620Y-73243890D01*
X75894620Y-73482585D01*
X75846881Y-72527804D02*
X75894620Y-72384587D01*
X75894620Y-72145892D01*
X75846881Y-72050414D01*
X75799142Y-72002675D01*
X75703664Y-71954936D01*
X75608186Y-71954936D01*
X75512708Y-72002675D01*
X75464969Y-72050414D01*
X75417230Y-72145892D01*
X75369491Y-72336848D01*
X75321752Y-72432326D01*
X75274013Y-72480065D01*
X75178535Y-72527804D01*
X75083057Y-72527804D01*
X74987579Y-72480065D01*
X74939840Y-72432326D01*
X74892100Y-72336848D01*
X74892100Y-72098153D01*
X74939840Y-71954936D01*
X75512708Y-71525284D02*
X75512708Y-70761460D01*
X74892100Y-69806679D02*
X74892100Y-70284069D01*
X75369491Y-70331808D01*
X75321752Y-70284069D01*
X75274013Y-70188591D01*
X75274013Y-69949896D01*
X75321752Y-69854418D01*
X75369491Y-69806679D01*
X75464969Y-69758940D01*
X75703664Y-69758940D01*
X75799142Y-69806679D01*
X75846881Y-69854418D01*
X75894620Y-69949896D01*
X75894620Y-70188591D01*
X75846881Y-70284069D01*
X75799142Y-70331808D01*
X74892100Y-69138332D02*
X74892100Y-69042854D01*
X74939840Y-68947376D01*
X74987579Y-68899637D01*
X75083057Y-68851898D01*
X75274013Y-68804159D01*
X75512708Y-68804159D01*
X75703664Y-68851898D01*
X75799142Y-68899637D01*
X75846881Y-68947376D01*
X75894620Y-69042854D01*
X75894620Y-69138332D01*
X75846881Y-69233810D01*
X75799142Y-69281549D01*
X75703664Y-69329288D01*
X75512708Y-69377027D01*
X75274013Y-69377027D01*
X75083057Y-69329288D01*
X74987579Y-69281549D01*
X74939840Y-69233810D01*
X74892100Y-69138332D01*
X74892100Y-68088073D02*
X75608186Y-68088073D01*
X75751403Y-68135812D01*
X75846881Y-68231290D01*
X75894620Y-68374507D01*
X75894620Y-68469985D01*
G04 #@! TO.C,J1*
X93790995Y-40472960D02*
X94505810Y-40472960D01*
X94648772Y-40520614D01*
X94744081Y-40615922D01*
X94791735Y-40758885D01*
X94791735Y-40854194D01*
X94791735Y-39472220D02*
X94791735Y-40044071D01*
X94791735Y-39758145D02*
X93790995Y-39758145D01*
X93933958Y-39853454D01*
X94029267Y-39948762D01*
X94076921Y-40044071D01*
X75846881Y-44085105D02*
X75894620Y-43941888D01*
X75894620Y-43703193D01*
X75846881Y-43607715D01*
X75799142Y-43559976D01*
X75703664Y-43512237D01*
X75608186Y-43512237D01*
X75512708Y-43559976D01*
X75464969Y-43607715D01*
X75417230Y-43703193D01*
X75369491Y-43894149D01*
X75321752Y-43989627D01*
X75274013Y-44037366D01*
X75178535Y-44085105D01*
X75083057Y-44085105D01*
X74987579Y-44037366D01*
X74939840Y-43989627D01*
X74892100Y-43894149D01*
X74892100Y-43655454D01*
X74939840Y-43512237D01*
X75894620Y-43082585D02*
X74892100Y-43082585D01*
X74892100Y-42843890D01*
X74939840Y-42700673D01*
X75035318Y-42605195D01*
X75130796Y-42557456D01*
X75321752Y-42509717D01*
X75464969Y-42509717D01*
X75655925Y-42557456D01*
X75751403Y-42605195D01*
X75846881Y-42700673D01*
X75894620Y-42843890D01*
X75894620Y-43082585D01*
X75846881Y-42127804D02*
X75894620Y-41984587D01*
X75894620Y-41745892D01*
X75846881Y-41650414D01*
X75799142Y-41602675D01*
X75703664Y-41554936D01*
X75608186Y-41554936D01*
X75512708Y-41602675D01*
X75464969Y-41650414D01*
X75417230Y-41745892D01*
X75369491Y-41936848D01*
X75321752Y-42032326D01*
X75274013Y-42080065D01*
X75178535Y-42127804D01*
X75083057Y-42127804D01*
X74987579Y-42080065D01*
X74939840Y-42032326D01*
X74892100Y-41936848D01*
X74892100Y-41698153D01*
X74939840Y-41554936D01*
X75512708Y-41125284D02*
X75512708Y-40361460D01*
X74892100Y-39406679D02*
X74892100Y-39884069D01*
X75369491Y-39931808D01*
X75321752Y-39884069D01*
X75274013Y-39788591D01*
X75274013Y-39549896D01*
X75321752Y-39454418D01*
X75369491Y-39406679D01*
X75464969Y-39358940D01*
X75703664Y-39358940D01*
X75799142Y-39406679D01*
X75846881Y-39454418D01*
X75894620Y-39549896D01*
X75894620Y-39788591D01*
X75846881Y-39884069D01*
X75799142Y-39931808D01*
X74892100Y-38738332D02*
X74892100Y-38642854D01*
X74939840Y-38547376D01*
X74987579Y-38499637D01*
X75083057Y-38451898D01*
X75274013Y-38404159D01*
X75512708Y-38404159D01*
X75703664Y-38451898D01*
X75799142Y-38499637D01*
X75846881Y-38547376D01*
X75894620Y-38642854D01*
X75894620Y-38738332D01*
X75846881Y-38833810D01*
X75799142Y-38881549D01*
X75703664Y-38929288D01*
X75512708Y-38977027D01*
X75274013Y-38977027D01*
X75083057Y-38929288D01*
X74987579Y-38881549D01*
X74939840Y-38833810D01*
X74892100Y-38738332D01*
X74892100Y-37688073D02*
X75608186Y-37688073D01*
X75751403Y-37735812D01*
X75846881Y-37831290D01*
X75894620Y-37974507D01*
X75894620Y-38069985D01*
G04 #@! TO.C,J3*
X118472955Y-86004200D02*
X119187770Y-86004200D01*
X119330732Y-86051854D01*
X119426041Y-86147162D01*
X119473695Y-86290125D01*
X119473695Y-86385434D01*
X118472955Y-85622965D02*
X118472955Y-85003460D01*
X118854190Y-85337040D01*
X118854190Y-85194077D01*
X118901844Y-85098768D01*
X118949498Y-85051114D01*
X119044807Y-85003460D01*
X119283078Y-85003460D01*
X119378387Y-85051114D01*
X119426041Y-85098768D01*
X119473695Y-85194077D01*
X119473695Y-85480002D01*
X119426041Y-85575311D01*
X119378387Y-85622965D01*
X138324681Y-88169665D02*
X138372420Y-88026448D01*
X138372420Y-87787753D01*
X138324681Y-87692275D01*
X138276942Y-87644536D01*
X138181464Y-87596797D01*
X138085986Y-87596797D01*
X137990508Y-87644536D01*
X137942769Y-87692275D01*
X137895030Y-87787753D01*
X137847291Y-87978709D01*
X137799552Y-88074187D01*
X137751813Y-88121926D01*
X137656335Y-88169665D01*
X137560857Y-88169665D01*
X137465379Y-88121926D01*
X137417640Y-88074187D01*
X137369900Y-87978709D01*
X137369900Y-87740014D01*
X137417640Y-87596797D01*
X138372420Y-87167145D02*
X137369900Y-87167145D01*
X137369900Y-86928450D01*
X137417640Y-86785233D01*
X137513118Y-86689755D01*
X137608596Y-86642016D01*
X137799552Y-86594277D01*
X137942769Y-86594277D01*
X138133725Y-86642016D01*
X138229203Y-86689755D01*
X138324681Y-86785233D01*
X138372420Y-86928450D01*
X138372420Y-87167145D01*
X138324681Y-86212364D02*
X138372420Y-86069147D01*
X138372420Y-85830452D01*
X138324681Y-85734974D01*
X138276942Y-85687235D01*
X138181464Y-85639496D01*
X138085986Y-85639496D01*
X137990508Y-85687235D01*
X137942769Y-85734974D01*
X137895030Y-85830452D01*
X137847291Y-86021408D01*
X137799552Y-86116886D01*
X137751813Y-86164625D01*
X137656335Y-86212364D01*
X137560857Y-86212364D01*
X137465379Y-86164625D01*
X137417640Y-86116886D01*
X137369900Y-86021408D01*
X137369900Y-85782713D01*
X137417640Y-85639496D01*
X137990508Y-85209844D02*
X137990508Y-84446020D01*
X137369900Y-83491239D02*
X137369900Y-83968629D01*
X137847291Y-84016368D01*
X137799552Y-83968629D01*
X137751813Y-83873151D01*
X137751813Y-83634456D01*
X137799552Y-83538978D01*
X137847291Y-83491239D01*
X137942769Y-83443500D01*
X138181464Y-83443500D01*
X138276942Y-83491239D01*
X138324681Y-83538978D01*
X138372420Y-83634456D01*
X138372420Y-83873151D01*
X138324681Y-83968629D01*
X138276942Y-84016368D01*
X137369900Y-82822892D02*
X137369900Y-82727414D01*
X137417640Y-82631936D01*
X137465379Y-82584197D01*
X137560857Y-82536458D01*
X137751813Y-82488719D01*
X137990508Y-82488719D01*
X138181464Y-82536458D01*
X138276942Y-82584197D01*
X138324681Y-82631936D01*
X138372420Y-82727414D01*
X138372420Y-82822892D01*
X138324681Y-82918370D01*
X138276942Y-82966109D01*
X138181464Y-83013848D01*
X137990508Y-83061587D01*
X137751813Y-83061587D01*
X137560857Y-83013848D01*
X137465379Y-82966109D01*
X137417640Y-82918370D01*
X137369900Y-82822892D01*
X137369900Y-81772633D02*
X138085986Y-81772633D01*
X138229203Y-81820372D01*
X138324681Y-81915850D01*
X138372420Y-82059067D01*
X138372420Y-82154545D01*
G04 #@! TO.C,J4*
D13*
X84756666Y-16597380D02*
X84756666Y-17311666D01*
X84709047Y-17454523D01*
X84613809Y-17549761D01*
X84470952Y-17597380D01*
X84375714Y-17597380D01*
X85661428Y-16930714D02*
X85661428Y-17597380D01*
X85423333Y-16549761D02*
X85185238Y-17264047D01*
X85804285Y-17264047D01*
G04 #@! TO.C,U0*
X95012380Y-77596904D02*
X95821904Y-77596904D01*
X95917142Y-77549285D01*
X95964761Y-77501666D01*
X96012380Y-77406428D01*
X96012380Y-77215952D01*
X95964761Y-77120714D01*
X95917142Y-77073095D01*
X95821904Y-77025476D01*
X95012380Y-77025476D01*
X95012380Y-76358809D02*
X95012380Y-76263571D01*
X95060000Y-76168333D01*
X95107619Y-76120714D01*
X95202857Y-76073095D01*
X95393333Y-76025476D01*
X95631428Y-76025476D01*
X95821904Y-76073095D01*
X95917142Y-76120714D01*
X95964761Y-76168333D01*
X96012380Y-76263571D01*
X96012380Y-76358809D01*
X95964761Y-76454047D01*
X95917142Y-76501666D01*
X95821904Y-76549285D01*
X95631428Y-76596904D01*
X95393333Y-76596904D01*
X95202857Y-76549285D01*
X95107619Y-76501666D01*
X95060000Y-76454047D01*
X95012380Y-76358809D01*
G04 #@! TO.C,U1*
X95012380Y-56006904D02*
X95821904Y-56006904D01*
X95917142Y-55959285D01*
X95964761Y-55911666D01*
X96012380Y-55816428D01*
X96012380Y-55625952D01*
X95964761Y-55530714D01*
X95917142Y-55483095D01*
X95821904Y-55435476D01*
X95012380Y-55435476D01*
X96012380Y-54435476D02*
X96012380Y-55006904D01*
X96012380Y-54721190D02*
X95012380Y-54721190D01*
X95155238Y-54816428D01*
X95250476Y-54911666D01*
X95298095Y-55006904D01*
G04 #@! TO.C,U2*
X116617380Y-56006904D02*
X117426904Y-56006904D01*
X117522142Y-55959285D01*
X117569761Y-55911666D01*
X117617380Y-55816428D01*
X117617380Y-55625952D01*
X117569761Y-55530714D01*
X117522142Y-55483095D01*
X117426904Y-55435476D01*
X116617380Y-55435476D01*
X116712619Y-55006904D02*
X116665000Y-54959285D01*
X116617380Y-54864047D01*
X116617380Y-54625952D01*
X116665000Y-54530714D01*
X116712619Y-54483095D01*
X116807857Y-54435476D01*
X116903095Y-54435476D01*
X117045952Y-54483095D01*
X117617380Y-55054523D01*
X117617380Y-54435476D01*
G04 #@! TO.C,U3*
X116617380Y-77596904D02*
X117426904Y-77596904D01*
X117522142Y-77549285D01*
X117569761Y-77501666D01*
X117617380Y-77406428D01*
X117617380Y-77215952D01*
X117569761Y-77120714D01*
X117522142Y-77073095D01*
X117426904Y-77025476D01*
X116617380Y-77025476D01*
X116617380Y-76644523D02*
X116617380Y-76025476D01*
X116998333Y-76358809D01*
X116998333Y-76215952D01*
X117045952Y-76120714D01*
X117093571Y-76073095D01*
X117188809Y-76025476D01*
X117426904Y-76025476D01*
X117522142Y-76073095D01*
X117569761Y-76120714D01*
X117617380Y-76215952D01*
X117617380Y-76501666D01*
X117569761Y-76596904D01*
X117522142Y-76644523D01*
G04 #@! TO.C,R1*
X111070380Y-82961666D02*
X110594190Y-83295000D01*
X111070380Y-83533095D02*
X110070380Y-83533095D01*
X110070380Y-83152142D01*
X110118000Y-83056904D01*
X110165619Y-83009285D01*
X110260857Y-82961666D01*
X110403714Y-82961666D01*
X110498952Y-83009285D01*
X110546571Y-83056904D01*
X110594190Y-83152142D01*
X110594190Y-83533095D01*
X111070380Y-82009285D02*
X111070380Y-82580714D01*
X111070380Y-82295000D02*
X110070380Y-82295000D01*
X110213238Y-82390238D01*
X110308476Y-82485476D01*
X110356095Y-82580714D01*
G04 #@! TO.C,R2*
X114370380Y-70787666D02*
X113894190Y-71121000D01*
X114370380Y-71359095D02*
X113370380Y-71359095D01*
X113370380Y-70978142D01*
X113418000Y-70882904D01*
X113465619Y-70835285D01*
X113560857Y-70787666D01*
X113703714Y-70787666D01*
X113798952Y-70835285D01*
X113846571Y-70882904D01*
X113894190Y-70978142D01*
X113894190Y-71359095D01*
X113465619Y-70406714D02*
X113418000Y-70359095D01*
X113370380Y-70263857D01*
X113370380Y-70025761D01*
X113418000Y-69930523D01*
X113465619Y-69882904D01*
X113560857Y-69835285D01*
X113656095Y-69835285D01*
X113798952Y-69882904D01*
X114370380Y-70454333D01*
X114370380Y-69835285D01*
G04 #@! TO.C,R3*
X110562380Y-61761666D02*
X110086190Y-62095000D01*
X110562380Y-62333095D02*
X109562380Y-62333095D01*
X109562380Y-61952142D01*
X109610000Y-61856904D01*
X109657619Y-61809285D01*
X109752857Y-61761666D01*
X109895714Y-61761666D01*
X109990952Y-61809285D01*
X110038571Y-61856904D01*
X110086190Y-61952142D01*
X110086190Y-62333095D01*
X109562380Y-61428333D02*
X109562380Y-60809285D01*
X109943333Y-61142619D01*
X109943333Y-60999761D01*
X109990952Y-60904523D01*
X110038571Y-60856904D01*
X110133809Y-60809285D01*
X110371904Y-60809285D01*
X110467142Y-60856904D01*
X110514761Y-60904523D01*
X110562380Y-60999761D01*
X110562380Y-61285476D01*
X110514761Y-61380714D01*
X110467142Y-61428333D01*
G04 #@! TO.C,R4*
X113862380Y-49061666D02*
X113386190Y-49395000D01*
X113862380Y-49633095D02*
X112862380Y-49633095D01*
X112862380Y-49252142D01*
X112910000Y-49156904D01*
X112957619Y-49109285D01*
X113052857Y-49061666D01*
X113195714Y-49061666D01*
X113290952Y-49109285D01*
X113338571Y-49156904D01*
X113386190Y-49252142D01*
X113386190Y-49633095D01*
X113195714Y-48204523D02*
X113862380Y-48204523D01*
X112814761Y-48442619D02*
X113529047Y-48680714D01*
X113529047Y-48061666D01*
G04 #@! TO.C,R5*
X103067380Y-49061666D02*
X102591190Y-49395000D01*
X103067380Y-49633095D02*
X102067380Y-49633095D01*
X102067380Y-49252142D01*
X102115000Y-49156904D01*
X102162619Y-49109285D01*
X102257857Y-49061666D01*
X102400714Y-49061666D01*
X102495952Y-49109285D01*
X102543571Y-49156904D01*
X102591190Y-49252142D01*
X102591190Y-49633095D01*
X102067380Y-48156904D02*
X102067380Y-48633095D01*
X102543571Y-48680714D01*
X102495952Y-48633095D01*
X102448333Y-48537857D01*
X102448333Y-48299761D01*
X102495952Y-48204523D01*
X102543571Y-48156904D01*
X102638809Y-48109285D01*
X102876904Y-48109285D01*
X102972142Y-48156904D01*
X103019761Y-48204523D01*
X103067380Y-48299761D01*
X103067380Y-48537857D01*
X103019761Y-48633095D01*
X102972142Y-48680714D01*
G04 #@! TO.C,R6*
X99767380Y-61761666D02*
X99291190Y-62095000D01*
X99767380Y-62333095D02*
X98767380Y-62333095D01*
X98767380Y-61952142D01*
X98815000Y-61856904D01*
X98862619Y-61809285D01*
X98957857Y-61761666D01*
X99100714Y-61761666D01*
X99195952Y-61809285D01*
X99243571Y-61856904D01*
X99291190Y-61952142D01*
X99291190Y-62333095D01*
X98767380Y-60904523D02*
X98767380Y-61095000D01*
X98815000Y-61190238D01*
X98862619Y-61237857D01*
X99005476Y-61333095D01*
X99195952Y-61380714D01*
X99576904Y-61380714D01*
X99672142Y-61333095D01*
X99719761Y-61285476D01*
X99767380Y-61190238D01*
X99767380Y-60999761D01*
X99719761Y-60904523D01*
X99672142Y-60856904D01*
X99576904Y-60809285D01*
X99338809Y-60809285D01*
X99243571Y-60856904D01*
X99195952Y-60904523D01*
X99148333Y-60999761D01*
X99148333Y-61190238D01*
X99195952Y-61285476D01*
X99243571Y-61333095D01*
X99338809Y-61380714D01*
G04 #@! TO.C,R7*
X103067380Y-70896666D02*
X102591190Y-71230000D01*
X103067380Y-71468095D02*
X102067380Y-71468095D01*
X102067380Y-71087142D01*
X102115000Y-70991904D01*
X102162619Y-70944285D01*
X102257857Y-70896666D01*
X102400714Y-70896666D01*
X102495952Y-70944285D01*
X102543571Y-70991904D01*
X102591190Y-71087142D01*
X102591190Y-71468095D01*
X102067380Y-70563333D02*
X102067380Y-69896666D01*
X103067380Y-70325238D01*
G04 #@! TO.C,R8*
X99767380Y-83106666D02*
X99291190Y-83440000D01*
X99767380Y-83678095D02*
X98767380Y-83678095D01*
X98767380Y-83297142D01*
X98815000Y-83201904D01*
X98862619Y-83154285D01*
X98957857Y-83106666D01*
X99100714Y-83106666D01*
X99195952Y-83154285D01*
X99243571Y-83201904D01*
X99291190Y-83297142D01*
X99291190Y-83678095D01*
X99195952Y-82535238D02*
X99148333Y-82630476D01*
X99100714Y-82678095D01*
X99005476Y-82725714D01*
X98957857Y-82725714D01*
X98862619Y-82678095D01*
X98815000Y-82630476D01*
X98767380Y-82535238D01*
X98767380Y-82344761D01*
X98815000Y-82249523D01*
X98862619Y-82201904D01*
X98957857Y-82154285D01*
X99005476Y-82154285D01*
X99100714Y-82201904D01*
X99148333Y-82249523D01*
X99195952Y-82344761D01*
X99195952Y-82535238D01*
X99243571Y-82630476D01*
X99291190Y-82678095D01*
X99386428Y-82725714D01*
X99576904Y-82725714D01*
X99672142Y-82678095D01*
X99719761Y-82630476D01*
X99767380Y-82535238D01*
X99767380Y-82344761D01*
X99719761Y-82249523D01*
X99672142Y-82201904D01*
X99576904Y-82154285D01*
X99386428Y-82154285D01*
X99291190Y-82201904D01*
X99243571Y-82249523D01*
X99195952Y-82344761D01*
G04 #@! TO.C,R9*
X113610380Y-82979666D02*
X113134190Y-83313000D01*
X113610380Y-83551095D02*
X112610380Y-83551095D01*
X112610380Y-83170142D01*
X112658000Y-83074904D01*
X112705619Y-83027285D01*
X112800857Y-82979666D01*
X112943714Y-82979666D01*
X113038952Y-83027285D01*
X113086571Y-83074904D01*
X113134190Y-83170142D01*
X113134190Y-83551095D01*
X113610380Y-82503476D02*
X113610380Y-82313000D01*
X113562761Y-82217761D01*
X113515142Y-82170142D01*
X113372285Y-82074904D01*
X113181809Y-82027285D01*
X112800857Y-82027285D01*
X112705619Y-82074904D01*
X112658000Y-82122523D01*
X112610380Y-82217761D01*
X112610380Y-82408238D01*
X112658000Y-82503476D01*
X112705619Y-82551095D01*
X112800857Y-82598714D01*
X113038952Y-82598714D01*
X113134190Y-82551095D01*
X113181809Y-82503476D01*
X113229428Y-82408238D01*
X113229428Y-82217761D01*
X113181809Y-82122523D01*
X113134190Y-82074904D01*
X113038952Y-82027285D01*
G04 #@! TO.C,R10*
X116910380Y-71254857D02*
X116434190Y-71588190D01*
X116910380Y-71826285D02*
X115910380Y-71826285D01*
X115910380Y-71445333D01*
X115958000Y-71350095D01*
X116005619Y-71302476D01*
X116100857Y-71254857D01*
X116243714Y-71254857D01*
X116338952Y-71302476D01*
X116386571Y-71350095D01*
X116434190Y-71445333D01*
X116434190Y-71826285D01*
X116910380Y-70302476D02*
X116910380Y-70873904D01*
X116910380Y-70588190D02*
X115910380Y-70588190D01*
X116053238Y-70683428D01*
X116148476Y-70778666D01*
X116196095Y-70873904D01*
X115910380Y-69683428D02*
X115910380Y-69588190D01*
X115958000Y-69492952D01*
X116005619Y-69445333D01*
X116100857Y-69397714D01*
X116291333Y-69350095D01*
X116529428Y-69350095D01*
X116719904Y-69397714D01*
X116815142Y-69445333D01*
X116862761Y-69492952D01*
X116910380Y-69588190D01*
X116910380Y-69683428D01*
X116862761Y-69778666D01*
X116815142Y-69826285D01*
X116719904Y-69873904D01*
X116529428Y-69921523D01*
X116291333Y-69921523D01*
X116100857Y-69873904D01*
X116005619Y-69826285D01*
X115958000Y-69778666D01*
X115910380Y-69683428D01*
G04 #@! TO.C,R11*
X113737380Y-62237857D02*
X113261190Y-62571190D01*
X113737380Y-62809285D02*
X112737380Y-62809285D01*
X112737380Y-62428333D01*
X112785000Y-62333095D01*
X112832619Y-62285476D01*
X112927857Y-62237857D01*
X113070714Y-62237857D01*
X113165952Y-62285476D01*
X113213571Y-62333095D01*
X113261190Y-62428333D01*
X113261190Y-62809285D01*
X113737380Y-61285476D02*
X113737380Y-61856904D01*
X113737380Y-61571190D02*
X112737380Y-61571190D01*
X112880238Y-61666428D01*
X112975476Y-61761666D01*
X113023095Y-61856904D01*
X113737380Y-60333095D02*
X113737380Y-60904523D01*
X113737380Y-60618809D02*
X112737380Y-60618809D01*
X112880238Y-60714047D01*
X112975476Y-60809285D01*
X113023095Y-60904523D01*
G04 #@! TO.C,R12*
X117037380Y-49537857D02*
X116561190Y-49871190D01*
X117037380Y-50109285D02*
X116037380Y-50109285D01*
X116037380Y-49728333D01*
X116085000Y-49633095D01*
X116132619Y-49585476D01*
X116227857Y-49537857D01*
X116370714Y-49537857D01*
X116465952Y-49585476D01*
X116513571Y-49633095D01*
X116561190Y-49728333D01*
X116561190Y-50109285D01*
X117037380Y-48585476D02*
X117037380Y-49156904D01*
X117037380Y-48871190D02*
X116037380Y-48871190D01*
X116180238Y-48966428D01*
X116275476Y-49061666D01*
X116323095Y-49156904D01*
X116132619Y-48204523D02*
X116085000Y-48156904D01*
X116037380Y-48061666D01*
X116037380Y-47823571D01*
X116085000Y-47728333D01*
X116132619Y-47680714D01*
X116227857Y-47633095D01*
X116323095Y-47633095D01*
X116465952Y-47680714D01*
X117037380Y-48252142D01*
X117037380Y-47633095D01*
G04 #@! TO.C,R13*
X99892380Y-49537857D02*
X99416190Y-49871190D01*
X99892380Y-50109285D02*
X98892380Y-50109285D01*
X98892380Y-49728333D01*
X98940000Y-49633095D01*
X98987619Y-49585476D01*
X99082857Y-49537857D01*
X99225714Y-49537857D01*
X99320952Y-49585476D01*
X99368571Y-49633095D01*
X99416190Y-49728333D01*
X99416190Y-50109285D01*
X99892380Y-48585476D02*
X99892380Y-49156904D01*
X99892380Y-48871190D02*
X98892380Y-48871190D01*
X99035238Y-48966428D01*
X99130476Y-49061666D01*
X99178095Y-49156904D01*
X98892380Y-48252142D02*
X98892380Y-47633095D01*
X99273333Y-47966428D01*
X99273333Y-47823571D01*
X99320952Y-47728333D01*
X99368571Y-47680714D01*
X99463809Y-47633095D01*
X99701904Y-47633095D01*
X99797142Y-47680714D01*
X99844761Y-47728333D01*
X99892380Y-47823571D01*
X99892380Y-48109285D01*
X99844761Y-48204523D01*
X99797142Y-48252142D01*
G04 #@! TO.C,R14*
X96592380Y-62237857D02*
X96116190Y-62571190D01*
X96592380Y-62809285D02*
X95592380Y-62809285D01*
X95592380Y-62428333D01*
X95640000Y-62333095D01*
X95687619Y-62285476D01*
X95782857Y-62237857D01*
X95925714Y-62237857D01*
X96020952Y-62285476D01*
X96068571Y-62333095D01*
X96116190Y-62428333D01*
X96116190Y-62809285D01*
X96592380Y-61285476D02*
X96592380Y-61856904D01*
X96592380Y-61571190D02*
X95592380Y-61571190D01*
X95735238Y-61666428D01*
X95830476Y-61761666D01*
X95878095Y-61856904D01*
X95925714Y-60428333D02*
X96592380Y-60428333D01*
X95544761Y-60666428D02*
X96259047Y-60904523D01*
X96259047Y-60285476D01*
G04 #@! TO.C,R15*
X99892380Y-71372857D02*
X99416190Y-71706190D01*
X99892380Y-71944285D02*
X98892380Y-71944285D01*
X98892380Y-71563333D01*
X98940000Y-71468095D01*
X98987619Y-71420476D01*
X99082857Y-71372857D01*
X99225714Y-71372857D01*
X99320952Y-71420476D01*
X99368571Y-71468095D01*
X99416190Y-71563333D01*
X99416190Y-71944285D01*
X99892380Y-70420476D02*
X99892380Y-70991904D01*
X99892380Y-70706190D02*
X98892380Y-70706190D01*
X99035238Y-70801428D01*
X99130476Y-70896666D01*
X99178095Y-70991904D01*
X98892380Y-69515714D02*
X98892380Y-69991904D01*
X99368571Y-70039523D01*
X99320952Y-69991904D01*
X99273333Y-69896666D01*
X99273333Y-69658571D01*
X99320952Y-69563333D01*
X99368571Y-69515714D01*
X99463809Y-69468095D01*
X99701904Y-69468095D01*
X99797142Y-69515714D01*
X99844761Y-69563333D01*
X99892380Y-69658571D01*
X99892380Y-69896666D01*
X99844761Y-69991904D01*
X99797142Y-70039523D01*
G04 #@! TO.C,R16*
X96592380Y-83582857D02*
X96116190Y-83916190D01*
X96592380Y-84154285D02*
X95592380Y-84154285D01*
X95592380Y-83773333D01*
X95640000Y-83678095D01*
X95687619Y-83630476D01*
X95782857Y-83582857D01*
X95925714Y-83582857D01*
X96020952Y-83630476D01*
X96068571Y-83678095D01*
X96116190Y-83773333D01*
X96116190Y-84154285D01*
X96592380Y-82630476D02*
X96592380Y-83201904D01*
X96592380Y-82916190D02*
X95592380Y-82916190D01*
X95735238Y-83011428D01*
X95830476Y-83106666D01*
X95878095Y-83201904D01*
X95592380Y-81773333D02*
X95592380Y-81963809D01*
X95640000Y-82059047D01*
X95687619Y-82106666D01*
X95830476Y-82201904D01*
X96020952Y-82249523D01*
X96401904Y-82249523D01*
X96497142Y-82201904D01*
X96544761Y-82154285D01*
X96592380Y-82059047D01*
X96592380Y-81868571D01*
X96544761Y-81773333D01*
X96497142Y-81725714D01*
X96401904Y-81678095D01*
X96163809Y-81678095D01*
X96068571Y-81725714D01*
X96020952Y-81773333D01*
X95973333Y-81868571D01*
X95973333Y-82059047D01*
X96020952Y-82154285D01*
X96068571Y-82201904D01*
X96163809Y-82249523D01*
G04 #@! TO.C,U4*
X97663095Y-129492380D02*
X97663095Y-130301904D01*
X97710714Y-130397142D01*
X97758333Y-130444761D01*
X97853571Y-130492380D01*
X98044047Y-130492380D01*
X98139285Y-130444761D01*
X98186904Y-130397142D01*
X98234523Y-130301904D01*
X98234523Y-129492380D01*
X99139285Y-129825714D02*
X99139285Y-130492380D01*
X98901190Y-129444761D02*
X98663095Y-130159047D01*
X99282142Y-130159047D01*
X94623095Y-153122380D02*
X94623095Y-153931904D01*
X94670714Y-154027142D01*
X94718333Y-154074761D01*
X94813571Y-154122380D01*
X95004047Y-154122380D01*
X95099285Y-154074761D01*
X95146904Y-154027142D01*
X95194523Y-153931904D01*
X95194523Y-153122380D01*
X95623095Y-154074761D02*
X95765952Y-154122380D01*
X96004047Y-154122380D01*
X96099285Y-154074761D01*
X96146904Y-154027142D01*
X96194523Y-153931904D01*
X96194523Y-153836666D01*
X96146904Y-153741428D01*
X96099285Y-153693809D01*
X96004047Y-153646190D01*
X95813571Y-153598571D01*
X95718333Y-153550952D01*
X95670714Y-153503333D01*
X95623095Y-153408095D01*
X95623095Y-153312857D01*
X95670714Y-153217619D01*
X95718333Y-153170000D01*
X95813571Y-153122380D01*
X96051666Y-153122380D01*
X96194523Y-153170000D01*
X96956428Y-153598571D02*
X97099285Y-153646190D01*
X97146904Y-153693809D01*
X97194523Y-153789047D01*
X97194523Y-153931904D01*
X97146904Y-154027142D01*
X97099285Y-154074761D01*
X97004047Y-154122380D01*
X96623095Y-154122380D01*
X96623095Y-153122380D01*
X96956428Y-153122380D01*
X97051666Y-153170000D01*
X97099285Y-153217619D01*
X97146904Y-153312857D01*
X97146904Y-153408095D01*
X97099285Y-153503333D01*
X97051666Y-153550952D01*
X96956428Y-153598571D01*
X96623095Y-153598571D01*
G04 #@! TO.C,U5*
X124047380Y-121411904D02*
X124856904Y-121411904D01*
X124952142Y-121364285D01*
X124999761Y-121316666D01*
X125047380Y-121221428D01*
X125047380Y-121030952D01*
X124999761Y-120935714D01*
X124952142Y-120888095D01*
X124856904Y-120840476D01*
X124047380Y-120840476D01*
X124047380Y-119888095D02*
X124047380Y-120364285D01*
X124523571Y-120411904D01*
X124475952Y-120364285D01*
X124428333Y-120269047D01*
X124428333Y-120030952D01*
X124475952Y-119935714D01*
X124523571Y-119888095D01*
X124618809Y-119840476D01*
X124856904Y-119840476D01*
X124952142Y-119888095D01*
X124999761Y-119935714D01*
X125047380Y-120030952D01*
X125047380Y-120269047D01*
X124999761Y-120364285D01*
X124952142Y-120411904D01*
G04 #@! TO.C,U7*
X123698095Y-138382380D02*
X123698095Y-139191904D01*
X123745714Y-139287142D01*
X123793333Y-139334761D01*
X123888571Y-139382380D01*
X124079047Y-139382380D01*
X124174285Y-139334761D01*
X124221904Y-139287142D01*
X124269523Y-139191904D01*
X124269523Y-138382380D01*
X124650476Y-138382380D02*
X125317142Y-138382380D01*
X124888571Y-139382380D01*
X117205238Y-147772380D02*
X117205238Y-146772380D01*
X117681428Y-147772380D02*
X117681428Y-146772380D01*
X118252857Y-147772380D01*
X118252857Y-146772380D01*
X118586190Y-146772380D02*
X119157619Y-146772380D01*
X118871904Y-147772380D02*
X118871904Y-146772380D01*
X116895714Y-144946666D02*
X117371904Y-144946666D01*
X116800476Y-145232380D02*
X117133809Y-144232380D01*
X117467142Y-145232380D01*
X117800476Y-145232380D02*
X117800476Y-144232380D01*
X118038571Y-144232380D01*
X118181428Y-144280000D01*
X118276666Y-144375238D01*
X118324285Y-144470476D01*
X118371904Y-144660952D01*
X118371904Y-144803809D01*
X118324285Y-144994285D01*
X118276666Y-145089523D01*
X118181428Y-145184761D01*
X118038571Y-145232380D01*
X117800476Y-145232380D01*
X118990952Y-144232380D02*
X119086190Y-144232380D01*
X119181428Y-144280000D01*
X119229047Y-144327619D01*
X119276666Y-144422857D01*
X119324285Y-144613333D01*
X119324285Y-144851428D01*
X119276666Y-145041904D01*
X119229047Y-145137142D01*
X119181428Y-145184761D01*
X119086190Y-145232380D01*
X118990952Y-145232380D01*
X118895714Y-145184761D01*
X118848095Y-145137142D01*
X118800476Y-145041904D01*
X118752857Y-144851428D01*
X118752857Y-144613333D01*
X118800476Y-144422857D01*
X118848095Y-144327619D01*
X118895714Y-144280000D01*
X118990952Y-144232380D01*
X116848095Y-141692380D02*
X117514761Y-142692380D01*
X117514761Y-141692380D02*
X116848095Y-142692380D01*
X117895714Y-142692380D02*
X117895714Y-141692380D01*
X118133809Y-141692380D01*
X118276666Y-141740000D01*
X118371904Y-141835238D01*
X118419523Y-141930476D01*
X118467142Y-142120952D01*
X118467142Y-142263809D01*
X118419523Y-142454285D01*
X118371904Y-142549523D01*
X118276666Y-142644761D01*
X118133809Y-142692380D01*
X117895714Y-142692380D01*
X118848095Y-142406666D02*
X119324285Y-142406666D01*
X118752857Y-142692380D02*
X119086190Y-141692380D01*
X119419523Y-142692380D01*
X116871904Y-139152380D02*
X117538571Y-140152380D01*
X117538571Y-139152380D02*
X116871904Y-140152380D01*
X118490952Y-140057142D02*
X118443333Y-140104761D01*
X118300476Y-140152380D01*
X118205238Y-140152380D01*
X118062380Y-140104761D01*
X117967142Y-140009523D01*
X117919523Y-139914285D01*
X117871904Y-139723809D01*
X117871904Y-139580952D01*
X117919523Y-139390476D01*
X117967142Y-139295238D01*
X118062380Y-139200000D01*
X118205238Y-139152380D01*
X118300476Y-139152380D01*
X118443333Y-139200000D01*
X118490952Y-139247619D01*
X119395714Y-140152380D02*
X118919523Y-140152380D01*
X118919523Y-139152380D01*
X116895714Y-137564761D02*
X117038571Y-137612380D01*
X117276666Y-137612380D01*
X117371904Y-137564761D01*
X117419523Y-137517142D01*
X117467142Y-137421904D01*
X117467142Y-137326666D01*
X117419523Y-137231428D01*
X117371904Y-137183809D01*
X117276666Y-137136190D01*
X117086190Y-137088571D01*
X116990952Y-137040952D01*
X116943333Y-136993333D01*
X116895714Y-136898095D01*
X116895714Y-136802857D01*
X116943333Y-136707619D01*
X116990952Y-136660000D01*
X117086190Y-136612380D01*
X117324285Y-136612380D01*
X117467142Y-136660000D01*
X117895714Y-137612380D02*
X117895714Y-136612380D01*
X118133809Y-136612380D01*
X118276666Y-136660000D01*
X118371904Y-136755238D01*
X118419523Y-136850476D01*
X118467142Y-137040952D01*
X118467142Y-137183809D01*
X118419523Y-137374285D01*
X118371904Y-137469523D01*
X118276666Y-137564761D01*
X118133809Y-137612380D01*
X117895714Y-137612380D01*
X118848095Y-137326666D02*
X119324285Y-137326666D01*
X118752857Y-137612380D02*
X119086190Y-136612380D01*
X119419523Y-137612380D01*
X116919523Y-135024761D02*
X117062380Y-135072380D01*
X117300476Y-135072380D01*
X117395714Y-135024761D01*
X117443333Y-134977142D01*
X117490952Y-134881904D01*
X117490952Y-134786666D01*
X117443333Y-134691428D01*
X117395714Y-134643809D01*
X117300476Y-134596190D01*
X117110000Y-134548571D01*
X117014761Y-134500952D01*
X116967142Y-134453333D01*
X116919523Y-134358095D01*
X116919523Y-134262857D01*
X116967142Y-134167619D01*
X117014761Y-134120000D01*
X117110000Y-134072380D01*
X117348095Y-134072380D01*
X117490952Y-134120000D01*
X118490952Y-134977142D02*
X118443333Y-135024761D01*
X118300476Y-135072380D01*
X118205238Y-135072380D01*
X118062380Y-135024761D01*
X117967142Y-134929523D01*
X117919523Y-134834285D01*
X117871904Y-134643809D01*
X117871904Y-134500952D01*
X117919523Y-134310476D01*
X117967142Y-134215238D01*
X118062380Y-134120000D01*
X118205238Y-134072380D01*
X118300476Y-134072380D01*
X118443333Y-134120000D01*
X118490952Y-134167619D01*
X119395714Y-135072380D02*
X118919523Y-135072380D01*
X118919523Y-134072380D01*
X117348095Y-131580000D02*
X117252857Y-131532380D01*
X117110000Y-131532380D01*
X116967142Y-131580000D01*
X116871904Y-131675238D01*
X116824285Y-131770476D01*
X116776666Y-131960952D01*
X116776666Y-132103809D01*
X116824285Y-132294285D01*
X116871904Y-132389523D01*
X116967142Y-132484761D01*
X117110000Y-132532380D01*
X117205238Y-132532380D01*
X117348095Y-132484761D01*
X117395714Y-132437142D01*
X117395714Y-132103809D01*
X117205238Y-132103809D01*
X117824285Y-132532380D02*
X117824285Y-131532380D01*
X118395714Y-132532380D01*
X118395714Y-131532380D01*
X118871904Y-132532380D02*
X118871904Y-131532380D01*
X119110000Y-131532380D01*
X119252857Y-131580000D01*
X119348095Y-131675238D01*
X119395714Y-131770476D01*
X119443333Y-131960952D01*
X119443333Y-132103809D01*
X119395714Y-132294285D01*
X119348095Y-132389523D01*
X119252857Y-132484761D01*
X119110000Y-132532380D01*
X118871904Y-132532380D01*
X116776666Y-128992380D02*
X117110000Y-129992380D01*
X117443333Y-128992380D01*
X118348095Y-129897142D02*
X118300476Y-129944761D01*
X118157619Y-129992380D01*
X118062380Y-129992380D01*
X117919523Y-129944761D01*
X117824285Y-129849523D01*
X117776666Y-129754285D01*
X117729047Y-129563809D01*
X117729047Y-129420952D01*
X117776666Y-129230476D01*
X117824285Y-129135238D01*
X117919523Y-129040000D01*
X118062380Y-128992380D01*
X118157619Y-128992380D01*
X118300476Y-129040000D01*
X118348095Y-129087619D01*
X119348095Y-129897142D02*
X119300476Y-129944761D01*
X119157619Y-129992380D01*
X119062380Y-129992380D01*
X118919523Y-129944761D01*
X118824285Y-129849523D01*
X118776666Y-129754285D01*
X118729047Y-129563809D01*
X118729047Y-129420952D01*
X118776666Y-129230476D01*
X118824285Y-129135238D01*
X118919523Y-129040000D01*
X119062380Y-128992380D01*
X119157619Y-128992380D01*
X119300476Y-129040000D01*
X119348095Y-129087619D01*
G04 #@! TD*
M02*
