G04 #@! TF.GenerationSoftware,KiCad,Pcbnew,5.0.0-fee4fd1~66~ubuntu18.04.1*
G04 #@! TF.CreationDate,2018-09-15T17:45:39+02:00*
G04 #@! TF.ProjectId,new-joy-board,6E65772D6A6F792D626F6172642E6B69,rev?*
G04 #@! TF.SameCoordinates,Original*
G04 #@! TF.FileFunction,Copper,L2,Bot,Signal*
G04 #@! TF.FilePolarity,Positive*
%FSLAX46Y46*%
G04 Gerber Fmt 4.6, Leading zero omitted, Abs format (unit mm)*
G04 Created by KiCad (PCBNEW 5.0.0-fee4fd1~66~ubuntu18.04.1) date Sat Sep 15 17:45:39 2018*
%MOMM*%
%LPD*%
G01*
G04 APERTURE LIST*
G04 #@! TA.AperFunction,ComponentPad*
%ADD10C,6.500000*%
G04 #@! TD*
G04 #@! TA.AperFunction,ComponentPad*
%ADD11C,1.950000*%
G04 #@! TD*
G04 #@! TA.AperFunction,ComponentPad*
%ADD12C,1.524000*%
G04 #@! TD*
G04 #@! TA.AperFunction,ComponentPad*
%ADD13R,3.000000X3.000000*%
G04 #@! TD*
G04 #@! TA.AperFunction,ComponentPad*
%ADD14C,3.000000*%
G04 #@! TD*
G04 #@! TA.AperFunction,Conductor*
%ADD15C,0.100000*%
G04 #@! TD*
G04 #@! TA.AperFunction,SMDPad,CuDef*
%ADD16C,1.150000*%
G04 #@! TD*
G04 #@! TA.AperFunction,ViaPad*
%ADD17C,0.600000*%
G04 #@! TD*
G04 #@! TA.AperFunction,Conductor*
%ADD18C,0.500000*%
G04 #@! TD*
G04 #@! TA.AperFunction,Conductor*
%ADD19C,2.000000*%
G04 #@! TD*
G04 #@! TA.AperFunction,Conductor*
%ADD20C,0.250000*%
G04 #@! TD*
G04 #@! TA.AperFunction,Conductor*
%ADD21C,0.254000*%
G04 #@! TD*
G04 APERTURE END LIST*
D10*
G04 #@! TO.P,REF\002A\002A,1*
G04 #@! TO.N,N/C*
X133350000Y-153035000D03*
G04 #@! TD*
D11*
G04 #@! TO.P,J2,2*
G04 #@! TO.N,Net-(J2-Pad2)*
X124460000Y-47625000D03*
G04 #@! TO.P,J2,4*
G04 #@! TO.N,/SDA2BUF*
X121960000Y-42625000D03*
G04 #@! TO.P,J2,1*
G04 #@! TO.N,-BATT*
X124460000Y-40125000D03*
G04 #@! TO.P,J2,5*
G04 #@! TO.N,+5V*
X121960000Y-52625000D03*
G04 #@! TO.P,J2,3*
G04 #@! TO.N,/SCL2BUF*
X124460000Y-55125000D03*
G04 #@! TO.P,J2,S1*
G04 #@! TO.N,-BATT*
X134460000Y-50125000D03*
G04 #@! TO.P,J2,S2*
X134460000Y-45125000D03*
G04 #@! TD*
D12*
G04 #@! TO.P,U4,1*
G04 #@! TO.N,+3V3*
X85725000Y-106680000D03*
G04 #@! TO.P,U4,2*
G04 #@! TO.N,Net-(U4-Pad2)*
X85725000Y-109220000D03*
G04 #@! TO.P,U4,3*
G04 #@! TO.N,Net-(U4-Pad3)*
X85725000Y-111760000D03*
G04 #@! TO.P,U4,4*
G04 #@! TO.N,Net-(U4-Pad4)*
X85725000Y-114300000D03*
G04 #@! TO.P,U4,5*
G04 #@! TO.N,Net-(U4-Pad5)*
X85725000Y-116840000D03*
G04 #@! TO.P,U4,6*
G04 #@! TO.N,Net-(U4-Pad6)*
X85725000Y-119380000D03*
G04 #@! TO.P,U4,7*
G04 #@! TO.N,Net-(U4-Pad7)*
X85725000Y-121920000D03*
G04 #@! TO.P,U4,8*
G04 #@! TO.N,Net-(U4-Pad8)*
X85725000Y-124460000D03*
G04 #@! TO.P,U4,9*
G04 #@! TO.N,Net-(U4-Pad9)*
X85725000Y-127000000D03*
G04 #@! TO.P,U4,10*
G04 #@! TO.N,/SDA0ESP*
X85725000Y-129540000D03*
G04 #@! TO.P,U4,11*
G04 #@! TO.N,/SCL0ESP*
X85725000Y-132080000D03*
G04 #@! TO.P,U4,12*
G04 #@! TO.N,/SDA1ESP*
X85725000Y-134620000D03*
G04 #@! TO.P,U4,13*
G04 #@! TO.N,/SCL1ESP*
X85725000Y-137160000D03*
G04 #@! TO.P,U4,14*
G04 #@! TO.N,Net-(U4-Pad14)*
X85725000Y-139700000D03*
G04 #@! TO.P,U4,15*
G04 #@! TO.N,Net-(U4-Pad15)*
X85725000Y-142240000D03*
G04 #@! TO.P,U4,16*
G04 #@! TO.N,Net-(U4-Pad16)*
X85725000Y-144780000D03*
G04 #@! TO.P,U4,17*
G04 #@! TO.N,Net-(U4-Pad17)*
X85725000Y-147320000D03*
G04 #@! TO.P,U4,18*
G04 #@! TO.N,Net-(U4-Pad18)*
X85725000Y-149860000D03*
G04 #@! TO.P,U4,19*
G04 #@! TO.N,+5V*
X85725000Y-152400000D03*
G04 #@! TO.P,U4,20*
G04 #@! TO.N,Net-(U4-Pad20)*
X111125000Y-152400000D03*
G04 #@! TO.P,U4,21*
G04 #@! TO.N,Net-(U4-Pad21)*
X111125000Y-149860000D03*
G04 #@! TO.P,U4,22*
G04 #@! TO.N,Net-(U4-Pad22)*
X111125000Y-147320000D03*
G04 #@! TO.P,U4,23*
G04 #@! TO.N,Net-(U4-Pad23)*
X111125000Y-144780000D03*
G04 #@! TO.P,U4,24*
G04 #@! TO.N,Net-(U4-Pad24)*
X111125000Y-142240000D03*
G04 #@! TO.P,U4,25*
G04 #@! TO.N,/SDA2ESP*
X111125000Y-139700000D03*
G04 #@! TO.P,U4,26*
G04 #@! TO.N,/SCL2ESP*
X111125000Y-137160000D03*
G04 #@! TO.P,U4,27*
G04 #@! TO.N,/SDA3ESP*
X111125000Y-134620000D03*
G04 #@! TO.P,U4,28*
G04 #@! TO.N,/SCL3ESP*
X111125000Y-132080000D03*
G04 #@! TO.P,U4,29*
G04 #@! TO.N,/CS0*
X111125000Y-129540000D03*
G04 #@! TO.P,U4,30*
G04 #@! TO.N,/CLK*
X111125000Y-127000000D03*
G04 #@! TO.P,U4,31*
G04 #@! TO.N,/CE*
X111125000Y-124460000D03*
G04 #@! TO.P,U4,32*
G04 #@! TO.N,-BATT*
X111125000Y-121920000D03*
G04 #@! TO.P,U4,33*
G04 #@! TO.N,/IRQ*
X111125000Y-119380000D03*
G04 #@! TO.P,U4,34*
G04 #@! TO.N,Net-(U4-Pad34)*
X111125000Y-116840000D03*
G04 #@! TO.P,U4,35*
G04 #@! TO.N,Net-(U4-Pad35)*
X111125000Y-114300000D03*
G04 #@! TO.P,U4,36*
G04 #@! TO.N,/MISO*
X111125000Y-111760000D03*
G04 #@! TO.P,U4,37*
G04 #@! TO.N,/MOSI*
X111125000Y-109220000D03*
G04 #@! TO.P,U4,38*
G04 #@! TO.N,-BATT*
X111125000Y-106680000D03*
G04 #@! TD*
D11*
G04 #@! TO.P,J0,2*
G04 #@! TO.N,Net-(J0-Pad2)*
X88900000Y-78105000D03*
G04 #@! TO.P,J0,4*
G04 #@! TO.N,/SDA0BUF*
X91400000Y-83105000D03*
G04 #@! TO.P,J0,1*
G04 #@! TO.N,-BATT*
X88900000Y-85605000D03*
G04 #@! TO.P,J0,5*
G04 #@! TO.N,+5V*
X91400000Y-73105000D03*
G04 #@! TO.P,J0,3*
G04 #@! TO.N,/SCL0BUF*
X88900000Y-70605000D03*
G04 #@! TO.P,J0,S1*
G04 #@! TO.N,-BATT*
X78900000Y-75605000D03*
G04 #@! TO.P,J0,S2*
X78900000Y-80605000D03*
G04 #@! TD*
G04 #@! TO.P,J1,S2*
G04 #@! TO.N,-BATT*
X78900000Y-50205000D03*
G04 #@! TO.P,J1,S1*
X78900000Y-45205000D03*
G04 #@! TO.P,J1,3*
G04 #@! TO.N,/SCL1BUF*
X88900000Y-40205000D03*
G04 #@! TO.P,J1,5*
G04 #@! TO.N,+5V*
X91400000Y-42705000D03*
G04 #@! TO.P,J1,1*
G04 #@! TO.N,-BATT*
X88900000Y-55205000D03*
G04 #@! TO.P,J1,4*
G04 #@! TO.N,/SDA1BUF*
X91400000Y-52705000D03*
G04 #@! TO.P,J1,2*
G04 #@! TO.N,Net-(J1-Pad2)*
X88900000Y-47705000D03*
G04 #@! TD*
G04 #@! TO.P,J3,2*
G04 #@! TO.N,Net-(J3-Pad2)*
X124460000Y-78105000D03*
G04 #@! TO.P,J3,4*
G04 #@! TO.N,/SDA3BUF*
X121960000Y-73105000D03*
G04 #@! TO.P,J3,1*
G04 #@! TO.N,-BATT*
X124460000Y-70605000D03*
G04 #@! TO.P,J3,5*
G04 #@! TO.N,+5V*
X121960000Y-83105000D03*
G04 #@! TO.P,J3,3*
G04 #@! TO.N,/SCL3BUF*
X124460000Y-85605000D03*
G04 #@! TO.P,J3,S1*
G04 #@! TO.N,-BATT*
X134460000Y-80605000D03*
G04 #@! TO.P,J3,S2*
X134460000Y-75605000D03*
G04 #@! TD*
D12*
G04 #@! TO.P,U7,1*
G04 #@! TO.N,+3V3*
X115570000Y-129540000D03*
G04 #@! TO.P,U7,2*
G04 #@! TO.N,-BATT*
X115570000Y-132080000D03*
G04 #@! TO.P,U7,3*
G04 #@! TO.N,/SCL3ESP*
X115570000Y-134620000D03*
G04 #@! TO.P,U7,4*
G04 #@! TO.N,/SDA3ESP*
X115570000Y-137160000D03*
G04 #@! TO.P,U7,5*
G04 #@! TO.N,Net-(U7-Pad5)*
X115570000Y-139700000D03*
G04 #@! TO.P,U7,6*
G04 #@! TO.N,Net-(U7-Pad6)*
X115570000Y-142240000D03*
G04 #@! TO.P,U7,7*
G04 #@! TO.N,Net-(U7-Pad7)*
X115570000Y-144780000D03*
G04 #@! TO.P,U7,8*
G04 #@! TO.N,Net-(U7-Pad8)*
X115570000Y-147320000D03*
G04 #@! TD*
D13*
G04 #@! TO.P,J4,1*
G04 #@! TO.N,+BATT*
X82550000Y-22225000D03*
D14*
G04 #@! TO.P,J4,2*
G04 #@! TO.N,-BATT*
X87630000Y-22225000D03*
G04 #@! TD*
D10*
G04 #@! TO.P,REF\002A\002A,1*
G04 #@! TO.N,N/C*
X80010000Y-93345000D03*
G04 #@! TD*
G04 #@! TO.P,REF\002A\002A,1*
G04 #@! TO.N,N/C*
X80010000Y-62865000D03*
G04 #@! TD*
G04 #@! TO.P,REF\002A\002A,1*
G04 #@! TO.N,N/C*
X80010000Y-31115000D03*
G04 #@! TD*
G04 #@! TO.P,REF\002A\002A,1*
G04 #@! TO.N,N/C*
X133350000Y-21590000D03*
G04 #@! TD*
G04 #@! TO.P,REF\002A\002A,1*
G04 #@! TO.N,N/C*
X133350000Y-62865000D03*
G04 #@! TD*
G04 #@! TO.P,REF\002A\002A,1*
G04 #@! TO.N,N/C*
X133350000Y-93345000D03*
G04 #@! TD*
D12*
G04 #@! TO.P,U10,1*
G04 #@! TO.N,+5V*
X93345000Y-24765000D03*
G04 #@! TO.P,U10,2*
G04 #@! TO.N,-BATT*
X93345000Y-27305000D03*
G04 #@! TO.P,U10,3*
G04 #@! TO.N,+BATT*
X93345000Y-29845000D03*
G04 #@! TO.P,U10,4*
G04 #@! TO.N,Net-(U10-Pad4)*
X93345000Y-32385000D03*
G04 #@! TD*
D15*
G04 #@! TO.N,-BATT*
G04 #@! TO.C,C1*
G36*
X98899505Y-76896204D02*
X98923773Y-76899804D01*
X98947572Y-76905765D01*
X98970671Y-76914030D01*
X98992850Y-76924520D01*
X99013893Y-76937132D01*
X99033599Y-76951747D01*
X99051777Y-76968223D01*
X99068253Y-76986401D01*
X99082868Y-77006107D01*
X99095480Y-77027150D01*
X99105970Y-77049329D01*
X99114235Y-77072428D01*
X99120196Y-77096227D01*
X99123796Y-77120495D01*
X99125000Y-77144999D01*
X99125000Y-77795001D01*
X99123796Y-77819505D01*
X99120196Y-77843773D01*
X99114235Y-77867572D01*
X99105970Y-77890671D01*
X99095480Y-77912850D01*
X99082868Y-77933893D01*
X99068253Y-77953599D01*
X99051777Y-77971777D01*
X99033599Y-77988253D01*
X99013893Y-78002868D01*
X98992850Y-78015480D01*
X98970671Y-78025970D01*
X98947572Y-78034235D01*
X98923773Y-78040196D01*
X98899505Y-78043796D01*
X98875001Y-78045000D01*
X97974999Y-78045000D01*
X97950495Y-78043796D01*
X97926227Y-78040196D01*
X97902428Y-78034235D01*
X97879329Y-78025970D01*
X97857150Y-78015480D01*
X97836107Y-78002868D01*
X97816401Y-77988253D01*
X97798223Y-77971777D01*
X97781747Y-77953599D01*
X97767132Y-77933893D01*
X97754520Y-77912850D01*
X97744030Y-77890671D01*
X97735765Y-77867572D01*
X97729804Y-77843773D01*
X97726204Y-77819505D01*
X97725000Y-77795001D01*
X97725000Y-77144999D01*
X97726204Y-77120495D01*
X97729804Y-77096227D01*
X97735765Y-77072428D01*
X97744030Y-77049329D01*
X97754520Y-77027150D01*
X97767132Y-77006107D01*
X97781747Y-76986401D01*
X97798223Y-76968223D01*
X97816401Y-76951747D01*
X97836107Y-76937132D01*
X97857150Y-76924520D01*
X97879329Y-76914030D01*
X97902428Y-76905765D01*
X97926227Y-76899804D01*
X97950495Y-76896204D01*
X97974999Y-76895000D01*
X98875001Y-76895000D01*
X98899505Y-76896204D01*
X98899505Y-76896204D01*
G37*
D16*
G04 #@! TD*
G04 #@! TO.P,C1,2*
G04 #@! TO.N,-BATT*
X98425000Y-77470000D03*
D15*
G04 #@! TO.N,+5V*
G04 #@! TO.C,C1*
G36*
X98899505Y-74846204D02*
X98923773Y-74849804D01*
X98947572Y-74855765D01*
X98970671Y-74864030D01*
X98992850Y-74874520D01*
X99013893Y-74887132D01*
X99033599Y-74901747D01*
X99051777Y-74918223D01*
X99068253Y-74936401D01*
X99082868Y-74956107D01*
X99095480Y-74977150D01*
X99105970Y-74999329D01*
X99114235Y-75022428D01*
X99120196Y-75046227D01*
X99123796Y-75070495D01*
X99125000Y-75094999D01*
X99125000Y-75745001D01*
X99123796Y-75769505D01*
X99120196Y-75793773D01*
X99114235Y-75817572D01*
X99105970Y-75840671D01*
X99095480Y-75862850D01*
X99082868Y-75883893D01*
X99068253Y-75903599D01*
X99051777Y-75921777D01*
X99033599Y-75938253D01*
X99013893Y-75952868D01*
X98992850Y-75965480D01*
X98970671Y-75975970D01*
X98947572Y-75984235D01*
X98923773Y-75990196D01*
X98899505Y-75993796D01*
X98875001Y-75995000D01*
X97974999Y-75995000D01*
X97950495Y-75993796D01*
X97926227Y-75990196D01*
X97902428Y-75984235D01*
X97879329Y-75975970D01*
X97857150Y-75965480D01*
X97836107Y-75952868D01*
X97816401Y-75938253D01*
X97798223Y-75921777D01*
X97781747Y-75903599D01*
X97767132Y-75883893D01*
X97754520Y-75862850D01*
X97744030Y-75840671D01*
X97735765Y-75817572D01*
X97729804Y-75793773D01*
X97726204Y-75769505D01*
X97725000Y-75745001D01*
X97725000Y-75094999D01*
X97726204Y-75070495D01*
X97729804Y-75046227D01*
X97735765Y-75022428D01*
X97744030Y-74999329D01*
X97754520Y-74977150D01*
X97767132Y-74956107D01*
X97781747Y-74936401D01*
X97798223Y-74918223D01*
X97816401Y-74901747D01*
X97836107Y-74887132D01*
X97857150Y-74874520D01*
X97879329Y-74864030D01*
X97902428Y-74855765D01*
X97926227Y-74849804D01*
X97950495Y-74846204D01*
X97974999Y-74845000D01*
X98875001Y-74845000D01*
X98899505Y-74846204D01*
X98899505Y-74846204D01*
G37*
D16*
G04 #@! TD*
G04 #@! TO.P,C1,1*
G04 #@! TO.N,+5V*
X98425000Y-75420000D03*
D15*
G04 #@! TO.N,-BATT*
G04 #@! TO.C,C2*
G36*
X96359505Y-55061204D02*
X96383773Y-55064804D01*
X96407572Y-55070765D01*
X96430671Y-55079030D01*
X96452850Y-55089520D01*
X96473893Y-55102132D01*
X96493599Y-55116747D01*
X96511777Y-55133223D01*
X96528253Y-55151401D01*
X96542868Y-55171107D01*
X96555480Y-55192150D01*
X96565970Y-55214329D01*
X96574235Y-55237428D01*
X96580196Y-55261227D01*
X96583796Y-55285495D01*
X96585000Y-55309999D01*
X96585000Y-55960001D01*
X96583796Y-55984505D01*
X96580196Y-56008773D01*
X96574235Y-56032572D01*
X96565970Y-56055671D01*
X96555480Y-56077850D01*
X96542868Y-56098893D01*
X96528253Y-56118599D01*
X96511777Y-56136777D01*
X96493599Y-56153253D01*
X96473893Y-56167868D01*
X96452850Y-56180480D01*
X96430671Y-56190970D01*
X96407572Y-56199235D01*
X96383773Y-56205196D01*
X96359505Y-56208796D01*
X96335001Y-56210000D01*
X95434999Y-56210000D01*
X95410495Y-56208796D01*
X95386227Y-56205196D01*
X95362428Y-56199235D01*
X95339329Y-56190970D01*
X95317150Y-56180480D01*
X95296107Y-56167868D01*
X95276401Y-56153253D01*
X95258223Y-56136777D01*
X95241747Y-56118599D01*
X95227132Y-56098893D01*
X95214520Y-56077850D01*
X95204030Y-56055671D01*
X95195765Y-56032572D01*
X95189804Y-56008773D01*
X95186204Y-55984505D01*
X95185000Y-55960001D01*
X95185000Y-55309999D01*
X95186204Y-55285495D01*
X95189804Y-55261227D01*
X95195765Y-55237428D01*
X95204030Y-55214329D01*
X95214520Y-55192150D01*
X95227132Y-55171107D01*
X95241747Y-55151401D01*
X95258223Y-55133223D01*
X95276401Y-55116747D01*
X95296107Y-55102132D01*
X95317150Y-55089520D01*
X95339329Y-55079030D01*
X95362428Y-55070765D01*
X95386227Y-55064804D01*
X95410495Y-55061204D01*
X95434999Y-55060000D01*
X96335001Y-55060000D01*
X96359505Y-55061204D01*
X96359505Y-55061204D01*
G37*
D16*
G04 #@! TD*
G04 #@! TO.P,C2,2*
G04 #@! TO.N,-BATT*
X95885000Y-55635000D03*
D15*
G04 #@! TO.N,+5V*
G04 #@! TO.C,C2*
G36*
X96359505Y-53011204D02*
X96383773Y-53014804D01*
X96407572Y-53020765D01*
X96430671Y-53029030D01*
X96452850Y-53039520D01*
X96473893Y-53052132D01*
X96493599Y-53066747D01*
X96511777Y-53083223D01*
X96528253Y-53101401D01*
X96542868Y-53121107D01*
X96555480Y-53142150D01*
X96565970Y-53164329D01*
X96574235Y-53187428D01*
X96580196Y-53211227D01*
X96583796Y-53235495D01*
X96585000Y-53259999D01*
X96585000Y-53910001D01*
X96583796Y-53934505D01*
X96580196Y-53958773D01*
X96574235Y-53982572D01*
X96565970Y-54005671D01*
X96555480Y-54027850D01*
X96542868Y-54048893D01*
X96528253Y-54068599D01*
X96511777Y-54086777D01*
X96493599Y-54103253D01*
X96473893Y-54117868D01*
X96452850Y-54130480D01*
X96430671Y-54140970D01*
X96407572Y-54149235D01*
X96383773Y-54155196D01*
X96359505Y-54158796D01*
X96335001Y-54160000D01*
X95434999Y-54160000D01*
X95410495Y-54158796D01*
X95386227Y-54155196D01*
X95362428Y-54149235D01*
X95339329Y-54140970D01*
X95317150Y-54130480D01*
X95296107Y-54117868D01*
X95276401Y-54103253D01*
X95258223Y-54086777D01*
X95241747Y-54068599D01*
X95227132Y-54048893D01*
X95214520Y-54027850D01*
X95204030Y-54005671D01*
X95195765Y-53982572D01*
X95189804Y-53958773D01*
X95186204Y-53934505D01*
X95185000Y-53910001D01*
X95185000Y-53259999D01*
X95186204Y-53235495D01*
X95189804Y-53211227D01*
X95195765Y-53187428D01*
X95204030Y-53164329D01*
X95214520Y-53142150D01*
X95227132Y-53121107D01*
X95241747Y-53101401D01*
X95258223Y-53083223D01*
X95276401Y-53066747D01*
X95296107Y-53052132D01*
X95317150Y-53039520D01*
X95339329Y-53029030D01*
X95362428Y-53020765D01*
X95386227Y-53014804D01*
X95410495Y-53011204D01*
X95434999Y-53010000D01*
X96335001Y-53010000D01*
X96359505Y-53011204D01*
X96359505Y-53011204D01*
G37*
D16*
G04 #@! TD*
G04 #@! TO.P,C2,1*
G04 #@! TO.N,+5V*
X95885000Y-53585000D03*
D15*
G04 #@! TO.N,-BATT*
G04 #@! TO.C,C3*
G36*
X114139505Y-53256204D02*
X114163773Y-53259804D01*
X114187572Y-53265765D01*
X114210671Y-53274030D01*
X114232850Y-53284520D01*
X114253893Y-53297132D01*
X114273599Y-53311747D01*
X114291777Y-53328223D01*
X114308253Y-53346401D01*
X114322868Y-53366107D01*
X114335480Y-53387150D01*
X114345970Y-53409329D01*
X114354235Y-53432428D01*
X114360196Y-53456227D01*
X114363796Y-53480495D01*
X114365000Y-53504999D01*
X114365000Y-54155001D01*
X114363796Y-54179505D01*
X114360196Y-54203773D01*
X114354235Y-54227572D01*
X114345970Y-54250671D01*
X114335480Y-54272850D01*
X114322868Y-54293893D01*
X114308253Y-54313599D01*
X114291777Y-54331777D01*
X114273599Y-54348253D01*
X114253893Y-54362868D01*
X114232850Y-54375480D01*
X114210671Y-54385970D01*
X114187572Y-54394235D01*
X114163773Y-54400196D01*
X114139505Y-54403796D01*
X114115001Y-54405000D01*
X113214999Y-54405000D01*
X113190495Y-54403796D01*
X113166227Y-54400196D01*
X113142428Y-54394235D01*
X113119329Y-54385970D01*
X113097150Y-54375480D01*
X113076107Y-54362868D01*
X113056401Y-54348253D01*
X113038223Y-54331777D01*
X113021747Y-54313599D01*
X113007132Y-54293893D01*
X112994520Y-54272850D01*
X112984030Y-54250671D01*
X112975765Y-54227572D01*
X112969804Y-54203773D01*
X112966204Y-54179505D01*
X112965000Y-54155001D01*
X112965000Y-53504999D01*
X112966204Y-53480495D01*
X112969804Y-53456227D01*
X112975765Y-53432428D01*
X112984030Y-53409329D01*
X112994520Y-53387150D01*
X113007132Y-53366107D01*
X113021747Y-53346401D01*
X113038223Y-53328223D01*
X113056401Y-53311747D01*
X113076107Y-53297132D01*
X113097150Y-53284520D01*
X113119329Y-53274030D01*
X113142428Y-53265765D01*
X113166227Y-53259804D01*
X113190495Y-53256204D01*
X113214999Y-53255000D01*
X114115001Y-53255000D01*
X114139505Y-53256204D01*
X114139505Y-53256204D01*
G37*
D16*
G04 #@! TD*
G04 #@! TO.P,C3,2*
G04 #@! TO.N,-BATT*
X113665000Y-53830000D03*
D15*
G04 #@! TO.N,+5V*
G04 #@! TO.C,C3*
G36*
X114139505Y-55306204D02*
X114163773Y-55309804D01*
X114187572Y-55315765D01*
X114210671Y-55324030D01*
X114232850Y-55334520D01*
X114253893Y-55347132D01*
X114273599Y-55361747D01*
X114291777Y-55378223D01*
X114308253Y-55396401D01*
X114322868Y-55416107D01*
X114335480Y-55437150D01*
X114345970Y-55459329D01*
X114354235Y-55482428D01*
X114360196Y-55506227D01*
X114363796Y-55530495D01*
X114365000Y-55554999D01*
X114365000Y-56205001D01*
X114363796Y-56229505D01*
X114360196Y-56253773D01*
X114354235Y-56277572D01*
X114345970Y-56300671D01*
X114335480Y-56322850D01*
X114322868Y-56343893D01*
X114308253Y-56363599D01*
X114291777Y-56381777D01*
X114273599Y-56398253D01*
X114253893Y-56412868D01*
X114232850Y-56425480D01*
X114210671Y-56435970D01*
X114187572Y-56444235D01*
X114163773Y-56450196D01*
X114139505Y-56453796D01*
X114115001Y-56455000D01*
X113214999Y-56455000D01*
X113190495Y-56453796D01*
X113166227Y-56450196D01*
X113142428Y-56444235D01*
X113119329Y-56435970D01*
X113097150Y-56425480D01*
X113076107Y-56412868D01*
X113056401Y-56398253D01*
X113038223Y-56381777D01*
X113021747Y-56363599D01*
X113007132Y-56343893D01*
X112994520Y-56322850D01*
X112984030Y-56300671D01*
X112975765Y-56277572D01*
X112969804Y-56253773D01*
X112966204Y-56229505D01*
X112965000Y-56205001D01*
X112965000Y-55554999D01*
X112966204Y-55530495D01*
X112969804Y-55506227D01*
X112975765Y-55482428D01*
X112984030Y-55459329D01*
X112994520Y-55437150D01*
X113007132Y-55416107D01*
X113021747Y-55396401D01*
X113038223Y-55378223D01*
X113056401Y-55361747D01*
X113076107Y-55347132D01*
X113097150Y-55334520D01*
X113119329Y-55324030D01*
X113142428Y-55315765D01*
X113166227Y-55309804D01*
X113190495Y-55306204D01*
X113214999Y-55305000D01*
X114115001Y-55305000D01*
X114139505Y-55306204D01*
X114139505Y-55306204D01*
G37*
D16*
G04 #@! TD*
G04 #@! TO.P,C3,1*
G04 #@! TO.N,+5V*
X113665000Y-55880000D03*
D15*
G04 #@! TO.N,-BATT*
G04 #@! TO.C,C4*
G36*
X116044505Y-74601204D02*
X116068773Y-74604804D01*
X116092572Y-74610765D01*
X116115671Y-74619030D01*
X116137850Y-74629520D01*
X116158893Y-74642132D01*
X116178599Y-74656747D01*
X116196777Y-74673223D01*
X116213253Y-74691401D01*
X116227868Y-74711107D01*
X116240480Y-74732150D01*
X116250970Y-74754329D01*
X116259235Y-74777428D01*
X116265196Y-74801227D01*
X116268796Y-74825495D01*
X116270000Y-74849999D01*
X116270000Y-75500001D01*
X116268796Y-75524505D01*
X116265196Y-75548773D01*
X116259235Y-75572572D01*
X116250970Y-75595671D01*
X116240480Y-75617850D01*
X116227868Y-75638893D01*
X116213253Y-75658599D01*
X116196777Y-75676777D01*
X116178599Y-75693253D01*
X116158893Y-75707868D01*
X116137850Y-75720480D01*
X116115671Y-75730970D01*
X116092572Y-75739235D01*
X116068773Y-75745196D01*
X116044505Y-75748796D01*
X116020001Y-75750000D01*
X115119999Y-75750000D01*
X115095495Y-75748796D01*
X115071227Y-75745196D01*
X115047428Y-75739235D01*
X115024329Y-75730970D01*
X115002150Y-75720480D01*
X114981107Y-75707868D01*
X114961401Y-75693253D01*
X114943223Y-75676777D01*
X114926747Y-75658599D01*
X114912132Y-75638893D01*
X114899520Y-75617850D01*
X114889030Y-75595671D01*
X114880765Y-75572572D01*
X114874804Y-75548773D01*
X114871204Y-75524505D01*
X114870000Y-75500001D01*
X114870000Y-74849999D01*
X114871204Y-74825495D01*
X114874804Y-74801227D01*
X114880765Y-74777428D01*
X114889030Y-74754329D01*
X114899520Y-74732150D01*
X114912132Y-74711107D01*
X114926747Y-74691401D01*
X114943223Y-74673223D01*
X114961401Y-74656747D01*
X114981107Y-74642132D01*
X115002150Y-74629520D01*
X115024329Y-74619030D01*
X115047428Y-74610765D01*
X115071227Y-74604804D01*
X115095495Y-74601204D01*
X115119999Y-74600000D01*
X116020001Y-74600000D01*
X116044505Y-74601204D01*
X116044505Y-74601204D01*
G37*
D16*
G04 #@! TD*
G04 #@! TO.P,C4,2*
G04 #@! TO.N,-BATT*
X115570000Y-75175000D03*
D15*
G04 #@! TO.N,+5V*
G04 #@! TO.C,C4*
G36*
X116044505Y-76651204D02*
X116068773Y-76654804D01*
X116092572Y-76660765D01*
X116115671Y-76669030D01*
X116137850Y-76679520D01*
X116158893Y-76692132D01*
X116178599Y-76706747D01*
X116196777Y-76723223D01*
X116213253Y-76741401D01*
X116227868Y-76761107D01*
X116240480Y-76782150D01*
X116250970Y-76804329D01*
X116259235Y-76827428D01*
X116265196Y-76851227D01*
X116268796Y-76875495D01*
X116270000Y-76899999D01*
X116270000Y-77550001D01*
X116268796Y-77574505D01*
X116265196Y-77598773D01*
X116259235Y-77622572D01*
X116250970Y-77645671D01*
X116240480Y-77667850D01*
X116227868Y-77688893D01*
X116213253Y-77708599D01*
X116196777Y-77726777D01*
X116178599Y-77743253D01*
X116158893Y-77757868D01*
X116137850Y-77770480D01*
X116115671Y-77780970D01*
X116092572Y-77789235D01*
X116068773Y-77795196D01*
X116044505Y-77798796D01*
X116020001Y-77800000D01*
X115119999Y-77800000D01*
X115095495Y-77798796D01*
X115071227Y-77795196D01*
X115047428Y-77789235D01*
X115024329Y-77780970D01*
X115002150Y-77770480D01*
X114981107Y-77757868D01*
X114961401Y-77743253D01*
X114943223Y-77726777D01*
X114926747Y-77708599D01*
X114912132Y-77688893D01*
X114899520Y-77667850D01*
X114889030Y-77645671D01*
X114880765Y-77622572D01*
X114874804Y-77598773D01*
X114871204Y-77574505D01*
X114870000Y-77550001D01*
X114870000Y-76899999D01*
X114871204Y-76875495D01*
X114874804Y-76851227D01*
X114880765Y-76827428D01*
X114889030Y-76804329D01*
X114899520Y-76782150D01*
X114912132Y-76761107D01*
X114926747Y-76741401D01*
X114943223Y-76723223D01*
X114961401Y-76706747D01*
X114981107Y-76692132D01*
X115002150Y-76679520D01*
X115024329Y-76669030D01*
X115047428Y-76660765D01*
X115071227Y-76654804D01*
X115095495Y-76651204D01*
X115119999Y-76650000D01*
X116020001Y-76650000D01*
X116044505Y-76651204D01*
X116044505Y-76651204D01*
G37*
D16*
G04 #@! TD*
G04 #@! TO.P,C4,1*
G04 #@! TO.N,+5V*
X115570000Y-77225000D03*
D15*
G04 #@! TO.N,+5V*
G04 #@! TO.C,C5*
G36*
X96359505Y-74846204D02*
X96383773Y-74849804D01*
X96407572Y-74855765D01*
X96430671Y-74864030D01*
X96452850Y-74874520D01*
X96473893Y-74887132D01*
X96493599Y-74901747D01*
X96511777Y-74918223D01*
X96528253Y-74936401D01*
X96542868Y-74956107D01*
X96555480Y-74977150D01*
X96565970Y-74999329D01*
X96574235Y-75022428D01*
X96580196Y-75046227D01*
X96583796Y-75070495D01*
X96585000Y-75094999D01*
X96585000Y-75745001D01*
X96583796Y-75769505D01*
X96580196Y-75793773D01*
X96574235Y-75817572D01*
X96565970Y-75840671D01*
X96555480Y-75862850D01*
X96542868Y-75883893D01*
X96528253Y-75903599D01*
X96511777Y-75921777D01*
X96493599Y-75938253D01*
X96473893Y-75952868D01*
X96452850Y-75965480D01*
X96430671Y-75975970D01*
X96407572Y-75984235D01*
X96383773Y-75990196D01*
X96359505Y-75993796D01*
X96335001Y-75995000D01*
X95434999Y-75995000D01*
X95410495Y-75993796D01*
X95386227Y-75990196D01*
X95362428Y-75984235D01*
X95339329Y-75975970D01*
X95317150Y-75965480D01*
X95296107Y-75952868D01*
X95276401Y-75938253D01*
X95258223Y-75921777D01*
X95241747Y-75903599D01*
X95227132Y-75883893D01*
X95214520Y-75862850D01*
X95204030Y-75840671D01*
X95195765Y-75817572D01*
X95189804Y-75793773D01*
X95186204Y-75769505D01*
X95185000Y-75745001D01*
X95185000Y-75094999D01*
X95186204Y-75070495D01*
X95189804Y-75046227D01*
X95195765Y-75022428D01*
X95204030Y-74999329D01*
X95214520Y-74977150D01*
X95227132Y-74956107D01*
X95241747Y-74936401D01*
X95258223Y-74918223D01*
X95276401Y-74901747D01*
X95296107Y-74887132D01*
X95317150Y-74874520D01*
X95339329Y-74864030D01*
X95362428Y-74855765D01*
X95386227Y-74849804D01*
X95410495Y-74846204D01*
X95434999Y-74845000D01*
X96335001Y-74845000D01*
X96359505Y-74846204D01*
X96359505Y-74846204D01*
G37*
D16*
G04 #@! TD*
G04 #@! TO.P,C5,1*
G04 #@! TO.N,+5V*
X95885000Y-75420000D03*
D15*
G04 #@! TO.N,-BATT*
G04 #@! TO.C,C5*
G36*
X96359505Y-76896204D02*
X96383773Y-76899804D01*
X96407572Y-76905765D01*
X96430671Y-76914030D01*
X96452850Y-76924520D01*
X96473893Y-76937132D01*
X96493599Y-76951747D01*
X96511777Y-76968223D01*
X96528253Y-76986401D01*
X96542868Y-77006107D01*
X96555480Y-77027150D01*
X96565970Y-77049329D01*
X96574235Y-77072428D01*
X96580196Y-77096227D01*
X96583796Y-77120495D01*
X96585000Y-77144999D01*
X96585000Y-77795001D01*
X96583796Y-77819505D01*
X96580196Y-77843773D01*
X96574235Y-77867572D01*
X96565970Y-77890671D01*
X96555480Y-77912850D01*
X96542868Y-77933893D01*
X96528253Y-77953599D01*
X96511777Y-77971777D01*
X96493599Y-77988253D01*
X96473893Y-78002868D01*
X96452850Y-78015480D01*
X96430671Y-78025970D01*
X96407572Y-78034235D01*
X96383773Y-78040196D01*
X96359505Y-78043796D01*
X96335001Y-78045000D01*
X95434999Y-78045000D01*
X95410495Y-78043796D01*
X95386227Y-78040196D01*
X95362428Y-78034235D01*
X95339329Y-78025970D01*
X95317150Y-78015480D01*
X95296107Y-78002868D01*
X95276401Y-77988253D01*
X95258223Y-77971777D01*
X95241747Y-77953599D01*
X95227132Y-77933893D01*
X95214520Y-77912850D01*
X95204030Y-77890671D01*
X95195765Y-77867572D01*
X95189804Y-77843773D01*
X95186204Y-77819505D01*
X95185000Y-77795001D01*
X95185000Y-77144999D01*
X95186204Y-77120495D01*
X95189804Y-77096227D01*
X95195765Y-77072428D01*
X95204030Y-77049329D01*
X95214520Y-77027150D01*
X95227132Y-77006107D01*
X95241747Y-76986401D01*
X95258223Y-76968223D01*
X95276401Y-76951747D01*
X95296107Y-76937132D01*
X95317150Y-76924520D01*
X95339329Y-76914030D01*
X95362428Y-76905765D01*
X95386227Y-76899804D01*
X95410495Y-76896204D01*
X95434999Y-76895000D01*
X96335001Y-76895000D01*
X96359505Y-76896204D01*
X96359505Y-76896204D01*
G37*
D16*
G04 #@! TD*
G04 #@! TO.P,C5,2*
G04 #@! TO.N,-BATT*
X95885000Y-77470000D03*
D15*
G04 #@! TO.N,+5V*
G04 #@! TO.C,C6*
G36*
X98654505Y-53011204D02*
X98678773Y-53014804D01*
X98702572Y-53020765D01*
X98725671Y-53029030D01*
X98747850Y-53039520D01*
X98768893Y-53052132D01*
X98788599Y-53066747D01*
X98806777Y-53083223D01*
X98823253Y-53101401D01*
X98837868Y-53121107D01*
X98850480Y-53142150D01*
X98860970Y-53164329D01*
X98869235Y-53187428D01*
X98875196Y-53211227D01*
X98878796Y-53235495D01*
X98880000Y-53259999D01*
X98880000Y-53910001D01*
X98878796Y-53934505D01*
X98875196Y-53958773D01*
X98869235Y-53982572D01*
X98860970Y-54005671D01*
X98850480Y-54027850D01*
X98837868Y-54048893D01*
X98823253Y-54068599D01*
X98806777Y-54086777D01*
X98788599Y-54103253D01*
X98768893Y-54117868D01*
X98747850Y-54130480D01*
X98725671Y-54140970D01*
X98702572Y-54149235D01*
X98678773Y-54155196D01*
X98654505Y-54158796D01*
X98630001Y-54160000D01*
X97729999Y-54160000D01*
X97705495Y-54158796D01*
X97681227Y-54155196D01*
X97657428Y-54149235D01*
X97634329Y-54140970D01*
X97612150Y-54130480D01*
X97591107Y-54117868D01*
X97571401Y-54103253D01*
X97553223Y-54086777D01*
X97536747Y-54068599D01*
X97522132Y-54048893D01*
X97509520Y-54027850D01*
X97499030Y-54005671D01*
X97490765Y-53982572D01*
X97484804Y-53958773D01*
X97481204Y-53934505D01*
X97480000Y-53910001D01*
X97480000Y-53259999D01*
X97481204Y-53235495D01*
X97484804Y-53211227D01*
X97490765Y-53187428D01*
X97499030Y-53164329D01*
X97509520Y-53142150D01*
X97522132Y-53121107D01*
X97536747Y-53101401D01*
X97553223Y-53083223D01*
X97571401Y-53066747D01*
X97591107Y-53052132D01*
X97612150Y-53039520D01*
X97634329Y-53029030D01*
X97657428Y-53020765D01*
X97681227Y-53014804D01*
X97705495Y-53011204D01*
X97729999Y-53010000D01*
X98630001Y-53010000D01*
X98654505Y-53011204D01*
X98654505Y-53011204D01*
G37*
D16*
G04 #@! TD*
G04 #@! TO.P,C6,1*
G04 #@! TO.N,+5V*
X98180000Y-53585000D03*
D15*
G04 #@! TO.N,-BATT*
G04 #@! TO.C,C6*
G36*
X98654505Y-55061204D02*
X98678773Y-55064804D01*
X98702572Y-55070765D01*
X98725671Y-55079030D01*
X98747850Y-55089520D01*
X98768893Y-55102132D01*
X98788599Y-55116747D01*
X98806777Y-55133223D01*
X98823253Y-55151401D01*
X98837868Y-55171107D01*
X98850480Y-55192150D01*
X98860970Y-55214329D01*
X98869235Y-55237428D01*
X98875196Y-55261227D01*
X98878796Y-55285495D01*
X98880000Y-55309999D01*
X98880000Y-55960001D01*
X98878796Y-55984505D01*
X98875196Y-56008773D01*
X98869235Y-56032572D01*
X98860970Y-56055671D01*
X98850480Y-56077850D01*
X98837868Y-56098893D01*
X98823253Y-56118599D01*
X98806777Y-56136777D01*
X98788599Y-56153253D01*
X98768893Y-56167868D01*
X98747850Y-56180480D01*
X98725671Y-56190970D01*
X98702572Y-56199235D01*
X98678773Y-56205196D01*
X98654505Y-56208796D01*
X98630001Y-56210000D01*
X97729999Y-56210000D01*
X97705495Y-56208796D01*
X97681227Y-56205196D01*
X97657428Y-56199235D01*
X97634329Y-56190970D01*
X97612150Y-56180480D01*
X97591107Y-56167868D01*
X97571401Y-56153253D01*
X97553223Y-56136777D01*
X97536747Y-56118599D01*
X97522132Y-56098893D01*
X97509520Y-56077850D01*
X97499030Y-56055671D01*
X97490765Y-56032572D01*
X97484804Y-56008773D01*
X97481204Y-55984505D01*
X97480000Y-55960001D01*
X97480000Y-55309999D01*
X97481204Y-55285495D01*
X97484804Y-55261227D01*
X97490765Y-55237428D01*
X97499030Y-55214329D01*
X97509520Y-55192150D01*
X97522132Y-55171107D01*
X97536747Y-55151401D01*
X97553223Y-55133223D01*
X97571401Y-55116747D01*
X97591107Y-55102132D01*
X97612150Y-55089520D01*
X97634329Y-55079030D01*
X97657428Y-55070765D01*
X97681227Y-55064804D01*
X97705495Y-55061204D01*
X97729999Y-55060000D01*
X98630001Y-55060000D01*
X98654505Y-55061204D01*
X98654505Y-55061204D01*
G37*
D16*
G04 #@! TD*
G04 #@! TO.P,C6,2*
G04 #@! TO.N,-BATT*
X98180000Y-55635000D03*
D15*
G04 #@! TO.N,+5V*
G04 #@! TO.C,C7*
G36*
X116679505Y-55306204D02*
X116703773Y-55309804D01*
X116727572Y-55315765D01*
X116750671Y-55324030D01*
X116772850Y-55334520D01*
X116793893Y-55347132D01*
X116813599Y-55361747D01*
X116831777Y-55378223D01*
X116848253Y-55396401D01*
X116862868Y-55416107D01*
X116875480Y-55437150D01*
X116885970Y-55459329D01*
X116894235Y-55482428D01*
X116900196Y-55506227D01*
X116903796Y-55530495D01*
X116905000Y-55554999D01*
X116905000Y-56205001D01*
X116903796Y-56229505D01*
X116900196Y-56253773D01*
X116894235Y-56277572D01*
X116885970Y-56300671D01*
X116875480Y-56322850D01*
X116862868Y-56343893D01*
X116848253Y-56363599D01*
X116831777Y-56381777D01*
X116813599Y-56398253D01*
X116793893Y-56412868D01*
X116772850Y-56425480D01*
X116750671Y-56435970D01*
X116727572Y-56444235D01*
X116703773Y-56450196D01*
X116679505Y-56453796D01*
X116655001Y-56455000D01*
X115754999Y-56455000D01*
X115730495Y-56453796D01*
X115706227Y-56450196D01*
X115682428Y-56444235D01*
X115659329Y-56435970D01*
X115637150Y-56425480D01*
X115616107Y-56412868D01*
X115596401Y-56398253D01*
X115578223Y-56381777D01*
X115561747Y-56363599D01*
X115547132Y-56343893D01*
X115534520Y-56322850D01*
X115524030Y-56300671D01*
X115515765Y-56277572D01*
X115509804Y-56253773D01*
X115506204Y-56229505D01*
X115505000Y-56205001D01*
X115505000Y-55554999D01*
X115506204Y-55530495D01*
X115509804Y-55506227D01*
X115515765Y-55482428D01*
X115524030Y-55459329D01*
X115534520Y-55437150D01*
X115547132Y-55416107D01*
X115561747Y-55396401D01*
X115578223Y-55378223D01*
X115596401Y-55361747D01*
X115616107Y-55347132D01*
X115637150Y-55334520D01*
X115659329Y-55324030D01*
X115682428Y-55315765D01*
X115706227Y-55309804D01*
X115730495Y-55306204D01*
X115754999Y-55305000D01*
X116655001Y-55305000D01*
X116679505Y-55306204D01*
X116679505Y-55306204D01*
G37*
D16*
G04 #@! TD*
G04 #@! TO.P,C7,1*
G04 #@! TO.N,+5V*
X116205000Y-55880000D03*
D15*
G04 #@! TO.N,-BATT*
G04 #@! TO.C,C7*
G36*
X116679505Y-53256204D02*
X116703773Y-53259804D01*
X116727572Y-53265765D01*
X116750671Y-53274030D01*
X116772850Y-53284520D01*
X116793893Y-53297132D01*
X116813599Y-53311747D01*
X116831777Y-53328223D01*
X116848253Y-53346401D01*
X116862868Y-53366107D01*
X116875480Y-53387150D01*
X116885970Y-53409329D01*
X116894235Y-53432428D01*
X116900196Y-53456227D01*
X116903796Y-53480495D01*
X116905000Y-53504999D01*
X116905000Y-54155001D01*
X116903796Y-54179505D01*
X116900196Y-54203773D01*
X116894235Y-54227572D01*
X116885970Y-54250671D01*
X116875480Y-54272850D01*
X116862868Y-54293893D01*
X116848253Y-54313599D01*
X116831777Y-54331777D01*
X116813599Y-54348253D01*
X116793893Y-54362868D01*
X116772850Y-54375480D01*
X116750671Y-54385970D01*
X116727572Y-54394235D01*
X116703773Y-54400196D01*
X116679505Y-54403796D01*
X116655001Y-54405000D01*
X115754999Y-54405000D01*
X115730495Y-54403796D01*
X115706227Y-54400196D01*
X115682428Y-54394235D01*
X115659329Y-54385970D01*
X115637150Y-54375480D01*
X115616107Y-54362868D01*
X115596401Y-54348253D01*
X115578223Y-54331777D01*
X115561747Y-54313599D01*
X115547132Y-54293893D01*
X115534520Y-54272850D01*
X115524030Y-54250671D01*
X115515765Y-54227572D01*
X115509804Y-54203773D01*
X115506204Y-54179505D01*
X115505000Y-54155001D01*
X115505000Y-53504999D01*
X115506204Y-53480495D01*
X115509804Y-53456227D01*
X115515765Y-53432428D01*
X115524030Y-53409329D01*
X115534520Y-53387150D01*
X115547132Y-53366107D01*
X115561747Y-53346401D01*
X115578223Y-53328223D01*
X115596401Y-53311747D01*
X115616107Y-53297132D01*
X115637150Y-53284520D01*
X115659329Y-53274030D01*
X115682428Y-53265765D01*
X115706227Y-53259804D01*
X115730495Y-53256204D01*
X115754999Y-53255000D01*
X116655001Y-53255000D01*
X116679505Y-53256204D01*
X116679505Y-53256204D01*
G37*
D16*
G04 #@! TD*
G04 #@! TO.P,C7,2*
G04 #@! TO.N,-BATT*
X116205000Y-53830000D03*
D15*
G04 #@! TO.N,+5V*
G04 #@! TO.C,C8*
G36*
X113504505Y-76651204D02*
X113528773Y-76654804D01*
X113552572Y-76660765D01*
X113575671Y-76669030D01*
X113597850Y-76679520D01*
X113618893Y-76692132D01*
X113638599Y-76706747D01*
X113656777Y-76723223D01*
X113673253Y-76741401D01*
X113687868Y-76761107D01*
X113700480Y-76782150D01*
X113710970Y-76804329D01*
X113719235Y-76827428D01*
X113725196Y-76851227D01*
X113728796Y-76875495D01*
X113730000Y-76899999D01*
X113730000Y-77550001D01*
X113728796Y-77574505D01*
X113725196Y-77598773D01*
X113719235Y-77622572D01*
X113710970Y-77645671D01*
X113700480Y-77667850D01*
X113687868Y-77688893D01*
X113673253Y-77708599D01*
X113656777Y-77726777D01*
X113638599Y-77743253D01*
X113618893Y-77757868D01*
X113597850Y-77770480D01*
X113575671Y-77780970D01*
X113552572Y-77789235D01*
X113528773Y-77795196D01*
X113504505Y-77798796D01*
X113480001Y-77800000D01*
X112579999Y-77800000D01*
X112555495Y-77798796D01*
X112531227Y-77795196D01*
X112507428Y-77789235D01*
X112484329Y-77780970D01*
X112462150Y-77770480D01*
X112441107Y-77757868D01*
X112421401Y-77743253D01*
X112403223Y-77726777D01*
X112386747Y-77708599D01*
X112372132Y-77688893D01*
X112359520Y-77667850D01*
X112349030Y-77645671D01*
X112340765Y-77622572D01*
X112334804Y-77598773D01*
X112331204Y-77574505D01*
X112330000Y-77550001D01*
X112330000Y-76899999D01*
X112331204Y-76875495D01*
X112334804Y-76851227D01*
X112340765Y-76827428D01*
X112349030Y-76804329D01*
X112359520Y-76782150D01*
X112372132Y-76761107D01*
X112386747Y-76741401D01*
X112403223Y-76723223D01*
X112421401Y-76706747D01*
X112441107Y-76692132D01*
X112462150Y-76679520D01*
X112484329Y-76669030D01*
X112507428Y-76660765D01*
X112531227Y-76654804D01*
X112555495Y-76651204D01*
X112579999Y-76650000D01*
X113480001Y-76650000D01*
X113504505Y-76651204D01*
X113504505Y-76651204D01*
G37*
D16*
G04 #@! TD*
G04 #@! TO.P,C8,1*
G04 #@! TO.N,+5V*
X113030000Y-77225000D03*
D15*
G04 #@! TO.N,-BATT*
G04 #@! TO.C,C8*
G36*
X113504505Y-74601204D02*
X113528773Y-74604804D01*
X113552572Y-74610765D01*
X113575671Y-74619030D01*
X113597850Y-74629520D01*
X113618893Y-74642132D01*
X113638599Y-74656747D01*
X113656777Y-74673223D01*
X113673253Y-74691401D01*
X113687868Y-74711107D01*
X113700480Y-74732150D01*
X113710970Y-74754329D01*
X113719235Y-74777428D01*
X113725196Y-74801227D01*
X113728796Y-74825495D01*
X113730000Y-74849999D01*
X113730000Y-75500001D01*
X113728796Y-75524505D01*
X113725196Y-75548773D01*
X113719235Y-75572572D01*
X113710970Y-75595671D01*
X113700480Y-75617850D01*
X113687868Y-75638893D01*
X113673253Y-75658599D01*
X113656777Y-75676777D01*
X113638599Y-75693253D01*
X113618893Y-75707868D01*
X113597850Y-75720480D01*
X113575671Y-75730970D01*
X113552572Y-75739235D01*
X113528773Y-75745196D01*
X113504505Y-75748796D01*
X113480001Y-75750000D01*
X112579999Y-75750000D01*
X112555495Y-75748796D01*
X112531227Y-75745196D01*
X112507428Y-75739235D01*
X112484329Y-75730970D01*
X112462150Y-75720480D01*
X112441107Y-75707868D01*
X112421401Y-75693253D01*
X112403223Y-75676777D01*
X112386747Y-75658599D01*
X112372132Y-75638893D01*
X112359520Y-75617850D01*
X112349030Y-75595671D01*
X112340765Y-75572572D01*
X112334804Y-75548773D01*
X112331204Y-75524505D01*
X112330000Y-75500001D01*
X112330000Y-74849999D01*
X112331204Y-74825495D01*
X112334804Y-74801227D01*
X112340765Y-74777428D01*
X112349030Y-74754329D01*
X112359520Y-74732150D01*
X112372132Y-74711107D01*
X112386747Y-74691401D01*
X112403223Y-74673223D01*
X112421401Y-74656747D01*
X112441107Y-74642132D01*
X112462150Y-74629520D01*
X112484329Y-74619030D01*
X112507428Y-74610765D01*
X112531227Y-74604804D01*
X112555495Y-74601204D01*
X112579999Y-74600000D01*
X113480001Y-74600000D01*
X113504505Y-74601204D01*
X113504505Y-74601204D01*
G37*
D16*
G04 #@! TD*
G04 #@! TO.P,C8,2*
G04 #@! TO.N,-BATT*
X113030000Y-75175000D03*
D12*
G04 #@! TO.P,U5,2*
G04 #@! TO.N,/CLK*
X126365000Y-125730000D03*
G04 #@! TO.P,U5,1*
G04 #@! TO.N,/MISO*
X128905000Y-125730000D03*
G04 #@! TO.P,U5,3*
G04 #@! TO.N,/CE*
X123825000Y-125730000D03*
G04 #@! TO.P,U5,4*
G04 #@! TO.N,-BATT*
X121285000Y-125730000D03*
G04 #@! TO.P,U5,5*
G04 #@! TO.N,/IRQ*
X128905000Y-123190000D03*
G04 #@! TO.P,U5,6*
G04 #@! TO.N,/MOSI*
X126365000Y-123190000D03*
G04 #@! TO.P,U5,7*
G04 #@! TO.N,/CS0*
X123825000Y-123190000D03*
G04 #@! TO.P,U5,8*
G04 #@! TO.N,+3V3*
X121285000Y-123190000D03*
G04 #@! TD*
D17*
G04 #@! TO.N,+5V*
X95885000Y-69850000D03*
X95885000Y-83820000D03*
X95885000Y-48260000D03*
X95885000Y-74135000D03*
X95885000Y-52070000D03*
X96130000Y-62620000D03*
X116840000Y-57785000D03*
X116840000Y-48260000D03*
X116840000Y-79375000D03*
X116840000Y-83820000D03*
X117475000Y-62230000D03*
X116840000Y-69215000D03*
G04 #@! TO.N,+3V3*
X102870000Y-83820000D03*
X102870000Y-69215000D03*
X102870000Y-62865000D03*
X109855000Y-47625000D03*
X109855000Y-62992000D03*
X109855000Y-83820000D03*
X109855000Y-69596000D03*
X102870000Y-48260000D03*
G04 #@! TO.N,-BATT*
X101092000Y-78232000D03*
X111760000Y-75575000D03*
X101092000Y-56505000D03*
X111760000Y-53848000D03*
G04 #@! TD*
D18*
G04 #@! TO.N,+5V*
X93900000Y-73105000D02*
X91400000Y-73105000D01*
X93980000Y-73025000D02*
X93900000Y-73105000D01*
X93980000Y-67945000D02*
X93980000Y-65405000D01*
X93980000Y-69850000D02*
X95885000Y-69850000D01*
X93980000Y-69850000D02*
X93980000Y-73025000D01*
X93980000Y-67945000D02*
X93980000Y-69850000D01*
X93980000Y-73025000D02*
X93980000Y-73660000D01*
X95885000Y-83820000D02*
X93980000Y-83820000D01*
X95885000Y-48260000D02*
X93980000Y-48260000D01*
X93980000Y-52705000D02*
X93980000Y-48260000D01*
X98425000Y-75420000D02*
X95885000Y-75420000D01*
X94125000Y-75420000D02*
X93980000Y-75565000D01*
X95885000Y-75420000D02*
X94125000Y-75420000D01*
X93980000Y-73660000D02*
X93980000Y-75565000D01*
X93980000Y-75565000D02*
X93980000Y-83820000D01*
X98425000Y-75420000D02*
X98425000Y-75405000D01*
X98425000Y-75405000D02*
X97155000Y-74135000D01*
X97155000Y-74135000D02*
X95885000Y-74135000D01*
X98180000Y-53585000D02*
X95885000Y-53585000D01*
X94225000Y-53585000D02*
X93980000Y-53340000D01*
X95885000Y-53585000D02*
X94225000Y-53585000D01*
X93980000Y-53340000D02*
X93980000Y-52705000D01*
X98180000Y-52910000D02*
X97340000Y-52070000D01*
X98180000Y-53585000D02*
X98180000Y-52910000D01*
X97340000Y-52070000D02*
X95885000Y-52070000D01*
X94615000Y-24765000D02*
X93345000Y-24765000D01*
X96520000Y-26670000D02*
X94615000Y-24765000D01*
X96520000Y-34925000D02*
X96520000Y-26670000D01*
X93980000Y-37465000D02*
X96520000Y-34925000D01*
X95705736Y-62620000D02*
X96130000Y-62620000D01*
X94225000Y-62620000D02*
X95705736Y-62620000D01*
X93980000Y-62865000D02*
X94225000Y-62620000D01*
X93980000Y-62865000D02*
X93980000Y-53340000D01*
X93980000Y-65405000D02*
X93980000Y-62865000D01*
X93980000Y-90932000D02*
X93980000Y-85344000D01*
X93980000Y-85344000D02*
X93980000Y-85725000D01*
X81788000Y-103124000D02*
X93980000Y-90932000D01*
X93980000Y-83820000D02*
X93980000Y-85344000D01*
X85725000Y-152400000D02*
X82804000Y-152400000D01*
X82804000Y-152400000D02*
X81788000Y-151384000D01*
X81788000Y-151384000D02*
X81788000Y-103124000D01*
X93980000Y-42545000D02*
X93820000Y-42705000D01*
X93820000Y-42705000D02*
X91400000Y-42705000D01*
X93980000Y-42545000D02*
X93980000Y-37465000D01*
X93980000Y-48260000D02*
X93980000Y-42545000D01*
X96520000Y-34925000D02*
X114300000Y-34925000D01*
X114300000Y-34925000D02*
X119380000Y-40005000D01*
X116840000Y-56515000D02*
X116205000Y-55880000D01*
X116840000Y-57785000D02*
X116840000Y-56515000D01*
X113665000Y-55880000D02*
X116205000Y-55880000D01*
X116205000Y-55880000D02*
X119380000Y-55880000D01*
X120570000Y-52625000D02*
X119380000Y-51435000D01*
X121960000Y-52625000D02*
X120570000Y-52625000D01*
X119380000Y-51435000D02*
X119380000Y-55880000D01*
X116840000Y-48260000D02*
X119380000Y-48260000D01*
X119380000Y-40005000D02*
X119380000Y-48260000D01*
X119380000Y-48260000D02*
X119380000Y-51435000D01*
X116840000Y-79375000D02*
X116840000Y-77470000D01*
X116595000Y-77225000D02*
X115570000Y-77225000D01*
X116840000Y-77470000D02*
X116595000Y-77225000D01*
X113030000Y-77225000D02*
X115570000Y-77225000D01*
X119380000Y-80525000D02*
X121960000Y-83105000D01*
X115570000Y-77225000D02*
X118990000Y-77225000D01*
X118990000Y-77225000D02*
X119380000Y-76835000D01*
X119380000Y-81280000D02*
X119380000Y-80525000D01*
X116840000Y-83820000D02*
X119380000Y-81280000D01*
X119380000Y-55880000D02*
X119380000Y-62230000D01*
X117475000Y-62230000D02*
X119380000Y-62230000D01*
X116840000Y-69215000D02*
X119380000Y-69215000D01*
X119380000Y-62230000D02*
X119380000Y-69215000D01*
X119380000Y-69215000D02*
X119380000Y-80525000D01*
G04 #@! TO.N,+3V3*
X102870000Y-83820000D02*
X102870000Y-69215000D01*
X102870000Y-69215000D02*
X102870000Y-62865000D01*
X102870000Y-62865000D02*
X102870000Y-62230000D01*
X102870000Y-47625000D02*
X103505000Y-46990000D01*
X103505000Y-46990000D02*
X109220000Y-46990000D01*
X109220000Y-46990000D02*
X109855000Y-47625000D01*
X109855000Y-47625000D02*
X109855000Y-62992000D01*
X109855000Y-79375000D02*
X109855000Y-83820000D01*
X109855000Y-62992000D02*
X109855000Y-69596000D01*
X109855000Y-69596000D02*
X109855000Y-79375000D01*
X85725000Y-106680000D02*
X98933000Y-93472000D01*
X98933000Y-93472000D02*
X99060000Y-93472000D01*
X102870000Y-84244264D02*
X102870000Y-83820000D01*
X102870000Y-89662000D02*
X102870000Y-84244264D01*
X99060000Y-93472000D02*
X102870000Y-89662000D01*
X102870000Y-62230000D02*
X102870000Y-48260000D01*
X102870000Y-48260000D02*
X102870000Y-47625000D01*
X116840000Y-128270000D02*
X115570000Y-129540000D01*
X109855000Y-83820000D02*
X109855000Y-85090000D01*
X109855000Y-85090000D02*
X116840000Y-92075000D01*
X121285000Y-123190000D02*
X116840000Y-123190000D01*
X116840000Y-92075000D02*
X116840000Y-123190000D01*
X116840000Y-123190000D02*
X116840000Y-128270000D01*
D19*
G04 #@! TO.N,+BATT*
X90170000Y-29845000D02*
X93345000Y-29845000D01*
X82550000Y-22225000D02*
X90170000Y-29845000D01*
D20*
G04 #@! TO.N,-BATT*
X111760000Y-75575000D02*
X111335736Y-75575000D01*
G04 #@! TD*
D21*
G04 #@! TO.N,-BATT*
G36*
X130056456Y-19389324D02*
X129465000Y-20817225D01*
X129465000Y-22362775D01*
X130056456Y-23790676D01*
X131149324Y-24883544D01*
X132577225Y-25475000D01*
X134122775Y-25475000D01*
X135550676Y-24883544D01*
X136450001Y-23984219D01*
X136450001Y-60470781D01*
X135550676Y-59571456D01*
X134122775Y-58980000D01*
X132577225Y-58980000D01*
X131149324Y-59571456D01*
X130056456Y-60664324D01*
X129465000Y-62092225D01*
X129465000Y-63637775D01*
X130056456Y-65065676D01*
X131149324Y-66158544D01*
X132577225Y-66750000D01*
X134122775Y-66750000D01*
X135550676Y-66158544D01*
X136450001Y-65259219D01*
X136450000Y-90950780D01*
X135550676Y-90051456D01*
X134122775Y-89460000D01*
X132577225Y-89460000D01*
X131149324Y-90051456D01*
X130056456Y-91144324D01*
X129465000Y-92572225D01*
X129465000Y-94117775D01*
X130056456Y-95545676D01*
X131149324Y-96638544D01*
X132577225Y-97230000D01*
X134122775Y-97230000D01*
X135550676Y-96638544D01*
X136450000Y-95739220D01*
X136450000Y-150640780D01*
X135550676Y-149741456D01*
X134122775Y-149150000D01*
X132577225Y-149150000D01*
X131149324Y-149741456D01*
X130056456Y-150834324D01*
X129465000Y-152262225D01*
X129465000Y-153807775D01*
X130056456Y-155235676D01*
X131082780Y-156262000D01*
X76910000Y-156262000D01*
X76910000Y-103124000D01*
X80885663Y-103124000D01*
X80903001Y-103211166D01*
X80903000Y-151296839D01*
X80885663Y-151384000D01*
X80903000Y-151471161D01*
X80903000Y-151471164D01*
X80954348Y-151729309D01*
X81149951Y-152022049D01*
X81223847Y-152071425D01*
X82116577Y-152964156D01*
X82165951Y-153038049D01*
X82239844Y-153087423D01*
X82239845Y-153087424D01*
X82395361Y-153191337D01*
X82458690Y-153233652D01*
X82716835Y-153285000D01*
X82716839Y-153285000D01*
X82804000Y-153302337D01*
X82891161Y-153285000D01*
X84634343Y-153285000D01*
X84933663Y-153584320D01*
X85447119Y-153797000D01*
X86002881Y-153797000D01*
X86516337Y-153584320D01*
X86909320Y-153191337D01*
X87122000Y-152677881D01*
X87122000Y-152122119D01*
X86909320Y-151608663D01*
X86516337Y-151215680D01*
X86309487Y-151130000D01*
X86516337Y-151044320D01*
X86909320Y-150651337D01*
X87122000Y-150137881D01*
X87122000Y-149582119D01*
X86909320Y-149068663D01*
X86516337Y-148675680D01*
X86309487Y-148590000D01*
X86516337Y-148504320D01*
X86909320Y-148111337D01*
X87122000Y-147597881D01*
X87122000Y-147042119D01*
X86909320Y-146528663D01*
X86516337Y-146135680D01*
X86309487Y-146050000D01*
X86516337Y-145964320D01*
X86909320Y-145571337D01*
X87122000Y-145057881D01*
X87122000Y-144502119D01*
X86909320Y-143988663D01*
X86516337Y-143595680D01*
X86309487Y-143510000D01*
X86516337Y-143424320D01*
X86909320Y-143031337D01*
X87122000Y-142517881D01*
X87122000Y-141962119D01*
X86909320Y-141448663D01*
X86516337Y-141055680D01*
X86309487Y-140970000D01*
X86516337Y-140884320D01*
X86909320Y-140491337D01*
X87122000Y-139977881D01*
X87122000Y-139422119D01*
X86909320Y-138908663D01*
X86516337Y-138515680D01*
X86309487Y-138430000D01*
X86516337Y-138344320D01*
X86909320Y-137951337D01*
X87122000Y-137437881D01*
X87122000Y-136882119D01*
X86909320Y-136368663D01*
X86516337Y-135975680D01*
X86309487Y-135890000D01*
X86516337Y-135804320D01*
X86909320Y-135411337D01*
X87122000Y-134897881D01*
X87122000Y-134342119D01*
X86909320Y-133828663D01*
X86516337Y-133435680D01*
X86309487Y-133350000D01*
X86516337Y-133264320D01*
X86909320Y-132871337D01*
X87122000Y-132357881D01*
X87122000Y-131802119D01*
X86909320Y-131288663D01*
X86516337Y-130895680D01*
X86309487Y-130810000D01*
X86516337Y-130724320D01*
X86909320Y-130331337D01*
X87122000Y-129817881D01*
X87122000Y-129262119D01*
X86909320Y-128748663D01*
X86516337Y-128355680D01*
X86309487Y-128270000D01*
X86516337Y-128184320D01*
X86909320Y-127791337D01*
X87122000Y-127277881D01*
X87122000Y-126722119D01*
X86909320Y-126208663D01*
X86516337Y-125815680D01*
X86309487Y-125730000D01*
X86516337Y-125644320D01*
X86909320Y-125251337D01*
X87122000Y-124737881D01*
X87122000Y-124182119D01*
X109728000Y-124182119D01*
X109728000Y-124737881D01*
X109940680Y-125251337D01*
X110333663Y-125644320D01*
X110540513Y-125730000D01*
X110333663Y-125815680D01*
X109940680Y-126208663D01*
X109728000Y-126722119D01*
X109728000Y-127277881D01*
X109940680Y-127791337D01*
X110333663Y-128184320D01*
X110540513Y-128270000D01*
X110333663Y-128355680D01*
X109940680Y-128748663D01*
X109728000Y-129262119D01*
X109728000Y-129817881D01*
X109940680Y-130331337D01*
X110333663Y-130724320D01*
X110540513Y-130810000D01*
X110333663Y-130895680D01*
X109940680Y-131288663D01*
X109728000Y-131802119D01*
X109728000Y-132357881D01*
X109940680Y-132871337D01*
X110333663Y-133264320D01*
X110540513Y-133350000D01*
X110333663Y-133435680D01*
X109940680Y-133828663D01*
X109728000Y-134342119D01*
X109728000Y-134897881D01*
X109940680Y-135411337D01*
X110333663Y-135804320D01*
X110540513Y-135890000D01*
X110333663Y-135975680D01*
X109940680Y-136368663D01*
X109728000Y-136882119D01*
X109728000Y-137437881D01*
X109940680Y-137951337D01*
X110333663Y-138344320D01*
X110540513Y-138430000D01*
X110333663Y-138515680D01*
X109940680Y-138908663D01*
X109728000Y-139422119D01*
X109728000Y-139977881D01*
X109940680Y-140491337D01*
X110333663Y-140884320D01*
X110540513Y-140970000D01*
X110333663Y-141055680D01*
X109940680Y-141448663D01*
X109728000Y-141962119D01*
X109728000Y-142517881D01*
X109940680Y-143031337D01*
X110333663Y-143424320D01*
X110540513Y-143510000D01*
X110333663Y-143595680D01*
X109940680Y-143988663D01*
X109728000Y-144502119D01*
X109728000Y-145057881D01*
X109940680Y-145571337D01*
X110333663Y-145964320D01*
X110540513Y-146050000D01*
X110333663Y-146135680D01*
X109940680Y-146528663D01*
X109728000Y-147042119D01*
X109728000Y-147597881D01*
X109940680Y-148111337D01*
X110333663Y-148504320D01*
X110540513Y-148590000D01*
X110333663Y-148675680D01*
X109940680Y-149068663D01*
X109728000Y-149582119D01*
X109728000Y-150137881D01*
X109940680Y-150651337D01*
X110333663Y-151044320D01*
X110540513Y-151130000D01*
X110333663Y-151215680D01*
X109940680Y-151608663D01*
X109728000Y-152122119D01*
X109728000Y-152677881D01*
X109940680Y-153191337D01*
X110333663Y-153584320D01*
X110847119Y-153797000D01*
X111402881Y-153797000D01*
X111916337Y-153584320D01*
X112309320Y-153191337D01*
X112522000Y-152677881D01*
X112522000Y-152122119D01*
X112309320Y-151608663D01*
X111916337Y-151215680D01*
X111709487Y-151130000D01*
X111916337Y-151044320D01*
X112309320Y-150651337D01*
X112522000Y-150137881D01*
X112522000Y-149582119D01*
X112309320Y-149068663D01*
X111916337Y-148675680D01*
X111709487Y-148590000D01*
X111916337Y-148504320D01*
X112309320Y-148111337D01*
X112522000Y-147597881D01*
X112522000Y-147042119D01*
X112309320Y-146528663D01*
X111916337Y-146135680D01*
X111709487Y-146050000D01*
X111916337Y-145964320D01*
X112309320Y-145571337D01*
X112522000Y-145057881D01*
X112522000Y-144502119D01*
X112309320Y-143988663D01*
X111916337Y-143595680D01*
X111709487Y-143510000D01*
X111916337Y-143424320D01*
X112309320Y-143031337D01*
X112522000Y-142517881D01*
X112522000Y-141962119D01*
X112309320Y-141448663D01*
X111916337Y-141055680D01*
X111709487Y-140970000D01*
X111916337Y-140884320D01*
X112309320Y-140491337D01*
X112522000Y-139977881D01*
X112522000Y-139422119D01*
X112309320Y-138908663D01*
X111916337Y-138515680D01*
X111709487Y-138430000D01*
X111916337Y-138344320D01*
X112309320Y-137951337D01*
X112522000Y-137437881D01*
X112522000Y-136882119D01*
X112309320Y-136368663D01*
X111916337Y-135975680D01*
X111709487Y-135890000D01*
X111916337Y-135804320D01*
X112309320Y-135411337D01*
X112522000Y-134897881D01*
X112522000Y-134342119D01*
X114173000Y-134342119D01*
X114173000Y-134897881D01*
X114385680Y-135411337D01*
X114778663Y-135804320D01*
X114985513Y-135890000D01*
X114778663Y-135975680D01*
X114385680Y-136368663D01*
X114173000Y-136882119D01*
X114173000Y-137437881D01*
X114385680Y-137951337D01*
X114778663Y-138344320D01*
X114985513Y-138430000D01*
X114778663Y-138515680D01*
X114385680Y-138908663D01*
X114173000Y-139422119D01*
X114173000Y-139977881D01*
X114385680Y-140491337D01*
X114778663Y-140884320D01*
X114985513Y-140970000D01*
X114778663Y-141055680D01*
X114385680Y-141448663D01*
X114173000Y-141962119D01*
X114173000Y-142517881D01*
X114385680Y-143031337D01*
X114778663Y-143424320D01*
X114985513Y-143510000D01*
X114778663Y-143595680D01*
X114385680Y-143988663D01*
X114173000Y-144502119D01*
X114173000Y-145057881D01*
X114385680Y-145571337D01*
X114778663Y-145964320D01*
X114985513Y-146050000D01*
X114778663Y-146135680D01*
X114385680Y-146528663D01*
X114173000Y-147042119D01*
X114173000Y-147597881D01*
X114385680Y-148111337D01*
X114778663Y-148504320D01*
X115292119Y-148717000D01*
X115847881Y-148717000D01*
X116361337Y-148504320D01*
X116754320Y-148111337D01*
X116967000Y-147597881D01*
X116967000Y-147042119D01*
X116754320Y-146528663D01*
X116361337Y-146135680D01*
X116154487Y-146050000D01*
X116361337Y-145964320D01*
X116754320Y-145571337D01*
X116967000Y-145057881D01*
X116967000Y-144502119D01*
X116754320Y-143988663D01*
X116361337Y-143595680D01*
X116154487Y-143510000D01*
X116361337Y-143424320D01*
X116754320Y-143031337D01*
X116967000Y-142517881D01*
X116967000Y-141962119D01*
X116754320Y-141448663D01*
X116361337Y-141055680D01*
X116154487Y-140970000D01*
X116361337Y-140884320D01*
X116754320Y-140491337D01*
X116967000Y-139977881D01*
X116967000Y-139422119D01*
X116754320Y-138908663D01*
X116361337Y-138515680D01*
X116154487Y-138430000D01*
X116361337Y-138344320D01*
X116754320Y-137951337D01*
X116967000Y-137437881D01*
X116967000Y-136882119D01*
X116754320Y-136368663D01*
X116361337Y-135975680D01*
X116154487Y-135890000D01*
X116361337Y-135804320D01*
X116754320Y-135411337D01*
X116967000Y-134897881D01*
X116967000Y-134342119D01*
X116754320Y-133828663D01*
X116361337Y-133435680D01*
X116170353Y-133356572D01*
X116301143Y-133302397D01*
X116370608Y-133060213D01*
X115570000Y-132259605D01*
X114769392Y-133060213D01*
X114838857Y-133302397D01*
X114979393Y-133352535D01*
X114778663Y-133435680D01*
X114385680Y-133828663D01*
X114173000Y-134342119D01*
X112522000Y-134342119D01*
X112309320Y-133828663D01*
X111916337Y-133435680D01*
X111709487Y-133350000D01*
X111916337Y-133264320D01*
X112309320Y-132871337D01*
X112522000Y-132357881D01*
X112522000Y-131872302D01*
X114160856Y-131872302D01*
X114188638Y-132427368D01*
X114347603Y-132811143D01*
X114589787Y-132880608D01*
X115390395Y-132080000D01*
X115749605Y-132080000D01*
X116550213Y-132880608D01*
X116792397Y-132811143D01*
X116979144Y-132287698D01*
X116951362Y-131732632D01*
X116792397Y-131348857D01*
X116550213Y-131279392D01*
X115749605Y-132080000D01*
X115390395Y-132080000D01*
X114589787Y-131279392D01*
X114347603Y-131348857D01*
X114160856Y-131872302D01*
X112522000Y-131872302D01*
X112522000Y-131802119D01*
X112309320Y-131288663D01*
X111916337Y-130895680D01*
X111709487Y-130810000D01*
X111916337Y-130724320D01*
X112309320Y-130331337D01*
X112522000Y-129817881D01*
X112522000Y-129262119D01*
X112309320Y-128748663D01*
X111916337Y-128355680D01*
X111709487Y-128270000D01*
X111916337Y-128184320D01*
X112309320Y-127791337D01*
X112522000Y-127277881D01*
X112522000Y-126722119D01*
X112309320Y-126208663D01*
X111916337Y-125815680D01*
X111709487Y-125730000D01*
X111916337Y-125644320D01*
X112309320Y-125251337D01*
X112522000Y-124737881D01*
X112522000Y-124182119D01*
X112309320Y-123668663D01*
X111916337Y-123275680D01*
X111725353Y-123196572D01*
X111856143Y-123142397D01*
X111925608Y-122900213D01*
X111125000Y-122099605D01*
X110324392Y-122900213D01*
X110393857Y-123142397D01*
X110534393Y-123192535D01*
X110333663Y-123275680D01*
X109940680Y-123668663D01*
X109728000Y-124182119D01*
X87122000Y-124182119D01*
X86909320Y-123668663D01*
X86516337Y-123275680D01*
X86309487Y-123190000D01*
X86516337Y-123104320D01*
X86909320Y-122711337D01*
X87122000Y-122197881D01*
X87122000Y-121712302D01*
X109715856Y-121712302D01*
X109743638Y-122267368D01*
X109902603Y-122651143D01*
X110144787Y-122720608D01*
X110945395Y-121920000D01*
X111304605Y-121920000D01*
X112105213Y-122720608D01*
X112347397Y-122651143D01*
X112534144Y-122127698D01*
X112506362Y-121572632D01*
X112347397Y-121188857D01*
X112105213Y-121119392D01*
X111304605Y-121920000D01*
X110945395Y-121920000D01*
X110144787Y-121119392D01*
X109902603Y-121188857D01*
X109715856Y-121712302D01*
X87122000Y-121712302D01*
X87122000Y-121642119D01*
X86909320Y-121128663D01*
X86516337Y-120735680D01*
X86309487Y-120650000D01*
X86516337Y-120564320D01*
X86909320Y-120171337D01*
X87122000Y-119657881D01*
X87122000Y-119102119D01*
X86909320Y-118588663D01*
X86516337Y-118195680D01*
X86309487Y-118110000D01*
X86516337Y-118024320D01*
X86909320Y-117631337D01*
X87122000Y-117117881D01*
X87122000Y-116562119D01*
X86909320Y-116048663D01*
X86516337Y-115655680D01*
X86309487Y-115570000D01*
X86516337Y-115484320D01*
X86909320Y-115091337D01*
X87122000Y-114577881D01*
X87122000Y-114022119D01*
X86909320Y-113508663D01*
X86516337Y-113115680D01*
X86309487Y-113030000D01*
X86516337Y-112944320D01*
X86909320Y-112551337D01*
X87122000Y-112037881D01*
X87122000Y-111482119D01*
X86909320Y-110968663D01*
X86516337Y-110575680D01*
X86309487Y-110490000D01*
X86516337Y-110404320D01*
X86909320Y-110011337D01*
X87122000Y-109497881D01*
X87122000Y-108942119D01*
X109728000Y-108942119D01*
X109728000Y-109497881D01*
X109940680Y-110011337D01*
X110333663Y-110404320D01*
X110540513Y-110490000D01*
X110333663Y-110575680D01*
X109940680Y-110968663D01*
X109728000Y-111482119D01*
X109728000Y-112037881D01*
X109940680Y-112551337D01*
X110333663Y-112944320D01*
X110540513Y-113030000D01*
X110333663Y-113115680D01*
X109940680Y-113508663D01*
X109728000Y-114022119D01*
X109728000Y-114577881D01*
X109940680Y-115091337D01*
X110333663Y-115484320D01*
X110540513Y-115570000D01*
X110333663Y-115655680D01*
X109940680Y-116048663D01*
X109728000Y-116562119D01*
X109728000Y-117117881D01*
X109940680Y-117631337D01*
X110333663Y-118024320D01*
X110540513Y-118110000D01*
X110333663Y-118195680D01*
X109940680Y-118588663D01*
X109728000Y-119102119D01*
X109728000Y-119657881D01*
X109940680Y-120171337D01*
X110333663Y-120564320D01*
X110524647Y-120643428D01*
X110393857Y-120697603D01*
X110324392Y-120939787D01*
X111125000Y-121740395D01*
X111925608Y-120939787D01*
X111856143Y-120697603D01*
X111715607Y-120647465D01*
X111916337Y-120564320D01*
X112309320Y-120171337D01*
X112522000Y-119657881D01*
X112522000Y-119102119D01*
X112309320Y-118588663D01*
X111916337Y-118195680D01*
X111709487Y-118110000D01*
X111916337Y-118024320D01*
X112309320Y-117631337D01*
X112522000Y-117117881D01*
X112522000Y-116562119D01*
X112309320Y-116048663D01*
X111916337Y-115655680D01*
X111709487Y-115570000D01*
X111916337Y-115484320D01*
X112309320Y-115091337D01*
X112522000Y-114577881D01*
X112522000Y-114022119D01*
X112309320Y-113508663D01*
X111916337Y-113115680D01*
X111709487Y-113030000D01*
X111916337Y-112944320D01*
X112309320Y-112551337D01*
X112522000Y-112037881D01*
X112522000Y-111482119D01*
X112309320Y-110968663D01*
X111916337Y-110575680D01*
X111709487Y-110490000D01*
X111916337Y-110404320D01*
X112309320Y-110011337D01*
X112522000Y-109497881D01*
X112522000Y-108942119D01*
X112309320Y-108428663D01*
X111916337Y-108035680D01*
X111725353Y-107956572D01*
X111856143Y-107902397D01*
X111925608Y-107660213D01*
X111125000Y-106859605D01*
X110324392Y-107660213D01*
X110393857Y-107902397D01*
X110534393Y-107952535D01*
X110333663Y-108035680D01*
X109940680Y-108428663D01*
X109728000Y-108942119D01*
X87122000Y-108942119D01*
X86909320Y-108428663D01*
X86516337Y-108035680D01*
X86309487Y-107950000D01*
X86516337Y-107864320D01*
X86909320Y-107471337D01*
X87122000Y-106957881D01*
X87122000Y-106534578D01*
X87184276Y-106472302D01*
X109715856Y-106472302D01*
X109743638Y-107027368D01*
X109902603Y-107411143D01*
X110144787Y-107480608D01*
X110945395Y-106680000D01*
X111304605Y-106680000D01*
X112105213Y-107480608D01*
X112347397Y-107411143D01*
X112534144Y-106887698D01*
X112506362Y-106332632D01*
X112347397Y-105948857D01*
X112105213Y-105879392D01*
X111304605Y-106680000D01*
X110945395Y-106680000D01*
X110144787Y-105879392D01*
X109902603Y-105948857D01*
X109715856Y-106472302D01*
X87184276Y-106472302D01*
X87956791Y-105699787D01*
X110324392Y-105699787D01*
X111125000Y-106500395D01*
X111925608Y-105699787D01*
X111856143Y-105457603D01*
X111332698Y-105270856D01*
X110777632Y-105298638D01*
X110393857Y-105457603D01*
X110324392Y-105699787D01*
X87956791Y-105699787D01*
X99337424Y-94319155D01*
X99405310Y-94305652D01*
X99698049Y-94110049D01*
X99747425Y-94036153D01*
X103434156Y-90349423D01*
X103508049Y-90300049D01*
X103703652Y-90007310D01*
X103755000Y-89749165D01*
X103755000Y-89749161D01*
X103772337Y-89662000D01*
X103755000Y-89574839D01*
X103755000Y-84126694D01*
X103805000Y-84005983D01*
X103805000Y-83634017D01*
X103755000Y-83513306D01*
X103755000Y-69521694D01*
X103805000Y-69400983D01*
X103805000Y-69029017D01*
X103755000Y-68908306D01*
X103755000Y-63171694D01*
X103805000Y-63050983D01*
X103805000Y-62679017D01*
X103755000Y-62558306D01*
X103755000Y-48566694D01*
X103805000Y-48445983D01*
X103805000Y-48074017D01*
X103766210Y-47980369D01*
X103871579Y-47875000D01*
X108853422Y-47875000D01*
X108970000Y-47991579D01*
X108970001Y-62685304D01*
X108920000Y-62806017D01*
X108920000Y-63177983D01*
X108970000Y-63298694D01*
X108970001Y-69289304D01*
X108920000Y-69410017D01*
X108920000Y-69781983D01*
X108970000Y-69902694D01*
X108970001Y-79287831D01*
X108970000Y-79287836D01*
X108970001Y-83513304D01*
X108920000Y-83634017D01*
X108920000Y-84005983D01*
X108970000Y-84126695D01*
X108970001Y-85002835D01*
X108952663Y-85090000D01*
X109021348Y-85435309D01*
X109167576Y-85654154D01*
X109167578Y-85654156D01*
X109216952Y-85728049D01*
X109290845Y-85777423D01*
X115955000Y-92441579D01*
X115955001Y-123102830D01*
X115937662Y-123190000D01*
X115955000Y-123277165D01*
X115955001Y-127903420D01*
X115715421Y-128143000D01*
X115292119Y-128143000D01*
X114778663Y-128355680D01*
X114385680Y-128748663D01*
X114173000Y-129262119D01*
X114173000Y-129817881D01*
X114385680Y-130331337D01*
X114778663Y-130724320D01*
X114969647Y-130803428D01*
X114838857Y-130857603D01*
X114769392Y-131099787D01*
X115570000Y-131900395D01*
X116370608Y-131099787D01*
X116301143Y-130857603D01*
X116160607Y-130807465D01*
X116361337Y-130724320D01*
X116754320Y-130331337D01*
X116967000Y-129817881D01*
X116967000Y-129394579D01*
X117404156Y-128957423D01*
X117478049Y-128908049D01*
X117673652Y-128615310D01*
X117725000Y-128357165D01*
X117725000Y-128357161D01*
X117742337Y-128270001D01*
X117725000Y-128182841D01*
X117725000Y-126710213D01*
X120484392Y-126710213D01*
X120553857Y-126952397D01*
X121077302Y-127139144D01*
X121632368Y-127111362D01*
X122016143Y-126952397D01*
X122085608Y-126710213D01*
X121285000Y-125909605D01*
X120484392Y-126710213D01*
X117725000Y-126710213D01*
X117725000Y-125522302D01*
X119875856Y-125522302D01*
X119903638Y-126077368D01*
X120062603Y-126461143D01*
X120304787Y-126530608D01*
X121105395Y-125730000D01*
X120304787Y-124929392D01*
X120062603Y-124998857D01*
X119875856Y-125522302D01*
X117725000Y-125522302D01*
X117725000Y-124075000D01*
X120194343Y-124075000D01*
X120493663Y-124374320D01*
X120684647Y-124453428D01*
X120553857Y-124507603D01*
X120484392Y-124749787D01*
X121285000Y-125550395D01*
X122085608Y-124749787D01*
X122016143Y-124507603D01*
X121875607Y-124457465D01*
X122076337Y-124374320D01*
X122469320Y-123981337D01*
X122555000Y-123774487D01*
X122640680Y-123981337D01*
X123033663Y-124374320D01*
X123240513Y-124460000D01*
X123033663Y-124545680D01*
X122640680Y-124938663D01*
X122561572Y-125129647D01*
X122507397Y-124998857D01*
X122265213Y-124929392D01*
X121464605Y-125730000D01*
X122265213Y-126530608D01*
X122507397Y-126461143D01*
X122557535Y-126320607D01*
X122640680Y-126521337D01*
X123033663Y-126914320D01*
X123547119Y-127127000D01*
X124102881Y-127127000D01*
X124616337Y-126914320D01*
X125009320Y-126521337D01*
X125095000Y-126314487D01*
X125180680Y-126521337D01*
X125573663Y-126914320D01*
X126087119Y-127127000D01*
X126642881Y-127127000D01*
X127156337Y-126914320D01*
X127549320Y-126521337D01*
X127635000Y-126314487D01*
X127720680Y-126521337D01*
X128113663Y-126914320D01*
X128627119Y-127127000D01*
X129182881Y-127127000D01*
X129696337Y-126914320D01*
X130089320Y-126521337D01*
X130302000Y-126007881D01*
X130302000Y-125452119D01*
X130089320Y-124938663D01*
X129696337Y-124545680D01*
X129489487Y-124460000D01*
X129696337Y-124374320D01*
X130089320Y-123981337D01*
X130302000Y-123467881D01*
X130302000Y-122912119D01*
X130089320Y-122398663D01*
X129696337Y-122005680D01*
X129182881Y-121793000D01*
X128627119Y-121793000D01*
X128113663Y-122005680D01*
X127720680Y-122398663D01*
X127635000Y-122605513D01*
X127549320Y-122398663D01*
X127156337Y-122005680D01*
X126642881Y-121793000D01*
X126087119Y-121793000D01*
X125573663Y-122005680D01*
X125180680Y-122398663D01*
X125095000Y-122605513D01*
X125009320Y-122398663D01*
X124616337Y-122005680D01*
X124102881Y-121793000D01*
X123547119Y-121793000D01*
X123033663Y-122005680D01*
X122640680Y-122398663D01*
X122555000Y-122605513D01*
X122469320Y-122398663D01*
X122076337Y-122005680D01*
X121562881Y-121793000D01*
X121007119Y-121793000D01*
X120493663Y-122005680D01*
X120194343Y-122305000D01*
X117725000Y-122305000D01*
X117725000Y-92162161D01*
X117742337Y-92075000D01*
X117725000Y-91987839D01*
X117725000Y-91987835D01*
X117673652Y-91729690D01*
X117478049Y-91436951D01*
X117404156Y-91387578D01*
X111301329Y-85284751D01*
X122850000Y-85284751D01*
X122850000Y-85925249D01*
X123095108Y-86516992D01*
X123548008Y-86969892D01*
X124139751Y-87215000D01*
X124780249Y-87215000D01*
X125371992Y-86969892D01*
X125824892Y-86516992D01*
X126070000Y-85925249D01*
X126070000Y-85284751D01*
X126051462Y-85239996D01*
X127625000Y-85239996D01*
X127625000Y-85970004D01*
X127904362Y-86644444D01*
X128420556Y-87160638D01*
X129094996Y-87440000D01*
X129825004Y-87440000D01*
X130499444Y-87160638D01*
X131015638Y-86644444D01*
X131295000Y-85970004D01*
X131295000Y-85239996D01*
X131015638Y-84565556D01*
X130499444Y-84049362D01*
X129825004Y-83770000D01*
X129094996Y-83770000D01*
X128420556Y-84049362D01*
X127904362Y-84565556D01*
X127625000Y-85239996D01*
X126051462Y-85239996D01*
X125824892Y-84693008D01*
X125371992Y-84240108D01*
X124780249Y-83995000D01*
X124139751Y-83995000D01*
X123548008Y-84240108D01*
X123095108Y-84693008D01*
X122850000Y-85284751D01*
X111301329Y-85284751D01*
X110740000Y-84723422D01*
X110740000Y-84126694D01*
X110790000Y-84005983D01*
X110790000Y-83634017D01*
X110740000Y-83513306D01*
X110740000Y-74473691D01*
X111695000Y-74473691D01*
X111695000Y-74889250D01*
X111853750Y-75048000D01*
X112903000Y-75048000D01*
X112903000Y-74123750D01*
X113157000Y-74123750D01*
X113157000Y-75048000D01*
X114206250Y-75048000D01*
X114300000Y-74954250D01*
X114393750Y-75048000D01*
X115443000Y-75048000D01*
X115443000Y-74123750D01*
X115697000Y-74123750D01*
X115697000Y-75048000D01*
X116746250Y-75048000D01*
X116905000Y-74889250D01*
X116905000Y-74473691D01*
X116808327Y-74240302D01*
X116629699Y-74061673D01*
X116396310Y-73965000D01*
X115855750Y-73965000D01*
X115697000Y-74123750D01*
X115443000Y-74123750D01*
X115284250Y-73965000D01*
X114743690Y-73965000D01*
X114510301Y-74061673D01*
X114331673Y-74240302D01*
X114300000Y-74316767D01*
X114268327Y-74240302D01*
X114089699Y-74061673D01*
X113856310Y-73965000D01*
X113315750Y-73965000D01*
X113157000Y-74123750D01*
X112903000Y-74123750D01*
X112744250Y-73965000D01*
X112203690Y-73965000D01*
X111970301Y-74061673D01*
X111791673Y-74240302D01*
X111695000Y-74473691D01*
X110740000Y-74473691D01*
X110740000Y-69902694D01*
X110790000Y-69781983D01*
X110790000Y-69410017D01*
X110740000Y-69289306D01*
X110740000Y-63298694D01*
X110790000Y-63177983D01*
X110790000Y-62806017D01*
X110740000Y-62685306D01*
X110740000Y-53128691D01*
X112330000Y-53128691D01*
X112330000Y-53544250D01*
X112488750Y-53703000D01*
X113538000Y-53703000D01*
X113538000Y-52778750D01*
X113792000Y-52778750D01*
X113792000Y-53703000D01*
X114841250Y-53703000D01*
X114935000Y-53609250D01*
X115028750Y-53703000D01*
X116078000Y-53703000D01*
X116078000Y-52778750D01*
X116332000Y-52778750D01*
X116332000Y-53703000D01*
X117381250Y-53703000D01*
X117540000Y-53544250D01*
X117540000Y-53128691D01*
X117443327Y-52895302D01*
X117264699Y-52716673D01*
X117031310Y-52620000D01*
X116490750Y-52620000D01*
X116332000Y-52778750D01*
X116078000Y-52778750D01*
X115919250Y-52620000D01*
X115378690Y-52620000D01*
X115145301Y-52716673D01*
X114966673Y-52895302D01*
X114935000Y-52971767D01*
X114903327Y-52895302D01*
X114724699Y-52716673D01*
X114491310Y-52620000D01*
X113950750Y-52620000D01*
X113792000Y-52778750D01*
X113538000Y-52778750D01*
X113379250Y-52620000D01*
X112838690Y-52620000D01*
X112605301Y-52716673D01*
X112426673Y-52895302D01*
X112330000Y-53128691D01*
X110740000Y-53128691D01*
X110740000Y-47931694D01*
X110790000Y-47810983D01*
X110790000Y-47439017D01*
X110647655Y-47095365D01*
X110384635Y-46832345D01*
X110263923Y-46782345D01*
X109907425Y-46425846D01*
X109858049Y-46351951D01*
X109565310Y-46156348D01*
X109307165Y-46105000D01*
X109307161Y-46105000D01*
X109220000Y-46087663D01*
X109132839Y-46105000D01*
X103592161Y-46105000D01*
X103505000Y-46087663D01*
X103417839Y-46105000D01*
X103417835Y-46105000D01*
X103159690Y-46156348D01*
X102940845Y-46302576D01*
X102940844Y-46302577D01*
X102866951Y-46351951D01*
X102817577Y-46425844D01*
X102305844Y-46937577D01*
X102231952Y-46986951D01*
X102182578Y-47060844D01*
X102182576Y-47060846D01*
X102036348Y-47279691D01*
X102025285Y-47335310D01*
X101985000Y-47537835D01*
X101985000Y-47537839D01*
X101967663Y-47625000D01*
X101985000Y-47712161D01*
X101985000Y-47953306D01*
X101935000Y-48074017D01*
X101935000Y-48445983D01*
X101985001Y-48566696D01*
X101985000Y-62142835D01*
X101985000Y-62558306D01*
X101935000Y-62679017D01*
X101935000Y-63050983D01*
X101985001Y-63171696D01*
X101985000Y-68908306D01*
X101935000Y-69029017D01*
X101935000Y-69400983D01*
X101985001Y-69521696D01*
X101985000Y-83513306D01*
X101935000Y-83634017D01*
X101935000Y-84005983D01*
X101985000Y-84126694D01*
X101985000Y-84331428D01*
X101985001Y-84331433D01*
X101985000Y-89295421D01*
X98655578Y-92624844D01*
X98587690Y-92638348D01*
X98368845Y-92784576D01*
X98368844Y-92784577D01*
X98294951Y-92833951D01*
X98245577Y-92907844D01*
X85870422Y-105283000D01*
X85447119Y-105283000D01*
X84933663Y-105495680D01*
X84540680Y-105888663D01*
X84328000Y-106402119D01*
X84328000Y-106957881D01*
X84540680Y-107471337D01*
X84933663Y-107864320D01*
X85140513Y-107950000D01*
X84933663Y-108035680D01*
X84540680Y-108428663D01*
X84328000Y-108942119D01*
X84328000Y-109497881D01*
X84540680Y-110011337D01*
X84933663Y-110404320D01*
X85140513Y-110490000D01*
X84933663Y-110575680D01*
X84540680Y-110968663D01*
X84328000Y-111482119D01*
X84328000Y-112037881D01*
X84540680Y-112551337D01*
X84933663Y-112944320D01*
X85140513Y-113030000D01*
X84933663Y-113115680D01*
X84540680Y-113508663D01*
X84328000Y-114022119D01*
X84328000Y-114577881D01*
X84540680Y-115091337D01*
X84933663Y-115484320D01*
X85140513Y-115570000D01*
X84933663Y-115655680D01*
X84540680Y-116048663D01*
X84328000Y-116562119D01*
X84328000Y-117117881D01*
X84540680Y-117631337D01*
X84933663Y-118024320D01*
X85140513Y-118110000D01*
X84933663Y-118195680D01*
X84540680Y-118588663D01*
X84328000Y-119102119D01*
X84328000Y-119657881D01*
X84540680Y-120171337D01*
X84933663Y-120564320D01*
X85140513Y-120650000D01*
X84933663Y-120735680D01*
X84540680Y-121128663D01*
X84328000Y-121642119D01*
X84328000Y-122197881D01*
X84540680Y-122711337D01*
X84933663Y-123104320D01*
X85140513Y-123190000D01*
X84933663Y-123275680D01*
X84540680Y-123668663D01*
X84328000Y-124182119D01*
X84328000Y-124737881D01*
X84540680Y-125251337D01*
X84933663Y-125644320D01*
X85140513Y-125730000D01*
X84933663Y-125815680D01*
X84540680Y-126208663D01*
X84328000Y-126722119D01*
X84328000Y-127277881D01*
X84540680Y-127791337D01*
X84933663Y-128184320D01*
X85140513Y-128270000D01*
X84933663Y-128355680D01*
X84540680Y-128748663D01*
X84328000Y-129262119D01*
X84328000Y-129817881D01*
X84540680Y-130331337D01*
X84933663Y-130724320D01*
X85140513Y-130810000D01*
X84933663Y-130895680D01*
X84540680Y-131288663D01*
X84328000Y-131802119D01*
X84328000Y-132357881D01*
X84540680Y-132871337D01*
X84933663Y-133264320D01*
X85140513Y-133350000D01*
X84933663Y-133435680D01*
X84540680Y-133828663D01*
X84328000Y-134342119D01*
X84328000Y-134897881D01*
X84540680Y-135411337D01*
X84933663Y-135804320D01*
X85140513Y-135890000D01*
X84933663Y-135975680D01*
X84540680Y-136368663D01*
X84328000Y-136882119D01*
X84328000Y-137437881D01*
X84540680Y-137951337D01*
X84933663Y-138344320D01*
X85140513Y-138430000D01*
X84933663Y-138515680D01*
X84540680Y-138908663D01*
X84328000Y-139422119D01*
X84328000Y-139977881D01*
X84540680Y-140491337D01*
X84933663Y-140884320D01*
X85140513Y-140970000D01*
X84933663Y-141055680D01*
X84540680Y-141448663D01*
X84328000Y-141962119D01*
X84328000Y-142517881D01*
X84540680Y-143031337D01*
X84933663Y-143424320D01*
X85140513Y-143510000D01*
X84933663Y-143595680D01*
X84540680Y-143988663D01*
X84328000Y-144502119D01*
X84328000Y-145057881D01*
X84540680Y-145571337D01*
X84933663Y-145964320D01*
X85140513Y-146050000D01*
X84933663Y-146135680D01*
X84540680Y-146528663D01*
X84328000Y-147042119D01*
X84328000Y-147597881D01*
X84540680Y-148111337D01*
X84933663Y-148504320D01*
X85140513Y-148590000D01*
X84933663Y-148675680D01*
X84540680Y-149068663D01*
X84328000Y-149582119D01*
X84328000Y-150137881D01*
X84540680Y-150651337D01*
X84933663Y-151044320D01*
X85140513Y-151130000D01*
X84933663Y-151215680D01*
X84634343Y-151515000D01*
X83170579Y-151515000D01*
X82673000Y-151017422D01*
X82673000Y-103490578D01*
X94544157Y-91619422D01*
X94618049Y-91570049D01*
X94813652Y-91277310D01*
X94865000Y-91019165D01*
X94865000Y-91019161D01*
X94882337Y-90932000D01*
X94865000Y-90844839D01*
X94865000Y-84705000D01*
X95578306Y-84705000D01*
X95699017Y-84755000D01*
X96070983Y-84755000D01*
X96414635Y-84612655D01*
X96677655Y-84349635D01*
X96820000Y-84005983D01*
X96820000Y-83634017D01*
X96677655Y-83290365D01*
X96414635Y-83027345D01*
X96070983Y-82885000D01*
X95699017Y-82885000D01*
X95578306Y-82935000D01*
X94865000Y-82935000D01*
X94865000Y-78599771D01*
X95058690Y-78680000D01*
X95599250Y-78680000D01*
X95758000Y-78521250D01*
X95758000Y-77597000D01*
X96012000Y-77597000D01*
X96012000Y-78521250D01*
X96170750Y-78680000D01*
X96711310Y-78680000D01*
X96944699Y-78583327D01*
X97123327Y-78404698D01*
X97155000Y-78328233D01*
X97186673Y-78404698D01*
X97365301Y-78583327D01*
X97598690Y-78680000D01*
X98139250Y-78680000D01*
X98298000Y-78521250D01*
X98298000Y-77597000D01*
X98552000Y-77597000D01*
X98552000Y-78521250D01*
X98710750Y-78680000D01*
X99251310Y-78680000D01*
X99484699Y-78583327D01*
X99663327Y-78404698D01*
X99760000Y-78171309D01*
X99760000Y-77755750D01*
X99601250Y-77597000D01*
X98552000Y-77597000D01*
X98298000Y-77597000D01*
X97248750Y-77597000D01*
X97155000Y-77690750D01*
X97061250Y-77597000D01*
X96012000Y-77597000D01*
X95758000Y-77597000D01*
X95738000Y-77597000D01*
X95738000Y-77343000D01*
X95758000Y-77343000D01*
X95758000Y-77323000D01*
X96012000Y-77323000D01*
X96012000Y-77343000D01*
X97061250Y-77343000D01*
X97155000Y-77249250D01*
X97248750Y-77343000D01*
X98298000Y-77343000D01*
X98298000Y-77323000D01*
X98552000Y-77323000D01*
X98552000Y-77343000D01*
X99601250Y-77343000D01*
X99760000Y-77184250D01*
X99760000Y-76768691D01*
X99663327Y-76535302D01*
X99508403Y-76380377D01*
X99509586Y-76379586D01*
X99704127Y-76088436D01*
X99772440Y-75745001D01*
X99772440Y-75094999D01*
X99704127Y-74751564D01*
X99509586Y-74460414D01*
X99218436Y-74265873D01*
X98875001Y-74197560D01*
X98469139Y-74197560D01*
X97842425Y-73570847D01*
X97793049Y-73496951D01*
X97500310Y-73301348D01*
X97242165Y-73250000D01*
X97242161Y-73250000D01*
X97155000Y-73232663D01*
X97067839Y-73250000D01*
X96191694Y-73250000D01*
X96070983Y-73200000D01*
X95699017Y-73200000D01*
X95355365Y-73342345D01*
X95092345Y-73605365D01*
X94950000Y-73949017D01*
X94950000Y-74320983D01*
X94962808Y-74351905D01*
X94865000Y-74417259D01*
X94865000Y-73112160D01*
X94882337Y-73025001D01*
X94865000Y-72937841D01*
X94865000Y-70735000D01*
X95578306Y-70735000D01*
X95699017Y-70785000D01*
X96070983Y-70785000D01*
X96414635Y-70642655D01*
X96677655Y-70379635D01*
X96820000Y-70035983D01*
X96820000Y-69664017D01*
X96677655Y-69320365D01*
X96414635Y-69057345D01*
X96070983Y-68915000D01*
X95699017Y-68915000D01*
X95578306Y-68965000D01*
X94865000Y-68965000D01*
X94865000Y-63505000D01*
X95823306Y-63505000D01*
X95944017Y-63555000D01*
X96315983Y-63555000D01*
X96659635Y-63412655D01*
X96922655Y-63149635D01*
X97065000Y-62805983D01*
X97065000Y-62434017D01*
X96922655Y-62090365D01*
X96659635Y-61827345D01*
X96315983Y-61685000D01*
X95944017Y-61685000D01*
X95823306Y-61735000D01*
X94865000Y-61735000D01*
X94865000Y-56764771D01*
X95058690Y-56845000D01*
X95599250Y-56845000D01*
X95758000Y-56686250D01*
X95758000Y-55762000D01*
X96012000Y-55762000D01*
X96012000Y-56686250D01*
X96170750Y-56845000D01*
X96711310Y-56845000D01*
X96944699Y-56748327D01*
X97032500Y-56660526D01*
X97120301Y-56748327D01*
X97353690Y-56845000D01*
X97894250Y-56845000D01*
X98053000Y-56686250D01*
X98053000Y-55762000D01*
X98307000Y-55762000D01*
X98307000Y-56686250D01*
X98465750Y-56845000D01*
X99006310Y-56845000D01*
X99239699Y-56748327D01*
X99418327Y-56569698D01*
X99515000Y-56336309D01*
X99515000Y-55920750D01*
X99356250Y-55762000D01*
X98307000Y-55762000D01*
X98053000Y-55762000D01*
X96012000Y-55762000D01*
X95758000Y-55762000D01*
X95738000Y-55762000D01*
X95738000Y-55508000D01*
X95758000Y-55508000D01*
X95758000Y-55488000D01*
X96012000Y-55488000D01*
X96012000Y-55508000D01*
X98053000Y-55508000D01*
X98053000Y-55488000D01*
X98307000Y-55488000D01*
X98307000Y-55508000D01*
X99356250Y-55508000D01*
X99515000Y-55349250D01*
X99515000Y-54933691D01*
X99418327Y-54700302D01*
X99263403Y-54545377D01*
X99264586Y-54544586D01*
X99459127Y-54253436D01*
X99527440Y-53910001D01*
X99527440Y-53259999D01*
X99459127Y-52916564D01*
X99264586Y-52625414D01*
X98973436Y-52430873D01*
X98916697Y-52419587D01*
X98893420Y-52384751D01*
X98867424Y-52345845D01*
X98867423Y-52345844D01*
X98818049Y-52271951D01*
X98744156Y-52222577D01*
X98027425Y-51505847D01*
X97978049Y-51431951D01*
X97685310Y-51236348D01*
X97427165Y-51185000D01*
X97427161Y-51185000D01*
X97340000Y-51167663D01*
X97252839Y-51185000D01*
X96191694Y-51185000D01*
X96070983Y-51135000D01*
X95699017Y-51135000D01*
X95355365Y-51277345D01*
X95092345Y-51540365D01*
X94950000Y-51884017D01*
X94950000Y-52255983D01*
X95037426Y-52467047D01*
X94865000Y-52582259D01*
X94865000Y-49145000D01*
X95578306Y-49145000D01*
X95699017Y-49195000D01*
X96070983Y-49195000D01*
X96414635Y-49052655D01*
X96677655Y-48789635D01*
X96820000Y-48445983D01*
X96820000Y-48074017D01*
X96677655Y-47730365D01*
X96414635Y-47467345D01*
X96070983Y-47325000D01*
X95699017Y-47325000D01*
X95578306Y-47375000D01*
X94865000Y-47375000D01*
X94865000Y-42632160D01*
X94882337Y-42545001D01*
X94865000Y-42457841D01*
X94865000Y-37831578D01*
X96886579Y-35810000D01*
X113933422Y-35810000D01*
X118495000Y-40371579D01*
X118495001Y-47375000D01*
X117146694Y-47375000D01*
X117025983Y-47325000D01*
X116654017Y-47325000D01*
X116310365Y-47467345D01*
X116047345Y-47730365D01*
X115905000Y-48074017D01*
X115905000Y-48445983D01*
X116047345Y-48789635D01*
X116310365Y-49052655D01*
X116654017Y-49195000D01*
X117025983Y-49195000D01*
X117146694Y-49145000D01*
X118495000Y-49145000D01*
X118495001Y-51347831D01*
X118495000Y-51347836D01*
X118495000Y-51347839D01*
X118477663Y-51435000D01*
X118495000Y-51522161D01*
X118495001Y-54995000D01*
X117339423Y-54995000D01*
X117289586Y-54920414D01*
X117288403Y-54919623D01*
X117443327Y-54764698D01*
X117540000Y-54531309D01*
X117540000Y-54115750D01*
X117381250Y-53957000D01*
X116332000Y-53957000D01*
X116332000Y-53977000D01*
X116078000Y-53977000D01*
X116078000Y-53957000D01*
X115028750Y-53957000D01*
X114935000Y-54050750D01*
X114841250Y-53957000D01*
X113792000Y-53957000D01*
X113792000Y-53977000D01*
X113538000Y-53977000D01*
X113538000Y-53957000D01*
X112488750Y-53957000D01*
X112330000Y-54115750D01*
X112330000Y-54531309D01*
X112426673Y-54764698D01*
X112581597Y-54919623D01*
X112580414Y-54920414D01*
X112385873Y-55211564D01*
X112317560Y-55554999D01*
X112317560Y-56205001D01*
X112385873Y-56548436D01*
X112580414Y-56839586D01*
X112871564Y-57034127D01*
X113214999Y-57102440D01*
X114115001Y-57102440D01*
X114458436Y-57034127D01*
X114749586Y-56839586D01*
X114799423Y-56765000D01*
X115070577Y-56765000D01*
X115120414Y-56839586D01*
X115411564Y-57034127D01*
X115754999Y-57102440D01*
X115955001Y-57102440D01*
X115955000Y-57478305D01*
X115905000Y-57599017D01*
X115905000Y-57970983D01*
X116047345Y-58314635D01*
X116310365Y-58577655D01*
X116654017Y-58720000D01*
X117025983Y-58720000D01*
X117369635Y-58577655D01*
X117632655Y-58314635D01*
X117775000Y-57970983D01*
X117775000Y-57599017D01*
X117725000Y-57478306D01*
X117725000Y-56765000D01*
X118495000Y-56765000D01*
X118495001Y-61345000D01*
X117781694Y-61345000D01*
X117660983Y-61295000D01*
X117289017Y-61295000D01*
X116945365Y-61437345D01*
X116682345Y-61700365D01*
X116540000Y-62044017D01*
X116540000Y-62415983D01*
X116682345Y-62759635D01*
X116945365Y-63022655D01*
X117289017Y-63165000D01*
X117660983Y-63165000D01*
X117781694Y-63115000D01*
X118495000Y-63115000D01*
X118495001Y-68330000D01*
X117146694Y-68330000D01*
X117025983Y-68280000D01*
X116654017Y-68280000D01*
X116310365Y-68422345D01*
X116047345Y-68685365D01*
X115905000Y-69029017D01*
X115905000Y-69400983D01*
X116047345Y-69744635D01*
X116310365Y-70007655D01*
X116654017Y-70150000D01*
X117025983Y-70150000D01*
X117146694Y-70100000D01*
X118495000Y-70100000D01*
X118495001Y-76340000D01*
X116704423Y-76340000D01*
X116654586Y-76265414D01*
X116653403Y-76264623D01*
X116808327Y-76109698D01*
X116905000Y-75876309D01*
X116905000Y-75460750D01*
X116746250Y-75302000D01*
X115697000Y-75302000D01*
X115697000Y-75322000D01*
X115443000Y-75322000D01*
X115443000Y-75302000D01*
X114393750Y-75302000D01*
X114300000Y-75395750D01*
X114206250Y-75302000D01*
X113157000Y-75302000D01*
X113157000Y-75322000D01*
X112903000Y-75322000D01*
X112903000Y-75302000D01*
X111853750Y-75302000D01*
X111695000Y-75460750D01*
X111695000Y-75876309D01*
X111791673Y-76109698D01*
X111946597Y-76264623D01*
X111945414Y-76265414D01*
X111750873Y-76556564D01*
X111682560Y-76899999D01*
X111682560Y-77550001D01*
X111750873Y-77893436D01*
X111945414Y-78184586D01*
X112236564Y-78379127D01*
X112579999Y-78447440D01*
X113480001Y-78447440D01*
X113823436Y-78379127D01*
X114114586Y-78184586D01*
X114164423Y-78110000D01*
X114435577Y-78110000D01*
X114485414Y-78184586D01*
X114776564Y-78379127D01*
X115119999Y-78447440D01*
X115955000Y-78447440D01*
X115955000Y-79068306D01*
X115905000Y-79189017D01*
X115905000Y-79560983D01*
X116047345Y-79904635D01*
X116310365Y-80167655D01*
X116654017Y-80310000D01*
X117025983Y-80310000D01*
X117369635Y-80167655D01*
X117632655Y-79904635D01*
X117775000Y-79560983D01*
X117775000Y-79189017D01*
X117725000Y-79068306D01*
X117725000Y-78110000D01*
X118495001Y-78110000D01*
X118495001Y-80437830D01*
X118495000Y-80437835D01*
X118495000Y-80437839D01*
X118477663Y-80525000D01*
X118495000Y-80612161D01*
X118495000Y-80913421D01*
X116431078Y-82977344D01*
X116310365Y-83027345D01*
X116047345Y-83290365D01*
X115905000Y-83634017D01*
X115905000Y-84005983D01*
X116047345Y-84349635D01*
X116310365Y-84612655D01*
X116654017Y-84755000D01*
X117025983Y-84755000D01*
X117369635Y-84612655D01*
X117632655Y-84349635D01*
X117682656Y-84228922D01*
X119757500Y-82154079D01*
X120361180Y-82757759D01*
X120350000Y-82784751D01*
X120350000Y-83425249D01*
X120595108Y-84016992D01*
X121048008Y-84469892D01*
X121639751Y-84715000D01*
X122280249Y-84715000D01*
X122871992Y-84469892D01*
X123324892Y-84016992D01*
X123570000Y-83425249D01*
X123570000Y-82784751D01*
X123324892Y-82193008D01*
X122871992Y-81740108D01*
X122870385Y-81739442D01*
X133505163Y-81739442D01*
X133600763Y-82003704D01*
X134201429Y-82226049D01*
X134841461Y-82201605D01*
X135319237Y-82003704D01*
X135414837Y-81739442D01*
X134460000Y-80784605D01*
X133505163Y-81739442D01*
X122870385Y-81739442D01*
X122280249Y-81495000D01*
X121639751Y-81495000D01*
X121612759Y-81506180D01*
X120453008Y-80346429D01*
X132838951Y-80346429D01*
X132863395Y-80986461D01*
X133061296Y-81464237D01*
X133325558Y-81559837D01*
X134280395Y-80605000D01*
X134639605Y-80605000D01*
X135594442Y-81559837D01*
X135858704Y-81464237D01*
X136081049Y-80863571D01*
X136056605Y-80223539D01*
X135858704Y-79745763D01*
X135594442Y-79650163D01*
X134639605Y-80605000D01*
X134280395Y-80605000D01*
X133325558Y-79650163D01*
X133061296Y-79745763D01*
X132838951Y-80346429D01*
X120453008Y-80346429D01*
X120265000Y-80158422D01*
X120265000Y-77784751D01*
X122850000Y-77784751D01*
X122850000Y-78425249D01*
X123095108Y-79016992D01*
X123548008Y-79469892D01*
X124139751Y-79715000D01*
X124780249Y-79715000D01*
X125370384Y-79470558D01*
X133505163Y-79470558D01*
X134460000Y-80425395D01*
X135414837Y-79470558D01*
X135319237Y-79206296D01*
X134718571Y-78983951D01*
X134078539Y-79008395D01*
X133600763Y-79206296D01*
X133505163Y-79470558D01*
X125370384Y-79470558D01*
X125371992Y-79469892D01*
X125824892Y-79016992D01*
X126070000Y-78425249D01*
X126070000Y-77784751D01*
X125824892Y-77193008D01*
X125371992Y-76740108D01*
X125370385Y-76739442D01*
X133505163Y-76739442D01*
X133600763Y-77003704D01*
X134201429Y-77226049D01*
X134841461Y-77201605D01*
X135319237Y-77003704D01*
X135414837Y-76739442D01*
X134460000Y-75784605D01*
X133505163Y-76739442D01*
X125370385Y-76739442D01*
X124780249Y-76495000D01*
X124139751Y-76495000D01*
X123548008Y-76740108D01*
X123095108Y-77193008D01*
X122850000Y-77784751D01*
X120265000Y-77784751D01*
X120265000Y-76922161D01*
X120282337Y-76835001D01*
X120265000Y-76747841D01*
X120265000Y-75346429D01*
X132838951Y-75346429D01*
X132863395Y-75986461D01*
X133061296Y-76464237D01*
X133325558Y-76559837D01*
X134280395Y-75605000D01*
X134639605Y-75605000D01*
X135594442Y-76559837D01*
X135858704Y-76464237D01*
X136081049Y-75863571D01*
X136056605Y-75223539D01*
X135858704Y-74745763D01*
X135594442Y-74650163D01*
X134639605Y-75605000D01*
X134280395Y-75605000D01*
X133325558Y-74650163D01*
X133061296Y-74745763D01*
X132838951Y-75346429D01*
X120265000Y-75346429D01*
X120265000Y-72784751D01*
X120350000Y-72784751D01*
X120350000Y-73425249D01*
X120595108Y-74016992D01*
X121048008Y-74469892D01*
X121639751Y-74715000D01*
X122280249Y-74715000D01*
X122870384Y-74470558D01*
X133505163Y-74470558D01*
X134460000Y-75425395D01*
X135414837Y-74470558D01*
X135319237Y-74206296D01*
X134718571Y-73983951D01*
X134078539Y-74008395D01*
X133600763Y-74206296D01*
X133505163Y-74470558D01*
X122870384Y-74470558D01*
X122871992Y-74469892D01*
X123324892Y-74016992D01*
X123570000Y-73425249D01*
X123570000Y-72784751D01*
X123324892Y-72193008D01*
X122871992Y-71740108D01*
X122870385Y-71739442D01*
X123505163Y-71739442D01*
X123600763Y-72003704D01*
X124201429Y-72226049D01*
X124841461Y-72201605D01*
X125319237Y-72003704D01*
X125414837Y-71739442D01*
X124460000Y-70784605D01*
X123505163Y-71739442D01*
X122870385Y-71739442D01*
X122280249Y-71495000D01*
X121639751Y-71495000D01*
X121048008Y-71740108D01*
X120595108Y-72193008D01*
X120350000Y-72784751D01*
X120265000Y-72784751D01*
X120265000Y-70346429D01*
X122838951Y-70346429D01*
X122863395Y-70986461D01*
X123061296Y-71464237D01*
X123325558Y-71559837D01*
X124280395Y-70605000D01*
X124639605Y-70605000D01*
X125594442Y-71559837D01*
X125858704Y-71464237D01*
X126081049Y-70863571D01*
X126057234Y-70239996D01*
X127625000Y-70239996D01*
X127625000Y-70970004D01*
X127904362Y-71644444D01*
X128420556Y-72160638D01*
X129094996Y-72440000D01*
X129825004Y-72440000D01*
X130499444Y-72160638D01*
X131015638Y-71644444D01*
X131295000Y-70970004D01*
X131295000Y-70239996D01*
X131015638Y-69565556D01*
X130499444Y-69049362D01*
X129825004Y-68770000D01*
X129094996Y-68770000D01*
X128420556Y-69049362D01*
X127904362Y-69565556D01*
X127625000Y-70239996D01*
X126057234Y-70239996D01*
X126056605Y-70223539D01*
X125858704Y-69745763D01*
X125594442Y-69650163D01*
X124639605Y-70605000D01*
X124280395Y-70605000D01*
X123325558Y-69650163D01*
X123061296Y-69745763D01*
X122838951Y-70346429D01*
X120265000Y-70346429D01*
X120265000Y-69470558D01*
X123505163Y-69470558D01*
X124460000Y-70425395D01*
X125414837Y-69470558D01*
X125319237Y-69206296D01*
X124718571Y-68983951D01*
X124078539Y-69008395D01*
X123600763Y-69206296D01*
X123505163Y-69470558D01*
X120265000Y-69470558D01*
X120265000Y-69302164D01*
X120282338Y-69215000D01*
X120265000Y-69127835D01*
X120265000Y-62317164D01*
X120282338Y-62230000D01*
X120265000Y-62142835D01*
X120265000Y-55967165D01*
X120282338Y-55880000D01*
X120265000Y-55792835D01*
X120265000Y-54804751D01*
X122850000Y-54804751D01*
X122850000Y-55445249D01*
X123095108Y-56036992D01*
X123548008Y-56489892D01*
X124139751Y-56735000D01*
X124780249Y-56735000D01*
X125371992Y-56489892D01*
X125824892Y-56036992D01*
X126070000Y-55445249D01*
X126070000Y-54804751D01*
X126051462Y-54759996D01*
X127625000Y-54759996D01*
X127625000Y-55490004D01*
X127904362Y-56164444D01*
X128420556Y-56680638D01*
X129094996Y-56960000D01*
X129825004Y-56960000D01*
X130499444Y-56680638D01*
X131015638Y-56164444D01*
X131295000Y-55490004D01*
X131295000Y-54759996D01*
X131015638Y-54085556D01*
X130499444Y-53569362D01*
X129825004Y-53290000D01*
X129094996Y-53290000D01*
X128420556Y-53569362D01*
X127904362Y-54085556D01*
X127625000Y-54759996D01*
X126051462Y-54759996D01*
X125824892Y-54213008D01*
X125371992Y-53760108D01*
X124780249Y-53515000D01*
X124139751Y-53515000D01*
X123548008Y-53760108D01*
X123095108Y-54213008D01*
X122850000Y-54804751D01*
X120265000Y-54804751D01*
X120265000Y-53466670D01*
X120482835Y-53510000D01*
X120482839Y-53510000D01*
X120569999Y-53527337D01*
X120589502Y-53523458D01*
X120595108Y-53536992D01*
X121048008Y-53989892D01*
X121639751Y-54235000D01*
X122280249Y-54235000D01*
X122871992Y-53989892D01*
X123324892Y-53536992D01*
X123570000Y-52945249D01*
X123570000Y-52304751D01*
X123324892Y-51713008D01*
X122871992Y-51260108D01*
X122870385Y-51259442D01*
X133505163Y-51259442D01*
X133600763Y-51523704D01*
X134201429Y-51746049D01*
X134841461Y-51721605D01*
X135319237Y-51523704D01*
X135414837Y-51259442D01*
X134460000Y-50304605D01*
X133505163Y-51259442D01*
X122870385Y-51259442D01*
X122280249Y-51015000D01*
X121639751Y-51015000D01*
X121048008Y-51260108D01*
X120752347Y-51555769D01*
X120265000Y-51068422D01*
X120265000Y-49866429D01*
X132838951Y-49866429D01*
X132863395Y-50506461D01*
X133061296Y-50984237D01*
X133325558Y-51079837D01*
X134280395Y-50125000D01*
X134639605Y-50125000D01*
X135594442Y-51079837D01*
X135858704Y-50984237D01*
X136081049Y-50383571D01*
X136056605Y-49743539D01*
X135858704Y-49265763D01*
X135594442Y-49170163D01*
X134639605Y-50125000D01*
X134280395Y-50125000D01*
X133325558Y-49170163D01*
X133061296Y-49265763D01*
X132838951Y-49866429D01*
X120265000Y-49866429D01*
X120265000Y-48347164D01*
X120282338Y-48260000D01*
X120265000Y-48172835D01*
X120265000Y-47304751D01*
X122850000Y-47304751D01*
X122850000Y-47945249D01*
X123095108Y-48536992D01*
X123548008Y-48989892D01*
X124139751Y-49235000D01*
X124780249Y-49235000D01*
X125370384Y-48990558D01*
X133505163Y-48990558D01*
X134460000Y-49945395D01*
X135414837Y-48990558D01*
X135319237Y-48726296D01*
X134718571Y-48503951D01*
X134078539Y-48528395D01*
X133600763Y-48726296D01*
X133505163Y-48990558D01*
X125370384Y-48990558D01*
X125371992Y-48989892D01*
X125824892Y-48536992D01*
X126070000Y-47945249D01*
X126070000Y-47304751D01*
X125824892Y-46713008D01*
X125371992Y-46260108D01*
X125370385Y-46259442D01*
X133505163Y-46259442D01*
X133600763Y-46523704D01*
X134201429Y-46746049D01*
X134841461Y-46721605D01*
X135319237Y-46523704D01*
X135414837Y-46259442D01*
X134460000Y-45304605D01*
X133505163Y-46259442D01*
X125370385Y-46259442D01*
X124780249Y-46015000D01*
X124139751Y-46015000D01*
X123548008Y-46260108D01*
X123095108Y-46713008D01*
X122850000Y-47304751D01*
X120265000Y-47304751D01*
X120265000Y-44866429D01*
X132838951Y-44866429D01*
X132863395Y-45506461D01*
X133061296Y-45984237D01*
X133325558Y-46079837D01*
X134280395Y-45125000D01*
X134639605Y-45125000D01*
X135594442Y-46079837D01*
X135858704Y-45984237D01*
X136081049Y-45383571D01*
X136056605Y-44743539D01*
X135858704Y-44265763D01*
X135594442Y-44170163D01*
X134639605Y-45125000D01*
X134280395Y-45125000D01*
X133325558Y-44170163D01*
X133061296Y-44265763D01*
X132838951Y-44866429D01*
X120265000Y-44866429D01*
X120265000Y-42304751D01*
X120350000Y-42304751D01*
X120350000Y-42945249D01*
X120595108Y-43536992D01*
X121048008Y-43989892D01*
X121639751Y-44235000D01*
X122280249Y-44235000D01*
X122870384Y-43990558D01*
X133505163Y-43990558D01*
X134460000Y-44945395D01*
X135414837Y-43990558D01*
X135319237Y-43726296D01*
X134718571Y-43503951D01*
X134078539Y-43528395D01*
X133600763Y-43726296D01*
X133505163Y-43990558D01*
X122870384Y-43990558D01*
X122871992Y-43989892D01*
X123324892Y-43536992D01*
X123570000Y-42945249D01*
X123570000Y-42304751D01*
X123324892Y-41713008D01*
X122871992Y-41260108D01*
X122870385Y-41259442D01*
X123505163Y-41259442D01*
X123600763Y-41523704D01*
X124201429Y-41746049D01*
X124841461Y-41721605D01*
X125319237Y-41523704D01*
X125414837Y-41259442D01*
X124460000Y-40304605D01*
X123505163Y-41259442D01*
X122870385Y-41259442D01*
X122280249Y-41015000D01*
X121639751Y-41015000D01*
X121048008Y-41260108D01*
X120595108Y-41713008D01*
X120350000Y-42304751D01*
X120265000Y-42304751D01*
X120265000Y-40092161D01*
X120282337Y-40005000D01*
X120265000Y-39917839D01*
X120265000Y-39917835D01*
X120254775Y-39866429D01*
X122838951Y-39866429D01*
X122863395Y-40506461D01*
X123061296Y-40984237D01*
X123325558Y-41079837D01*
X124280395Y-40125000D01*
X124639605Y-40125000D01*
X125594442Y-41079837D01*
X125858704Y-40984237D01*
X126081049Y-40383571D01*
X126057234Y-39759996D01*
X127625000Y-39759996D01*
X127625000Y-40490004D01*
X127904362Y-41164444D01*
X128420556Y-41680638D01*
X129094996Y-41960000D01*
X129825004Y-41960000D01*
X130499444Y-41680638D01*
X131015638Y-41164444D01*
X131295000Y-40490004D01*
X131295000Y-39759996D01*
X131015638Y-39085556D01*
X130499444Y-38569362D01*
X129825004Y-38290000D01*
X129094996Y-38290000D01*
X128420556Y-38569362D01*
X127904362Y-39085556D01*
X127625000Y-39759996D01*
X126057234Y-39759996D01*
X126056605Y-39743539D01*
X125858704Y-39265763D01*
X125594442Y-39170163D01*
X124639605Y-40125000D01*
X124280395Y-40125000D01*
X123325558Y-39170163D01*
X123061296Y-39265763D01*
X122838951Y-39866429D01*
X120254775Y-39866429D01*
X120213652Y-39659690D01*
X120018049Y-39366951D01*
X119944156Y-39317577D01*
X119617137Y-38990558D01*
X123505163Y-38990558D01*
X124460000Y-39945395D01*
X125414837Y-38990558D01*
X125319237Y-38726296D01*
X124718571Y-38503951D01*
X124078539Y-38528395D01*
X123600763Y-38726296D01*
X123505163Y-38990558D01*
X119617137Y-38990558D01*
X114987425Y-34360847D01*
X114938049Y-34286951D01*
X114645310Y-34091348D01*
X114387165Y-34040000D01*
X114387161Y-34040000D01*
X114300000Y-34022663D01*
X114212839Y-34040000D01*
X97405000Y-34040000D01*
X97405000Y-26757161D01*
X97422337Y-26670000D01*
X97405000Y-26582839D01*
X97405000Y-26582835D01*
X97353652Y-26324690D01*
X97207424Y-26105845D01*
X97207423Y-26105844D01*
X97158049Y-26031951D01*
X97084156Y-25982577D01*
X95302425Y-24200847D01*
X95253049Y-24126951D01*
X94960310Y-23931348D01*
X94702165Y-23880000D01*
X94702161Y-23880000D01*
X94615000Y-23862663D01*
X94527839Y-23880000D01*
X94435657Y-23880000D01*
X94136337Y-23580680D01*
X93622881Y-23368000D01*
X93067119Y-23368000D01*
X92553663Y-23580680D01*
X92160680Y-23973663D01*
X91948000Y-24487119D01*
X91948000Y-25042881D01*
X92160680Y-25556337D01*
X92553663Y-25949320D01*
X92744647Y-26028428D01*
X92613857Y-26082603D01*
X92544392Y-26324787D01*
X93345000Y-27125395D01*
X94145608Y-26324787D01*
X94076143Y-26082603D01*
X93935607Y-26032465D01*
X94136337Y-25949320D01*
X94342039Y-25743618D01*
X95635001Y-27036580D01*
X95635000Y-34558421D01*
X93415845Y-36777577D01*
X93341952Y-36826951D01*
X93292578Y-36900844D01*
X93292576Y-36900846D01*
X93146348Y-37119691D01*
X93077663Y-37465000D01*
X93095001Y-37552165D01*
X93095000Y-41820000D01*
X92776072Y-41820000D01*
X92764892Y-41793008D01*
X92311992Y-41340108D01*
X91720249Y-41095000D01*
X91079751Y-41095000D01*
X90488008Y-41340108D01*
X90035108Y-41793008D01*
X89790000Y-42384751D01*
X89790000Y-43025249D01*
X90035108Y-43616992D01*
X90488008Y-44069892D01*
X91079751Y-44315000D01*
X91720249Y-44315000D01*
X92311992Y-44069892D01*
X92764892Y-43616992D01*
X92776072Y-43590000D01*
X93095001Y-43590000D01*
X93095000Y-48172835D01*
X93077662Y-48260000D01*
X93095001Y-48347169D01*
X93095000Y-52617835D01*
X93095000Y-53252839D01*
X93077663Y-53340000D01*
X93095000Y-53427161D01*
X93095000Y-53427164D01*
X93095001Y-53427169D01*
X93095000Y-62777839D01*
X93077663Y-62865000D01*
X93095000Y-62952161D01*
X93095000Y-62952164D01*
X93095001Y-62952169D01*
X93095000Y-65492164D01*
X93095001Y-65492169D01*
X93095000Y-67857835D01*
X93095000Y-67857836D01*
X93095001Y-69762831D01*
X93077662Y-69850000D01*
X93095000Y-69937165D01*
X93095001Y-72220000D01*
X92776072Y-72220000D01*
X92764892Y-72193008D01*
X92311992Y-71740108D01*
X91720249Y-71495000D01*
X91079751Y-71495000D01*
X90488008Y-71740108D01*
X90035108Y-72193008D01*
X89790000Y-72784751D01*
X89790000Y-73425249D01*
X90035108Y-74016992D01*
X90488008Y-74469892D01*
X91079751Y-74715000D01*
X91720249Y-74715000D01*
X92311992Y-74469892D01*
X92764892Y-74016992D01*
X92776072Y-73990000D01*
X93095000Y-73990000D01*
X93095001Y-75477831D01*
X93095000Y-75477836D01*
X93095000Y-75477839D01*
X93077663Y-75565000D01*
X93095000Y-75652161D01*
X93095001Y-83732831D01*
X93077662Y-83820000D01*
X93095000Y-83907164D01*
X93095001Y-85256831D01*
X93095000Y-85256836D01*
X93095000Y-85812165D01*
X93095001Y-85812170D01*
X93095000Y-90565421D01*
X81223845Y-102436577D01*
X81149952Y-102485951D01*
X81100578Y-102559844D01*
X81100576Y-102559846D01*
X80954348Y-102778691D01*
X80885663Y-103124000D01*
X76910000Y-103124000D01*
X76910000Y-95739220D01*
X77809324Y-96638544D01*
X79237225Y-97230000D01*
X80782775Y-97230000D01*
X82210676Y-96638544D01*
X83303544Y-95545676D01*
X83895000Y-94117775D01*
X83895000Y-92572225D01*
X83303544Y-91144324D01*
X82210676Y-90051456D01*
X80782775Y-89460000D01*
X79237225Y-89460000D01*
X77809324Y-90051456D01*
X76910000Y-90950780D01*
X76910000Y-85239996D01*
X82065000Y-85239996D01*
X82065000Y-85970004D01*
X82344362Y-86644444D01*
X82860556Y-87160638D01*
X83534996Y-87440000D01*
X84265004Y-87440000D01*
X84939444Y-87160638D01*
X85360640Y-86739442D01*
X87945163Y-86739442D01*
X88040763Y-87003704D01*
X88641429Y-87226049D01*
X89281461Y-87201605D01*
X89759237Y-87003704D01*
X89854837Y-86739442D01*
X88900000Y-85784605D01*
X87945163Y-86739442D01*
X85360640Y-86739442D01*
X85455638Y-86644444D01*
X85735000Y-85970004D01*
X85735000Y-85346429D01*
X87278951Y-85346429D01*
X87303395Y-85986461D01*
X87501296Y-86464237D01*
X87765558Y-86559837D01*
X88720395Y-85605000D01*
X89079605Y-85605000D01*
X90034442Y-86559837D01*
X90298704Y-86464237D01*
X90521049Y-85863571D01*
X90496605Y-85223539D01*
X90298704Y-84745763D01*
X90034442Y-84650163D01*
X89079605Y-85605000D01*
X88720395Y-85605000D01*
X87765558Y-84650163D01*
X87501296Y-84745763D01*
X87278951Y-85346429D01*
X85735000Y-85346429D01*
X85735000Y-85239996D01*
X85455638Y-84565556D01*
X85360640Y-84470558D01*
X87945163Y-84470558D01*
X88900000Y-85425395D01*
X89854837Y-84470558D01*
X89759237Y-84206296D01*
X89158571Y-83983951D01*
X88518539Y-84008395D01*
X88040763Y-84206296D01*
X87945163Y-84470558D01*
X85360640Y-84470558D01*
X84939444Y-84049362D01*
X84265004Y-83770000D01*
X83534996Y-83770000D01*
X82860556Y-84049362D01*
X82344362Y-84565556D01*
X82065000Y-85239996D01*
X76910000Y-85239996D01*
X76910000Y-82784751D01*
X89790000Y-82784751D01*
X89790000Y-83425249D01*
X90035108Y-84016992D01*
X90488008Y-84469892D01*
X91079751Y-84715000D01*
X91720249Y-84715000D01*
X92311992Y-84469892D01*
X92764892Y-84016992D01*
X93010000Y-83425249D01*
X93010000Y-82784751D01*
X92764892Y-82193008D01*
X92311992Y-81740108D01*
X91720249Y-81495000D01*
X91079751Y-81495000D01*
X90488008Y-81740108D01*
X90035108Y-82193008D01*
X89790000Y-82784751D01*
X76910000Y-82784751D01*
X76910000Y-81739442D01*
X77945163Y-81739442D01*
X78040763Y-82003704D01*
X78641429Y-82226049D01*
X79281461Y-82201605D01*
X79759237Y-82003704D01*
X79854837Y-81739442D01*
X78900000Y-80784605D01*
X77945163Y-81739442D01*
X76910000Y-81739442D01*
X76910000Y-80346429D01*
X77278951Y-80346429D01*
X77303395Y-80986461D01*
X77501296Y-81464237D01*
X77765558Y-81559837D01*
X78720395Y-80605000D01*
X79079605Y-80605000D01*
X80034442Y-81559837D01*
X80298704Y-81464237D01*
X80521049Y-80863571D01*
X80496605Y-80223539D01*
X80298704Y-79745763D01*
X80034442Y-79650163D01*
X79079605Y-80605000D01*
X78720395Y-80605000D01*
X77765558Y-79650163D01*
X77501296Y-79745763D01*
X77278951Y-80346429D01*
X76910000Y-80346429D01*
X76910000Y-79470558D01*
X77945163Y-79470558D01*
X78900000Y-80425395D01*
X79854837Y-79470558D01*
X79759237Y-79206296D01*
X79158571Y-78983951D01*
X78518539Y-79008395D01*
X78040763Y-79206296D01*
X77945163Y-79470558D01*
X76910000Y-79470558D01*
X76910000Y-77784751D01*
X87290000Y-77784751D01*
X87290000Y-78425249D01*
X87535108Y-79016992D01*
X87988008Y-79469892D01*
X88579751Y-79715000D01*
X89220249Y-79715000D01*
X89811992Y-79469892D01*
X90264892Y-79016992D01*
X90510000Y-78425249D01*
X90510000Y-77784751D01*
X90264892Y-77193008D01*
X89811992Y-76740108D01*
X89220249Y-76495000D01*
X88579751Y-76495000D01*
X87988008Y-76740108D01*
X87535108Y-77193008D01*
X87290000Y-77784751D01*
X76910000Y-77784751D01*
X76910000Y-76739442D01*
X77945163Y-76739442D01*
X78040763Y-77003704D01*
X78641429Y-77226049D01*
X79281461Y-77201605D01*
X79759237Y-77003704D01*
X79854837Y-76739442D01*
X78900000Y-75784605D01*
X77945163Y-76739442D01*
X76910000Y-76739442D01*
X76910000Y-75346429D01*
X77278951Y-75346429D01*
X77303395Y-75986461D01*
X77501296Y-76464237D01*
X77765558Y-76559837D01*
X78720395Y-75605000D01*
X79079605Y-75605000D01*
X80034442Y-76559837D01*
X80298704Y-76464237D01*
X80521049Y-75863571D01*
X80496605Y-75223539D01*
X80298704Y-74745763D01*
X80034442Y-74650163D01*
X79079605Y-75605000D01*
X78720395Y-75605000D01*
X77765558Y-74650163D01*
X77501296Y-74745763D01*
X77278951Y-75346429D01*
X76910000Y-75346429D01*
X76910000Y-74470558D01*
X77945163Y-74470558D01*
X78900000Y-75425395D01*
X79854837Y-74470558D01*
X79759237Y-74206296D01*
X79158571Y-73983951D01*
X78518539Y-74008395D01*
X78040763Y-74206296D01*
X77945163Y-74470558D01*
X76910000Y-74470558D01*
X76910000Y-70239996D01*
X82065000Y-70239996D01*
X82065000Y-70970004D01*
X82344362Y-71644444D01*
X82860556Y-72160638D01*
X83534996Y-72440000D01*
X84265004Y-72440000D01*
X84939444Y-72160638D01*
X85455638Y-71644444D01*
X85735000Y-70970004D01*
X85735000Y-70284751D01*
X87290000Y-70284751D01*
X87290000Y-70925249D01*
X87535108Y-71516992D01*
X87988008Y-71969892D01*
X88579751Y-72215000D01*
X89220249Y-72215000D01*
X89811992Y-71969892D01*
X90264892Y-71516992D01*
X90510000Y-70925249D01*
X90510000Y-70284751D01*
X90264892Y-69693008D01*
X89811992Y-69240108D01*
X89220249Y-68995000D01*
X88579751Y-68995000D01*
X87988008Y-69240108D01*
X87535108Y-69693008D01*
X87290000Y-70284751D01*
X85735000Y-70284751D01*
X85735000Y-70239996D01*
X85455638Y-69565556D01*
X84939444Y-69049362D01*
X84265004Y-68770000D01*
X83534996Y-68770000D01*
X82860556Y-69049362D01*
X82344362Y-69565556D01*
X82065000Y-70239996D01*
X76910000Y-70239996D01*
X76910000Y-65259220D01*
X77809324Y-66158544D01*
X79237225Y-66750000D01*
X80782775Y-66750000D01*
X82210676Y-66158544D01*
X83303544Y-65065676D01*
X83895000Y-63637775D01*
X83895000Y-62092225D01*
X83303544Y-60664324D01*
X82210676Y-59571456D01*
X80782775Y-58980000D01*
X79237225Y-58980000D01*
X77809324Y-59571456D01*
X76910000Y-60470780D01*
X76910000Y-54839996D01*
X82065000Y-54839996D01*
X82065000Y-55570004D01*
X82344362Y-56244444D01*
X82860556Y-56760638D01*
X83534996Y-57040000D01*
X84265004Y-57040000D01*
X84939444Y-56760638D01*
X85360640Y-56339442D01*
X87945163Y-56339442D01*
X88040763Y-56603704D01*
X88641429Y-56826049D01*
X89281461Y-56801605D01*
X89759237Y-56603704D01*
X89854837Y-56339442D01*
X88900000Y-55384605D01*
X87945163Y-56339442D01*
X85360640Y-56339442D01*
X85455638Y-56244444D01*
X85735000Y-55570004D01*
X85735000Y-54946429D01*
X87278951Y-54946429D01*
X87303395Y-55586461D01*
X87501296Y-56064237D01*
X87765558Y-56159837D01*
X88720395Y-55205000D01*
X89079605Y-55205000D01*
X90034442Y-56159837D01*
X90298704Y-56064237D01*
X90521049Y-55463571D01*
X90496605Y-54823539D01*
X90298704Y-54345763D01*
X90034442Y-54250163D01*
X89079605Y-55205000D01*
X88720395Y-55205000D01*
X87765558Y-54250163D01*
X87501296Y-54345763D01*
X87278951Y-54946429D01*
X85735000Y-54946429D01*
X85735000Y-54839996D01*
X85455638Y-54165556D01*
X85360640Y-54070558D01*
X87945163Y-54070558D01*
X88900000Y-55025395D01*
X89854837Y-54070558D01*
X89759237Y-53806296D01*
X89158571Y-53583951D01*
X88518539Y-53608395D01*
X88040763Y-53806296D01*
X87945163Y-54070558D01*
X85360640Y-54070558D01*
X84939444Y-53649362D01*
X84265004Y-53370000D01*
X83534996Y-53370000D01*
X82860556Y-53649362D01*
X82344362Y-54165556D01*
X82065000Y-54839996D01*
X76910000Y-54839996D01*
X76910000Y-52384751D01*
X89790000Y-52384751D01*
X89790000Y-53025249D01*
X90035108Y-53616992D01*
X90488008Y-54069892D01*
X91079751Y-54315000D01*
X91720249Y-54315000D01*
X92311992Y-54069892D01*
X92764892Y-53616992D01*
X93010000Y-53025249D01*
X93010000Y-52384751D01*
X92764892Y-51793008D01*
X92311992Y-51340108D01*
X91720249Y-51095000D01*
X91079751Y-51095000D01*
X90488008Y-51340108D01*
X90035108Y-51793008D01*
X89790000Y-52384751D01*
X76910000Y-52384751D01*
X76910000Y-51339442D01*
X77945163Y-51339442D01*
X78040763Y-51603704D01*
X78641429Y-51826049D01*
X79281461Y-51801605D01*
X79759237Y-51603704D01*
X79854837Y-51339442D01*
X78900000Y-50384605D01*
X77945163Y-51339442D01*
X76910000Y-51339442D01*
X76910000Y-49946429D01*
X77278951Y-49946429D01*
X77303395Y-50586461D01*
X77501296Y-51064237D01*
X77765558Y-51159837D01*
X78720395Y-50205000D01*
X79079605Y-50205000D01*
X80034442Y-51159837D01*
X80298704Y-51064237D01*
X80521049Y-50463571D01*
X80496605Y-49823539D01*
X80298704Y-49345763D01*
X80034442Y-49250163D01*
X79079605Y-50205000D01*
X78720395Y-50205000D01*
X77765558Y-49250163D01*
X77501296Y-49345763D01*
X77278951Y-49946429D01*
X76910000Y-49946429D01*
X76910000Y-49070558D01*
X77945163Y-49070558D01*
X78900000Y-50025395D01*
X79854837Y-49070558D01*
X79759237Y-48806296D01*
X79158571Y-48583951D01*
X78518539Y-48608395D01*
X78040763Y-48806296D01*
X77945163Y-49070558D01*
X76910000Y-49070558D01*
X76910000Y-47384751D01*
X87290000Y-47384751D01*
X87290000Y-48025249D01*
X87535108Y-48616992D01*
X87988008Y-49069892D01*
X88579751Y-49315000D01*
X89220249Y-49315000D01*
X89811992Y-49069892D01*
X90264892Y-48616992D01*
X90510000Y-48025249D01*
X90510000Y-47384751D01*
X90264892Y-46793008D01*
X89811992Y-46340108D01*
X89220249Y-46095000D01*
X88579751Y-46095000D01*
X87988008Y-46340108D01*
X87535108Y-46793008D01*
X87290000Y-47384751D01*
X76910000Y-47384751D01*
X76910000Y-46339442D01*
X77945163Y-46339442D01*
X78040763Y-46603704D01*
X78641429Y-46826049D01*
X79281461Y-46801605D01*
X79759237Y-46603704D01*
X79854837Y-46339442D01*
X78900000Y-45384605D01*
X77945163Y-46339442D01*
X76910000Y-46339442D01*
X76910000Y-44946429D01*
X77278951Y-44946429D01*
X77303395Y-45586461D01*
X77501296Y-46064237D01*
X77765558Y-46159837D01*
X78720395Y-45205000D01*
X79079605Y-45205000D01*
X80034442Y-46159837D01*
X80298704Y-46064237D01*
X80521049Y-45463571D01*
X80496605Y-44823539D01*
X80298704Y-44345763D01*
X80034442Y-44250163D01*
X79079605Y-45205000D01*
X78720395Y-45205000D01*
X77765558Y-44250163D01*
X77501296Y-44345763D01*
X77278951Y-44946429D01*
X76910000Y-44946429D01*
X76910000Y-44070558D01*
X77945163Y-44070558D01*
X78900000Y-45025395D01*
X79854837Y-44070558D01*
X79759237Y-43806296D01*
X79158571Y-43583951D01*
X78518539Y-43608395D01*
X78040763Y-43806296D01*
X77945163Y-44070558D01*
X76910000Y-44070558D01*
X76910000Y-39839996D01*
X82065000Y-39839996D01*
X82065000Y-40570004D01*
X82344362Y-41244444D01*
X82860556Y-41760638D01*
X83534996Y-42040000D01*
X84265004Y-42040000D01*
X84939444Y-41760638D01*
X85455638Y-41244444D01*
X85735000Y-40570004D01*
X85735000Y-39884751D01*
X87290000Y-39884751D01*
X87290000Y-40525249D01*
X87535108Y-41116992D01*
X87988008Y-41569892D01*
X88579751Y-41815000D01*
X89220249Y-41815000D01*
X89811992Y-41569892D01*
X90264892Y-41116992D01*
X90510000Y-40525249D01*
X90510000Y-39884751D01*
X90264892Y-39293008D01*
X89811992Y-38840108D01*
X89220249Y-38595000D01*
X88579751Y-38595000D01*
X87988008Y-38840108D01*
X87535108Y-39293008D01*
X87290000Y-39884751D01*
X85735000Y-39884751D01*
X85735000Y-39839996D01*
X85455638Y-39165556D01*
X84939444Y-38649362D01*
X84265004Y-38370000D01*
X83534996Y-38370000D01*
X82860556Y-38649362D01*
X82344362Y-39165556D01*
X82065000Y-39839996D01*
X76910000Y-39839996D01*
X76910000Y-33509220D01*
X77809324Y-34408544D01*
X79237225Y-35000000D01*
X80782775Y-35000000D01*
X82210676Y-34408544D01*
X83303544Y-33315676D01*
X83895000Y-31887775D01*
X83895000Y-30342225D01*
X83303544Y-28914324D01*
X82210676Y-27821456D01*
X80782775Y-27230000D01*
X79237225Y-27230000D01*
X77809324Y-27821456D01*
X76910000Y-28720780D01*
X76910000Y-20725000D01*
X80402560Y-20725000D01*
X80402560Y-23725000D01*
X80451843Y-23972765D01*
X80592191Y-24182809D01*
X80802235Y-24323157D01*
X81050000Y-24372440D01*
X82385202Y-24372440D01*
X88900014Y-30887253D01*
X88991231Y-31023769D01*
X89532055Y-31385136D01*
X90008969Y-31480000D01*
X90008973Y-31480000D01*
X90169999Y-31512030D01*
X90331025Y-31480000D01*
X92274343Y-31480000D01*
X92160680Y-31593663D01*
X91948000Y-32107119D01*
X91948000Y-32662881D01*
X92160680Y-33176337D01*
X92553663Y-33569320D01*
X93067119Y-33782000D01*
X93622881Y-33782000D01*
X94136337Y-33569320D01*
X94529320Y-33176337D01*
X94742000Y-32662881D01*
X94742000Y-32107119D01*
X94529320Y-31593663D01*
X94185470Y-31249813D01*
X94523769Y-31023769D01*
X94885136Y-30482945D01*
X95012031Y-29845000D01*
X94885136Y-29207055D01*
X94523769Y-28666231D01*
X94114717Y-28392911D01*
X94145608Y-28285213D01*
X93345000Y-27484605D01*
X93330858Y-27498748D01*
X93151253Y-27319143D01*
X93165395Y-27305000D01*
X93524605Y-27305000D01*
X94325213Y-28105608D01*
X94567397Y-28036143D01*
X94754144Y-27512698D01*
X94726362Y-26957632D01*
X94567397Y-26573857D01*
X94325213Y-26504392D01*
X93524605Y-27305000D01*
X93165395Y-27305000D01*
X92364787Y-26504392D01*
X92122603Y-26573857D01*
X91935856Y-27097302D01*
X91963638Y-27652368D01*
X92122603Y-28036143D01*
X92364785Y-28105607D01*
X92260392Y-28210000D01*
X90847239Y-28210000D01*
X86849432Y-24212194D01*
X87246187Y-24367723D01*
X88095387Y-24351497D01*
X88804582Y-24057739D01*
X88964365Y-23738970D01*
X87630000Y-22404605D01*
X87615858Y-22418748D01*
X87436253Y-22239143D01*
X87450395Y-22225000D01*
X87809605Y-22225000D01*
X89143970Y-23559365D01*
X89462739Y-23399582D01*
X89772723Y-22608813D01*
X89756497Y-21759613D01*
X89462739Y-21050418D01*
X89143970Y-20890635D01*
X87809605Y-22225000D01*
X87450395Y-22225000D01*
X86116030Y-20890635D01*
X85797261Y-21050418D01*
X85487277Y-21841187D01*
X85503503Y-22690387D01*
X85627867Y-22990629D01*
X84697440Y-22060202D01*
X84697440Y-20725000D01*
X84694662Y-20711030D01*
X86295635Y-20711030D01*
X87630000Y-22045395D01*
X88964365Y-20711030D01*
X88804582Y-20392261D01*
X88013813Y-20082277D01*
X87164613Y-20098503D01*
X86455418Y-20392261D01*
X86295635Y-20711030D01*
X84694662Y-20711030D01*
X84648157Y-20477235D01*
X84507809Y-20267191D01*
X84297765Y-20126843D01*
X84050000Y-20077560D01*
X81050000Y-20077560D01*
X80802235Y-20126843D01*
X80592191Y-20267191D01*
X80451843Y-20477235D01*
X80402560Y-20725000D01*
X76910000Y-20725000D01*
X76910000Y-18490000D01*
X130955780Y-18490000D01*
X130056456Y-19389324D01*
X130056456Y-19389324D01*
G37*
X130056456Y-19389324D02*
X129465000Y-20817225D01*
X129465000Y-22362775D01*
X130056456Y-23790676D01*
X131149324Y-24883544D01*
X132577225Y-25475000D01*
X134122775Y-25475000D01*
X135550676Y-24883544D01*
X136450001Y-23984219D01*
X136450001Y-60470781D01*
X135550676Y-59571456D01*
X134122775Y-58980000D01*
X132577225Y-58980000D01*
X131149324Y-59571456D01*
X130056456Y-60664324D01*
X129465000Y-62092225D01*
X129465000Y-63637775D01*
X130056456Y-65065676D01*
X131149324Y-66158544D01*
X132577225Y-66750000D01*
X134122775Y-66750000D01*
X135550676Y-66158544D01*
X136450001Y-65259219D01*
X136450000Y-90950780D01*
X135550676Y-90051456D01*
X134122775Y-89460000D01*
X132577225Y-89460000D01*
X131149324Y-90051456D01*
X130056456Y-91144324D01*
X129465000Y-92572225D01*
X129465000Y-94117775D01*
X130056456Y-95545676D01*
X131149324Y-96638544D01*
X132577225Y-97230000D01*
X134122775Y-97230000D01*
X135550676Y-96638544D01*
X136450000Y-95739220D01*
X136450000Y-150640780D01*
X135550676Y-149741456D01*
X134122775Y-149150000D01*
X132577225Y-149150000D01*
X131149324Y-149741456D01*
X130056456Y-150834324D01*
X129465000Y-152262225D01*
X129465000Y-153807775D01*
X130056456Y-155235676D01*
X131082780Y-156262000D01*
X76910000Y-156262000D01*
X76910000Y-103124000D01*
X80885663Y-103124000D01*
X80903001Y-103211166D01*
X80903000Y-151296839D01*
X80885663Y-151384000D01*
X80903000Y-151471161D01*
X80903000Y-151471164D01*
X80954348Y-151729309D01*
X81149951Y-152022049D01*
X81223847Y-152071425D01*
X82116577Y-152964156D01*
X82165951Y-153038049D01*
X82239844Y-153087423D01*
X82239845Y-153087424D01*
X82395361Y-153191337D01*
X82458690Y-153233652D01*
X82716835Y-153285000D01*
X82716839Y-153285000D01*
X82804000Y-153302337D01*
X82891161Y-153285000D01*
X84634343Y-153285000D01*
X84933663Y-153584320D01*
X85447119Y-153797000D01*
X86002881Y-153797000D01*
X86516337Y-153584320D01*
X86909320Y-153191337D01*
X87122000Y-152677881D01*
X87122000Y-152122119D01*
X86909320Y-151608663D01*
X86516337Y-151215680D01*
X86309487Y-151130000D01*
X86516337Y-151044320D01*
X86909320Y-150651337D01*
X87122000Y-150137881D01*
X87122000Y-149582119D01*
X86909320Y-149068663D01*
X86516337Y-148675680D01*
X86309487Y-148590000D01*
X86516337Y-148504320D01*
X86909320Y-148111337D01*
X87122000Y-147597881D01*
X87122000Y-147042119D01*
X86909320Y-146528663D01*
X86516337Y-146135680D01*
X86309487Y-146050000D01*
X86516337Y-145964320D01*
X86909320Y-145571337D01*
X87122000Y-145057881D01*
X87122000Y-144502119D01*
X86909320Y-143988663D01*
X86516337Y-143595680D01*
X86309487Y-143510000D01*
X86516337Y-143424320D01*
X86909320Y-143031337D01*
X87122000Y-142517881D01*
X87122000Y-141962119D01*
X86909320Y-141448663D01*
X86516337Y-141055680D01*
X86309487Y-140970000D01*
X86516337Y-140884320D01*
X86909320Y-140491337D01*
X87122000Y-139977881D01*
X87122000Y-139422119D01*
X86909320Y-138908663D01*
X86516337Y-138515680D01*
X86309487Y-138430000D01*
X86516337Y-138344320D01*
X86909320Y-137951337D01*
X87122000Y-137437881D01*
X87122000Y-136882119D01*
X86909320Y-136368663D01*
X86516337Y-135975680D01*
X86309487Y-135890000D01*
X86516337Y-135804320D01*
X86909320Y-135411337D01*
X87122000Y-134897881D01*
X87122000Y-134342119D01*
X86909320Y-133828663D01*
X86516337Y-133435680D01*
X86309487Y-133350000D01*
X86516337Y-133264320D01*
X86909320Y-132871337D01*
X87122000Y-132357881D01*
X87122000Y-131802119D01*
X86909320Y-131288663D01*
X86516337Y-130895680D01*
X86309487Y-130810000D01*
X86516337Y-130724320D01*
X86909320Y-130331337D01*
X87122000Y-129817881D01*
X87122000Y-129262119D01*
X86909320Y-128748663D01*
X86516337Y-128355680D01*
X86309487Y-128270000D01*
X86516337Y-128184320D01*
X86909320Y-127791337D01*
X87122000Y-127277881D01*
X87122000Y-126722119D01*
X86909320Y-126208663D01*
X86516337Y-125815680D01*
X86309487Y-125730000D01*
X86516337Y-125644320D01*
X86909320Y-125251337D01*
X87122000Y-124737881D01*
X87122000Y-124182119D01*
X109728000Y-124182119D01*
X109728000Y-124737881D01*
X109940680Y-125251337D01*
X110333663Y-125644320D01*
X110540513Y-125730000D01*
X110333663Y-125815680D01*
X109940680Y-126208663D01*
X109728000Y-126722119D01*
X109728000Y-127277881D01*
X109940680Y-127791337D01*
X110333663Y-128184320D01*
X110540513Y-128270000D01*
X110333663Y-128355680D01*
X109940680Y-128748663D01*
X109728000Y-129262119D01*
X109728000Y-129817881D01*
X109940680Y-130331337D01*
X110333663Y-130724320D01*
X110540513Y-130810000D01*
X110333663Y-130895680D01*
X109940680Y-131288663D01*
X109728000Y-131802119D01*
X109728000Y-132357881D01*
X109940680Y-132871337D01*
X110333663Y-133264320D01*
X110540513Y-133350000D01*
X110333663Y-133435680D01*
X109940680Y-133828663D01*
X109728000Y-134342119D01*
X109728000Y-134897881D01*
X109940680Y-135411337D01*
X110333663Y-135804320D01*
X110540513Y-135890000D01*
X110333663Y-135975680D01*
X109940680Y-136368663D01*
X109728000Y-136882119D01*
X109728000Y-137437881D01*
X109940680Y-137951337D01*
X110333663Y-138344320D01*
X110540513Y-138430000D01*
X110333663Y-138515680D01*
X109940680Y-138908663D01*
X109728000Y-139422119D01*
X109728000Y-139977881D01*
X109940680Y-140491337D01*
X110333663Y-140884320D01*
X110540513Y-140970000D01*
X110333663Y-141055680D01*
X109940680Y-141448663D01*
X109728000Y-141962119D01*
X109728000Y-142517881D01*
X109940680Y-143031337D01*
X110333663Y-143424320D01*
X110540513Y-143510000D01*
X110333663Y-143595680D01*
X109940680Y-143988663D01*
X109728000Y-144502119D01*
X109728000Y-145057881D01*
X109940680Y-145571337D01*
X110333663Y-145964320D01*
X110540513Y-146050000D01*
X110333663Y-146135680D01*
X109940680Y-146528663D01*
X109728000Y-147042119D01*
X109728000Y-147597881D01*
X109940680Y-148111337D01*
X110333663Y-148504320D01*
X110540513Y-148590000D01*
X110333663Y-148675680D01*
X109940680Y-149068663D01*
X109728000Y-149582119D01*
X109728000Y-150137881D01*
X109940680Y-150651337D01*
X110333663Y-151044320D01*
X110540513Y-151130000D01*
X110333663Y-151215680D01*
X109940680Y-151608663D01*
X109728000Y-152122119D01*
X109728000Y-152677881D01*
X109940680Y-153191337D01*
X110333663Y-153584320D01*
X110847119Y-153797000D01*
X111402881Y-153797000D01*
X111916337Y-153584320D01*
X112309320Y-153191337D01*
X112522000Y-152677881D01*
X112522000Y-152122119D01*
X112309320Y-151608663D01*
X111916337Y-151215680D01*
X111709487Y-151130000D01*
X111916337Y-151044320D01*
X112309320Y-150651337D01*
X112522000Y-150137881D01*
X112522000Y-149582119D01*
X112309320Y-149068663D01*
X111916337Y-148675680D01*
X111709487Y-148590000D01*
X111916337Y-148504320D01*
X112309320Y-148111337D01*
X112522000Y-147597881D01*
X112522000Y-147042119D01*
X112309320Y-146528663D01*
X111916337Y-146135680D01*
X111709487Y-146050000D01*
X111916337Y-145964320D01*
X112309320Y-145571337D01*
X112522000Y-145057881D01*
X112522000Y-144502119D01*
X112309320Y-143988663D01*
X111916337Y-143595680D01*
X111709487Y-143510000D01*
X111916337Y-143424320D01*
X112309320Y-143031337D01*
X112522000Y-142517881D01*
X112522000Y-141962119D01*
X112309320Y-141448663D01*
X111916337Y-141055680D01*
X111709487Y-140970000D01*
X111916337Y-140884320D01*
X112309320Y-140491337D01*
X112522000Y-139977881D01*
X112522000Y-139422119D01*
X112309320Y-138908663D01*
X111916337Y-138515680D01*
X111709487Y-138430000D01*
X111916337Y-138344320D01*
X112309320Y-137951337D01*
X112522000Y-137437881D01*
X112522000Y-136882119D01*
X112309320Y-136368663D01*
X111916337Y-135975680D01*
X111709487Y-135890000D01*
X111916337Y-135804320D01*
X112309320Y-135411337D01*
X112522000Y-134897881D01*
X112522000Y-134342119D01*
X114173000Y-134342119D01*
X114173000Y-134897881D01*
X114385680Y-135411337D01*
X114778663Y-135804320D01*
X114985513Y-135890000D01*
X114778663Y-135975680D01*
X114385680Y-136368663D01*
X114173000Y-136882119D01*
X114173000Y-137437881D01*
X114385680Y-137951337D01*
X114778663Y-138344320D01*
X114985513Y-138430000D01*
X114778663Y-138515680D01*
X114385680Y-138908663D01*
X114173000Y-139422119D01*
X114173000Y-139977881D01*
X114385680Y-140491337D01*
X114778663Y-140884320D01*
X114985513Y-140970000D01*
X114778663Y-141055680D01*
X114385680Y-141448663D01*
X114173000Y-141962119D01*
X114173000Y-142517881D01*
X114385680Y-143031337D01*
X114778663Y-143424320D01*
X114985513Y-143510000D01*
X114778663Y-143595680D01*
X114385680Y-143988663D01*
X114173000Y-144502119D01*
X114173000Y-145057881D01*
X114385680Y-145571337D01*
X114778663Y-145964320D01*
X114985513Y-146050000D01*
X114778663Y-146135680D01*
X114385680Y-146528663D01*
X114173000Y-147042119D01*
X114173000Y-147597881D01*
X114385680Y-148111337D01*
X114778663Y-148504320D01*
X115292119Y-148717000D01*
X115847881Y-148717000D01*
X116361337Y-148504320D01*
X116754320Y-148111337D01*
X116967000Y-147597881D01*
X116967000Y-147042119D01*
X116754320Y-146528663D01*
X116361337Y-146135680D01*
X116154487Y-146050000D01*
X116361337Y-145964320D01*
X116754320Y-145571337D01*
X116967000Y-145057881D01*
X116967000Y-144502119D01*
X116754320Y-143988663D01*
X116361337Y-143595680D01*
X116154487Y-143510000D01*
X116361337Y-143424320D01*
X116754320Y-143031337D01*
X116967000Y-142517881D01*
X116967000Y-141962119D01*
X116754320Y-141448663D01*
X116361337Y-141055680D01*
X116154487Y-140970000D01*
X116361337Y-140884320D01*
X116754320Y-140491337D01*
X116967000Y-139977881D01*
X116967000Y-139422119D01*
X116754320Y-138908663D01*
X116361337Y-138515680D01*
X116154487Y-138430000D01*
X116361337Y-138344320D01*
X116754320Y-137951337D01*
X116967000Y-137437881D01*
X116967000Y-136882119D01*
X116754320Y-136368663D01*
X116361337Y-135975680D01*
X116154487Y-135890000D01*
X116361337Y-135804320D01*
X116754320Y-135411337D01*
X116967000Y-134897881D01*
X116967000Y-134342119D01*
X116754320Y-133828663D01*
X116361337Y-133435680D01*
X116170353Y-133356572D01*
X116301143Y-133302397D01*
X116370608Y-133060213D01*
X115570000Y-132259605D01*
X114769392Y-133060213D01*
X114838857Y-133302397D01*
X114979393Y-133352535D01*
X114778663Y-133435680D01*
X114385680Y-133828663D01*
X114173000Y-134342119D01*
X112522000Y-134342119D01*
X112309320Y-133828663D01*
X111916337Y-133435680D01*
X111709487Y-133350000D01*
X111916337Y-133264320D01*
X112309320Y-132871337D01*
X112522000Y-132357881D01*
X112522000Y-131872302D01*
X114160856Y-131872302D01*
X114188638Y-132427368D01*
X114347603Y-132811143D01*
X114589787Y-132880608D01*
X115390395Y-132080000D01*
X115749605Y-132080000D01*
X116550213Y-132880608D01*
X116792397Y-132811143D01*
X116979144Y-132287698D01*
X116951362Y-131732632D01*
X116792397Y-131348857D01*
X116550213Y-131279392D01*
X115749605Y-132080000D01*
X115390395Y-132080000D01*
X114589787Y-131279392D01*
X114347603Y-131348857D01*
X114160856Y-131872302D01*
X112522000Y-131872302D01*
X112522000Y-131802119D01*
X112309320Y-131288663D01*
X111916337Y-130895680D01*
X111709487Y-130810000D01*
X111916337Y-130724320D01*
X112309320Y-130331337D01*
X112522000Y-129817881D01*
X112522000Y-129262119D01*
X112309320Y-128748663D01*
X111916337Y-128355680D01*
X111709487Y-128270000D01*
X111916337Y-128184320D01*
X112309320Y-127791337D01*
X112522000Y-127277881D01*
X112522000Y-126722119D01*
X112309320Y-126208663D01*
X111916337Y-125815680D01*
X111709487Y-125730000D01*
X111916337Y-125644320D01*
X112309320Y-125251337D01*
X112522000Y-124737881D01*
X112522000Y-124182119D01*
X112309320Y-123668663D01*
X111916337Y-123275680D01*
X111725353Y-123196572D01*
X111856143Y-123142397D01*
X111925608Y-122900213D01*
X111125000Y-122099605D01*
X110324392Y-122900213D01*
X110393857Y-123142397D01*
X110534393Y-123192535D01*
X110333663Y-123275680D01*
X109940680Y-123668663D01*
X109728000Y-124182119D01*
X87122000Y-124182119D01*
X86909320Y-123668663D01*
X86516337Y-123275680D01*
X86309487Y-123190000D01*
X86516337Y-123104320D01*
X86909320Y-122711337D01*
X87122000Y-122197881D01*
X87122000Y-121712302D01*
X109715856Y-121712302D01*
X109743638Y-122267368D01*
X109902603Y-122651143D01*
X110144787Y-122720608D01*
X110945395Y-121920000D01*
X111304605Y-121920000D01*
X112105213Y-122720608D01*
X112347397Y-122651143D01*
X112534144Y-122127698D01*
X112506362Y-121572632D01*
X112347397Y-121188857D01*
X112105213Y-121119392D01*
X111304605Y-121920000D01*
X110945395Y-121920000D01*
X110144787Y-121119392D01*
X109902603Y-121188857D01*
X109715856Y-121712302D01*
X87122000Y-121712302D01*
X87122000Y-121642119D01*
X86909320Y-121128663D01*
X86516337Y-120735680D01*
X86309487Y-120650000D01*
X86516337Y-120564320D01*
X86909320Y-120171337D01*
X87122000Y-119657881D01*
X87122000Y-119102119D01*
X86909320Y-118588663D01*
X86516337Y-118195680D01*
X86309487Y-118110000D01*
X86516337Y-118024320D01*
X86909320Y-117631337D01*
X87122000Y-117117881D01*
X87122000Y-116562119D01*
X86909320Y-116048663D01*
X86516337Y-115655680D01*
X86309487Y-115570000D01*
X86516337Y-115484320D01*
X86909320Y-115091337D01*
X87122000Y-114577881D01*
X87122000Y-114022119D01*
X86909320Y-113508663D01*
X86516337Y-113115680D01*
X86309487Y-113030000D01*
X86516337Y-112944320D01*
X86909320Y-112551337D01*
X87122000Y-112037881D01*
X87122000Y-111482119D01*
X86909320Y-110968663D01*
X86516337Y-110575680D01*
X86309487Y-110490000D01*
X86516337Y-110404320D01*
X86909320Y-110011337D01*
X87122000Y-109497881D01*
X87122000Y-108942119D01*
X109728000Y-108942119D01*
X109728000Y-109497881D01*
X109940680Y-110011337D01*
X110333663Y-110404320D01*
X110540513Y-110490000D01*
X110333663Y-110575680D01*
X109940680Y-110968663D01*
X109728000Y-111482119D01*
X109728000Y-112037881D01*
X109940680Y-112551337D01*
X110333663Y-112944320D01*
X110540513Y-113030000D01*
X110333663Y-113115680D01*
X109940680Y-113508663D01*
X109728000Y-114022119D01*
X109728000Y-114577881D01*
X109940680Y-115091337D01*
X110333663Y-115484320D01*
X110540513Y-115570000D01*
X110333663Y-115655680D01*
X109940680Y-116048663D01*
X109728000Y-116562119D01*
X109728000Y-117117881D01*
X109940680Y-117631337D01*
X110333663Y-118024320D01*
X110540513Y-118110000D01*
X110333663Y-118195680D01*
X109940680Y-118588663D01*
X109728000Y-119102119D01*
X109728000Y-119657881D01*
X109940680Y-120171337D01*
X110333663Y-120564320D01*
X110524647Y-120643428D01*
X110393857Y-120697603D01*
X110324392Y-120939787D01*
X111125000Y-121740395D01*
X111925608Y-120939787D01*
X111856143Y-120697603D01*
X111715607Y-120647465D01*
X111916337Y-120564320D01*
X112309320Y-120171337D01*
X112522000Y-119657881D01*
X112522000Y-119102119D01*
X112309320Y-118588663D01*
X111916337Y-118195680D01*
X111709487Y-118110000D01*
X111916337Y-118024320D01*
X112309320Y-117631337D01*
X112522000Y-117117881D01*
X112522000Y-116562119D01*
X112309320Y-116048663D01*
X111916337Y-115655680D01*
X111709487Y-115570000D01*
X111916337Y-115484320D01*
X112309320Y-115091337D01*
X112522000Y-114577881D01*
X112522000Y-114022119D01*
X112309320Y-113508663D01*
X111916337Y-113115680D01*
X111709487Y-113030000D01*
X111916337Y-112944320D01*
X112309320Y-112551337D01*
X112522000Y-112037881D01*
X112522000Y-111482119D01*
X112309320Y-110968663D01*
X111916337Y-110575680D01*
X111709487Y-110490000D01*
X111916337Y-110404320D01*
X112309320Y-110011337D01*
X112522000Y-109497881D01*
X112522000Y-108942119D01*
X112309320Y-108428663D01*
X111916337Y-108035680D01*
X111725353Y-107956572D01*
X111856143Y-107902397D01*
X111925608Y-107660213D01*
X111125000Y-106859605D01*
X110324392Y-107660213D01*
X110393857Y-107902397D01*
X110534393Y-107952535D01*
X110333663Y-108035680D01*
X109940680Y-108428663D01*
X109728000Y-108942119D01*
X87122000Y-108942119D01*
X86909320Y-108428663D01*
X86516337Y-108035680D01*
X86309487Y-107950000D01*
X86516337Y-107864320D01*
X86909320Y-107471337D01*
X87122000Y-106957881D01*
X87122000Y-106534578D01*
X87184276Y-106472302D01*
X109715856Y-106472302D01*
X109743638Y-107027368D01*
X109902603Y-107411143D01*
X110144787Y-107480608D01*
X110945395Y-106680000D01*
X111304605Y-106680000D01*
X112105213Y-107480608D01*
X112347397Y-107411143D01*
X112534144Y-106887698D01*
X112506362Y-106332632D01*
X112347397Y-105948857D01*
X112105213Y-105879392D01*
X111304605Y-106680000D01*
X110945395Y-106680000D01*
X110144787Y-105879392D01*
X109902603Y-105948857D01*
X109715856Y-106472302D01*
X87184276Y-106472302D01*
X87956791Y-105699787D01*
X110324392Y-105699787D01*
X111125000Y-106500395D01*
X111925608Y-105699787D01*
X111856143Y-105457603D01*
X111332698Y-105270856D01*
X110777632Y-105298638D01*
X110393857Y-105457603D01*
X110324392Y-105699787D01*
X87956791Y-105699787D01*
X99337424Y-94319155D01*
X99405310Y-94305652D01*
X99698049Y-94110049D01*
X99747425Y-94036153D01*
X103434156Y-90349423D01*
X103508049Y-90300049D01*
X103703652Y-90007310D01*
X103755000Y-89749165D01*
X103755000Y-89749161D01*
X103772337Y-89662000D01*
X103755000Y-89574839D01*
X103755000Y-84126694D01*
X103805000Y-84005983D01*
X103805000Y-83634017D01*
X103755000Y-83513306D01*
X103755000Y-69521694D01*
X103805000Y-69400983D01*
X103805000Y-69029017D01*
X103755000Y-68908306D01*
X103755000Y-63171694D01*
X103805000Y-63050983D01*
X103805000Y-62679017D01*
X103755000Y-62558306D01*
X103755000Y-48566694D01*
X103805000Y-48445983D01*
X103805000Y-48074017D01*
X103766210Y-47980369D01*
X103871579Y-47875000D01*
X108853422Y-47875000D01*
X108970000Y-47991579D01*
X108970001Y-62685304D01*
X108920000Y-62806017D01*
X108920000Y-63177983D01*
X108970000Y-63298694D01*
X108970001Y-69289304D01*
X108920000Y-69410017D01*
X108920000Y-69781983D01*
X108970000Y-69902694D01*
X108970001Y-79287831D01*
X108970000Y-79287836D01*
X108970001Y-83513304D01*
X108920000Y-83634017D01*
X108920000Y-84005983D01*
X108970000Y-84126695D01*
X108970001Y-85002835D01*
X108952663Y-85090000D01*
X109021348Y-85435309D01*
X109167576Y-85654154D01*
X109167578Y-85654156D01*
X109216952Y-85728049D01*
X109290845Y-85777423D01*
X115955000Y-92441579D01*
X115955001Y-123102830D01*
X115937662Y-123190000D01*
X115955000Y-123277165D01*
X115955001Y-127903420D01*
X115715421Y-128143000D01*
X115292119Y-128143000D01*
X114778663Y-128355680D01*
X114385680Y-128748663D01*
X114173000Y-129262119D01*
X114173000Y-129817881D01*
X114385680Y-130331337D01*
X114778663Y-130724320D01*
X114969647Y-130803428D01*
X114838857Y-130857603D01*
X114769392Y-131099787D01*
X115570000Y-131900395D01*
X116370608Y-131099787D01*
X116301143Y-130857603D01*
X116160607Y-130807465D01*
X116361337Y-130724320D01*
X116754320Y-130331337D01*
X116967000Y-129817881D01*
X116967000Y-129394579D01*
X117404156Y-128957423D01*
X117478049Y-128908049D01*
X117673652Y-128615310D01*
X117725000Y-128357165D01*
X117725000Y-128357161D01*
X117742337Y-128270001D01*
X117725000Y-128182841D01*
X117725000Y-126710213D01*
X120484392Y-126710213D01*
X120553857Y-126952397D01*
X121077302Y-127139144D01*
X121632368Y-127111362D01*
X122016143Y-126952397D01*
X122085608Y-126710213D01*
X121285000Y-125909605D01*
X120484392Y-126710213D01*
X117725000Y-126710213D01*
X117725000Y-125522302D01*
X119875856Y-125522302D01*
X119903638Y-126077368D01*
X120062603Y-126461143D01*
X120304787Y-126530608D01*
X121105395Y-125730000D01*
X120304787Y-124929392D01*
X120062603Y-124998857D01*
X119875856Y-125522302D01*
X117725000Y-125522302D01*
X117725000Y-124075000D01*
X120194343Y-124075000D01*
X120493663Y-124374320D01*
X120684647Y-124453428D01*
X120553857Y-124507603D01*
X120484392Y-124749787D01*
X121285000Y-125550395D01*
X122085608Y-124749787D01*
X122016143Y-124507603D01*
X121875607Y-124457465D01*
X122076337Y-124374320D01*
X122469320Y-123981337D01*
X122555000Y-123774487D01*
X122640680Y-123981337D01*
X123033663Y-124374320D01*
X123240513Y-124460000D01*
X123033663Y-124545680D01*
X122640680Y-124938663D01*
X122561572Y-125129647D01*
X122507397Y-124998857D01*
X122265213Y-124929392D01*
X121464605Y-125730000D01*
X122265213Y-126530608D01*
X122507397Y-126461143D01*
X122557535Y-126320607D01*
X122640680Y-126521337D01*
X123033663Y-126914320D01*
X123547119Y-127127000D01*
X124102881Y-127127000D01*
X124616337Y-126914320D01*
X125009320Y-126521337D01*
X125095000Y-126314487D01*
X125180680Y-126521337D01*
X125573663Y-126914320D01*
X126087119Y-127127000D01*
X126642881Y-127127000D01*
X127156337Y-126914320D01*
X127549320Y-126521337D01*
X127635000Y-126314487D01*
X127720680Y-126521337D01*
X128113663Y-126914320D01*
X128627119Y-127127000D01*
X129182881Y-127127000D01*
X129696337Y-126914320D01*
X130089320Y-126521337D01*
X130302000Y-126007881D01*
X130302000Y-125452119D01*
X130089320Y-124938663D01*
X129696337Y-124545680D01*
X129489487Y-124460000D01*
X129696337Y-124374320D01*
X130089320Y-123981337D01*
X130302000Y-123467881D01*
X130302000Y-122912119D01*
X130089320Y-122398663D01*
X129696337Y-122005680D01*
X129182881Y-121793000D01*
X128627119Y-121793000D01*
X128113663Y-122005680D01*
X127720680Y-122398663D01*
X127635000Y-122605513D01*
X127549320Y-122398663D01*
X127156337Y-122005680D01*
X126642881Y-121793000D01*
X126087119Y-121793000D01*
X125573663Y-122005680D01*
X125180680Y-122398663D01*
X125095000Y-122605513D01*
X125009320Y-122398663D01*
X124616337Y-122005680D01*
X124102881Y-121793000D01*
X123547119Y-121793000D01*
X123033663Y-122005680D01*
X122640680Y-122398663D01*
X122555000Y-122605513D01*
X122469320Y-122398663D01*
X122076337Y-122005680D01*
X121562881Y-121793000D01*
X121007119Y-121793000D01*
X120493663Y-122005680D01*
X120194343Y-122305000D01*
X117725000Y-122305000D01*
X117725000Y-92162161D01*
X117742337Y-92075000D01*
X117725000Y-91987839D01*
X117725000Y-91987835D01*
X117673652Y-91729690D01*
X117478049Y-91436951D01*
X117404156Y-91387578D01*
X111301329Y-85284751D01*
X122850000Y-85284751D01*
X122850000Y-85925249D01*
X123095108Y-86516992D01*
X123548008Y-86969892D01*
X124139751Y-87215000D01*
X124780249Y-87215000D01*
X125371992Y-86969892D01*
X125824892Y-86516992D01*
X126070000Y-85925249D01*
X126070000Y-85284751D01*
X126051462Y-85239996D01*
X127625000Y-85239996D01*
X127625000Y-85970004D01*
X127904362Y-86644444D01*
X128420556Y-87160638D01*
X129094996Y-87440000D01*
X129825004Y-87440000D01*
X130499444Y-87160638D01*
X131015638Y-86644444D01*
X131295000Y-85970004D01*
X131295000Y-85239996D01*
X131015638Y-84565556D01*
X130499444Y-84049362D01*
X129825004Y-83770000D01*
X129094996Y-83770000D01*
X128420556Y-84049362D01*
X127904362Y-84565556D01*
X127625000Y-85239996D01*
X126051462Y-85239996D01*
X125824892Y-84693008D01*
X125371992Y-84240108D01*
X124780249Y-83995000D01*
X124139751Y-83995000D01*
X123548008Y-84240108D01*
X123095108Y-84693008D01*
X122850000Y-85284751D01*
X111301329Y-85284751D01*
X110740000Y-84723422D01*
X110740000Y-84126694D01*
X110790000Y-84005983D01*
X110790000Y-83634017D01*
X110740000Y-83513306D01*
X110740000Y-74473691D01*
X111695000Y-74473691D01*
X111695000Y-74889250D01*
X111853750Y-75048000D01*
X112903000Y-75048000D01*
X112903000Y-74123750D01*
X113157000Y-74123750D01*
X113157000Y-75048000D01*
X114206250Y-75048000D01*
X114300000Y-74954250D01*
X114393750Y-75048000D01*
X115443000Y-75048000D01*
X115443000Y-74123750D01*
X115697000Y-74123750D01*
X115697000Y-75048000D01*
X116746250Y-75048000D01*
X116905000Y-74889250D01*
X116905000Y-74473691D01*
X116808327Y-74240302D01*
X116629699Y-74061673D01*
X116396310Y-73965000D01*
X115855750Y-73965000D01*
X115697000Y-74123750D01*
X115443000Y-74123750D01*
X115284250Y-73965000D01*
X114743690Y-73965000D01*
X114510301Y-74061673D01*
X114331673Y-74240302D01*
X114300000Y-74316767D01*
X114268327Y-74240302D01*
X114089699Y-74061673D01*
X113856310Y-73965000D01*
X113315750Y-73965000D01*
X113157000Y-74123750D01*
X112903000Y-74123750D01*
X112744250Y-73965000D01*
X112203690Y-73965000D01*
X111970301Y-74061673D01*
X111791673Y-74240302D01*
X111695000Y-74473691D01*
X110740000Y-74473691D01*
X110740000Y-69902694D01*
X110790000Y-69781983D01*
X110790000Y-69410017D01*
X110740000Y-69289306D01*
X110740000Y-63298694D01*
X110790000Y-63177983D01*
X110790000Y-62806017D01*
X110740000Y-62685306D01*
X110740000Y-53128691D01*
X112330000Y-53128691D01*
X112330000Y-53544250D01*
X112488750Y-53703000D01*
X113538000Y-53703000D01*
X113538000Y-52778750D01*
X113792000Y-52778750D01*
X113792000Y-53703000D01*
X114841250Y-53703000D01*
X114935000Y-53609250D01*
X115028750Y-53703000D01*
X116078000Y-53703000D01*
X116078000Y-52778750D01*
X116332000Y-52778750D01*
X116332000Y-53703000D01*
X117381250Y-53703000D01*
X117540000Y-53544250D01*
X117540000Y-53128691D01*
X117443327Y-52895302D01*
X117264699Y-52716673D01*
X117031310Y-52620000D01*
X116490750Y-52620000D01*
X116332000Y-52778750D01*
X116078000Y-52778750D01*
X115919250Y-52620000D01*
X115378690Y-52620000D01*
X115145301Y-52716673D01*
X114966673Y-52895302D01*
X114935000Y-52971767D01*
X114903327Y-52895302D01*
X114724699Y-52716673D01*
X114491310Y-52620000D01*
X113950750Y-52620000D01*
X113792000Y-52778750D01*
X113538000Y-52778750D01*
X113379250Y-52620000D01*
X112838690Y-52620000D01*
X112605301Y-52716673D01*
X112426673Y-52895302D01*
X112330000Y-53128691D01*
X110740000Y-53128691D01*
X110740000Y-47931694D01*
X110790000Y-47810983D01*
X110790000Y-47439017D01*
X110647655Y-47095365D01*
X110384635Y-46832345D01*
X110263923Y-46782345D01*
X109907425Y-46425846D01*
X109858049Y-46351951D01*
X109565310Y-46156348D01*
X109307165Y-46105000D01*
X109307161Y-46105000D01*
X109220000Y-46087663D01*
X109132839Y-46105000D01*
X103592161Y-46105000D01*
X103505000Y-46087663D01*
X103417839Y-46105000D01*
X103417835Y-46105000D01*
X103159690Y-46156348D01*
X102940845Y-46302576D01*
X102940844Y-46302577D01*
X102866951Y-46351951D01*
X102817577Y-46425844D01*
X102305844Y-46937577D01*
X102231952Y-46986951D01*
X102182578Y-47060844D01*
X102182576Y-47060846D01*
X102036348Y-47279691D01*
X102025285Y-47335310D01*
X101985000Y-47537835D01*
X101985000Y-47537839D01*
X101967663Y-47625000D01*
X101985000Y-47712161D01*
X101985000Y-47953306D01*
X101935000Y-48074017D01*
X101935000Y-48445983D01*
X101985001Y-48566696D01*
X101985000Y-62142835D01*
X101985000Y-62558306D01*
X101935000Y-62679017D01*
X101935000Y-63050983D01*
X101985001Y-63171696D01*
X101985000Y-68908306D01*
X101935000Y-69029017D01*
X101935000Y-69400983D01*
X101985001Y-69521696D01*
X101985000Y-83513306D01*
X101935000Y-83634017D01*
X101935000Y-84005983D01*
X101985000Y-84126694D01*
X101985000Y-84331428D01*
X101985001Y-84331433D01*
X101985000Y-89295421D01*
X98655578Y-92624844D01*
X98587690Y-92638348D01*
X98368845Y-92784576D01*
X98368844Y-92784577D01*
X98294951Y-92833951D01*
X98245577Y-92907844D01*
X85870422Y-105283000D01*
X85447119Y-105283000D01*
X84933663Y-105495680D01*
X84540680Y-105888663D01*
X84328000Y-106402119D01*
X84328000Y-106957881D01*
X84540680Y-107471337D01*
X84933663Y-107864320D01*
X85140513Y-107950000D01*
X84933663Y-108035680D01*
X84540680Y-108428663D01*
X84328000Y-108942119D01*
X84328000Y-109497881D01*
X84540680Y-110011337D01*
X84933663Y-110404320D01*
X85140513Y-110490000D01*
X84933663Y-110575680D01*
X84540680Y-110968663D01*
X84328000Y-111482119D01*
X84328000Y-112037881D01*
X84540680Y-112551337D01*
X84933663Y-112944320D01*
X85140513Y-113030000D01*
X84933663Y-113115680D01*
X84540680Y-113508663D01*
X84328000Y-114022119D01*
X84328000Y-114577881D01*
X84540680Y-115091337D01*
X84933663Y-115484320D01*
X85140513Y-115570000D01*
X84933663Y-115655680D01*
X84540680Y-116048663D01*
X84328000Y-116562119D01*
X84328000Y-117117881D01*
X84540680Y-117631337D01*
X84933663Y-118024320D01*
X85140513Y-118110000D01*
X84933663Y-118195680D01*
X84540680Y-118588663D01*
X84328000Y-119102119D01*
X84328000Y-119657881D01*
X84540680Y-120171337D01*
X84933663Y-120564320D01*
X85140513Y-120650000D01*
X84933663Y-120735680D01*
X84540680Y-121128663D01*
X84328000Y-121642119D01*
X84328000Y-122197881D01*
X84540680Y-122711337D01*
X84933663Y-123104320D01*
X85140513Y-123190000D01*
X84933663Y-123275680D01*
X84540680Y-123668663D01*
X84328000Y-124182119D01*
X84328000Y-124737881D01*
X84540680Y-125251337D01*
X84933663Y-125644320D01*
X85140513Y-125730000D01*
X84933663Y-125815680D01*
X84540680Y-126208663D01*
X84328000Y-126722119D01*
X84328000Y-127277881D01*
X84540680Y-127791337D01*
X84933663Y-128184320D01*
X85140513Y-128270000D01*
X84933663Y-128355680D01*
X84540680Y-128748663D01*
X84328000Y-129262119D01*
X84328000Y-129817881D01*
X84540680Y-130331337D01*
X84933663Y-130724320D01*
X85140513Y-130810000D01*
X84933663Y-130895680D01*
X84540680Y-131288663D01*
X84328000Y-131802119D01*
X84328000Y-132357881D01*
X84540680Y-132871337D01*
X84933663Y-133264320D01*
X85140513Y-133350000D01*
X84933663Y-133435680D01*
X84540680Y-133828663D01*
X84328000Y-134342119D01*
X84328000Y-134897881D01*
X84540680Y-135411337D01*
X84933663Y-135804320D01*
X85140513Y-135890000D01*
X84933663Y-135975680D01*
X84540680Y-136368663D01*
X84328000Y-136882119D01*
X84328000Y-137437881D01*
X84540680Y-137951337D01*
X84933663Y-138344320D01*
X85140513Y-138430000D01*
X84933663Y-138515680D01*
X84540680Y-138908663D01*
X84328000Y-139422119D01*
X84328000Y-139977881D01*
X84540680Y-140491337D01*
X84933663Y-140884320D01*
X85140513Y-140970000D01*
X84933663Y-141055680D01*
X84540680Y-141448663D01*
X84328000Y-141962119D01*
X84328000Y-142517881D01*
X84540680Y-143031337D01*
X84933663Y-143424320D01*
X85140513Y-143510000D01*
X84933663Y-143595680D01*
X84540680Y-143988663D01*
X84328000Y-144502119D01*
X84328000Y-145057881D01*
X84540680Y-145571337D01*
X84933663Y-145964320D01*
X85140513Y-146050000D01*
X84933663Y-146135680D01*
X84540680Y-146528663D01*
X84328000Y-147042119D01*
X84328000Y-147597881D01*
X84540680Y-148111337D01*
X84933663Y-148504320D01*
X85140513Y-148590000D01*
X84933663Y-148675680D01*
X84540680Y-149068663D01*
X84328000Y-149582119D01*
X84328000Y-150137881D01*
X84540680Y-150651337D01*
X84933663Y-151044320D01*
X85140513Y-151130000D01*
X84933663Y-151215680D01*
X84634343Y-151515000D01*
X83170579Y-151515000D01*
X82673000Y-151017422D01*
X82673000Y-103490578D01*
X94544157Y-91619422D01*
X94618049Y-91570049D01*
X94813652Y-91277310D01*
X94865000Y-91019165D01*
X94865000Y-91019161D01*
X94882337Y-90932000D01*
X94865000Y-90844839D01*
X94865000Y-84705000D01*
X95578306Y-84705000D01*
X95699017Y-84755000D01*
X96070983Y-84755000D01*
X96414635Y-84612655D01*
X96677655Y-84349635D01*
X96820000Y-84005983D01*
X96820000Y-83634017D01*
X96677655Y-83290365D01*
X96414635Y-83027345D01*
X96070983Y-82885000D01*
X95699017Y-82885000D01*
X95578306Y-82935000D01*
X94865000Y-82935000D01*
X94865000Y-78599771D01*
X95058690Y-78680000D01*
X95599250Y-78680000D01*
X95758000Y-78521250D01*
X95758000Y-77597000D01*
X96012000Y-77597000D01*
X96012000Y-78521250D01*
X96170750Y-78680000D01*
X96711310Y-78680000D01*
X96944699Y-78583327D01*
X97123327Y-78404698D01*
X97155000Y-78328233D01*
X97186673Y-78404698D01*
X97365301Y-78583327D01*
X97598690Y-78680000D01*
X98139250Y-78680000D01*
X98298000Y-78521250D01*
X98298000Y-77597000D01*
X98552000Y-77597000D01*
X98552000Y-78521250D01*
X98710750Y-78680000D01*
X99251310Y-78680000D01*
X99484699Y-78583327D01*
X99663327Y-78404698D01*
X99760000Y-78171309D01*
X99760000Y-77755750D01*
X99601250Y-77597000D01*
X98552000Y-77597000D01*
X98298000Y-77597000D01*
X97248750Y-77597000D01*
X97155000Y-77690750D01*
X97061250Y-77597000D01*
X96012000Y-77597000D01*
X95758000Y-77597000D01*
X95738000Y-77597000D01*
X95738000Y-77343000D01*
X95758000Y-77343000D01*
X95758000Y-77323000D01*
X96012000Y-77323000D01*
X96012000Y-77343000D01*
X97061250Y-77343000D01*
X97155000Y-77249250D01*
X97248750Y-77343000D01*
X98298000Y-77343000D01*
X98298000Y-77323000D01*
X98552000Y-77323000D01*
X98552000Y-77343000D01*
X99601250Y-77343000D01*
X99760000Y-77184250D01*
X99760000Y-76768691D01*
X99663327Y-76535302D01*
X99508403Y-76380377D01*
X99509586Y-76379586D01*
X99704127Y-76088436D01*
X99772440Y-75745001D01*
X99772440Y-75094999D01*
X99704127Y-74751564D01*
X99509586Y-74460414D01*
X99218436Y-74265873D01*
X98875001Y-74197560D01*
X98469139Y-74197560D01*
X97842425Y-73570847D01*
X97793049Y-73496951D01*
X97500310Y-73301348D01*
X97242165Y-73250000D01*
X97242161Y-73250000D01*
X97155000Y-73232663D01*
X97067839Y-73250000D01*
X96191694Y-73250000D01*
X96070983Y-73200000D01*
X95699017Y-73200000D01*
X95355365Y-73342345D01*
X95092345Y-73605365D01*
X94950000Y-73949017D01*
X94950000Y-74320983D01*
X94962808Y-74351905D01*
X94865000Y-74417259D01*
X94865000Y-73112160D01*
X94882337Y-73025001D01*
X94865000Y-72937841D01*
X94865000Y-70735000D01*
X95578306Y-70735000D01*
X95699017Y-70785000D01*
X96070983Y-70785000D01*
X96414635Y-70642655D01*
X96677655Y-70379635D01*
X96820000Y-70035983D01*
X96820000Y-69664017D01*
X96677655Y-69320365D01*
X96414635Y-69057345D01*
X96070983Y-68915000D01*
X95699017Y-68915000D01*
X95578306Y-68965000D01*
X94865000Y-68965000D01*
X94865000Y-63505000D01*
X95823306Y-63505000D01*
X95944017Y-63555000D01*
X96315983Y-63555000D01*
X96659635Y-63412655D01*
X96922655Y-63149635D01*
X97065000Y-62805983D01*
X97065000Y-62434017D01*
X96922655Y-62090365D01*
X96659635Y-61827345D01*
X96315983Y-61685000D01*
X95944017Y-61685000D01*
X95823306Y-61735000D01*
X94865000Y-61735000D01*
X94865000Y-56764771D01*
X95058690Y-56845000D01*
X95599250Y-56845000D01*
X95758000Y-56686250D01*
X95758000Y-55762000D01*
X96012000Y-55762000D01*
X96012000Y-56686250D01*
X96170750Y-56845000D01*
X96711310Y-56845000D01*
X96944699Y-56748327D01*
X97032500Y-56660526D01*
X97120301Y-56748327D01*
X97353690Y-56845000D01*
X97894250Y-56845000D01*
X98053000Y-56686250D01*
X98053000Y-55762000D01*
X98307000Y-55762000D01*
X98307000Y-56686250D01*
X98465750Y-56845000D01*
X99006310Y-56845000D01*
X99239699Y-56748327D01*
X99418327Y-56569698D01*
X99515000Y-56336309D01*
X99515000Y-55920750D01*
X99356250Y-55762000D01*
X98307000Y-55762000D01*
X98053000Y-55762000D01*
X96012000Y-55762000D01*
X95758000Y-55762000D01*
X95738000Y-55762000D01*
X95738000Y-55508000D01*
X95758000Y-55508000D01*
X95758000Y-55488000D01*
X96012000Y-55488000D01*
X96012000Y-55508000D01*
X98053000Y-55508000D01*
X98053000Y-55488000D01*
X98307000Y-55488000D01*
X98307000Y-55508000D01*
X99356250Y-55508000D01*
X99515000Y-55349250D01*
X99515000Y-54933691D01*
X99418327Y-54700302D01*
X99263403Y-54545377D01*
X99264586Y-54544586D01*
X99459127Y-54253436D01*
X99527440Y-53910001D01*
X99527440Y-53259999D01*
X99459127Y-52916564D01*
X99264586Y-52625414D01*
X98973436Y-52430873D01*
X98916697Y-52419587D01*
X98893420Y-52384751D01*
X98867424Y-52345845D01*
X98867423Y-52345844D01*
X98818049Y-52271951D01*
X98744156Y-52222577D01*
X98027425Y-51505847D01*
X97978049Y-51431951D01*
X97685310Y-51236348D01*
X97427165Y-51185000D01*
X97427161Y-51185000D01*
X97340000Y-51167663D01*
X97252839Y-51185000D01*
X96191694Y-51185000D01*
X96070983Y-51135000D01*
X95699017Y-51135000D01*
X95355365Y-51277345D01*
X95092345Y-51540365D01*
X94950000Y-51884017D01*
X94950000Y-52255983D01*
X95037426Y-52467047D01*
X94865000Y-52582259D01*
X94865000Y-49145000D01*
X95578306Y-49145000D01*
X95699017Y-49195000D01*
X96070983Y-49195000D01*
X96414635Y-49052655D01*
X96677655Y-48789635D01*
X96820000Y-48445983D01*
X96820000Y-48074017D01*
X96677655Y-47730365D01*
X96414635Y-47467345D01*
X96070983Y-47325000D01*
X95699017Y-47325000D01*
X95578306Y-47375000D01*
X94865000Y-47375000D01*
X94865000Y-42632160D01*
X94882337Y-42545001D01*
X94865000Y-42457841D01*
X94865000Y-37831578D01*
X96886579Y-35810000D01*
X113933422Y-35810000D01*
X118495000Y-40371579D01*
X118495001Y-47375000D01*
X117146694Y-47375000D01*
X117025983Y-47325000D01*
X116654017Y-47325000D01*
X116310365Y-47467345D01*
X116047345Y-47730365D01*
X115905000Y-48074017D01*
X115905000Y-48445983D01*
X116047345Y-48789635D01*
X116310365Y-49052655D01*
X116654017Y-49195000D01*
X117025983Y-49195000D01*
X117146694Y-49145000D01*
X118495000Y-49145000D01*
X118495001Y-51347831D01*
X118495000Y-51347836D01*
X118495000Y-51347839D01*
X118477663Y-51435000D01*
X118495000Y-51522161D01*
X118495001Y-54995000D01*
X117339423Y-54995000D01*
X117289586Y-54920414D01*
X117288403Y-54919623D01*
X117443327Y-54764698D01*
X117540000Y-54531309D01*
X117540000Y-54115750D01*
X117381250Y-53957000D01*
X116332000Y-53957000D01*
X116332000Y-53977000D01*
X116078000Y-53977000D01*
X116078000Y-53957000D01*
X115028750Y-53957000D01*
X114935000Y-54050750D01*
X114841250Y-53957000D01*
X113792000Y-53957000D01*
X113792000Y-53977000D01*
X113538000Y-53977000D01*
X113538000Y-53957000D01*
X112488750Y-53957000D01*
X112330000Y-54115750D01*
X112330000Y-54531309D01*
X112426673Y-54764698D01*
X112581597Y-54919623D01*
X112580414Y-54920414D01*
X112385873Y-55211564D01*
X112317560Y-55554999D01*
X112317560Y-56205001D01*
X112385873Y-56548436D01*
X112580414Y-56839586D01*
X112871564Y-57034127D01*
X113214999Y-57102440D01*
X114115001Y-57102440D01*
X114458436Y-57034127D01*
X114749586Y-56839586D01*
X114799423Y-56765000D01*
X115070577Y-56765000D01*
X115120414Y-56839586D01*
X115411564Y-57034127D01*
X115754999Y-57102440D01*
X115955001Y-57102440D01*
X115955000Y-57478305D01*
X115905000Y-57599017D01*
X115905000Y-57970983D01*
X116047345Y-58314635D01*
X116310365Y-58577655D01*
X116654017Y-58720000D01*
X117025983Y-58720000D01*
X117369635Y-58577655D01*
X117632655Y-58314635D01*
X117775000Y-57970983D01*
X117775000Y-57599017D01*
X117725000Y-57478306D01*
X117725000Y-56765000D01*
X118495000Y-56765000D01*
X118495001Y-61345000D01*
X117781694Y-61345000D01*
X117660983Y-61295000D01*
X117289017Y-61295000D01*
X116945365Y-61437345D01*
X116682345Y-61700365D01*
X116540000Y-62044017D01*
X116540000Y-62415983D01*
X116682345Y-62759635D01*
X116945365Y-63022655D01*
X117289017Y-63165000D01*
X117660983Y-63165000D01*
X117781694Y-63115000D01*
X118495000Y-63115000D01*
X118495001Y-68330000D01*
X117146694Y-68330000D01*
X117025983Y-68280000D01*
X116654017Y-68280000D01*
X116310365Y-68422345D01*
X116047345Y-68685365D01*
X115905000Y-69029017D01*
X115905000Y-69400983D01*
X116047345Y-69744635D01*
X116310365Y-70007655D01*
X116654017Y-70150000D01*
X117025983Y-70150000D01*
X117146694Y-70100000D01*
X118495000Y-70100000D01*
X118495001Y-76340000D01*
X116704423Y-76340000D01*
X116654586Y-76265414D01*
X116653403Y-76264623D01*
X116808327Y-76109698D01*
X116905000Y-75876309D01*
X116905000Y-75460750D01*
X116746250Y-75302000D01*
X115697000Y-75302000D01*
X115697000Y-75322000D01*
X115443000Y-75322000D01*
X115443000Y-75302000D01*
X114393750Y-75302000D01*
X114300000Y-75395750D01*
X114206250Y-75302000D01*
X113157000Y-75302000D01*
X113157000Y-75322000D01*
X112903000Y-75322000D01*
X112903000Y-75302000D01*
X111853750Y-75302000D01*
X111695000Y-75460750D01*
X111695000Y-75876309D01*
X111791673Y-76109698D01*
X111946597Y-76264623D01*
X111945414Y-76265414D01*
X111750873Y-76556564D01*
X111682560Y-76899999D01*
X111682560Y-77550001D01*
X111750873Y-77893436D01*
X111945414Y-78184586D01*
X112236564Y-78379127D01*
X112579999Y-78447440D01*
X113480001Y-78447440D01*
X113823436Y-78379127D01*
X114114586Y-78184586D01*
X114164423Y-78110000D01*
X114435577Y-78110000D01*
X114485414Y-78184586D01*
X114776564Y-78379127D01*
X115119999Y-78447440D01*
X115955000Y-78447440D01*
X115955000Y-79068306D01*
X115905000Y-79189017D01*
X115905000Y-79560983D01*
X116047345Y-79904635D01*
X116310365Y-80167655D01*
X116654017Y-80310000D01*
X117025983Y-80310000D01*
X117369635Y-80167655D01*
X117632655Y-79904635D01*
X117775000Y-79560983D01*
X117775000Y-79189017D01*
X117725000Y-79068306D01*
X117725000Y-78110000D01*
X118495001Y-78110000D01*
X118495001Y-80437830D01*
X118495000Y-80437835D01*
X118495000Y-80437839D01*
X118477663Y-80525000D01*
X118495000Y-80612161D01*
X118495000Y-80913421D01*
X116431078Y-82977344D01*
X116310365Y-83027345D01*
X116047345Y-83290365D01*
X115905000Y-83634017D01*
X115905000Y-84005983D01*
X116047345Y-84349635D01*
X116310365Y-84612655D01*
X116654017Y-84755000D01*
X117025983Y-84755000D01*
X117369635Y-84612655D01*
X117632655Y-84349635D01*
X117682656Y-84228922D01*
X119757500Y-82154079D01*
X120361180Y-82757759D01*
X120350000Y-82784751D01*
X120350000Y-83425249D01*
X120595108Y-84016992D01*
X121048008Y-84469892D01*
X121639751Y-84715000D01*
X122280249Y-84715000D01*
X122871992Y-84469892D01*
X123324892Y-84016992D01*
X123570000Y-83425249D01*
X123570000Y-82784751D01*
X123324892Y-82193008D01*
X122871992Y-81740108D01*
X122870385Y-81739442D01*
X133505163Y-81739442D01*
X133600763Y-82003704D01*
X134201429Y-82226049D01*
X134841461Y-82201605D01*
X135319237Y-82003704D01*
X135414837Y-81739442D01*
X134460000Y-80784605D01*
X133505163Y-81739442D01*
X122870385Y-81739442D01*
X122280249Y-81495000D01*
X121639751Y-81495000D01*
X121612759Y-81506180D01*
X120453008Y-80346429D01*
X132838951Y-80346429D01*
X132863395Y-80986461D01*
X133061296Y-81464237D01*
X133325558Y-81559837D01*
X134280395Y-80605000D01*
X134639605Y-80605000D01*
X135594442Y-81559837D01*
X135858704Y-81464237D01*
X136081049Y-80863571D01*
X136056605Y-80223539D01*
X135858704Y-79745763D01*
X135594442Y-79650163D01*
X134639605Y-80605000D01*
X134280395Y-80605000D01*
X133325558Y-79650163D01*
X133061296Y-79745763D01*
X132838951Y-80346429D01*
X120453008Y-80346429D01*
X120265000Y-80158422D01*
X120265000Y-77784751D01*
X122850000Y-77784751D01*
X122850000Y-78425249D01*
X123095108Y-79016992D01*
X123548008Y-79469892D01*
X124139751Y-79715000D01*
X124780249Y-79715000D01*
X125370384Y-79470558D01*
X133505163Y-79470558D01*
X134460000Y-80425395D01*
X135414837Y-79470558D01*
X135319237Y-79206296D01*
X134718571Y-78983951D01*
X134078539Y-79008395D01*
X133600763Y-79206296D01*
X133505163Y-79470558D01*
X125370384Y-79470558D01*
X125371992Y-79469892D01*
X125824892Y-79016992D01*
X126070000Y-78425249D01*
X126070000Y-77784751D01*
X125824892Y-77193008D01*
X125371992Y-76740108D01*
X125370385Y-76739442D01*
X133505163Y-76739442D01*
X133600763Y-77003704D01*
X134201429Y-77226049D01*
X134841461Y-77201605D01*
X135319237Y-77003704D01*
X135414837Y-76739442D01*
X134460000Y-75784605D01*
X133505163Y-76739442D01*
X125370385Y-76739442D01*
X124780249Y-76495000D01*
X124139751Y-76495000D01*
X123548008Y-76740108D01*
X123095108Y-77193008D01*
X122850000Y-77784751D01*
X120265000Y-77784751D01*
X120265000Y-76922161D01*
X120282337Y-76835001D01*
X120265000Y-76747841D01*
X120265000Y-75346429D01*
X132838951Y-75346429D01*
X132863395Y-75986461D01*
X133061296Y-76464237D01*
X133325558Y-76559837D01*
X134280395Y-75605000D01*
X134639605Y-75605000D01*
X135594442Y-76559837D01*
X135858704Y-76464237D01*
X136081049Y-75863571D01*
X136056605Y-75223539D01*
X135858704Y-74745763D01*
X135594442Y-74650163D01*
X134639605Y-75605000D01*
X134280395Y-75605000D01*
X133325558Y-74650163D01*
X133061296Y-74745763D01*
X132838951Y-75346429D01*
X120265000Y-75346429D01*
X120265000Y-72784751D01*
X120350000Y-72784751D01*
X120350000Y-73425249D01*
X120595108Y-74016992D01*
X121048008Y-74469892D01*
X121639751Y-74715000D01*
X122280249Y-74715000D01*
X122870384Y-74470558D01*
X133505163Y-74470558D01*
X134460000Y-75425395D01*
X135414837Y-74470558D01*
X135319237Y-74206296D01*
X134718571Y-73983951D01*
X134078539Y-74008395D01*
X133600763Y-74206296D01*
X133505163Y-74470558D01*
X122870384Y-74470558D01*
X122871992Y-74469892D01*
X123324892Y-74016992D01*
X123570000Y-73425249D01*
X123570000Y-72784751D01*
X123324892Y-72193008D01*
X122871992Y-71740108D01*
X122870385Y-71739442D01*
X123505163Y-71739442D01*
X123600763Y-72003704D01*
X124201429Y-72226049D01*
X124841461Y-72201605D01*
X125319237Y-72003704D01*
X125414837Y-71739442D01*
X124460000Y-70784605D01*
X123505163Y-71739442D01*
X122870385Y-71739442D01*
X122280249Y-71495000D01*
X121639751Y-71495000D01*
X121048008Y-71740108D01*
X120595108Y-72193008D01*
X120350000Y-72784751D01*
X120265000Y-72784751D01*
X120265000Y-70346429D01*
X122838951Y-70346429D01*
X122863395Y-70986461D01*
X123061296Y-71464237D01*
X123325558Y-71559837D01*
X124280395Y-70605000D01*
X124639605Y-70605000D01*
X125594442Y-71559837D01*
X125858704Y-71464237D01*
X126081049Y-70863571D01*
X126057234Y-70239996D01*
X127625000Y-70239996D01*
X127625000Y-70970004D01*
X127904362Y-71644444D01*
X128420556Y-72160638D01*
X129094996Y-72440000D01*
X129825004Y-72440000D01*
X130499444Y-72160638D01*
X131015638Y-71644444D01*
X131295000Y-70970004D01*
X131295000Y-70239996D01*
X131015638Y-69565556D01*
X130499444Y-69049362D01*
X129825004Y-68770000D01*
X129094996Y-68770000D01*
X128420556Y-69049362D01*
X127904362Y-69565556D01*
X127625000Y-70239996D01*
X126057234Y-70239996D01*
X126056605Y-70223539D01*
X125858704Y-69745763D01*
X125594442Y-69650163D01*
X124639605Y-70605000D01*
X124280395Y-70605000D01*
X123325558Y-69650163D01*
X123061296Y-69745763D01*
X122838951Y-70346429D01*
X120265000Y-70346429D01*
X120265000Y-69470558D01*
X123505163Y-69470558D01*
X124460000Y-70425395D01*
X125414837Y-69470558D01*
X125319237Y-69206296D01*
X124718571Y-68983951D01*
X124078539Y-69008395D01*
X123600763Y-69206296D01*
X123505163Y-69470558D01*
X120265000Y-69470558D01*
X120265000Y-69302164D01*
X120282338Y-69215000D01*
X120265000Y-69127835D01*
X120265000Y-62317164D01*
X120282338Y-62230000D01*
X120265000Y-62142835D01*
X120265000Y-55967165D01*
X120282338Y-55880000D01*
X120265000Y-55792835D01*
X120265000Y-54804751D01*
X122850000Y-54804751D01*
X122850000Y-55445249D01*
X123095108Y-56036992D01*
X123548008Y-56489892D01*
X124139751Y-56735000D01*
X124780249Y-56735000D01*
X125371992Y-56489892D01*
X125824892Y-56036992D01*
X126070000Y-55445249D01*
X126070000Y-54804751D01*
X126051462Y-54759996D01*
X127625000Y-54759996D01*
X127625000Y-55490004D01*
X127904362Y-56164444D01*
X128420556Y-56680638D01*
X129094996Y-56960000D01*
X129825004Y-56960000D01*
X130499444Y-56680638D01*
X131015638Y-56164444D01*
X131295000Y-55490004D01*
X131295000Y-54759996D01*
X131015638Y-54085556D01*
X130499444Y-53569362D01*
X129825004Y-53290000D01*
X129094996Y-53290000D01*
X128420556Y-53569362D01*
X127904362Y-54085556D01*
X127625000Y-54759996D01*
X126051462Y-54759996D01*
X125824892Y-54213008D01*
X125371992Y-53760108D01*
X124780249Y-53515000D01*
X124139751Y-53515000D01*
X123548008Y-53760108D01*
X123095108Y-54213008D01*
X122850000Y-54804751D01*
X120265000Y-54804751D01*
X120265000Y-53466670D01*
X120482835Y-53510000D01*
X120482839Y-53510000D01*
X120569999Y-53527337D01*
X120589502Y-53523458D01*
X120595108Y-53536992D01*
X121048008Y-53989892D01*
X121639751Y-54235000D01*
X122280249Y-54235000D01*
X122871992Y-53989892D01*
X123324892Y-53536992D01*
X123570000Y-52945249D01*
X123570000Y-52304751D01*
X123324892Y-51713008D01*
X122871992Y-51260108D01*
X122870385Y-51259442D01*
X133505163Y-51259442D01*
X133600763Y-51523704D01*
X134201429Y-51746049D01*
X134841461Y-51721605D01*
X135319237Y-51523704D01*
X135414837Y-51259442D01*
X134460000Y-50304605D01*
X133505163Y-51259442D01*
X122870385Y-51259442D01*
X122280249Y-51015000D01*
X121639751Y-51015000D01*
X121048008Y-51260108D01*
X120752347Y-51555769D01*
X120265000Y-51068422D01*
X120265000Y-49866429D01*
X132838951Y-49866429D01*
X132863395Y-50506461D01*
X133061296Y-50984237D01*
X133325558Y-51079837D01*
X134280395Y-50125000D01*
X134639605Y-50125000D01*
X135594442Y-51079837D01*
X135858704Y-50984237D01*
X136081049Y-50383571D01*
X136056605Y-49743539D01*
X135858704Y-49265763D01*
X135594442Y-49170163D01*
X134639605Y-50125000D01*
X134280395Y-50125000D01*
X133325558Y-49170163D01*
X133061296Y-49265763D01*
X132838951Y-49866429D01*
X120265000Y-49866429D01*
X120265000Y-48347164D01*
X120282338Y-48260000D01*
X120265000Y-48172835D01*
X120265000Y-47304751D01*
X122850000Y-47304751D01*
X122850000Y-47945249D01*
X123095108Y-48536992D01*
X123548008Y-48989892D01*
X124139751Y-49235000D01*
X124780249Y-49235000D01*
X125370384Y-48990558D01*
X133505163Y-48990558D01*
X134460000Y-49945395D01*
X135414837Y-48990558D01*
X135319237Y-48726296D01*
X134718571Y-48503951D01*
X134078539Y-48528395D01*
X133600763Y-48726296D01*
X133505163Y-48990558D01*
X125370384Y-48990558D01*
X125371992Y-48989892D01*
X125824892Y-48536992D01*
X126070000Y-47945249D01*
X126070000Y-47304751D01*
X125824892Y-46713008D01*
X125371992Y-46260108D01*
X125370385Y-46259442D01*
X133505163Y-46259442D01*
X133600763Y-46523704D01*
X134201429Y-46746049D01*
X134841461Y-46721605D01*
X135319237Y-46523704D01*
X135414837Y-46259442D01*
X134460000Y-45304605D01*
X133505163Y-46259442D01*
X125370385Y-46259442D01*
X124780249Y-46015000D01*
X124139751Y-46015000D01*
X123548008Y-46260108D01*
X123095108Y-46713008D01*
X122850000Y-47304751D01*
X120265000Y-47304751D01*
X120265000Y-44866429D01*
X132838951Y-44866429D01*
X132863395Y-45506461D01*
X133061296Y-45984237D01*
X133325558Y-46079837D01*
X134280395Y-45125000D01*
X134639605Y-45125000D01*
X135594442Y-46079837D01*
X135858704Y-45984237D01*
X136081049Y-45383571D01*
X136056605Y-44743539D01*
X135858704Y-44265763D01*
X135594442Y-44170163D01*
X134639605Y-45125000D01*
X134280395Y-45125000D01*
X133325558Y-44170163D01*
X133061296Y-44265763D01*
X132838951Y-44866429D01*
X120265000Y-44866429D01*
X120265000Y-42304751D01*
X120350000Y-42304751D01*
X120350000Y-42945249D01*
X120595108Y-43536992D01*
X121048008Y-43989892D01*
X121639751Y-44235000D01*
X122280249Y-44235000D01*
X122870384Y-43990558D01*
X133505163Y-43990558D01*
X134460000Y-44945395D01*
X135414837Y-43990558D01*
X135319237Y-43726296D01*
X134718571Y-43503951D01*
X134078539Y-43528395D01*
X133600763Y-43726296D01*
X133505163Y-43990558D01*
X122870384Y-43990558D01*
X122871992Y-43989892D01*
X123324892Y-43536992D01*
X123570000Y-42945249D01*
X123570000Y-42304751D01*
X123324892Y-41713008D01*
X122871992Y-41260108D01*
X122870385Y-41259442D01*
X123505163Y-41259442D01*
X123600763Y-41523704D01*
X124201429Y-41746049D01*
X124841461Y-41721605D01*
X125319237Y-41523704D01*
X125414837Y-41259442D01*
X124460000Y-40304605D01*
X123505163Y-41259442D01*
X122870385Y-41259442D01*
X122280249Y-41015000D01*
X121639751Y-41015000D01*
X121048008Y-41260108D01*
X120595108Y-41713008D01*
X120350000Y-42304751D01*
X120265000Y-42304751D01*
X120265000Y-40092161D01*
X120282337Y-40005000D01*
X120265000Y-39917839D01*
X120265000Y-39917835D01*
X120254775Y-39866429D01*
X122838951Y-39866429D01*
X122863395Y-40506461D01*
X123061296Y-40984237D01*
X123325558Y-41079837D01*
X124280395Y-40125000D01*
X124639605Y-40125000D01*
X125594442Y-41079837D01*
X125858704Y-40984237D01*
X126081049Y-40383571D01*
X126057234Y-39759996D01*
X127625000Y-39759996D01*
X127625000Y-40490004D01*
X127904362Y-41164444D01*
X128420556Y-41680638D01*
X129094996Y-41960000D01*
X129825004Y-41960000D01*
X130499444Y-41680638D01*
X131015638Y-41164444D01*
X131295000Y-40490004D01*
X131295000Y-39759996D01*
X131015638Y-39085556D01*
X130499444Y-38569362D01*
X129825004Y-38290000D01*
X129094996Y-38290000D01*
X128420556Y-38569362D01*
X127904362Y-39085556D01*
X127625000Y-39759996D01*
X126057234Y-39759996D01*
X126056605Y-39743539D01*
X125858704Y-39265763D01*
X125594442Y-39170163D01*
X124639605Y-40125000D01*
X124280395Y-40125000D01*
X123325558Y-39170163D01*
X123061296Y-39265763D01*
X122838951Y-39866429D01*
X120254775Y-39866429D01*
X120213652Y-39659690D01*
X120018049Y-39366951D01*
X119944156Y-39317577D01*
X119617137Y-38990558D01*
X123505163Y-38990558D01*
X124460000Y-39945395D01*
X125414837Y-38990558D01*
X125319237Y-38726296D01*
X124718571Y-38503951D01*
X124078539Y-38528395D01*
X123600763Y-38726296D01*
X123505163Y-38990558D01*
X119617137Y-38990558D01*
X114987425Y-34360847D01*
X114938049Y-34286951D01*
X114645310Y-34091348D01*
X114387165Y-34040000D01*
X114387161Y-34040000D01*
X114300000Y-34022663D01*
X114212839Y-34040000D01*
X97405000Y-34040000D01*
X97405000Y-26757161D01*
X97422337Y-26670000D01*
X97405000Y-26582839D01*
X97405000Y-26582835D01*
X97353652Y-26324690D01*
X97207424Y-26105845D01*
X97207423Y-26105844D01*
X97158049Y-26031951D01*
X97084156Y-25982577D01*
X95302425Y-24200847D01*
X95253049Y-24126951D01*
X94960310Y-23931348D01*
X94702165Y-23880000D01*
X94702161Y-23880000D01*
X94615000Y-23862663D01*
X94527839Y-23880000D01*
X94435657Y-23880000D01*
X94136337Y-23580680D01*
X93622881Y-23368000D01*
X93067119Y-23368000D01*
X92553663Y-23580680D01*
X92160680Y-23973663D01*
X91948000Y-24487119D01*
X91948000Y-25042881D01*
X92160680Y-25556337D01*
X92553663Y-25949320D01*
X92744647Y-26028428D01*
X92613857Y-26082603D01*
X92544392Y-26324787D01*
X93345000Y-27125395D01*
X94145608Y-26324787D01*
X94076143Y-26082603D01*
X93935607Y-26032465D01*
X94136337Y-25949320D01*
X94342039Y-25743618D01*
X95635001Y-27036580D01*
X95635000Y-34558421D01*
X93415845Y-36777577D01*
X93341952Y-36826951D01*
X93292578Y-36900844D01*
X93292576Y-36900846D01*
X93146348Y-37119691D01*
X93077663Y-37465000D01*
X93095001Y-37552165D01*
X93095000Y-41820000D01*
X92776072Y-41820000D01*
X92764892Y-41793008D01*
X92311992Y-41340108D01*
X91720249Y-41095000D01*
X91079751Y-41095000D01*
X90488008Y-41340108D01*
X90035108Y-41793008D01*
X89790000Y-42384751D01*
X89790000Y-43025249D01*
X90035108Y-43616992D01*
X90488008Y-44069892D01*
X91079751Y-44315000D01*
X91720249Y-44315000D01*
X92311992Y-44069892D01*
X92764892Y-43616992D01*
X92776072Y-43590000D01*
X93095001Y-43590000D01*
X93095000Y-48172835D01*
X93077662Y-48260000D01*
X93095001Y-48347169D01*
X93095000Y-52617835D01*
X93095000Y-53252839D01*
X93077663Y-53340000D01*
X93095000Y-53427161D01*
X93095000Y-53427164D01*
X93095001Y-53427169D01*
X93095000Y-62777839D01*
X93077663Y-62865000D01*
X93095000Y-62952161D01*
X93095000Y-62952164D01*
X93095001Y-62952169D01*
X93095000Y-65492164D01*
X93095001Y-65492169D01*
X93095000Y-67857835D01*
X93095000Y-67857836D01*
X93095001Y-69762831D01*
X93077662Y-69850000D01*
X93095000Y-69937165D01*
X93095001Y-72220000D01*
X92776072Y-72220000D01*
X92764892Y-72193008D01*
X92311992Y-71740108D01*
X91720249Y-71495000D01*
X91079751Y-71495000D01*
X90488008Y-71740108D01*
X90035108Y-72193008D01*
X89790000Y-72784751D01*
X89790000Y-73425249D01*
X90035108Y-74016992D01*
X90488008Y-74469892D01*
X91079751Y-74715000D01*
X91720249Y-74715000D01*
X92311992Y-74469892D01*
X92764892Y-74016992D01*
X92776072Y-73990000D01*
X93095000Y-73990000D01*
X93095001Y-75477831D01*
X93095000Y-75477836D01*
X93095000Y-75477839D01*
X93077663Y-75565000D01*
X93095000Y-75652161D01*
X93095001Y-83732831D01*
X93077662Y-83820000D01*
X93095000Y-83907164D01*
X93095001Y-85256831D01*
X93095000Y-85256836D01*
X93095000Y-85812165D01*
X93095001Y-85812170D01*
X93095000Y-90565421D01*
X81223845Y-102436577D01*
X81149952Y-102485951D01*
X81100578Y-102559844D01*
X81100576Y-102559846D01*
X80954348Y-102778691D01*
X80885663Y-103124000D01*
X76910000Y-103124000D01*
X76910000Y-95739220D01*
X77809324Y-96638544D01*
X79237225Y-97230000D01*
X80782775Y-97230000D01*
X82210676Y-96638544D01*
X83303544Y-95545676D01*
X83895000Y-94117775D01*
X83895000Y-92572225D01*
X83303544Y-91144324D01*
X82210676Y-90051456D01*
X80782775Y-89460000D01*
X79237225Y-89460000D01*
X77809324Y-90051456D01*
X76910000Y-90950780D01*
X76910000Y-85239996D01*
X82065000Y-85239996D01*
X82065000Y-85970004D01*
X82344362Y-86644444D01*
X82860556Y-87160638D01*
X83534996Y-87440000D01*
X84265004Y-87440000D01*
X84939444Y-87160638D01*
X85360640Y-86739442D01*
X87945163Y-86739442D01*
X88040763Y-87003704D01*
X88641429Y-87226049D01*
X89281461Y-87201605D01*
X89759237Y-87003704D01*
X89854837Y-86739442D01*
X88900000Y-85784605D01*
X87945163Y-86739442D01*
X85360640Y-86739442D01*
X85455638Y-86644444D01*
X85735000Y-85970004D01*
X85735000Y-85346429D01*
X87278951Y-85346429D01*
X87303395Y-85986461D01*
X87501296Y-86464237D01*
X87765558Y-86559837D01*
X88720395Y-85605000D01*
X89079605Y-85605000D01*
X90034442Y-86559837D01*
X90298704Y-86464237D01*
X90521049Y-85863571D01*
X90496605Y-85223539D01*
X90298704Y-84745763D01*
X90034442Y-84650163D01*
X89079605Y-85605000D01*
X88720395Y-85605000D01*
X87765558Y-84650163D01*
X87501296Y-84745763D01*
X87278951Y-85346429D01*
X85735000Y-85346429D01*
X85735000Y-85239996D01*
X85455638Y-84565556D01*
X85360640Y-84470558D01*
X87945163Y-84470558D01*
X88900000Y-85425395D01*
X89854837Y-84470558D01*
X89759237Y-84206296D01*
X89158571Y-83983951D01*
X88518539Y-84008395D01*
X88040763Y-84206296D01*
X87945163Y-84470558D01*
X85360640Y-84470558D01*
X84939444Y-84049362D01*
X84265004Y-83770000D01*
X83534996Y-83770000D01*
X82860556Y-84049362D01*
X82344362Y-84565556D01*
X82065000Y-85239996D01*
X76910000Y-85239996D01*
X76910000Y-82784751D01*
X89790000Y-82784751D01*
X89790000Y-83425249D01*
X90035108Y-84016992D01*
X90488008Y-84469892D01*
X91079751Y-84715000D01*
X91720249Y-84715000D01*
X92311992Y-84469892D01*
X92764892Y-84016992D01*
X93010000Y-83425249D01*
X93010000Y-82784751D01*
X92764892Y-82193008D01*
X92311992Y-81740108D01*
X91720249Y-81495000D01*
X91079751Y-81495000D01*
X90488008Y-81740108D01*
X90035108Y-82193008D01*
X89790000Y-82784751D01*
X76910000Y-82784751D01*
X76910000Y-81739442D01*
X77945163Y-81739442D01*
X78040763Y-82003704D01*
X78641429Y-82226049D01*
X79281461Y-82201605D01*
X79759237Y-82003704D01*
X79854837Y-81739442D01*
X78900000Y-80784605D01*
X77945163Y-81739442D01*
X76910000Y-81739442D01*
X76910000Y-80346429D01*
X77278951Y-80346429D01*
X77303395Y-80986461D01*
X77501296Y-81464237D01*
X77765558Y-81559837D01*
X78720395Y-80605000D01*
X79079605Y-80605000D01*
X80034442Y-81559837D01*
X80298704Y-81464237D01*
X80521049Y-80863571D01*
X80496605Y-80223539D01*
X80298704Y-79745763D01*
X80034442Y-79650163D01*
X79079605Y-80605000D01*
X78720395Y-80605000D01*
X77765558Y-79650163D01*
X77501296Y-79745763D01*
X77278951Y-80346429D01*
X76910000Y-80346429D01*
X76910000Y-79470558D01*
X77945163Y-79470558D01*
X78900000Y-80425395D01*
X79854837Y-79470558D01*
X79759237Y-79206296D01*
X79158571Y-78983951D01*
X78518539Y-79008395D01*
X78040763Y-79206296D01*
X77945163Y-79470558D01*
X76910000Y-79470558D01*
X76910000Y-77784751D01*
X87290000Y-77784751D01*
X87290000Y-78425249D01*
X87535108Y-79016992D01*
X87988008Y-79469892D01*
X88579751Y-79715000D01*
X89220249Y-79715000D01*
X89811992Y-79469892D01*
X90264892Y-79016992D01*
X90510000Y-78425249D01*
X90510000Y-77784751D01*
X90264892Y-77193008D01*
X89811992Y-76740108D01*
X89220249Y-76495000D01*
X88579751Y-76495000D01*
X87988008Y-76740108D01*
X87535108Y-77193008D01*
X87290000Y-77784751D01*
X76910000Y-77784751D01*
X76910000Y-76739442D01*
X77945163Y-76739442D01*
X78040763Y-77003704D01*
X78641429Y-77226049D01*
X79281461Y-77201605D01*
X79759237Y-77003704D01*
X79854837Y-76739442D01*
X78900000Y-75784605D01*
X77945163Y-76739442D01*
X76910000Y-76739442D01*
X76910000Y-75346429D01*
X77278951Y-75346429D01*
X77303395Y-75986461D01*
X77501296Y-76464237D01*
X77765558Y-76559837D01*
X78720395Y-75605000D01*
X79079605Y-75605000D01*
X80034442Y-76559837D01*
X80298704Y-76464237D01*
X80521049Y-75863571D01*
X80496605Y-75223539D01*
X80298704Y-74745763D01*
X80034442Y-74650163D01*
X79079605Y-75605000D01*
X78720395Y-75605000D01*
X77765558Y-74650163D01*
X77501296Y-74745763D01*
X77278951Y-75346429D01*
X76910000Y-75346429D01*
X76910000Y-74470558D01*
X77945163Y-74470558D01*
X78900000Y-75425395D01*
X79854837Y-74470558D01*
X79759237Y-74206296D01*
X79158571Y-73983951D01*
X78518539Y-74008395D01*
X78040763Y-74206296D01*
X77945163Y-74470558D01*
X76910000Y-74470558D01*
X76910000Y-70239996D01*
X82065000Y-70239996D01*
X82065000Y-70970004D01*
X82344362Y-71644444D01*
X82860556Y-72160638D01*
X83534996Y-72440000D01*
X84265004Y-72440000D01*
X84939444Y-72160638D01*
X85455638Y-71644444D01*
X85735000Y-70970004D01*
X85735000Y-70284751D01*
X87290000Y-70284751D01*
X87290000Y-70925249D01*
X87535108Y-71516992D01*
X87988008Y-71969892D01*
X88579751Y-72215000D01*
X89220249Y-72215000D01*
X89811992Y-71969892D01*
X90264892Y-71516992D01*
X90510000Y-70925249D01*
X90510000Y-70284751D01*
X90264892Y-69693008D01*
X89811992Y-69240108D01*
X89220249Y-68995000D01*
X88579751Y-68995000D01*
X87988008Y-69240108D01*
X87535108Y-69693008D01*
X87290000Y-70284751D01*
X85735000Y-70284751D01*
X85735000Y-70239996D01*
X85455638Y-69565556D01*
X84939444Y-69049362D01*
X84265004Y-68770000D01*
X83534996Y-68770000D01*
X82860556Y-69049362D01*
X82344362Y-69565556D01*
X82065000Y-70239996D01*
X76910000Y-70239996D01*
X76910000Y-65259220D01*
X77809324Y-66158544D01*
X79237225Y-66750000D01*
X80782775Y-66750000D01*
X82210676Y-66158544D01*
X83303544Y-65065676D01*
X83895000Y-63637775D01*
X83895000Y-62092225D01*
X83303544Y-60664324D01*
X82210676Y-59571456D01*
X80782775Y-58980000D01*
X79237225Y-58980000D01*
X77809324Y-59571456D01*
X76910000Y-60470780D01*
X76910000Y-54839996D01*
X82065000Y-54839996D01*
X82065000Y-55570004D01*
X82344362Y-56244444D01*
X82860556Y-56760638D01*
X83534996Y-57040000D01*
X84265004Y-57040000D01*
X84939444Y-56760638D01*
X85360640Y-56339442D01*
X87945163Y-56339442D01*
X88040763Y-56603704D01*
X88641429Y-56826049D01*
X89281461Y-56801605D01*
X89759237Y-56603704D01*
X89854837Y-56339442D01*
X88900000Y-55384605D01*
X87945163Y-56339442D01*
X85360640Y-56339442D01*
X85455638Y-56244444D01*
X85735000Y-55570004D01*
X85735000Y-54946429D01*
X87278951Y-54946429D01*
X87303395Y-55586461D01*
X87501296Y-56064237D01*
X87765558Y-56159837D01*
X88720395Y-55205000D01*
X89079605Y-55205000D01*
X90034442Y-56159837D01*
X90298704Y-56064237D01*
X90521049Y-55463571D01*
X90496605Y-54823539D01*
X90298704Y-54345763D01*
X90034442Y-54250163D01*
X89079605Y-55205000D01*
X88720395Y-55205000D01*
X87765558Y-54250163D01*
X87501296Y-54345763D01*
X87278951Y-54946429D01*
X85735000Y-54946429D01*
X85735000Y-54839996D01*
X85455638Y-54165556D01*
X85360640Y-54070558D01*
X87945163Y-54070558D01*
X88900000Y-55025395D01*
X89854837Y-54070558D01*
X89759237Y-53806296D01*
X89158571Y-53583951D01*
X88518539Y-53608395D01*
X88040763Y-53806296D01*
X87945163Y-54070558D01*
X85360640Y-54070558D01*
X84939444Y-53649362D01*
X84265004Y-53370000D01*
X83534996Y-53370000D01*
X82860556Y-53649362D01*
X82344362Y-54165556D01*
X82065000Y-54839996D01*
X76910000Y-54839996D01*
X76910000Y-52384751D01*
X89790000Y-52384751D01*
X89790000Y-53025249D01*
X90035108Y-53616992D01*
X90488008Y-54069892D01*
X91079751Y-54315000D01*
X91720249Y-54315000D01*
X92311992Y-54069892D01*
X92764892Y-53616992D01*
X93010000Y-53025249D01*
X93010000Y-52384751D01*
X92764892Y-51793008D01*
X92311992Y-51340108D01*
X91720249Y-51095000D01*
X91079751Y-51095000D01*
X90488008Y-51340108D01*
X90035108Y-51793008D01*
X89790000Y-52384751D01*
X76910000Y-52384751D01*
X76910000Y-51339442D01*
X77945163Y-51339442D01*
X78040763Y-51603704D01*
X78641429Y-51826049D01*
X79281461Y-51801605D01*
X79759237Y-51603704D01*
X79854837Y-51339442D01*
X78900000Y-50384605D01*
X77945163Y-51339442D01*
X76910000Y-51339442D01*
X76910000Y-49946429D01*
X77278951Y-49946429D01*
X77303395Y-50586461D01*
X77501296Y-51064237D01*
X77765558Y-51159837D01*
X78720395Y-50205000D01*
X79079605Y-50205000D01*
X80034442Y-51159837D01*
X80298704Y-51064237D01*
X80521049Y-50463571D01*
X80496605Y-49823539D01*
X80298704Y-49345763D01*
X80034442Y-49250163D01*
X79079605Y-50205000D01*
X78720395Y-50205000D01*
X77765558Y-49250163D01*
X77501296Y-49345763D01*
X77278951Y-49946429D01*
X76910000Y-49946429D01*
X76910000Y-49070558D01*
X77945163Y-49070558D01*
X78900000Y-50025395D01*
X79854837Y-49070558D01*
X79759237Y-48806296D01*
X79158571Y-48583951D01*
X78518539Y-48608395D01*
X78040763Y-48806296D01*
X77945163Y-49070558D01*
X76910000Y-49070558D01*
X76910000Y-47384751D01*
X87290000Y-47384751D01*
X87290000Y-48025249D01*
X87535108Y-48616992D01*
X87988008Y-49069892D01*
X88579751Y-49315000D01*
X89220249Y-49315000D01*
X89811992Y-49069892D01*
X90264892Y-48616992D01*
X90510000Y-48025249D01*
X90510000Y-47384751D01*
X90264892Y-46793008D01*
X89811992Y-46340108D01*
X89220249Y-46095000D01*
X88579751Y-46095000D01*
X87988008Y-46340108D01*
X87535108Y-46793008D01*
X87290000Y-47384751D01*
X76910000Y-47384751D01*
X76910000Y-46339442D01*
X77945163Y-46339442D01*
X78040763Y-46603704D01*
X78641429Y-46826049D01*
X79281461Y-46801605D01*
X79759237Y-46603704D01*
X79854837Y-46339442D01*
X78900000Y-45384605D01*
X77945163Y-46339442D01*
X76910000Y-46339442D01*
X76910000Y-44946429D01*
X77278951Y-44946429D01*
X77303395Y-45586461D01*
X77501296Y-46064237D01*
X77765558Y-46159837D01*
X78720395Y-45205000D01*
X79079605Y-45205000D01*
X80034442Y-46159837D01*
X80298704Y-46064237D01*
X80521049Y-45463571D01*
X80496605Y-44823539D01*
X80298704Y-44345763D01*
X80034442Y-44250163D01*
X79079605Y-45205000D01*
X78720395Y-45205000D01*
X77765558Y-44250163D01*
X77501296Y-44345763D01*
X77278951Y-44946429D01*
X76910000Y-44946429D01*
X76910000Y-44070558D01*
X77945163Y-44070558D01*
X78900000Y-45025395D01*
X79854837Y-44070558D01*
X79759237Y-43806296D01*
X79158571Y-43583951D01*
X78518539Y-43608395D01*
X78040763Y-43806296D01*
X77945163Y-44070558D01*
X76910000Y-44070558D01*
X76910000Y-39839996D01*
X82065000Y-39839996D01*
X82065000Y-40570004D01*
X82344362Y-41244444D01*
X82860556Y-41760638D01*
X83534996Y-42040000D01*
X84265004Y-42040000D01*
X84939444Y-41760638D01*
X85455638Y-41244444D01*
X85735000Y-40570004D01*
X85735000Y-39884751D01*
X87290000Y-39884751D01*
X87290000Y-40525249D01*
X87535108Y-41116992D01*
X87988008Y-41569892D01*
X88579751Y-41815000D01*
X89220249Y-41815000D01*
X89811992Y-41569892D01*
X90264892Y-41116992D01*
X90510000Y-40525249D01*
X90510000Y-39884751D01*
X90264892Y-39293008D01*
X89811992Y-38840108D01*
X89220249Y-38595000D01*
X88579751Y-38595000D01*
X87988008Y-38840108D01*
X87535108Y-39293008D01*
X87290000Y-39884751D01*
X85735000Y-39884751D01*
X85735000Y-39839996D01*
X85455638Y-39165556D01*
X84939444Y-38649362D01*
X84265004Y-38370000D01*
X83534996Y-38370000D01*
X82860556Y-38649362D01*
X82344362Y-39165556D01*
X82065000Y-39839996D01*
X76910000Y-39839996D01*
X76910000Y-33509220D01*
X77809324Y-34408544D01*
X79237225Y-35000000D01*
X80782775Y-35000000D01*
X82210676Y-34408544D01*
X83303544Y-33315676D01*
X83895000Y-31887775D01*
X83895000Y-30342225D01*
X83303544Y-28914324D01*
X82210676Y-27821456D01*
X80782775Y-27230000D01*
X79237225Y-27230000D01*
X77809324Y-27821456D01*
X76910000Y-28720780D01*
X76910000Y-20725000D01*
X80402560Y-20725000D01*
X80402560Y-23725000D01*
X80451843Y-23972765D01*
X80592191Y-24182809D01*
X80802235Y-24323157D01*
X81050000Y-24372440D01*
X82385202Y-24372440D01*
X88900014Y-30887253D01*
X88991231Y-31023769D01*
X89532055Y-31385136D01*
X90008969Y-31480000D01*
X90008973Y-31480000D01*
X90169999Y-31512030D01*
X90331025Y-31480000D01*
X92274343Y-31480000D01*
X92160680Y-31593663D01*
X91948000Y-32107119D01*
X91948000Y-32662881D01*
X92160680Y-33176337D01*
X92553663Y-33569320D01*
X93067119Y-33782000D01*
X93622881Y-33782000D01*
X94136337Y-33569320D01*
X94529320Y-33176337D01*
X94742000Y-32662881D01*
X94742000Y-32107119D01*
X94529320Y-31593663D01*
X94185470Y-31249813D01*
X94523769Y-31023769D01*
X94885136Y-30482945D01*
X95012031Y-29845000D01*
X94885136Y-29207055D01*
X94523769Y-28666231D01*
X94114717Y-28392911D01*
X94145608Y-28285213D01*
X93345000Y-27484605D01*
X93330858Y-27498748D01*
X93151253Y-27319143D01*
X93165395Y-27305000D01*
X93524605Y-27305000D01*
X94325213Y-28105608D01*
X94567397Y-28036143D01*
X94754144Y-27512698D01*
X94726362Y-26957632D01*
X94567397Y-26573857D01*
X94325213Y-26504392D01*
X93524605Y-27305000D01*
X93165395Y-27305000D01*
X92364787Y-26504392D01*
X92122603Y-26573857D01*
X91935856Y-27097302D01*
X91963638Y-27652368D01*
X92122603Y-28036143D01*
X92364785Y-28105607D01*
X92260392Y-28210000D01*
X90847239Y-28210000D01*
X86849432Y-24212194D01*
X87246187Y-24367723D01*
X88095387Y-24351497D01*
X88804582Y-24057739D01*
X88964365Y-23738970D01*
X87630000Y-22404605D01*
X87615858Y-22418748D01*
X87436253Y-22239143D01*
X87450395Y-22225000D01*
X87809605Y-22225000D01*
X89143970Y-23559365D01*
X89462739Y-23399582D01*
X89772723Y-22608813D01*
X89756497Y-21759613D01*
X89462739Y-21050418D01*
X89143970Y-20890635D01*
X87809605Y-22225000D01*
X87450395Y-22225000D01*
X86116030Y-20890635D01*
X85797261Y-21050418D01*
X85487277Y-21841187D01*
X85503503Y-22690387D01*
X85627867Y-22990629D01*
X84697440Y-22060202D01*
X84697440Y-20725000D01*
X84694662Y-20711030D01*
X86295635Y-20711030D01*
X87630000Y-22045395D01*
X88964365Y-20711030D01*
X88804582Y-20392261D01*
X88013813Y-20082277D01*
X87164613Y-20098503D01*
X86455418Y-20392261D01*
X86295635Y-20711030D01*
X84694662Y-20711030D01*
X84648157Y-20477235D01*
X84507809Y-20267191D01*
X84297765Y-20126843D01*
X84050000Y-20077560D01*
X81050000Y-20077560D01*
X80802235Y-20126843D01*
X80592191Y-20267191D01*
X80451843Y-20477235D01*
X80402560Y-20725000D01*
X76910000Y-20725000D01*
X76910000Y-18490000D01*
X130955780Y-18490000D01*
X130056456Y-19389324D01*
G04 #@! TD*
M02*
