M48
;DRILL file {KiCad 5.0.0-fee4fd1~66~ubuntu18.04.1} date Sun Sep 30 19:23:10 2018
;FORMAT={-:-/ absolute / metric / decimal}
FMAT,2
METRIC,TZ
T1C0.400
T2C1.000
T3C1.300
T4C1.520
T5C3.200
%
G90
G05
M71
T1
X95.885Y-48.26
X95.885Y-52.07
X95.885Y-69.85
X95.885Y-74.135
X95.885Y-83.82
X96.13Y-62.62
X101.092Y-56.505
X101.092Y-78.232
X102.87Y-48.26
X102.87Y-62.865
X102.87Y-69.215
X102.87Y-83.82
X109.855Y-47.625
X109.855Y-62.992
X109.855Y-69.596
X109.855Y-83.82
X111.76Y-53.848
X111.76Y-75.575
X116.84Y-48.26
X116.84Y-57.785
X116.84Y-69.215
X116.84Y-79.375
X116.84Y-83.82
X117.475Y-62.23
T2
X115.57Y-129.54
X115.57Y-132.08
X115.57Y-134.62
X115.57Y-137.16
X115.57Y-139.7
X115.57Y-142.24
X115.57Y-144.78
X115.57Y-147.32
X93.345Y-24.765
X93.345Y-27.305
X93.345Y-29.845
X93.345Y-32.385
X85.725Y-106.68
X85.725Y-109.22
X85.725Y-111.76
X85.725Y-114.3
X85.725Y-116.84
X85.725Y-119.38
X85.725Y-121.92
X85.725Y-124.46
X85.725Y-127.
X85.725Y-129.54
X85.725Y-132.08
X85.725Y-134.62
X85.725Y-137.16
X85.725Y-139.7
X85.725Y-142.24
X85.725Y-144.78
X85.725Y-147.32
X85.725Y-149.86
X85.725Y-152.4
X111.125Y-106.68
X111.125Y-109.22
X111.125Y-111.76
X111.125Y-114.3
X111.125Y-116.84
X111.125Y-119.38
X111.125Y-121.92
X111.125Y-124.46
X111.125Y-127.
X111.125Y-129.54
X111.125Y-132.08
X111.125Y-134.62
X111.125Y-137.16
X111.125Y-139.7
X111.125Y-142.24
X111.125Y-144.78
X111.125Y-147.32
X111.125Y-149.86
X111.125Y-152.4
X121.285Y-123.19
X121.285Y-125.73
X123.825Y-123.19
X123.825Y-125.73
X126.365Y-123.19
X126.365Y-125.73
X128.905Y-123.19
X128.905Y-125.73
T3
X121.96Y-73.105
X121.96Y-83.105
X124.46Y-70.605
X124.46Y-78.105
X124.46Y-85.605
X134.46Y-75.605
X134.46Y-80.605
X78.9Y-45.205
X78.9Y-50.205
X88.9Y-40.205
X88.9Y-47.705
X88.9Y-55.205
X91.4Y-42.705
X91.4Y-52.705
X78.9Y-75.605
X78.9Y-80.605
X88.9Y-70.605
X88.9Y-78.105
X88.9Y-85.605
X91.4Y-73.105
X91.4Y-83.105
X121.96Y-42.625
X121.96Y-52.625
X124.46Y-40.125
X124.46Y-47.625
X124.46Y-55.125
X134.46Y-45.125
X134.46Y-50.125
T4
X82.55Y-22.225
X87.63Y-22.225
T5
X133.35Y-153.035
X80.01Y-93.345
X80.01Y-62.865
X80.01Y-31.115
X133.35Y-62.865
X133.35Y-93.345
X133.35Y-21.59
T0
M30
