G04 #@! TF.GenerationSoftware,KiCad,Pcbnew,5.0.0-fee4fd1~66~ubuntu18.04.1*
G04 #@! TF.CreationDate,2018-10-20T19:30:02+02:00*
G04 #@! TF.ProjectId,bmp280-sensor-board,626D703238302D73656E736F722D626F,rev?*
G04 #@! TF.SameCoordinates,Original*
G04 #@! TF.FileFunction,Copper,L1,Top,Signal*
G04 #@! TF.FilePolarity,Positive*
%FSLAX46Y46*%
G04 Gerber Fmt 4.6, Leading zero omitted, Abs format (unit mm)*
G04 Created by KiCad (PCBNEW 5.0.0-fee4fd1~66~ubuntu18.04.1) date Sat Oct 20 19:30:02 2018*
%MOMM*%
%LPD*%
G01*
G04 APERTURE LIST*
G04 #@! TA.AperFunction,Conductor*
%ADD10C,0.100000*%
G04 #@! TD*
G04 #@! TA.AperFunction,SMDPad,CuDef*
%ADD11C,1.150000*%
G04 #@! TD*
G04 #@! TA.AperFunction,SMDPad,CuDef*
%ADD12R,0.600000X1.550000*%
G04 #@! TD*
G04 #@! TA.AperFunction,ComponentPad*
%ADD13C,1.700000*%
G04 #@! TD*
G04 #@! TA.AperFunction,ComponentPad*
%ADD14R,1.800000X1.800000*%
G04 #@! TD*
G04 #@! TA.AperFunction,ComponentPad*
%ADD15O,1.900000X1.900000*%
G04 #@! TD*
G04 #@! TA.AperFunction,ViaPad*
%ADD16C,0.800000*%
G04 #@! TD*
G04 #@! TA.AperFunction,Conductor*
%ADD17C,0.500000*%
G04 #@! TD*
G04 #@! TA.AperFunction,Conductor*
%ADD18C,0.250000*%
G04 #@! TD*
G04 #@! TA.AperFunction,Conductor*
%ADD19C,0.400000*%
G04 #@! TD*
G04 APERTURE END LIST*
D10*
G04 #@! TO.N,+3V3*
G04 #@! TO.C,R1*
G36*
X110329505Y-43466204D02*
X110353773Y-43469804D01*
X110377572Y-43475765D01*
X110400671Y-43484030D01*
X110422850Y-43494520D01*
X110443893Y-43507132D01*
X110463599Y-43521747D01*
X110481777Y-43538223D01*
X110498253Y-43556401D01*
X110512868Y-43576107D01*
X110525480Y-43597150D01*
X110535970Y-43619329D01*
X110544235Y-43642428D01*
X110550196Y-43666227D01*
X110553796Y-43690495D01*
X110555000Y-43714999D01*
X110555000Y-44365001D01*
X110553796Y-44389505D01*
X110550196Y-44413773D01*
X110544235Y-44437572D01*
X110535970Y-44460671D01*
X110525480Y-44482850D01*
X110512868Y-44503893D01*
X110498253Y-44523599D01*
X110481777Y-44541777D01*
X110463599Y-44558253D01*
X110443893Y-44572868D01*
X110422850Y-44585480D01*
X110400671Y-44595970D01*
X110377572Y-44604235D01*
X110353773Y-44610196D01*
X110329505Y-44613796D01*
X110305001Y-44615000D01*
X109404999Y-44615000D01*
X109380495Y-44613796D01*
X109356227Y-44610196D01*
X109332428Y-44604235D01*
X109309329Y-44595970D01*
X109287150Y-44585480D01*
X109266107Y-44572868D01*
X109246401Y-44558253D01*
X109228223Y-44541777D01*
X109211747Y-44523599D01*
X109197132Y-44503893D01*
X109184520Y-44482850D01*
X109174030Y-44460671D01*
X109165765Y-44437572D01*
X109159804Y-44413773D01*
X109156204Y-44389505D01*
X109155000Y-44365001D01*
X109155000Y-43714999D01*
X109156204Y-43690495D01*
X109159804Y-43666227D01*
X109165765Y-43642428D01*
X109174030Y-43619329D01*
X109184520Y-43597150D01*
X109197132Y-43576107D01*
X109211747Y-43556401D01*
X109228223Y-43538223D01*
X109246401Y-43521747D01*
X109266107Y-43507132D01*
X109287150Y-43494520D01*
X109309329Y-43484030D01*
X109332428Y-43475765D01*
X109356227Y-43469804D01*
X109380495Y-43466204D01*
X109404999Y-43465000D01*
X110305001Y-43465000D01*
X110329505Y-43466204D01*
X110329505Y-43466204D01*
G37*
D11*
G04 #@! TD*
G04 #@! TO.P,R1,1*
G04 #@! TO.N,+3V3*
X109855000Y-44040000D03*
D10*
G04 #@! TO.N,/SCL*
G04 #@! TO.C,R1*
G36*
X110329505Y-45516204D02*
X110353773Y-45519804D01*
X110377572Y-45525765D01*
X110400671Y-45534030D01*
X110422850Y-45544520D01*
X110443893Y-45557132D01*
X110463599Y-45571747D01*
X110481777Y-45588223D01*
X110498253Y-45606401D01*
X110512868Y-45626107D01*
X110525480Y-45647150D01*
X110535970Y-45669329D01*
X110544235Y-45692428D01*
X110550196Y-45716227D01*
X110553796Y-45740495D01*
X110555000Y-45764999D01*
X110555000Y-46415001D01*
X110553796Y-46439505D01*
X110550196Y-46463773D01*
X110544235Y-46487572D01*
X110535970Y-46510671D01*
X110525480Y-46532850D01*
X110512868Y-46553893D01*
X110498253Y-46573599D01*
X110481777Y-46591777D01*
X110463599Y-46608253D01*
X110443893Y-46622868D01*
X110422850Y-46635480D01*
X110400671Y-46645970D01*
X110377572Y-46654235D01*
X110353773Y-46660196D01*
X110329505Y-46663796D01*
X110305001Y-46665000D01*
X109404999Y-46665000D01*
X109380495Y-46663796D01*
X109356227Y-46660196D01*
X109332428Y-46654235D01*
X109309329Y-46645970D01*
X109287150Y-46635480D01*
X109266107Y-46622868D01*
X109246401Y-46608253D01*
X109228223Y-46591777D01*
X109211747Y-46573599D01*
X109197132Y-46553893D01*
X109184520Y-46532850D01*
X109174030Y-46510671D01*
X109165765Y-46487572D01*
X109159804Y-46463773D01*
X109156204Y-46439505D01*
X109155000Y-46415001D01*
X109155000Y-45764999D01*
X109156204Y-45740495D01*
X109159804Y-45716227D01*
X109165765Y-45692428D01*
X109174030Y-45669329D01*
X109184520Y-45647150D01*
X109197132Y-45626107D01*
X109211747Y-45606401D01*
X109228223Y-45588223D01*
X109246401Y-45571747D01*
X109266107Y-45557132D01*
X109287150Y-45544520D01*
X109309329Y-45534030D01*
X109332428Y-45525765D01*
X109356227Y-45519804D01*
X109380495Y-45516204D01*
X109404999Y-45515000D01*
X110305001Y-45515000D01*
X110329505Y-45516204D01*
X110329505Y-45516204D01*
G37*
D11*
G04 #@! TD*
G04 #@! TO.P,R1,2*
G04 #@! TO.N,/SCL*
X109855000Y-46090000D03*
D10*
G04 #@! TO.N,+3V3*
G04 #@! TO.C,R2*
G36*
X110284505Y-50451204D02*
X110308773Y-50454804D01*
X110332572Y-50460765D01*
X110355671Y-50469030D01*
X110377850Y-50479520D01*
X110398893Y-50492132D01*
X110418599Y-50506747D01*
X110436777Y-50523223D01*
X110453253Y-50541401D01*
X110467868Y-50561107D01*
X110480480Y-50582150D01*
X110490970Y-50604329D01*
X110499235Y-50627428D01*
X110505196Y-50651227D01*
X110508796Y-50675495D01*
X110510000Y-50699999D01*
X110510000Y-51350001D01*
X110508796Y-51374505D01*
X110505196Y-51398773D01*
X110499235Y-51422572D01*
X110490970Y-51445671D01*
X110480480Y-51467850D01*
X110467868Y-51488893D01*
X110453253Y-51508599D01*
X110436777Y-51526777D01*
X110418599Y-51543253D01*
X110398893Y-51557868D01*
X110377850Y-51570480D01*
X110355671Y-51580970D01*
X110332572Y-51589235D01*
X110308773Y-51595196D01*
X110284505Y-51598796D01*
X110260001Y-51600000D01*
X109359999Y-51600000D01*
X109335495Y-51598796D01*
X109311227Y-51595196D01*
X109287428Y-51589235D01*
X109264329Y-51580970D01*
X109242150Y-51570480D01*
X109221107Y-51557868D01*
X109201401Y-51543253D01*
X109183223Y-51526777D01*
X109166747Y-51508599D01*
X109152132Y-51488893D01*
X109139520Y-51467850D01*
X109129030Y-51445671D01*
X109120765Y-51422572D01*
X109114804Y-51398773D01*
X109111204Y-51374505D01*
X109110000Y-51350001D01*
X109110000Y-50699999D01*
X109111204Y-50675495D01*
X109114804Y-50651227D01*
X109120765Y-50627428D01*
X109129030Y-50604329D01*
X109139520Y-50582150D01*
X109152132Y-50561107D01*
X109166747Y-50541401D01*
X109183223Y-50523223D01*
X109201401Y-50506747D01*
X109221107Y-50492132D01*
X109242150Y-50479520D01*
X109264329Y-50469030D01*
X109287428Y-50460765D01*
X109311227Y-50454804D01*
X109335495Y-50451204D01*
X109359999Y-50450000D01*
X110260001Y-50450000D01*
X110284505Y-50451204D01*
X110284505Y-50451204D01*
G37*
D11*
G04 #@! TD*
G04 #@! TO.P,R2,2*
G04 #@! TO.N,+3V3*
X109810000Y-51025000D03*
D10*
G04 #@! TO.N,/SDA*
G04 #@! TO.C,R2*
G36*
X110284505Y-48401204D02*
X110308773Y-48404804D01*
X110332572Y-48410765D01*
X110355671Y-48419030D01*
X110377850Y-48429520D01*
X110398893Y-48442132D01*
X110418599Y-48456747D01*
X110436777Y-48473223D01*
X110453253Y-48491401D01*
X110467868Y-48511107D01*
X110480480Y-48532150D01*
X110490970Y-48554329D01*
X110499235Y-48577428D01*
X110505196Y-48601227D01*
X110508796Y-48625495D01*
X110510000Y-48649999D01*
X110510000Y-49300001D01*
X110508796Y-49324505D01*
X110505196Y-49348773D01*
X110499235Y-49372572D01*
X110490970Y-49395671D01*
X110480480Y-49417850D01*
X110467868Y-49438893D01*
X110453253Y-49458599D01*
X110436777Y-49476777D01*
X110418599Y-49493253D01*
X110398893Y-49507868D01*
X110377850Y-49520480D01*
X110355671Y-49530970D01*
X110332572Y-49539235D01*
X110308773Y-49545196D01*
X110284505Y-49548796D01*
X110260001Y-49550000D01*
X109359999Y-49550000D01*
X109335495Y-49548796D01*
X109311227Y-49545196D01*
X109287428Y-49539235D01*
X109264329Y-49530970D01*
X109242150Y-49520480D01*
X109221107Y-49507868D01*
X109201401Y-49493253D01*
X109183223Y-49476777D01*
X109166747Y-49458599D01*
X109152132Y-49438893D01*
X109139520Y-49417850D01*
X109129030Y-49395671D01*
X109120765Y-49372572D01*
X109114804Y-49348773D01*
X109111204Y-49324505D01*
X109110000Y-49300001D01*
X109110000Y-48649999D01*
X109111204Y-48625495D01*
X109114804Y-48601227D01*
X109120765Y-48577428D01*
X109129030Y-48554329D01*
X109139520Y-48532150D01*
X109152132Y-48511107D01*
X109166747Y-48491401D01*
X109183223Y-48473223D01*
X109201401Y-48456747D01*
X109221107Y-48442132D01*
X109242150Y-48429520D01*
X109264329Y-48419030D01*
X109287428Y-48410765D01*
X109311227Y-48404804D01*
X109335495Y-48401204D01*
X109359999Y-48400000D01*
X110260001Y-48400000D01*
X110284505Y-48401204D01*
X110284505Y-48401204D01*
G37*
D11*
G04 #@! TD*
G04 #@! TO.P,R2,1*
G04 #@! TO.N,/SDA*
X109810000Y-48975000D03*
D12*
G04 #@! TO.P,U3,1*
G04 #@! TO.N,Net-(U3-Pad1)*
X111715000Y-50710000D03*
G04 #@! TO.P,U3,2*
G04 #@! TO.N,/SDABUF*
X112985000Y-50710000D03*
G04 #@! TO.P,U3,3*
G04 #@! TO.N,/SDA*
X114255000Y-50710000D03*
G04 #@! TO.P,U3,4*
G04 #@! TO.N,GND*
X115525000Y-50710000D03*
G04 #@! TO.P,U3,5*
G04 #@! TO.N,Net-(U3-Pad5)*
X115525000Y-45310000D03*
G04 #@! TO.P,U3,6*
G04 #@! TO.N,/SCL*
X114255000Y-45310000D03*
G04 #@! TO.P,U3,7*
G04 #@! TO.N,/SCLBUF*
X112985000Y-45310000D03*
G04 #@! TO.P,U3,8*
G04 #@! TO.N,+5V*
X111715000Y-45310000D03*
G04 #@! TD*
D13*
G04 #@! TO.P,U2,4*
G04 #@! TO.N,/SDA*
X95737000Y-52915500D03*
G04 #@! TO.P,U2,3*
G04 #@! TO.N,/SCL*
X95737000Y-50375500D03*
G04 #@! TO.P,U2,2*
G04 #@! TO.N,GND*
X95737000Y-47835500D03*
G04 #@! TO.P,U2,1*
G04 #@! TO.N,+3V3*
X95737000Y-45295500D03*
G04 #@! TD*
G04 #@! TO.P,U4,1*
G04 #@! TO.N,+3V3*
X100774500Y-45275500D03*
G04 #@! TO.P,U4,2*
G04 #@! TO.N,GND*
X100774500Y-47815500D03*
G04 #@! TO.P,U4,3*
G04 #@! TO.N,/SCL*
X100774500Y-50355500D03*
G04 #@! TO.P,U4,4*
G04 #@! TO.N,/SDA*
X100774500Y-52895500D03*
G04 #@! TD*
D14*
G04 #@! TO.P,J1,1*
G04 #@! TO.N,GND*
X130130000Y-44040000D03*
D15*
G04 #@! TO.P,J1,2*
G04 #@! TO.N,Net-(J1-Pad2)*
X130130000Y-46580000D03*
G04 #@! TO.P,J1,3*
G04 #@! TO.N,/SCLBUF*
X130130000Y-49120000D03*
G04 #@! TO.P,J1,4*
G04 #@! TO.N,/SDABUF*
X130130000Y-51660000D03*
G04 #@! TO.P,J1,5*
G04 #@! TO.N,+5V*
X130130000Y-54200000D03*
G04 #@! TD*
G04 #@! TO.P,J2,5*
G04 #@! TO.N,+5V*
X133940000Y-54200000D03*
G04 #@! TO.P,J2,4*
G04 #@! TO.N,/SDABUF*
X133940000Y-51660000D03*
G04 #@! TO.P,J2,3*
G04 #@! TO.N,/SCLBUF*
X133940000Y-49120000D03*
G04 #@! TO.P,J2,2*
G04 #@! TO.N,Net-(J2-Pad2)*
X133940000Y-46580000D03*
D14*
G04 #@! TO.P,J2,1*
G04 #@! TO.N,GND*
X133940000Y-44040000D03*
G04 #@! TD*
D16*
G04 #@! TO.N,+5V*
X118065000Y-43405000D03*
G04 #@! TO.N,GND*
X98298000Y-51562000D03*
X117430000Y-54200000D03*
X118700000Y-52930000D03*
X132035000Y-47850000D03*
X132035000Y-50390000D03*
X132035000Y-52930000D03*
X118065000Y-51025000D03*
G04 #@! TO.N,+3V3*
X108585000Y-51435000D03*
X108585000Y-43815000D03*
G04 #@! TD*
D17*
G04 #@! TO.N,+5V*
X111715000Y-44035000D02*
X112345000Y-43405000D01*
X111715000Y-45310000D02*
X111715000Y-44035000D01*
X112345000Y-43405000D02*
X118065000Y-43405000D01*
D18*
G04 #@! TO.N,GND*
X95737000Y-47835500D02*
X98298000Y-50396500D01*
X98298000Y-50396500D02*
X98298000Y-51562000D01*
X117430000Y-54200000D02*
X118700000Y-52930000D01*
X132035000Y-47850000D02*
X132035000Y-50390000D01*
X132035000Y-50390000D02*
X132035000Y-52930000D01*
X132035000Y-52930000D02*
X132035000Y-52930000D01*
X115525000Y-50710000D02*
X117750000Y-50710000D01*
X117750000Y-50710000D02*
X118065000Y-51025000D01*
D19*
G04 #@! TO.N,+3V3*
X108585000Y-51435000D02*
X109855000Y-51435000D01*
X109710000Y-43815000D02*
X109855000Y-43670000D01*
X108585000Y-43815000D02*
X109710000Y-43815000D01*
X108810000Y-44040000D02*
X108585000Y-43815000D01*
X109855000Y-44040000D02*
X108810000Y-44040000D01*
X108995000Y-51025000D02*
X108585000Y-51435000D01*
X109810000Y-51025000D02*
X108995000Y-51025000D01*
D18*
G04 #@! TO.N,/SDABUF*
X113030000Y-50960000D02*
X113030000Y-50485000D01*
G04 #@! TO.N,/SCL*
X110478372Y-46713372D02*
X109855000Y-46090000D01*
X113326628Y-46713372D02*
X110478372Y-46713372D01*
X114255000Y-45785000D02*
X113326628Y-46713372D01*
X114255000Y-45310000D02*
X114255000Y-45785000D01*
X105040000Y-46090000D02*
X100774500Y-50355500D01*
X109855000Y-46090000D02*
X105040000Y-46090000D01*
G04 #@! TO.N,/SDA*
X114300000Y-50960000D02*
X114300000Y-50485000D01*
X110610000Y-48975000D02*
X109810000Y-48975000D01*
X112995000Y-48975000D02*
X110610000Y-48975000D01*
X114255000Y-50235000D02*
X112995000Y-48975000D01*
X114255000Y-50710000D02*
X114255000Y-50235000D01*
X104695000Y-48975000D02*
X100774500Y-52895500D01*
X109810000Y-48975000D02*
X104695000Y-48975000D01*
G04 #@! TO.N,/SDABUF*
X129180001Y-52609999D02*
X130130000Y-51660000D01*
X126864999Y-54925001D02*
X129180001Y-52609999D01*
X116725001Y-54925001D02*
X126864999Y-54925001D01*
X112985000Y-51185000D02*
X116725001Y-54925001D01*
X112985000Y-50710000D02*
X112985000Y-51185000D01*
G04 #@! TO.N,/SCLBUF*
X129180001Y-48170001D02*
X130130000Y-49120000D01*
X125219999Y-44209999D02*
X129180001Y-48170001D01*
X113610001Y-44209999D02*
X125219999Y-44209999D01*
X112985000Y-44835000D02*
X113610001Y-44209999D01*
X112985000Y-45310000D02*
X112985000Y-44835000D01*
G04 #@! TD*
M02*
