M48
;DRILL file {KiCad 5.0.0-fee4fd1~66~ubuntu18.04.1} date Sat Oct 20 19:29:58 2018
;FORMAT={-:-/ absolute / metric / decimal}
FMAT,2
METRIC,TZ
T1C0.400
T2C1.000
T3C1.300
%
G90
G05
M71
T1
X98.298Y-51.562
X108.585Y-43.815
X108.585Y-51.435
X117.43Y-54.2
X118.065Y-43.405
X118.065Y-51.025
X118.7Y-52.93
X132.035Y-47.85
X132.035Y-50.39
X132.035Y-52.93
T2
X100.774Y-45.276
X100.774Y-47.816
X100.774Y-50.355
X100.774Y-52.895
X95.737Y-45.295
X95.737Y-47.835
X95.737Y-50.375
X95.737Y-52.915
T3
X133.94Y-44.04
X133.94Y-46.58
X133.94Y-49.12
X133.94Y-51.66
X133.94Y-54.2
X130.13Y-44.04
X130.13Y-46.58
X130.13Y-49.12
X130.13Y-51.66
X130.13Y-54.2
T0
M30
