G04 #@! TF.GenerationSoftware,KiCad,Pcbnew,5.0.0-fee4fd1~66~ubuntu18.04.1*
G04 #@! TF.CreationDate,2018-10-20T19:30:02+02:00*
G04 #@! TF.ProjectId,bmp280-sensor-board,626D703238302D73656E736F722D626F,rev?*
G04 #@! TF.SameCoordinates,Original*
G04 #@! TF.FileFunction,Soldermask,Top*
G04 #@! TF.FilePolarity,Negative*
%FSLAX46Y46*%
G04 Gerber Fmt 4.6, Leading zero omitted, Abs format (unit mm)*
G04 Created by KiCad (PCBNEW 5.0.0-fee4fd1~66~ubuntu18.04.1) date Sat Oct 20 19:30:02 2018*
%MOMM*%
%LPD*%
G01*
G04 APERTURE LIST*
%ADD10C,0.100000*%
%ADD11C,1.550000*%
%ADD12R,1.000000X1.950000*%
%ADD13C,2.100000*%
%ADD14R,2.200000X2.200000*%
%ADD15O,2.300000X2.300000*%
G04 APERTURE END LIST*
D10*
G04 #@! TO.C,R1*
G36*
X110451071Y-43266623D02*
X110483781Y-43271475D01*
X110515857Y-43279509D01*
X110546991Y-43290649D01*
X110576884Y-43304787D01*
X110605247Y-43321787D01*
X110631807Y-43341485D01*
X110656308Y-43363692D01*
X110678515Y-43388193D01*
X110698213Y-43414753D01*
X110715213Y-43443116D01*
X110729351Y-43473009D01*
X110740491Y-43504143D01*
X110748525Y-43536219D01*
X110753377Y-43568929D01*
X110755000Y-43601956D01*
X110755000Y-44478044D01*
X110753377Y-44511071D01*
X110748525Y-44543781D01*
X110740491Y-44575857D01*
X110729351Y-44606991D01*
X110715213Y-44636884D01*
X110698213Y-44665247D01*
X110678515Y-44691807D01*
X110656308Y-44716308D01*
X110631807Y-44738515D01*
X110605247Y-44758213D01*
X110576884Y-44775213D01*
X110546991Y-44789351D01*
X110515857Y-44800491D01*
X110483781Y-44808525D01*
X110451071Y-44813377D01*
X110418044Y-44815000D01*
X109291956Y-44815000D01*
X109258929Y-44813377D01*
X109226219Y-44808525D01*
X109194143Y-44800491D01*
X109163009Y-44789351D01*
X109133116Y-44775213D01*
X109104753Y-44758213D01*
X109078193Y-44738515D01*
X109053692Y-44716308D01*
X109031485Y-44691807D01*
X109011787Y-44665247D01*
X108994787Y-44636884D01*
X108980649Y-44606991D01*
X108969509Y-44575857D01*
X108961475Y-44543781D01*
X108956623Y-44511071D01*
X108955000Y-44478044D01*
X108955000Y-43601956D01*
X108956623Y-43568929D01*
X108961475Y-43536219D01*
X108969509Y-43504143D01*
X108980649Y-43473009D01*
X108994787Y-43443116D01*
X109011787Y-43414753D01*
X109031485Y-43388193D01*
X109053692Y-43363692D01*
X109078193Y-43341485D01*
X109104753Y-43321787D01*
X109133116Y-43304787D01*
X109163009Y-43290649D01*
X109194143Y-43279509D01*
X109226219Y-43271475D01*
X109258929Y-43266623D01*
X109291956Y-43265000D01*
X110418044Y-43265000D01*
X110451071Y-43266623D01*
X110451071Y-43266623D01*
G37*
D11*
X109855000Y-44040000D03*
D10*
G36*
X110451071Y-45316623D02*
X110483781Y-45321475D01*
X110515857Y-45329509D01*
X110546991Y-45340649D01*
X110576884Y-45354787D01*
X110605247Y-45371787D01*
X110631807Y-45391485D01*
X110656308Y-45413692D01*
X110678515Y-45438193D01*
X110698213Y-45464753D01*
X110715213Y-45493116D01*
X110729351Y-45523009D01*
X110740491Y-45554143D01*
X110748525Y-45586219D01*
X110753377Y-45618929D01*
X110755000Y-45651956D01*
X110755000Y-46528044D01*
X110753377Y-46561071D01*
X110748525Y-46593781D01*
X110740491Y-46625857D01*
X110729351Y-46656991D01*
X110715213Y-46686884D01*
X110698213Y-46715247D01*
X110678515Y-46741807D01*
X110656308Y-46766308D01*
X110631807Y-46788515D01*
X110605247Y-46808213D01*
X110576884Y-46825213D01*
X110546991Y-46839351D01*
X110515857Y-46850491D01*
X110483781Y-46858525D01*
X110451071Y-46863377D01*
X110418044Y-46865000D01*
X109291956Y-46865000D01*
X109258929Y-46863377D01*
X109226219Y-46858525D01*
X109194143Y-46850491D01*
X109163009Y-46839351D01*
X109133116Y-46825213D01*
X109104753Y-46808213D01*
X109078193Y-46788515D01*
X109053692Y-46766308D01*
X109031485Y-46741807D01*
X109011787Y-46715247D01*
X108994787Y-46686884D01*
X108980649Y-46656991D01*
X108969509Y-46625857D01*
X108961475Y-46593781D01*
X108956623Y-46561071D01*
X108955000Y-46528044D01*
X108955000Y-45651956D01*
X108956623Y-45618929D01*
X108961475Y-45586219D01*
X108969509Y-45554143D01*
X108980649Y-45523009D01*
X108994787Y-45493116D01*
X109011787Y-45464753D01*
X109031485Y-45438193D01*
X109053692Y-45413692D01*
X109078193Y-45391485D01*
X109104753Y-45371787D01*
X109133116Y-45354787D01*
X109163009Y-45340649D01*
X109194143Y-45329509D01*
X109226219Y-45321475D01*
X109258929Y-45316623D01*
X109291956Y-45315000D01*
X110418044Y-45315000D01*
X110451071Y-45316623D01*
X110451071Y-45316623D01*
G37*
D11*
X109855000Y-46090000D03*
G04 #@! TD*
D10*
G04 #@! TO.C,R2*
G36*
X110406071Y-50251623D02*
X110438781Y-50256475D01*
X110470857Y-50264509D01*
X110501991Y-50275649D01*
X110531884Y-50289787D01*
X110560247Y-50306787D01*
X110586807Y-50326485D01*
X110611308Y-50348692D01*
X110633515Y-50373193D01*
X110653213Y-50399753D01*
X110670213Y-50428116D01*
X110684351Y-50458009D01*
X110695491Y-50489143D01*
X110703525Y-50521219D01*
X110708377Y-50553929D01*
X110710000Y-50586956D01*
X110710000Y-51463044D01*
X110708377Y-51496071D01*
X110703525Y-51528781D01*
X110695491Y-51560857D01*
X110684351Y-51591991D01*
X110670213Y-51621884D01*
X110653213Y-51650247D01*
X110633515Y-51676807D01*
X110611308Y-51701308D01*
X110586807Y-51723515D01*
X110560247Y-51743213D01*
X110531884Y-51760213D01*
X110501991Y-51774351D01*
X110470857Y-51785491D01*
X110438781Y-51793525D01*
X110406071Y-51798377D01*
X110373044Y-51800000D01*
X109246956Y-51800000D01*
X109213929Y-51798377D01*
X109181219Y-51793525D01*
X109149143Y-51785491D01*
X109118009Y-51774351D01*
X109088116Y-51760213D01*
X109059753Y-51743213D01*
X109033193Y-51723515D01*
X109008692Y-51701308D01*
X108986485Y-51676807D01*
X108966787Y-51650247D01*
X108949787Y-51621884D01*
X108935649Y-51591991D01*
X108924509Y-51560857D01*
X108916475Y-51528781D01*
X108911623Y-51496071D01*
X108910000Y-51463044D01*
X108910000Y-50586956D01*
X108911623Y-50553929D01*
X108916475Y-50521219D01*
X108924509Y-50489143D01*
X108935649Y-50458009D01*
X108949787Y-50428116D01*
X108966787Y-50399753D01*
X108986485Y-50373193D01*
X109008692Y-50348692D01*
X109033193Y-50326485D01*
X109059753Y-50306787D01*
X109088116Y-50289787D01*
X109118009Y-50275649D01*
X109149143Y-50264509D01*
X109181219Y-50256475D01*
X109213929Y-50251623D01*
X109246956Y-50250000D01*
X110373044Y-50250000D01*
X110406071Y-50251623D01*
X110406071Y-50251623D01*
G37*
D11*
X109810000Y-51025000D03*
D10*
G36*
X110406071Y-48201623D02*
X110438781Y-48206475D01*
X110470857Y-48214509D01*
X110501991Y-48225649D01*
X110531884Y-48239787D01*
X110560247Y-48256787D01*
X110586807Y-48276485D01*
X110611308Y-48298692D01*
X110633515Y-48323193D01*
X110653213Y-48349753D01*
X110670213Y-48378116D01*
X110684351Y-48408009D01*
X110695491Y-48439143D01*
X110703525Y-48471219D01*
X110708377Y-48503929D01*
X110710000Y-48536956D01*
X110710000Y-49413044D01*
X110708377Y-49446071D01*
X110703525Y-49478781D01*
X110695491Y-49510857D01*
X110684351Y-49541991D01*
X110670213Y-49571884D01*
X110653213Y-49600247D01*
X110633515Y-49626807D01*
X110611308Y-49651308D01*
X110586807Y-49673515D01*
X110560247Y-49693213D01*
X110531884Y-49710213D01*
X110501991Y-49724351D01*
X110470857Y-49735491D01*
X110438781Y-49743525D01*
X110406071Y-49748377D01*
X110373044Y-49750000D01*
X109246956Y-49750000D01*
X109213929Y-49748377D01*
X109181219Y-49743525D01*
X109149143Y-49735491D01*
X109118009Y-49724351D01*
X109088116Y-49710213D01*
X109059753Y-49693213D01*
X109033193Y-49673515D01*
X109008692Y-49651308D01*
X108986485Y-49626807D01*
X108966787Y-49600247D01*
X108949787Y-49571884D01*
X108935649Y-49541991D01*
X108924509Y-49510857D01*
X108916475Y-49478781D01*
X108911623Y-49446071D01*
X108910000Y-49413044D01*
X108910000Y-48536956D01*
X108911623Y-48503929D01*
X108916475Y-48471219D01*
X108924509Y-48439143D01*
X108935649Y-48408009D01*
X108949787Y-48378116D01*
X108966787Y-48349753D01*
X108986485Y-48323193D01*
X109008692Y-48298692D01*
X109033193Y-48276485D01*
X109059753Y-48256787D01*
X109088116Y-48239787D01*
X109118009Y-48225649D01*
X109149143Y-48214509D01*
X109181219Y-48206475D01*
X109213929Y-48201623D01*
X109246956Y-48200000D01*
X110373044Y-48200000D01*
X110406071Y-48201623D01*
X110406071Y-48201623D01*
G37*
D11*
X109810000Y-48975000D03*
G04 #@! TD*
D12*
G04 #@! TO.C,U3*
X111715000Y-50710000D03*
X112985000Y-50710000D03*
X114255000Y-50710000D03*
X115525000Y-50710000D03*
X115525000Y-45310000D03*
X114255000Y-45310000D03*
X112985000Y-45310000D03*
X111715000Y-45310000D03*
G04 #@! TD*
D13*
G04 #@! TO.C,U2*
X95737000Y-52915500D03*
X95737000Y-50375500D03*
X95737000Y-47835500D03*
X95737000Y-45295500D03*
G04 #@! TD*
G04 #@! TO.C,U4*
X100774500Y-45275500D03*
X100774500Y-47815500D03*
X100774500Y-50355500D03*
X100774500Y-52895500D03*
G04 #@! TD*
D14*
G04 #@! TO.C,J1*
X130130000Y-44040000D03*
D15*
X130130000Y-46580000D03*
X130130000Y-49120000D03*
X130130000Y-51660000D03*
X130130000Y-54200000D03*
G04 #@! TD*
G04 #@! TO.C,J2*
X133940000Y-54200000D03*
X133940000Y-51660000D03*
X133940000Y-49120000D03*
X133940000Y-46580000D03*
D14*
X133940000Y-44040000D03*
G04 #@! TD*
M02*
