G04 #@! TF.GenerationSoftware,KiCad,Pcbnew,5.0.0-fee4fd1~66~ubuntu18.04.1*
G04 #@! TF.CreationDate,2018-10-20T19:30:02+02:00*
G04 #@! TF.ProjectId,bmp280-sensor-board,626D703238302D73656E736F722D626F,rev?*
G04 #@! TF.SameCoordinates,Original*
G04 #@! TF.FileFunction,Legend,Top*
G04 #@! TF.FilePolarity,Positive*
%FSLAX46Y46*%
G04 Gerber Fmt 4.6, Leading zero omitted, Abs format (unit mm)*
G04 Created by KiCad (PCBNEW 5.0.0-fee4fd1~66~ubuntu18.04.1) date Sat Oct 20 19:30:02 2018*
%MOMM*%
%LPD*%
G01*
G04 APERTURE LIST*
%ADD10C,0.120000*%
%ADD11C,0.150000*%
G04 APERTURE END LIST*
D10*
G04 #@! TO.C,R1*
X110565000Y-44803748D02*
X110565000Y-45326252D01*
X109145000Y-44803748D02*
X109145000Y-45326252D01*
G04 #@! TO.C,R2*
X109100000Y-49738748D02*
X109100000Y-50261252D01*
X110520000Y-49738748D02*
X110520000Y-50261252D01*
D11*
G04 #@! TO.C,U3*
X111045000Y-50085000D02*
X111095000Y-50085000D01*
X111045000Y-45935000D02*
X111190000Y-45935000D01*
X116195000Y-45935000D02*
X116050000Y-45935000D01*
X116195000Y-50085000D02*
X116050000Y-50085000D01*
X111045000Y-50085000D02*
X111045000Y-45935000D01*
X116195000Y-50085000D02*
X116195000Y-45935000D01*
X111095000Y-50085000D02*
X111095000Y-51485000D01*
G04 #@! TO.C,U2*
X96647000Y-44005500D02*
X94742000Y-44005500D01*
X96647000Y-54165500D02*
X96647000Y-44005500D01*
X94742000Y-54165500D02*
X96647000Y-54165500D01*
X94742000Y-44005500D02*
X94742000Y-54165500D01*
G04 #@! TO.C,U4*
X99779500Y-43985500D02*
X99779500Y-54145500D01*
X99779500Y-54145500D02*
X101684500Y-54145500D01*
X101684500Y-54145500D02*
X101684500Y-43985500D01*
X101684500Y-43985500D02*
X99779500Y-43985500D01*
D10*
G04 #@! TO.C,J1*
X128800000Y-55530000D02*
X131460000Y-55530000D01*
X128800000Y-45310000D02*
X128800000Y-55530000D01*
X131460000Y-45310000D02*
X131460000Y-55530000D01*
X128800000Y-45310000D02*
X131460000Y-45310000D01*
X128800000Y-44040000D02*
X128800000Y-42710000D01*
X128800000Y-42710000D02*
X130130000Y-42710000D01*
G04 #@! TO.C,J2*
X132610000Y-42710000D02*
X133940000Y-42710000D01*
X132610000Y-44040000D02*
X132610000Y-42710000D01*
X132610000Y-45310000D02*
X135270000Y-45310000D01*
X135270000Y-45310000D02*
X135270000Y-55530000D01*
X132610000Y-45310000D02*
X132610000Y-55530000D01*
X132610000Y-55530000D02*
X135270000Y-55530000D01*
G04 #@! TO.C,R1*
D11*
X111957380Y-45231666D02*
X111481190Y-45565000D01*
X111957380Y-45803095D02*
X110957380Y-45803095D01*
X110957380Y-45422142D01*
X111005000Y-45326904D01*
X111052619Y-45279285D01*
X111147857Y-45231666D01*
X111290714Y-45231666D01*
X111385952Y-45279285D01*
X111433571Y-45326904D01*
X111481190Y-45422142D01*
X111481190Y-45803095D01*
X111957380Y-44279285D02*
X111957380Y-44850714D01*
X111957380Y-44565000D02*
X110957380Y-44565000D01*
X111100238Y-44660238D01*
X111195476Y-44755476D01*
X111243095Y-44850714D01*
G04 #@! TO.C,R2*
X111912380Y-50166666D02*
X111436190Y-50500000D01*
X111912380Y-50738095D02*
X110912380Y-50738095D01*
X110912380Y-50357142D01*
X110960000Y-50261904D01*
X111007619Y-50214285D01*
X111102857Y-50166666D01*
X111245714Y-50166666D01*
X111340952Y-50214285D01*
X111388571Y-50261904D01*
X111436190Y-50357142D01*
X111436190Y-50738095D01*
X111007619Y-49785714D02*
X110960000Y-49738095D01*
X110912380Y-49642857D01*
X110912380Y-49404761D01*
X110960000Y-49309523D01*
X111007619Y-49261904D01*
X111102857Y-49214285D01*
X111198095Y-49214285D01*
X111340952Y-49261904D01*
X111912380Y-49833333D01*
X111912380Y-49214285D01*
G04 #@! TO.C,U3*
X109572380Y-48771904D02*
X110381904Y-48771904D01*
X110477142Y-48724285D01*
X110524761Y-48676666D01*
X110572380Y-48581428D01*
X110572380Y-48390952D01*
X110524761Y-48295714D01*
X110477142Y-48248095D01*
X110381904Y-48200476D01*
X109572380Y-48200476D01*
X109572380Y-47819523D02*
X109572380Y-47200476D01*
X109953333Y-47533809D01*
X109953333Y-47390952D01*
X110000952Y-47295714D01*
X110048571Y-47248095D01*
X110143809Y-47200476D01*
X110381904Y-47200476D01*
X110477142Y-47248095D01*
X110524761Y-47295714D01*
X110572380Y-47390952D01*
X110572380Y-47676666D01*
X110524761Y-47771904D01*
X110477142Y-47819523D01*
G04 #@! TO.C,U2*
X100965095Y-49037880D02*
X100965095Y-49847404D01*
X101012714Y-49942642D01*
X101060333Y-49990261D01*
X101155571Y-50037880D01*
X101346047Y-50037880D01*
X101441285Y-49990261D01*
X101488904Y-49942642D01*
X101536523Y-49847404D01*
X101536523Y-49037880D01*
X101965095Y-49133119D02*
X102012714Y-49085500D01*
X102107952Y-49037880D01*
X102346047Y-49037880D01*
X102441285Y-49085500D01*
X102488904Y-49133119D01*
X102536523Y-49228357D01*
X102536523Y-49323595D01*
X102488904Y-49466452D01*
X101917476Y-50037880D01*
X102536523Y-50037880D01*
X96943666Y-44747880D02*
X97277000Y-45747880D01*
X97610333Y-44747880D01*
X98515095Y-45652642D02*
X98467476Y-45700261D01*
X98324619Y-45747880D01*
X98229380Y-45747880D01*
X98086523Y-45700261D01*
X97991285Y-45605023D01*
X97943666Y-45509785D01*
X97896047Y-45319309D01*
X97896047Y-45176452D01*
X97943666Y-44985976D01*
X97991285Y-44890738D01*
X98086523Y-44795500D01*
X98229380Y-44747880D01*
X98324619Y-44747880D01*
X98467476Y-44795500D01*
X98515095Y-44843119D01*
X99515095Y-45652642D02*
X99467476Y-45700261D01*
X99324619Y-45747880D01*
X99229380Y-45747880D01*
X99086523Y-45700261D01*
X98991285Y-45605023D01*
X98943666Y-45509785D01*
X98896047Y-45319309D01*
X98896047Y-45176452D01*
X98943666Y-44985976D01*
X98991285Y-44890738D01*
X99086523Y-44795500D01*
X99229380Y-44747880D01*
X99324619Y-44747880D01*
X99467476Y-44795500D01*
X99515095Y-44843119D01*
X97515095Y-47335500D02*
X97419857Y-47287880D01*
X97277000Y-47287880D01*
X97134142Y-47335500D01*
X97038904Y-47430738D01*
X96991285Y-47525976D01*
X96943666Y-47716452D01*
X96943666Y-47859309D01*
X96991285Y-48049785D01*
X97038904Y-48145023D01*
X97134142Y-48240261D01*
X97277000Y-48287880D01*
X97372238Y-48287880D01*
X97515095Y-48240261D01*
X97562714Y-48192642D01*
X97562714Y-47859309D01*
X97372238Y-47859309D01*
X97991285Y-48287880D02*
X97991285Y-47287880D01*
X98562714Y-48287880D01*
X98562714Y-47287880D01*
X99038904Y-48287880D02*
X99038904Y-47287880D01*
X99277000Y-47287880D01*
X99419857Y-47335500D01*
X99515095Y-47430738D01*
X99562714Y-47525976D01*
X99610333Y-47716452D01*
X99610333Y-47859309D01*
X99562714Y-48049785D01*
X99515095Y-48145023D01*
X99419857Y-48240261D01*
X99277000Y-48287880D01*
X99038904Y-48287880D01*
X97086523Y-50780261D02*
X97229380Y-50827880D01*
X97467476Y-50827880D01*
X97562714Y-50780261D01*
X97610333Y-50732642D01*
X97657952Y-50637404D01*
X97657952Y-50542166D01*
X97610333Y-50446928D01*
X97562714Y-50399309D01*
X97467476Y-50351690D01*
X97277000Y-50304071D01*
X97181761Y-50256452D01*
X97134142Y-50208833D01*
X97086523Y-50113595D01*
X97086523Y-50018357D01*
X97134142Y-49923119D01*
X97181761Y-49875500D01*
X97277000Y-49827880D01*
X97515095Y-49827880D01*
X97657952Y-49875500D01*
X98657952Y-50732642D02*
X98610333Y-50780261D01*
X98467476Y-50827880D01*
X98372238Y-50827880D01*
X98229380Y-50780261D01*
X98134142Y-50685023D01*
X98086523Y-50589785D01*
X98038904Y-50399309D01*
X98038904Y-50256452D01*
X98086523Y-50065976D01*
X98134142Y-49970738D01*
X98229380Y-49875500D01*
X98372238Y-49827880D01*
X98467476Y-49827880D01*
X98610333Y-49875500D01*
X98657952Y-49923119D01*
X99562714Y-50827880D02*
X99086523Y-50827880D01*
X99086523Y-49827880D01*
X97062714Y-53320261D02*
X97205571Y-53367880D01*
X97443666Y-53367880D01*
X97538904Y-53320261D01*
X97586523Y-53272642D01*
X97634142Y-53177404D01*
X97634142Y-53082166D01*
X97586523Y-52986928D01*
X97538904Y-52939309D01*
X97443666Y-52891690D01*
X97253190Y-52844071D01*
X97157952Y-52796452D01*
X97110333Y-52748833D01*
X97062714Y-52653595D01*
X97062714Y-52558357D01*
X97110333Y-52463119D01*
X97157952Y-52415500D01*
X97253190Y-52367880D01*
X97491285Y-52367880D01*
X97634142Y-52415500D01*
X98062714Y-53367880D02*
X98062714Y-52367880D01*
X98300809Y-52367880D01*
X98443666Y-52415500D01*
X98538904Y-52510738D01*
X98586523Y-52605976D01*
X98634142Y-52796452D01*
X98634142Y-52939309D01*
X98586523Y-53129785D01*
X98538904Y-53225023D01*
X98443666Y-53320261D01*
X98300809Y-53367880D01*
X98062714Y-53367880D01*
X99015095Y-53082166D02*
X99491285Y-53082166D01*
X98919857Y-53367880D02*
X99253190Y-52367880D01*
X99586523Y-53367880D01*
G04 #@! TO.C,U4*
X106002595Y-49017880D02*
X106002595Y-49827404D01*
X106050214Y-49922642D01*
X106097833Y-49970261D01*
X106193071Y-50017880D01*
X106383547Y-50017880D01*
X106478785Y-49970261D01*
X106526404Y-49922642D01*
X106574023Y-49827404D01*
X106574023Y-49017880D01*
X107478785Y-49351214D02*
X107478785Y-50017880D01*
X107240690Y-48970261D02*
X107002595Y-49684547D01*
X107621642Y-49684547D01*
X102100214Y-53300261D02*
X102243071Y-53347880D01*
X102481166Y-53347880D01*
X102576404Y-53300261D01*
X102624023Y-53252642D01*
X102671642Y-53157404D01*
X102671642Y-53062166D01*
X102624023Y-52966928D01*
X102576404Y-52919309D01*
X102481166Y-52871690D01*
X102290690Y-52824071D01*
X102195452Y-52776452D01*
X102147833Y-52728833D01*
X102100214Y-52633595D01*
X102100214Y-52538357D01*
X102147833Y-52443119D01*
X102195452Y-52395500D01*
X102290690Y-52347880D01*
X102528785Y-52347880D01*
X102671642Y-52395500D01*
X103100214Y-53347880D02*
X103100214Y-52347880D01*
X103338309Y-52347880D01*
X103481166Y-52395500D01*
X103576404Y-52490738D01*
X103624023Y-52585976D01*
X103671642Y-52776452D01*
X103671642Y-52919309D01*
X103624023Y-53109785D01*
X103576404Y-53205023D01*
X103481166Y-53300261D01*
X103338309Y-53347880D01*
X103100214Y-53347880D01*
X104052595Y-53062166D02*
X104528785Y-53062166D01*
X103957357Y-53347880D02*
X104290690Y-52347880D01*
X104624023Y-53347880D01*
X102124023Y-50760261D02*
X102266880Y-50807880D01*
X102504976Y-50807880D01*
X102600214Y-50760261D01*
X102647833Y-50712642D01*
X102695452Y-50617404D01*
X102695452Y-50522166D01*
X102647833Y-50426928D01*
X102600214Y-50379309D01*
X102504976Y-50331690D01*
X102314500Y-50284071D01*
X102219261Y-50236452D01*
X102171642Y-50188833D01*
X102124023Y-50093595D01*
X102124023Y-49998357D01*
X102171642Y-49903119D01*
X102219261Y-49855500D01*
X102314500Y-49807880D01*
X102552595Y-49807880D01*
X102695452Y-49855500D01*
X103695452Y-50712642D02*
X103647833Y-50760261D01*
X103504976Y-50807880D01*
X103409738Y-50807880D01*
X103266880Y-50760261D01*
X103171642Y-50665023D01*
X103124023Y-50569785D01*
X103076404Y-50379309D01*
X103076404Y-50236452D01*
X103124023Y-50045976D01*
X103171642Y-49950738D01*
X103266880Y-49855500D01*
X103409738Y-49807880D01*
X103504976Y-49807880D01*
X103647833Y-49855500D01*
X103695452Y-49903119D01*
X104600214Y-50807880D02*
X104124023Y-50807880D01*
X104124023Y-49807880D01*
X102552595Y-47315500D02*
X102457357Y-47267880D01*
X102314500Y-47267880D01*
X102171642Y-47315500D01*
X102076404Y-47410738D01*
X102028785Y-47505976D01*
X101981166Y-47696452D01*
X101981166Y-47839309D01*
X102028785Y-48029785D01*
X102076404Y-48125023D01*
X102171642Y-48220261D01*
X102314500Y-48267880D01*
X102409738Y-48267880D01*
X102552595Y-48220261D01*
X102600214Y-48172642D01*
X102600214Y-47839309D01*
X102409738Y-47839309D01*
X103028785Y-48267880D02*
X103028785Y-47267880D01*
X103600214Y-48267880D01*
X103600214Y-47267880D01*
X104076404Y-48267880D02*
X104076404Y-47267880D01*
X104314500Y-47267880D01*
X104457357Y-47315500D01*
X104552595Y-47410738D01*
X104600214Y-47505976D01*
X104647833Y-47696452D01*
X104647833Y-47839309D01*
X104600214Y-48029785D01*
X104552595Y-48125023D01*
X104457357Y-48220261D01*
X104314500Y-48267880D01*
X104076404Y-48267880D01*
X101981166Y-44727880D02*
X102314500Y-45727880D01*
X102647833Y-44727880D01*
X103552595Y-45632642D02*
X103504976Y-45680261D01*
X103362119Y-45727880D01*
X103266880Y-45727880D01*
X103124023Y-45680261D01*
X103028785Y-45585023D01*
X102981166Y-45489785D01*
X102933547Y-45299309D01*
X102933547Y-45156452D01*
X102981166Y-44965976D01*
X103028785Y-44870738D01*
X103124023Y-44775500D01*
X103266880Y-44727880D01*
X103362119Y-44727880D01*
X103504976Y-44775500D01*
X103552595Y-44823119D01*
X104552595Y-45632642D02*
X104504976Y-45680261D01*
X104362119Y-45727880D01*
X104266880Y-45727880D01*
X104124023Y-45680261D01*
X104028785Y-45585023D01*
X103981166Y-45489785D01*
X103933547Y-45299309D01*
X103933547Y-45156452D01*
X103981166Y-44965976D01*
X104028785Y-44870738D01*
X104124023Y-44775500D01*
X104266880Y-44727880D01*
X104362119Y-44727880D01*
X104504976Y-44775500D01*
X104552595Y-44823119D01*
G04 #@! TO.C,J1*
X129796666Y-41162380D02*
X129796666Y-41876666D01*
X129749047Y-42019523D01*
X129653809Y-42114761D01*
X129510952Y-42162380D01*
X129415714Y-42162380D01*
X130796666Y-42162380D02*
X130225238Y-42162380D01*
X130510952Y-42162380D02*
X130510952Y-41162380D01*
X130415714Y-41305238D01*
X130320476Y-41400476D01*
X130225238Y-41448095D01*
G04 #@! TO.C,J2*
X133606666Y-41162380D02*
X133606666Y-41876666D01*
X133559047Y-42019523D01*
X133463809Y-42114761D01*
X133320952Y-42162380D01*
X133225714Y-42162380D01*
X134035238Y-41257619D02*
X134082857Y-41210000D01*
X134178095Y-41162380D01*
X134416190Y-41162380D01*
X134511428Y-41210000D01*
X134559047Y-41257619D01*
X134606666Y-41352857D01*
X134606666Y-41448095D01*
X134559047Y-41590952D01*
X133987619Y-42162380D01*
X134606666Y-42162380D01*
G04 #@! TD*
M02*
