G04 #@! TF.GenerationSoftware,KiCad,Pcbnew,5.0.0-fee4fd1~66~ubuntu18.04.1*
G04 #@! TF.CreationDate,2018-10-20T19:30:02+02:00*
G04 #@! TF.ProjectId,bmp280-sensor-board,626D703238302D73656E736F722D626F,rev?*
G04 #@! TF.SameCoordinates,Original*
G04 #@! TF.FileFunction,Copper,L2,Bot,Signal*
G04 #@! TF.FilePolarity,Positive*
%FSLAX46Y46*%
G04 Gerber Fmt 4.6, Leading zero omitted, Abs format (unit mm)*
G04 Created by KiCad (PCBNEW 5.0.0-fee4fd1~66~ubuntu18.04.1) date Sat Oct 20 19:30:02 2018*
%MOMM*%
%LPD*%
G01*
G04 APERTURE LIST*
G04 #@! TA.AperFunction,SMDPad,CuDef*
%ADD10R,1.600000X3.000000*%
G04 #@! TD*
G04 #@! TA.AperFunction,SMDPad,CuDef*
%ADD11R,0.650000X1.060000*%
G04 #@! TD*
G04 #@! TA.AperFunction,Conductor*
%ADD12C,0.100000*%
G04 #@! TD*
G04 #@! TA.AperFunction,SMDPad,CuDef*
%ADD13C,1.150000*%
G04 #@! TD*
G04 #@! TA.AperFunction,ComponentPad*
%ADD14C,1.700000*%
G04 #@! TD*
G04 #@! TA.AperFunction,ComponentPad*
%ADD15R,1.800000X1.800000*%
G04 #@! TD*
G04 #@! TA.AperFunction,ComponentPad*
%ADD16O,1.900000X1.900000*%
G04 #@! TD*
G04 #@! TA.AperFunction,ViaPad*
%ADD17C,0.800000*%
G04 #@! TD*
G04 #@! TA.AperFunction,Conductor*
%ADD18C,0.500000*%
G04 #@! TD*
G04 #@! TA.AperFunction,Conductor*
%ADD19C,0.250000*%
G04 #@! TD*
G04 #@! TA.AperFunction,Conductor*
%ADD20C,0.400000*%
G04 #@! TD*
G04 #@! TA.AperFunction,Conductor*
%ADD21C,0.254000*%
G04 #@! TD*
G04 APERTURE END LIST*
D10*
G04 #@! TO.P,C1,1*
G04 #@! TO.N,+5V*
X113665000Y-49530000D03*
G04 #@! TO.P,C1,2*
G04 #@! TO.N,GND*
X113665000Y-53930000D03*
G04 #@! TD*
G04 #@! TO.P,C2,1*
G04 #@! TO.N,+3V3*
X105410000Y-44790000D03*
G04 #@! TO.P,C2,2*
G04 #@! TO.N,GND*
X105410000Y-49190000D03*
G04 #@! TD*
D11*
G04 #@! TO.P,U1,1*
G04 #@! TO.N,+5V*
X106680000Y-54610000D03*
G04 #@! TO.P,U1,2*
G04 #@! TO.N,GND*
X105730000Y-54610000D03*
G04 #@! TO.P,U1,3*
X104780000Y-54610000D03*
G04 #@! TO.P,U1,4*
G04 #@! TO.N,Net-(U1-Pad4)*
X104780000Y-52410000D03*
G04 #@! TO.P,U1,5*
G04 #@! TO.N,+3V3*
X106680000Y-52410000D03*
G04 #@! TD*
D12*
G04 #@! TO.N,+5V*
G04 #@! TO.C,C3*
G36*
X116552505Y-47949204D02*
X116576773Y-47952804D01*
X116600572Y-47958765D01*
X116623671Y-47967030D01*
X116645850Y-47977520D01*
X116666893Y-47990132D01*
X116686599Y-48004747D01*
X116704777Y-48021223D01*
X116721253Y-48039401D01*
X116735868Y-48059107D01*
X116748480Y-48080150D01*
X116758970Y-48102329D01*
X116767235Y-48125428D01*
X116773196Y-48149227D01*
X116776796Y-48173495D01*
X116778000Y-48197999D01*
X116778000Y-48848001D01*
X116776796Y-48872505D01*
X116773196Y-48896773D01*
X116767235Y-48920572D01*
X116758970Y-48943671D01*
X116748480Y-48965850D01*
X116735868Y-48986893D01*
X116721253Y-49006599D01*
X116704777Y-49024777D01*
X116686599Y-49041253D01*
X116666893Y-49055868D01*
X116645850Y-49068480D01*
X116623671Y-49078970D01*
X116600572Y-49087235D01*
X116576773Y-49093196D01*
X116552505Y-49096796D01*
X116528001Y-49098000D01*
X115627999Y-49098000D01*
X115603495Y-49096796D01*
X115579227Y-49093196D01*
X115555428Y-49087235D01*
X115532329Y-49078970D01*
X115510150Y-49068480D01*
X115489107Y-49055868D01*
X115469401Y-49041253D01*
X115451223Y-49024777D01*
X115434747Y-49006599D01*
X115420132Y-48986893D01*
X115407520Y-48965850D01*
X115397030Y-48943671D01*
X115388765Y-48920572D01*
X115382804Y-48896773D01*
X115379204Y-48872505D01*
X115378000Y-48848001D01*
X115378000Y-48197999D01*
X115379204Y-48173495D01*
X115382804Y-48149227D01*
X115388765Y-48125428D01*
X115397030Y-48102329D01*
X115407520Y-48080150D01*
X115420132Y-48059107D01*
X115434747Y-48039401D01*
X115451223Y-48021223D01*
X115469401Y-48004747D01*
X115489107Y-47990132D01*
X115510150Y-47977520D01*
X115532329Y-47967030D01*
X115555428Y-47958765D01*
X115579227Y-47952804D01*
X115603495Y-47949204D01*
X115627999Y-47948000D01*
X116528001Y-47948000D01*
X116552505Y-47949204D01*
X116552505Y-47949204D01*
G37*
D13*
G04 #@! TD*
G04 #@! TO.P,C3,1*
G04 #@! TO.N,+5V*
X116078000Y-48523000D03*
D12*
G04 #@! TO.N,GND*
G04 #@! TO.C,C3*
G36*
X116552505Y-45899204D02*
X116576773Y-45902804D01*
X116600572Y-45908765D01*
X116623671Y-45917030D01*
X116645850Y-45927520D01*
X116666893Y-45940132D01*
X116686599Y-45954747D01*
X116704777Y-45971223D01*
X116721253Y-45989401D01*
X116735868Y-46009107D01*
X116748480Y-46030150D01*
X116758970Y-46052329D01*
X116767235Y-46075428D01*
X116773196Y-46099227D01*
X116776796Y-46123495D01*
X116778000Y-46147999D01*
X116778000Y-46798001D01*
X116776796Y-46822505D01*
X116773196Y-46846773D01*
X116767235Y-46870572D01*
X116758970Y-46893671D01*
X116748480Y-46915850D01*
X116735868Y-46936893D01*
X116721253Y-46956599D01*
X116704777Y-46974777D01*
X116686599Y-46991253D01*
X116666893Y-47005868D01*
X116645850Y-47018480D01*
X116623671Y-47028970D01*
X116600572Y-47037235D01*
X116576773Y-47043196D01*
X116552505Y-47046796D01*
X116528001Y-47048000D01*
X115627999Y-47048000D01*
X115603495Y-47046796D01*
X115579227Y-47043196D01*
X115555428Y-47037235D01*
X115532329Y-47028970D01*
X115510150Y-47018480D01*
X115489107Y-47005868D01*
X115469401Y-46991253D01*
X115451223Y-46974777D01*
X115434747Y-46956599D01*
X115420132Y-46936893D01*
X115407520Y-46915850D01*
X115397030Y-46893671D01*
X115388765Y-46870572D01*
X115382804Y-46846773D01*
X115379204Y-46822505D01*
X115378000Y-46798001D01*
X115378000Y-46147999D01*
X115379204Y-46123495D01*
X115382804Y-46099227D01*
X115388765Y-46075428D01*
X115397030Y-46052329D01*
X115407520Y-46030150D01*
X115420132Y-46009107D01*
X115434747Y-45989401D01*
X115451223Y-45971223D01*
X115469401Y-45954747D01*
X115489107Y-45940132D01*
X115510150Y-45927520D01*
X115532329Y-45917030D01*
X115555428Y-45908765D01*
X115579227Y-45902804D01*
X115603495Y-45899204D01*
X115627999Y-45898000D01*
X116528001Y-45898000D01*
X116552505Y-45899204D01*
X116552505Y-45899204D01*
G37*
D13*
G04 #@! TD*
G04 #@! TO.P,C3,2*
G04 #@! TO.N,GND*
X116078000Y-46473000D03*
D14*
G04 #@! TO.P,U2,4*
G04 #@! TO.N,/SDA*
X95737000Y-52915500D03*
G04 #@! TO.P,U2,3*
G04 #@! TO.N,/SCL*
X95737000Y-50375500D03*
G04 #@! TO.P,U2,2*
G04 #@! TO.N,GND*
X95737000Y-47835500D03*
G04 #@! TO.P,U2,1*
G04 #@! TO.N,+3V3*
X95737000Y-45295500D03*
G04 #@! TD*
G04 #@! TO.P,U4,1*
G04 #@! TO.N,+3V3*
X100774500Y-45275500D03*
G04 #@! TO.P,U4,2*
G04 #@! TO.N,GND*
X100774500Y-47815500D03*
G04 #@! TO.P,U4,3*
G04 #@! TO.N,/SCL*
X100774500Y-50355500D03*
G04 #@! TO.P,U4,4*
G04 #@! TO.N,/SDA*
X100774500Y-52895500D03*
G04 #@! TD*
D15*
G04 #@! TO.P,J1,1*
G04 #@! TO.N,GND*
X130130000Y-44040000D03*
D16*
G04 #@! TO.P,J1,2*
G04 #@! TO.N,Net-(J1-Pad2)*
X130130000Y-46580000D03*
G04 #@! TO.P,J1,3*
G04 #@! TO.N,/SCLBUF*
X130130000Y-49120000D03*
G04 #@! TO.P,J1,4*
G04 #@! TO.N,/SDABUF*
X130130000Y-51660000D03*
G04 #@! TO.P,J1,5*
G04 #@! TO.N,+5V*
X130130000Y-54200000D03*
G04 #@! TD*
G04 #@! TO.P,J2,5*
G04 #@! TO.N,+5V*
X133940000Y-54200000D03*
G04 #@! TO.P,J2,4*
G04 #@! TO.N,/SDABUF*
X133940000Y-51660000D03*
G04 #@! TO.P,J2,3*
G04 #@! TO.N,/SCLBUF*
X133940000Y-49120000D03*
G04 #@! TO.P,J2,2*
G04 #@! TO.N,Net-(J2-Pad2)*
X133940000Y-46580000D03*
D15*
G04 #@! TO.P,J2,1*
G04 #@! TO.N,GND*
X133940000Y-44040000D03*
G04 #@! TD*
D17*
G04 #@! TO.N,+5V*
X118065000Y-43405000D03*
G04 #@! TO.N,GND*
X98298000Y-51562000D03*
X117430000Y-54200000D03*
X118700000Y-52930000D03*
X132035000Y-47850000D03*
X132035000Y-50390000D03*
X132035000Y-52930000D03*
X118065000Y-51025000D03*
G04 #@! TO.N,+3V3*
X108585000Y-51435000D03*
X108585000Y-43815000D03*
G04 #@! TD*
D18*
G04 #@! TO.N,+5V*
X107505000Y-54610000D02*
X106680000Y-54610000D01*
X109285000Y-54610000D02*
X107505000Y-54610000D01*
X113665000Y-50230000D02*
X109285000Y-54610000D01*
X113665000Y-49530000D02*
X113665000Y-50230000D01*
X114672000Y-48523000D02*
X113665000Y-49530000D01*
X116078000Y-48523000D02*
X114672000Y-48523000D01*
X114030000Y-49530000D02*
X113665000Y-49530000D01*
X130130000Y-54200000D02*
X118700000Y-54200000D01*
X118700000Y-54200000D02*
X114030000Y-49530000D01*
X133940000Y-54200000D02*
X130130000Y-54200000D01*
X118065000Y-46536000D02*
X116078000Y-48523000D01*
X118065000Y-43405000D02*
X118065000Y-46536000D01*
D19*
G04 #@! TO.N,GND*
X114715000Y-53930000D02*
X114985000Y-54200000D01*
X113665000Y-53930000D02*
X114715000Y-53930000D01*
X114985000Y-54200000D02*
X117430000Y-54200000D01*
X132035000Y-46745998D02*
X132035000Y-47850000D01*
X133940000Y-44040000D02*
X134740998Y-44040000D01*
D20*
G04 #@! TO.N,+3V3*
X106680000Y-52410000D02*
X107610000Y-52410000D01*
X107610000Y-52410000D02*
X108585000Y-51435000D01*
X108585000Y-51435000D02*
X108585000Y-43815000D01*
X107610000Y-44790000D02*
X108585000Y-43815000D01*
X105410000Y-44790000D02*
X107610000Y-44790000D01*
X95757000Y-45275500D02*
X95737000Y-45295500D01*
X100774500Y-45275500D02*
X95757000Y-45275500D01*
X101260000Y-44790000D02*
X100774500Y-45275500D01*
X105410000Y-44790000D02*
X101260000Y-44790000D01*
D19*
G04 #@! TO.N,/SCL*
X95757000Y-50355500D02*
X95737000Y-50375500D01*
X100774500Y-50355500D02*
X95757000Y-50355500D01*
G04 #@! TO.N,/SDA*
X95757000Y-52895500D02*
X95737000Y-52915500D01*
X100774500Y-52895500D02*
X95757000Y-52895500D01*
G04 #@! TO.N,/SDABUF*
X133940000Y-51660000D02*
X130130000Y-51660000D01*
G04 #@! TO.N,/SCLBUF*
X133940000Y-49120000D02*
X130130000Y-49120000D01*
G04 #@! TD*
D21*
G04 #@! TO.N,GND*
G36*
X135243000Y-42644975D02*
X135199698Y-42601673D01*
X134966309Y-42505000D01*
X134225750Y-42505000D01*
X134067000Y-42663750D01*
X134067000Y-43913000D01*
X134087000Y-43913000D01*
X134087000Y-44167000D01*
X134067000Y-44167000D01*
X134067000Y-44187000D01*
X133813000Y-44187000D01*
X133813000Y-44167000D01*
X132563750Y-44167000D01*
X132405000Y-44325750D01*
X132405000Y-45066310D01*
X132501673Y-45299699D01*
X132680302Y-45478327D01*
X132852173Y-45549518D01*
X132548697Y-46003703D01*
X132434064Y-46580000D01*
X132548697Y-47156297D01*
X132875142Y-47644858D01*
X133182160Y-47850000D01*
X132875142Y-48055142D01*
X132599280Y-48468000D01*
X131470720Y-48468000D01*
X131194858Y-48055142D01*
X130887840Y-47850000D01*
X131194858Y-47644858D01*
X131521303Y-47156297D01*
X131635936Y-46580000D01*
X131521303Y-46003703D01*
X131217827Y-45549518D01*
X131389698Y-45478327D01*
X131568327Y-45299699D01*
X131665000Y-45066310D01*
X131665000Y-44325750D01*
X131506250Y-44167000D01*
X130257000Y-44167000D01*
X130257000Y-44187000D01*
X130003000Y-44187000D01*
X130003000Y-44167000D01*
X128753750Y-44167000D01*
X128595000Y-44325750D01*
X128595000Y-45066310D01*
X128691673Y-45299699D01*
X128870302Y-45478327D01*
X129042173Y-45549518D01*
X128738697Y-46003703D01*
X128624064Y-46580000D01*
X128738697Y-47156297D01*
X129065142Y-47644858D01*
X129372160Y-47850000D01*
X129065142Y-48055142D01*
X128738697Y-48543703D01*
X128624064Y-49120000D01*
X128738697Y-49696297D01*
X129065142Y-50184858D01*
X129372160Y-50390000D01*
X129065142Y-50595142D01*
X128738697Y-51083703D01*
X128624064Y-51660000D01*
X128738697Y-52236297D01*
X129065142Y-52724858D01*
X129372160Y-52930000D01*
X129065142Y-53135142D01*
X128872802Y-53423000D01*
X119021844Y-53423000D01*
X115002324Y-49403481D01*
X115002324Y-49301526D01*
X115071278Y-49404722D01*
X115326704Y-49575393D01*
X115627999Y-49635324D01*
X116528001Y-49635324D01*
X116829296Y-49575393D01*
X117084722Y-49404722D01*
X117255393Y-49149296D01*
X117315324Y-48848001D01*
X117315324Y-48384519D01*
X118560308Y-47139536D01*
X118625186Y-47096186D01*
X118796918Y-46839170D01*
X118842000Y-46612526D01*
X118857222Y-46536001D01*
X118842000Y-46459476D01*
X118842000Y-43938976D01*
X118850873Y-43930103D01*
X118992000Y-43589392D01*
X118992000Y-43220608D01*
X118906292Y-43013690D01*
X128595000Y-43013690D01*
X128595000Y-43754250D01*
X128753750Y-43913000D01*
X130003000Y-43913000D01*
X130003000Y-42663750D01*
X130257000Y-42663750D01*
X130257000Y-43913000D01*
X131506250Y-43913000D01*
X131665000Y-43754250D01*
X131665000Y-43013690D01*
X132405000Y-43013690D01*
X132405000Y-43754250D01*
X132563750Y-43913000D01*
X133813000Y-43913000D01*
X133813000Y-42663750D01*
X133654250Y-42505000D01*
X132913691Y-42505000D01*
X132680302Y-42601673D01*
X132501673Y-42780301D01*
X132405000Y-43013690D01*
X131665000Y-43013690D01*
X131568327Y-42780301D01*
X131389698Y-42601673D01*
X131156309Y-42505000D01*
X130415750Y-42505000D01*
X130257000Y-42663750D01*
X130003000Y-42663750D01*
X129844250Y-42505000D01*
X129103691Y-42505000D01*
X128870302Y-42601673D01*
X128691673Y-42780301D01*
X128595000Y-43013690D01*
X118906292Y-43013690D01*
X118850873Y-42879897D01*
X118590103Y-42619127D01*
X118249392Y-42478000D01*
X117880608Y-42478000D01*
X117539897Y-42619127D01*
X117279127Y-42879897D01*
X117138000Y-43220608D01*
X117138000Y-43589392D01*
X117279127Y-43930103D01*
X117288000Y-43938976D01*
X117288001Y-45509976D01*
X117137699Y-45359673D01*
X116904310Y-45263000D01*
X116363750Y-45263000D01*
X116205000Y-45421750D01*
X116205000Y-46346000D01*
X116225000Y-46346000D01*
X116225000Y-46600000D01*
X116205000Y-46600000D01*
X116205000Y-46620000D01*
X115951000Y-46620000D01*
X115951000Y-46600000D01*
X114901750Y-46600000D01*
X114743000Y-46758750D01*
X114743000Y-47174309D01*
X114839673Y-47407698D01*
X115018301Y-47586327D01*
X115101773Y-47620902D01*
X115071278Y-47641278D01*
X115001305Y-47746000D01*
X114909054Y-47746000D01*
X114844945Y-47650055D01*
X114670625Y-47533577D01*
X114465000Y-47492676D01*
X112865000Y-47492676D01*
X112659375Y-47533577D01*
X112485055Y-47650055D01*
X112368577Y-47824375D01*
X112327676Y-48030000D01*
X112327676Y-50468480D01*
X108963157Y-53833000D01*
X107473777Y-53833000D01*
X107384945Y-53700055D01*
X107210625Y-53583577D01*
X107005000Y-53542676D01*
X106415702Y-53542676D01*
X106414699Y-53541673D01*
X106181310Y-53445000D01*
X106015750Y-53445000D01*
X105857000Y-53603750D01*
X105857000Y-53882303D01*
X105817676Y-54080000D01*
X105817676Y-55140000D01*
X105857000Y-55337697D01*
X105857000Y-55616250D01*
X106015750Y-55775000D01*
X106181310Y-55775000D01*
X106414699Y-55678327D01*
X106415702Y-55677324D01*
X107005000Y-55677324D01*
X107210625Y-55636423D01*
X107384945Y-55519945D01*
X107473777Y-55387000D01*
X109208475Y-55387000D01*
X109285000Y-55402222D01*
X109361525Y-55387000D01*
X109361526Y-55387000D01*
X109588170Y-55341918D01*
X109845186Y-55170186D01*
X109888538Y-55105305D01*
X110778093Y-54215750D01*
X112230000Y-54215750D01*
X112230000Y-55556309D01*
X112326673Y-55789698D01*
X112505301Y-55968327D01*
X112738690Y-56065000D01*
X113379250Y-56065000D01*
X113538000Y-55906250D01*
X113538000Y-54057000D01*
X113792000Y-54057000D01*
X113792000Y-55906250D01*
X113950750Y-56065000D01*
X114591310Y-56065000D01*
X114824699Y-55968327D01*
X115003327Y-55789698D01*
X115100000Y-55556309D01*
X115100000Y-54215750D01*
X114941250Y-54057000D01*
X113792000Y-54057000D01*
X113538000Y-54057000D01*
X112388750Y-54057000D01*
X112230000Y-54215750D01*
X110778093Y-54215750D01*
X112230000Y-52763844D01*
X112230000Y-53644250D01*
X112388750Y-53803000D01*
X113538000Y-53803000D01*
X113538000Y-51953750D01*
X113792000Y-51953750D01*
X113792000Y-53803000D01*
X114941250Y-53803000D01*
X115100000Y-53644250D01*
X115100000Y-52303691D01*
X115003327Y-52070302D01*
X114824699Y-51891673D01*
X114591310Y-51795000D01*
X113950750Y-51795000D01*
X113792000Y-51953750D01*
X113538000Y-51953750D01*
X113379250Y-51795000D01*
X113198844Y-51795000D01*
X113426520Y-51567324D01*
X114465000Y-51567324D01*
X114670625Y-51526423D01*
X114824658Y-51423501D01*
X118096464Y-54695308D01*
X118139814Y-54760186D01*
X118396830Y-54931918D01*
X118623474Y-54977000D01*
X118699999Y-54992222D01*
X118776524Y-54977000D01*
X128872802Y-54977000D01*
X129065142Y-55264858D01*
X129553703Y-55591303D01*
X129984529Y-55677000D01*
X130275471Y-55677000D01*
X130706297Y-55591303D01*
X131194858Y-55264858D01*
X131387198Y-54977000D01*
X132682802Y-54977000D01*
X132875142Y-55264858D01*
X133363703Y-55591303D01*
X133794529Y-55677000D01*
X134085471Y-55677000D01*
X134516297Y-55591303D01*
X135004858Y-55264858D01*
X135243001Y-54908451D01*
X135243001Y-56138000D01*
X95172000Y-56138000D01*
X95172000Y-54895750D01*
X103820000Y-54895750D01*
X103820000Y-55266309D01*
X103916673Y-55499698D01*
X104095301Y-55678327D01*
X104328690Y-55775000D01*
X104494250Y-55775000D01*
X104653000Y-55616250D01*
X104653000Y-54895750D01*
X104770000Y-54895750D01*
X104770000Y-55266309D01*
X104866673Y-55499698D01*
X104907000Y-55540025D01*
X104907000Y-55616250D01*
X105065750Y-55775000D01*
X105231310Y-55775000D01*
X105255000Y-55765187D01*
X105278690Y-55775000D01*
X105444250Y-55775000D01*
X105603000Y-55616250D01*
X105603000Y-55540025D01*
X105643327Y-55499698D01*
X105740000Y-55266309D01*
X105740000Y-54895750D01*
X105603000Y-54758750D01*
X105603000Y-54737000D01*
X104907000Y-54737000D01*
X104907000Y-54758750D01*
X104770000Y-54895750D01*
X104653000Y-54895750D01*
X104653000Y-54737000D01*
X103978750Y-54737000D01*
X103820000Y-54895750D01*
X95172000Y-54895750D01*
X95172000Y-54171923D01*
X95463098Y-54292500D01*
X96010902Y-54292500D01*
X96517008Y-54082864D01*
X96904364Y-53695508D01*
X96965671Y-53547500D01*
X99554113Y-53547500D01*
X99607136Y-53675508D01*
X99994492Y-54062864D01*
X100500598Y-54272500D01*
X101048402Y-54272500D01*
X101554508Y-54062864D01*
X101663681Y-53953691D01*
X103820000Y-53953691D01*
X103820000Y-54324250D01*
X103978750Y-54483000D01*
X104653000Y-54483000D01*
X104653000Y-54463000D01*
X104907000Y-54463000D01*
X104907000Y-54483000D01*
X105603000Y-54483000D01*
X105603000Y-54461250D01*
X105740000Y-54324250D01*
X105740000Y-53953691D01*
X105643327Y-53720302D01*
X105603000Y-53679975D01*
X105603000Y-53603750D01*
X105444250Y-53445000D01*
X105278690Y-53445000D01*
X105255000Y-53454813D01*
X105243052Y-53449864D01*
X105310625Y-53436423D01*
X105484945Y-53319945D01*
X105601423Y-53145625D01*
X105642324Y-52940000D01*
X105642324Y-51880000D01*
X105601423Y-51674375D01*
X105484945Y-51500055D01*
X105310625Y-51383577D01*
X105105000Y-51342676D01*
X104455000Y-51342676D01*
X104249375Y-51383577D01*
X104075055Y-51500055D01*
X103958577Y-51674375D01*
X103917676Y-51880000D01*
X103917676Y-52940000D01*
X103958577Y-53145625D01*
X104075055Y-53319945D01*
X104249375Y-53436423D01*
X104316948Y-53449864D01*
X104095301Y-53541673D01*
X103916673Y-53720302D01*
X103820000Y-53953691D01*
X101663681Y-53953691D01*
X101941864Y-53675508D01*
X102151500Y-53169402D01*
X102151500Y-52621598D01*
X101941864Y-52115492D01*
X101554508Y-51728136D01*
X101306723Y-51625500D01*
X101554508Y-51522864D01*
X101941864Y-51135508D01*
X102151500Y-50629402D01*
X102151500Y-50081598D01*
X101941864Y-49575492D01*
X101842122Y-49475750D01*
X103975000Y-49475750D01*
X103975000Y-50816309D01*
X104071673Y-51049698D01*
X104250301Y-51228327D01*
X104483690Y-51325000D01*
X105124250Y-51325000D01*
X105283000Y-51166250D01*
X105283000Y-49317000D01*
X105537000Y-49317000D01*
X105537000Y-51166250D01*
X105695750Y-51325000D01*
X106336310Y-51325000D01*
X106569699Y-51228327D01*
X106748327Y-51049698D01*
X106845000Y-50816309D01*
X106845000Y-49475750D01*
X106686250Y-49317000D01*
X105537000Y-49317000D01*
X105283000Y-49317000D01*
X104133750Y-49317000D01*
X103975000Y-49475750D01*
X101842122Y-49475750D01*
X101554508Y-49188136D01*
X101463142Y-49150291D01*
X101558580Y-49110759D01*
X101638853Y-48859458D01*
X100774500Y-47995105D01*
X99910147Y-48859458D01*
X99990420Y-49110759D01*
X100092179Y-49147673D01*
X99994492Y-49188136D01*
X99607136Y-49575492D01*
X99554113Y-49703500D01*
X96949102Y-49703500D01*
X96904364Y-49595492D01*
X96517008Y-49208136D01*
X96425642Y-49170291D01*
X96521080Y-49130759D01*
X96601353Y-48879458D01*
X95737000Y-48015105D01*
X95722858Y-48029248D01*
X95543253Y-47849643D01*
X95557395Y-47835500D01*
X95916605Y-47835500D01*
X96780958Y-48699853D01*
X97032259Y-48619580D01*
X97233718Y-48064221D01*
X97212359Y-47586779D01*
X99277782Y-47586779D01*
X99304185Y-48176958D01*
X99479241Y-48599580D01*
X99730542Y-48679853D01*
X100594895Y-47815500D01*
X100954105Y-47815500D01*
X101818458Y-48679853D01*
X102069759Y-48599580D01*
X102271218Y-48044221D01*
X102249721Y-47563691D01*
X103975000Y-47563691D01*
X103975000Y-48904250D01*
X104133750Y-49063000D01*
X105283000Y-49063000D01*
X105283000Y-47213750D01*
X105537000Y-47213750D01*
X105537000Y-49063000D01*
X106686250Y-49063000D01*
X106845000Y-48904250D01*
X106845000Y-47563691D01*
X106748327Y-47330302D01*
X106569699Y-47151673D01*
X106336310Y-47055000D01*
X105695750Y-47055000D01*
X105537000Y-47213750D01*
X105283000Y-47213750D01*
X105124250Y-47055000D01*
X104483690Y-47055000D01*
X104250301Y-47151673D01*
X104071673Y-47330302D01*
X103975000Y-47563691D01*
X102249721Y-47563691D01*
X102244815Y-47454042D01*
X102069759Y-47031420D01*
X101818458Y-46951147D01*
X100954105Y-47815500D01*
X100594895Y-47815500D01*
X99730542Y-46951147D01*
X99479241Y-47031420D01*
X99277782Y-47586779D01*
X97212359Y-47586779D01*
X97207315Y-47474042D01*
X97032259Y-47051420D01*
X96780958Y-46971147D01*
X95916605Y-47835500D01*
X95557395Y-47835500D01*
X95543253Y-47821358D01*
X95722858Y-47641753D01*
X95737000Y-47655895D01*
X96601353Y-46791542D01*
X96521080Y-46540241D01*
X96419321Y-46503327D01*
X96517008Y-46462864D01*
X96904364Y-46075508D01*
X96934605Y-46002500D01*
X99585179Y-46002500D01*
X99607136Y-46055508D01*
X99994492Y-46442864D01*
X100085858Y-46480709D01*
X99990420Y-46520241D01*
X99910147Y-46771542D01*
X100774500Y-47635895D01*
X101638853Y-46771542D01*
X101558580Y-46520241D01*
X101456821Y-46483327D01*
X101554508Y-46442864D01*
X101941864Y-46055508D01*
X102151500Y-45549402D01*
X102151500Y-45517000D01*
X104072676Y-45517000D01*
X104072676Y-46290000D01*
X104113577Y-46495625D01*
X104230055Y-46669945D01*
X104404375Y-46786423D01*
X104610000Y-46827324D01*
X106210000Y-46827324D01*
X106415625Y-46786423D01*
X106589945Y-46669945D01*
X106706423Y-46495625D01*
X106747324Y-46290000D01*
X106747324Y-45517000D01*
X107538405Y-45517000D01*
X107610000Y-45531241D01*
X107681595Y-45517000D01*
X107681599Y-45517000D01*
X107858001Y-45481911D01*
X107858000Y-50851024D01*
X107799127Y-50909897D01*
X107658000Y-51250608D01*
X107658000Y-51333867D01*
X107427750Y-51564117D01*
X107384945Y-51500055D01*
X107210625Y-51383577D01*
X107005000Y-51342676D01*
X106355000Y-51342676D01*
X106149375Y-51383577D01*
X105975055Y-51500055D01*
X105858577Y-51674375D01*
X105817676Y-51880000D01*
X105817676Y-52940000D01*
X105858577Y-53145625D01*
X105975055Y-53319945D01*
X106149375Y-53436423D01*
X106355000Y-53477324D01*
X107005000Y-53477324D01*
X107210625Y-53436423D01*
X107384945Y-53319945D01*
X107501423Y-53145625D01*
X107503139Y-53137000D01*
X107538405Y-53137000D01*
X107610000Y-53151241D01*
X107681595Y-53137000D01*
X107681599Y-53137000D01*
X107893661Y-53094818D01*
X108134137Y-52934137D01*
X108174696Y-52873436D01*
X108686133Y-52362000D01*
X108769392Y-52362000D01*
X109110103Y-52220873D01*
X109370873Y-51960103D01*
X109512000Y-51619392D01*
X109512000Y-51250608D01*
X109370873Y-50909897D01*
X109312000Y-50851024D01*
X109312000Y-45771691D01*
X114743000Y-45771691D01*
X114743000Y-46187250D01*
X114901750Y-46346000D01*
X115951000Y-46346000D01*
X115951000Y-45421750D01*
X115792250Y-45263000D01*
X115251690Y-45263000D01*
X115018301Y-45359673D01*
X114839673Y-45538302D01*
X114743000Y-45771691D01*
X109312000Y-45771691D01*
X109312000Y-44398976D01*
X109370873Y-44340103D01*
X109512000Y-43999392D01*
X109512000Y-43630608D01*
X109370873Y-43289897D01*
X109110103Y-43029127D01*
X108769392Y-42888000D01*
X108400608Y-42888000D01*
X108059897Y-43029127D01*
X107799127Y-43289897D01*
X107658000Y-43630608D01*
X107658000Y-43713867D01*
X107308868Y-44063000D01*
X106747324Y-44063000D01*
X106747324Y-43290000D01*
X106706423Y-43084375D01*
X106589945Y-42910055D01*
X106415625Y-42793577D01*
X106210000Y-42752676D01*
X104610000Y-42752676D01*
X104404375Y-42793577D01*
X104230055Y-42910055D01*
X104113577Y-43084375D01*
X104072676Y-43290000D01*
X104072676Y-44063000D01*
X101445540Y-44063000D01*
X101048402Y-43898500D01*
X100500598Y-43898500D01*
X99994492Y-44108136D01*
X99607136Y-44495492D01*
X99585179Y-44548500D01*
X96918036Y-44548500D01*
X96904364Y-44515492D01*
X96517008Y-44128136D01*
X96010902Y-43918500D01*
X95463098Y-43918500D01*
X95172000Y-44039077D01*
X95172000Y-42102000D01*
X135243000Y-42102000D01*
X135243000Y-42644975D01*
X135243000Y-42644975D01*
G37*
X135243000Y-42644975D02*
X135199698Y-42601673D01*
X134966309Y-42505000D01*
X134225750Y-42505000D01*
X134067000Y-42663750D01*
X134067000Y-43913000D01*
X134087000Y-43913000D01*
X134087000Y-44167000D01*
X134067000Y-44167000D01*
X134067000Y-44187000D01*
X133813000Y-44187000D01*
X133813000Y-44167000D01*
X132563750Y-44167000D01*
X132405000Y-44325750D01*
X132405000Y-45066310D01*
X132501673Y-45299699D01*
X132680302Y-45478327D01*
X132852173Y-45549518D01*
X132548697Y-46003703D01*
X132434064Y-46580000D01*
X132548697Y-47156297D01*
X132875142Y-47644858D01*
X133182160Y-47850000D01*
X132875142Y-48055142D01*
X132599280Y-48468000D01*
X131470720Y-48468000D01*
X131194858Y-48055142D01*
X130887840Y-47850000D01*
X131194858Y-47644858D01*
X131521303Y-47156297D01*
X131635936Y-46580000D01*
X131521303Y-46003703D01*
X131217827Y-45549518D01*
X131389698Y-45478327D01*
X131568327Y-45299699D01*
X131665000Y-45066310D01*
X131665000Y-44325750D01*
X131506250Y-44167000D01*
X130257000Y-44167000D01*
X130257000Y-44187000D01*
X130003000Y-44187000D01*
X130003000Y-44167000D01*
X128753750Y-44167000D01*
X128595000Y-44325750D01*
X128595000Y-45066310D01*
X128691673Y-45299699D01*
X128870302Y-45478327D01*
X129042173Y-45549518D01*
X128738697Y-46003703D01*
X128624064Y-46580000D01*
X128738697Y-47156297D01*
X129065142Y-47644858D01*
X129372160Y-47850000D01*
X129065142Y-48055142D01*
X128738697Y-48543703D01*
X128624064Y-49120000D01*
X128738697Y-49696297D01*
X129065142Y-50184858D01*
X129372160Y-50390000D01*
X129065142Y-50595142D01*
X128738697Y-51083703D01*
X128624064Y-51660000D01*
X128738697Y-52236297D01*
X129065142Y-52724858D01*
X129372160Y-52930000D01*
X129065142Y-53135142D01*
X128872802Y-53423000D01*
X119021844Y-53423000D01*
X115002324Y-49403481D01*
X115002324Y-49301526D01*
X115071278Y-49404722D01*
X115326704Y-49575393D01*
X115627999Y-49635324D01*
X116528001Y-49635324D01*
X116829296Y-49575393D01*
X117084722Y-49404722D01*
X117255393Y-49149296D01*
X117315324Y-48848001D01*
X117315324Y-48384519D01*
X118560308Y-47139536D01*
X118625186Y-47096186D01*
X118796918Y-46839170D01*
X118842000Y-46612526D01*
X118857222Y-46536001D01*
X118842000Y-46459476D01*
X118842000Y-43938976D01*
X118850873Y-43930103D01*
X118992000Y-43589392D01*
X118992000Y-43220608D01*
X118906292Y-43013690D01*
X128595000Y-43013690D01*
X128595000Y-43754250D01*
X128753750Y-43913000D01*
X130003000Y-43913000D01*
X130003000Y-42663750D01*
X130257000Y-42663750D01*
X130257000Y-43913000D01*
X131506250Y-43913000D01*
X131665000Y-43754250D01*
X131665000Y-43013690D01*
X132405000Y-43013690D01*
X132405000Y-43754250D01*
X132563750Y-43913000D01*
X133813000Y-43913000D01*
X133813000Y-42663750D01*
X133654250Y-42505000D01*
X132913691Y-42505000D01*
X132680302Y-42601673D01*
X132501673Y-42780301D01*
X132405000Y-43013690D01*
X131665000Y-43013690D01*
X131568327Y-42780301D01*
X131389698Y-42601673D01*
X131156309Y-42505000D01*
X130415750Y-42505000D01*
X130257000Y-42663750D01*
X130003000Y-42663750D01*
X129844250Y-42505000D01*
X129103691Y-42505000D01*
X128870302Y-42601673D01*
X128691673Y-42780301D01*
X128595000Y-43013690D01*
X118906292Y-43013690D01*
X118850873Y-42879897D01*
X118590103Y-42619127D01*
X118249392Y-42478000D01*
X117880608Y-42478000D01*
X117539897Y-42619127D01*
X117279127Y-42879897D01*
X117138000Y-43220608D01*
X117138000Y-43589392D01*
X117279127Y-43930103D01*
X117288000Y-43938976D01*
X117288001Y-45509976D01*
X117137699Y-45359673D01*
X116904310Y-45263000D01*
X116363750Y-45263000D01*
X116205000Y-45421750D01*
X116205000Y-46346000D01*
X116225000Y-46346000D01*
X116225000Y-46600000D01*
X116205000Y-46600000D01*
X116205000Y-46620000D01*
X115951000Y-46620000D01*
X115951000Y-46600000D01*
X114901750Y-46600000D01*
X114743000Y-46758750D01*
X114743000Y-47174309D01*
X114839673Y-47407698D01*
X115018301Y-47586327D01*
X115101773Y-47620902D01*
X115071278Y-47641278D01*
X115001305Y-47746000D01*
X114909054Y-47746000D01*
X114844945Y-47650055D01*
X114670625Y-47533577D01*
X114465000Y-47492676D01*
X112865000Y-47492676D01*
X112659375Y-47533577D01*
X112485055Y-47650055D01*
X112368577Y-47824375D01*
X112327676Y-48030000D01*
X112327676Y-50468480D01*
X108963157Y-53833000D01*
X107473777Y-53833000D01*
X107384945Y-53700055D01*
X107210625Y-53583577D01*
X107005000Y-53542676D01*
X106415702Y-53542676D01*
X106414699Y-53541673D01*
X106181310Y-53445000D01*
X106015750Y-53445000D01*
X105857000Y-53603750D01*
X105857000Y-53882303D01*
X105817676Y-54080000D01*
X105817676Y-55140000D01*
X105857000Y-55337697D01*
X105857000Y-55616250D01*
X106015750Y-55775000D01*
X106181310Y-55775000D01*
X106414699Y-55678327D01*
X106415702Y-55677324D01*
X107005000Y-55677324D01*
X107210625Y-55636423D01*
X107384945Y-55519945D01*
X107473777Y-55387000D01*
X109208475Y-55387000D01*
X109285000Y-55402222D01*
X109361525Y-55387000D01*
X109361526Y-55387000D01*
X109588170Y-55341918D01*
X109845186Y-55170186D01*
X109888538Y-55105305D01*
X110778093Y-54215750D01*
X112230000Y-54215750D01*
X112230000Y-55556309D01*
X112326673Y-55789698D01*
X112505301Y-55968327D01*
X112738690Y-56065000D01*
X113379250Y-56065000D01*
X113538000Y-55906250D01*
X113538000Y-54057000D01*
X113792000Y-54057000D01*
X113792000Y-55906250D01*
X113950750Y-56065000D01*
X114591310Y-56065000D01*
X114824699Y-55968327D01*
X115003327Y-55789698D01*
X115100000Y-55556309D01*
X115100000Y-54215750D01*
X114941250Y-54057000D01*
X113792000Y-54057000D01*
X113538000Y-54057000D01*
X112388750Y-54057000D01*
X112230000Y-54215750D01*
X110778093Y-54215750D01*
X112230000Y-52763844D01*
X112230000Y-53644250D01*
X112388750Y-53803000D01*
X113538000Y-53803000D01*
X113538000Y-51953750D01*
X113792000Y-51953750D01*
X113792000Y-53803000D01*
X114941250Y-53803000D01*
X115100000Y-53644250D01*
X115100000Y-52303691D01*
X115003327Y-52070302D01*
X114824699Y-51891673D01*
X114591310Y-51795000D01*
X113950750Y-51795000D01*
X113792000Y-51953750D01*
X113538000Y-51953750D01*
X113379250Y-51795000D01*
X113198844Y-51795000D01*
X113426520Y-51567324D01*
X114465000Y-51567324D01*
X114670625Y-51526423D01*
X114824658Y-51423501D01*
X118096464Y-54695308D01*
X118139814Y-54760186D01*
X118396830Y-54931918D01*
X118623474Y-54977000D01*
X118699999Y-54992222D01*
X118776524Y-54977000D01*
X128872802Y-54977000D01*
X129065142Y-55264858D01*
X129553703Y-55591303D01*
X129984529Y-55677000D01*
X130275471Y-55677000D01*
X130706297Y-55591303D01*
X131194858Y-55264858D01*
X131387198Y-54977000D01*
X132682802Y-54977000D01*
X132875142Y-55264858D01*
X133363703Y-55591303D01*
X133794529Y-55677000D01*
X134085471Y-55677000D01*
X134516297Y-55591303D01*
X135004858Y-55264858D01*
X135243001Y-54908451D01*
X135243001Y-56138000D01*
X95172000Y-56138000D01*
X95172000Y-54895750D01*
X103820000Y-54895750D01*
X103820000Y-55266309D01*
X103916673Y-55499698D01*
X104095301Y-55678327D01*
X104328690Y-55775000D01*
X104494250Y-55775000D01*
X104653000Y-55616250D01*
X104653000Y-54895750D01*
X104770000Y-54895750D01*
X104770000Y-55266309D01*
X104866673Y-55499698D01*
X104907000Y-55540025D01*
X104907000Y-55616250D01*
X105065750Y-55775000D01*
X105231310Y-55775000D01*
X105255000Y-55765187D01*
X105278690Y-55775000D01*
X105444250Y-55775000D01*
X105603000Y-55616250D01*
X105603000Y-55540025D01*
X105643327Y-55499698D01*
X105740000Y-55266309D01*
X105740000Y-54895750D01*
X105603000Y-54758750D01*
X105603000Y-54737000D01*
X104907000Y-54737000D01*
X104907000Y-54758750D01*
X104770000Y-54895750D01*
X104653000Y-54895750D01*
X104653000Y-54737000D01*
X103978750Y-54737000D01*
X103820000Y-54895750D01*
X95172000Y-54895750D01*
X95172000Y-54171923D01*
X95463098Y-54292500D01*
X96010902Y-54292500D01*
X96517008Y-54082864D01*
X96904364Y-53695508D01*
X96965671Y-53547500D01*
X99554113Y-53547500D01*
X99607136Y-53675508D01*
X99994492Y-54062864D01*
X100500598Y-54272500D01*
X101048402Y-54272500D01*
X101554508Y-54062864D01*
X101663681Y-53953691D01*
X103820000Y-53953691D01*
X103820000Y-54324250D01*
X103978750Y-54483000D01*
X104653000Y-54483000D01*
X104653000Y-54463000D01*
X104907000Y-54463000D01*
X104907000Y-54483000D01*
X105603000Y-54483000D01*
X105603000Y-54461250D01*
X105740000Y-54324250D01*
X105740000Y-53953691D01*
X105643327Y-53720302D01*
X105603000Y-53679975D01*
X105603000Y-53603750D01*
X105444250Y-53445000D01*
X105278690Y-53445000D01*
X105255000Y-53454813D01*
X105243052Y-53449864D01*
X105310625Y-53436423D01*
X105484945Y-53319945D01*
X105601423Y-53145625D01*
X105642324Y-52940000D01*
X105642324Y-51880000D01*
X105601423Y-51674375D01*
X105484945Y-51500055D01*
X105310625Y-51383577D01*
X105105000Y-51342676D01*
X104455000Y-51342676D01*
X104249375Y-51383577D01*
X104075055Y-51500055D01*
X103958577Y-51674375D01*
X103917676Y-51880000D01*
X103917676Y-52940000D01*
X103958577Y-53145625D01*
X104075055Y-53319945D01*
X104249375Y-53436423D01*
X104316948Y-53449864D01*
X104095301Y-53541673D01*
X103916673Y-53720302D01*
X103820000Y-53953691D01*
X101663681Y-53953691D01*
X101941864Y-53675508D01*
X102151500Y-53169402D01*
X102151500Y-52621598D01*
X101941864Y-52115492D01*
X101554508Y-51728136D01*
X101306723Y-51625500D01*
X101554508Y-51522864D01*
X101941864Y-51135508D01*
X102151500Y-50629402D01*
X102151500Y-50081598D01*
X101941864Y-49575492D01*
X101842122Y-49475750D01*
X103975000Y-49475750D01*
X103975000Y-50816309D01*
X104071673Y-51049698D01*
X104250301Y-51228327D01*
X104483690Y-51325000D01*
X105124250Y-51325000D01*
X105283000Y-51166250D01*
X105283000Y-49317000D01*
X105537000Y-49317000D01*
X105537000Y-51166250D01*
X105695750Y-51325000D01*
X106336310Y-51325000D01*
X106569699Y-51228327D01*
X106748327Y-51049698D01*
X106845000Y-50816309D01*
X106845000Y-49475750D01*
X106686250Y-49317000D01*
X105537000Y-49317000D01*
X105283000Y-49317000D01*
X104133750Y-49317000D01*
X103975000Y-49475750D01*
X101842122Y-49475750D01*
X101554508Y-49188136D01*
X101463142Y-49150291D01*
X101558580Y-49110759D01*
X101638853Y-48859458D01*
X100774500Y-47995105D01*
X99910147Y-48859458D01*
X99990420Y-49110759D01*
X100092179Y-49147673D01*
X99994492Y-49188136D01*
X99607136Y-49575492D01*
X99554113Y-49703500D01*
X96949102Y-49703500D01*
X96904364Y-49595492D01*
X96517008Y-49208136D01*
X96425642Y-49170291D01*
X96521080Y-49130759D01*
X96601353Y-48879458D01*
X95737000Y-48015105D01*
X95722858Y-48029248D01*
X95543253Y-47849643D01*
X95557395Y-47835500D01*
X95916605Y-47835500D01*
X96780958Y-48699853D01*
X97032259Y-48619580D01*
X97233718Y-48064221D01*
X97212359Y-47586779D01*
X99277782Y-47586779D01*
X99304185Y-48176958D01*
X99479241Y-48599580D01*
X99730542Y-48679853D01*
X100594895Y-47815500D01*
X100954105Y-47815500D01*
X101818458Y-48679853D01*
X102069759Y-48599580D01*
X102271218Y-48044221D01*
X102249721Y-47563691D01*
X103975000Y-47563691D01*
X103975000Y-48904250D01*
X104133750Y-49063000D01*
X105283000Y-49063000D01*
X105283000Y-47213750D01*
X105537000Y-47213750D01*
X105537000Y-49063000D01*
X106686250Y-49063000D01*
X106845000Y-48904250D01*
X106845000Y-47563691D01*
X106748327Y-47330302D01*
X106569699Y-47151673D01*
X106336310Y-47055000D01*
X105695750Y-47055000D01*
X105537000Y-47213750D01*
X105283000Y-47213750D01*
X105124250Y-47055000D01*
X104483690Y-47055000D01*
X104250301Y-47151673D01*
X104071673Y-47330302D01*
X103975000Y-47563691D01*
X102249721Y-47563691D01*
X102244815Y-47454042D01*
X102069759Y-47031420D01*
X101818458Y-46951147D01*
X100954105Y-47815500D01*
X100594895Y-47815500D01*
X99730542Y-46951147D01*
X99479241Y-47031420D01*
X99277782Y-47586779D01*
X97212359Y-47586779D01*
X97207315Y-47474042D01*
X97032259Y-47051420D01*
X96780958Y-46971147D01*
X95916605Y-47835500D01*
X95557395Y-47835500D01*
X95543253Y-47821358D01*
X95722858Y-47641753D01*
X95737000Y-47655895D01*
X96601353Y-46791542D01*
X96521080Y-46540241D01*
X96419321Y-46503327D01*
X96517008Y-46462864D01*
X96904364Y-46075508D01*
X96934605Y-46002500D01*
X99585179Y-46002500D01*
X99607136Y-46055508D01*
X99994492Y-46442864D01*
X100085858Y-46480709D01*
X99990420Y-46520241D01*
X99910147Y-46771542D01*
X100774500Y-47635895D01*
X101638853Y-46771542D01*
X101558580Y-46520241D01*
X101456821Y-46483327D01*
X101554508Y-46442864D01*
X101941864Y-46055508D01*
X102151500Y-45549402D01*
X102151500Y-45517000D01*
X104072676Y-45517000D01*
X104072676Y-46290000D01*
X104113577Y-46495625D01*
X104230055Y-46669945D01*
X104404375Y-46786423D01*
X104610000Y-46827324D01*
X106210000Y-46827324D01*
X106415625Y-46786423D01*
X106589945Y-46669945D01*
X106706423Y-46495625D01*
X106747324Y-46290000D01*
X106747324Y-45517000D01*
X107538405Y-45517000D01*
X107610000Y-45531241D01*
X107681595Y-45517000D01*
X107681599Y-45517000D01*
X107858001Y-45481911D01*
X107858000Y-50851024D01*
X107799127Y-50909897D01*
X107658000Y-51250608D01*
X107658000Y-51333867D01*
X107427750Y-51564117D01*
X107384945Y-51500055D01*
X107210625Y-51383577D01*
X107005000Y-51342676D01*
X106355000Y-51342676D01*
X106149375Y-51383577D01*
X105975055Y-51500055D01*
X105858577Y-51674375D01*
X105817676Y-51880000D01*
X105817676Y-52940000D01*
X105858577Y-53145625D01*
X105975055Y-53319945D01*
X106149375Y-53436423D01*
X106355000Y-53477324D01*
X107005000Y-53477324D01*
X107210625Y-53436423D01*
X107384945Y-53319945D01*
X107501423Y-53145625D01*
X107503139Y-53137000D01*
X107538405Y-53137000D01*
X107610000Y-53151241D01*
X107681595Y-53137000D01*
X107681599Y-53137000D01*
X107893661Y-53094818D01*
X108134137Y-52934137D01*
X108174696Y-52873436D01*
X108686133Y-52362000D01*
X108769392Y-52362000D01*
X109110103Y-52220873D01*
X109370873Y-51960103D01*
X109512000Y-51619392D01*
X109512000Y-51250608D01*
X109370873Y-50909897D01*
X109312000Y-50851024D01*
X109312000Y-45771691D01*
X114743000Y-45771691D01*
X114743000Y-46187250D01*
X114901750Y-46346000D01*
X115951000Y-46346000D01*
X115951000Y-45421750D01*
X115792250Y-45263000D01*
X115251690Y-45263000D01*
X115018301Y-45359673D01*
X114839673Y-45538302D01*
X114743000Y-45771691D01*
X109312000Y-45771691D01*
X109312000Y-44398976D01*
X109370873Y-44340103D01*
X109512000Y-43999392D01*
X109512000Y-43630608D01*
X109370873Y-43289897D01*
X109110103Y-43029127D01*
X108769392Y-42888000D01*
X108400608Y-42888000D01*
X108059897Y-43029127D01*
X107799127Y-43289897D01*
X107658000Y-43630608D01*
X107658000Y-43713867D01*
X107308868Y-44063000D01*
X106747324Y-44063000D01*
X106747324Y-43290000D01*
X106706423Y-43084375D01*
X106589945Y-42910055D01*
X106415625Y-42793577D01*
X106210000Y-42752676D01*
X104610000Y-42752676D01*
X104404375Y-42793577D01*
X104230055Y-42910055D01*
X104113577Y-43084375D01*
X104072676Y-43290000D01*
X104072676Y-44063000D01*
X101445540Y-44063000D01*
X101048402Y-43898500D01*
X100500598Y-43898500D01*
X99994492Y-44108136D01*
X99607136Y-44495492D01*
X99585179Y-44548500D01*
X96918036Y-44548500D01*
X96904364Y-44515492D01*
X96517008Y-44128136D01*
X96010902Y-43918500D01*
X95463098Y-43918500D01*
X95172000Y-44039077D01*
X95172000Y-42102000D01*
X135243000Y-42102000D01*
X135243000Y-42644975D01*
G36*
X132875142Y-52724858D02*
X133182160Y-52930000D01*
X132875142Y-53135142D01*
X132682802Y-53423000D01*
X131387198Y-53423000D01*
X131194858Y-53135142D01*
X130887840Y-52930000D01*
X131194858Y-52724858D01*
X131470720Y-52312000D01*
X132599280Y-52312000D01*
X132875142Y-52724858D01*
X132875142Y-52724858D01*
G37*
X132875142Y-52724858D02*
X133182160Y-52930000D01*
X132875142Y-53135142D01*
X132682802Y-53423000D01*
X131387198Y-53423000D01*
X131194858Y-53135142D01*
X130887840Y-52930000D01*
X131194858Y-52724858D01*
X131470720Y-52312000D01*
X132599280Y-52312000D01*
X132875142Y-52724858D01*
G36*
X99607136Y-51135508D02*
X99994492Y-51522864D01*
X100242277Y-51625500D01*
X99994492Y-51728136D01*
X99607136Y-52115492D01*
X99554113Y-52243500D01*
X96949102Y-52243500D01*
X96904364Y-52135492D01*
X96517008Y-51748136D01*
X96269223Y-51645500D01*
X96517008Y-51542864D01*
X96904364Y-51155508D01*
X96965671Y-51007500D01*
X99554113Y-51007500D01*
X99607136Y-51135508D01*
X99607136Y-51135508D01*
G37*
X99607136Y-51135508D02*
X99994492Y-51522864D01*
X100242277Y-51625500D01*
X99994492Y-51728136D01*
X99607136Y-52115492D01*
X99554113Y-52243500D01*
X96949102Y-52243500D01*
X96904364Y-52135492D01*
X96517008Y-51748136D01*
X96269223Y-51645500D01*
X96517008Y-51542864D01*
X96904364Y-51155508D01*
X96965671Y-51007500D01*
X99554113Y-51007500D01*
X99607136Y-51135508D01*
G36*
X132875142Y-50184858D02*
X133182160Y-50390000D01*
X132875142Y-50595142D01*
X132599280Y-51008000D01*
X131470720Y-51008000D01*
X131194858Y-50595142D01*
X130887840Y-50390000D01*
X131194858Y-50184858D01*
X131470720Y-49772000D01*
X132599280Y-49772000D01*
X132875142Y-50184858D01*
X132875142Y-50184858D01*
G37*
X132875142Y-50184858D02*
X133182160Y-50390000D01*
X132875142Y-50595142D01*
X132599280Y-51008000D01*
X131470720Y-51008000D01*
X131194858Y-50595142D01*
X130887840Y-50390000D01*
X131194858Y-50184858D01*
X131470720Y-49772000D01*
X132599280Y-49772000D01*
X132875142Y-50184858D01*
G04 #@! TD*
M02*
