G04 #@! TF.GenerationSoftware,KiCad,Pcbnew,5.0.0-fee4fd1~66~ubuntu18.04.1*
G04 #@! TF.CreationDate,2018-10-20T19:30:02+02:00*
G04 #@! TF.ProjectId,bmp280-sensor-board,626D703238302D73656E736F722D626F,rev?*
G04 #@! TF.SameCoordinates,Original*
G04 #@! TF.FileFunction,Soldermask,Bot*
G04 #@! TF.FilePolarity,Negative*
%FSLAX46Y46*%
G04 Gerber Fmt 4.6, Leading zero omitted, Abs format (unit mm)*
G04 Created by KiCad (PCBNEW 5.0.0-fee4fd1~66~ubuntu18.04.1) date Sat Oct 20 19:30:02 2018*
%MOMM*%
%LPD*%
G01*
G04 APERTURE LIST*
%ADD10R,2.000000X3.400000*%
%ADD11R,1.050000X1.460000*%
%ADD12C,0.100000*%
%ADD13C,1.550000*%
%ADD14C,2.100000*%
%ADD15R,2.200000X2.200000*%
%ADD16O,2.300000X2.300000*%
G04 APERTURE END LIST*
D10*
G04 #@! TO.C,C1*
X113665000Y-49530000D03*
X113665000Y-53930000D03*
G04 #@! TD*
G04 #@! TO.C,C2*
X105410000Y-44790000D03*
X105410000Y-49190000D03*
G04 #@! TD*
D11*
G04 #@! TO.C,U1*
X106680000Y-54610000D03*
X105730000Y-54610000D03*
X104780000Y-54610000D03*
X104780000Y-52410000D03*
X106680000Y-52410000D03*
G04 #@! TD*
D12*
G04 #@! TO.C,C3*
G36*
X116674071Y-47749623D02*
X116706781Y-47754475D01*
X116738857Y-47762509D01*
X116769991Y-47773649D01*
X116799884Y-47787787D01*
X116828247Y-47804787D01*
X116854807Y-47824485D01*
X116879308Y-47846692D01*
X116901515Y-47871193D01*
X116921213Y-47897753D01*
X116938213Y-47926116D01*
X116952351Y-47956009D01*
X116963491Y-47987143D01*
X116971525Y-48019219D01*
X116976377Y-48051929D01*
X116978000Y-48084956D01*
X116978000Y-48961044D01*
X116976377Y-48994071D01*
X116971525Y-49026781D01*
X116963491Y-49058857D01*
X116952351Y-49089991D01*
X116938213Y-49119884D01*
X116921213Y-49148247D01*
X116901515Y-49174807D01*
X116879308Y-49199308D01*
X116854807Y-49221515D01*
X116828247Y-49241213D01*
X116799884Y-49258213D01*
X116769991Y-49272351D01*
X116738857Y-49283491D01*
X116706781Y-49291525D01*
X116674071Y-49296377D01*
X116641044Y-49298000D01*
X115514956Y-49298000D01*
X115481929Y-49296377D01*
X115449219Y-49291525D01*
X115417143Y-49283491D01*
X115386009Y-49272351D01*
X115356116Y-49258213D01*
X115327753Y-49241213D01*
X115301193Y-49221515D01*
X115276692Y-49199308D01*
X115254485Y-49174807D01*
X115234787Y-49148247D01*
X115217787Y-49119884D01*
X115203649Y-49089991D01*
X115192509Y-49058857D01*
X115184475Y-49026781D01*
X115179623Y-48994071D01*
X115178000Y-48961044D01*
X115178000Y-48084956D01*
X115179623Y-48051929D01*
X115184475Y-48019219D01*
X115192509Y-47987143D01*
X115203649Y-47956009D01*
X115217787Y-47926116D01*
X115234787Y-47897753D01*
X115254485Y-47871193D01*
X115276692Y-47846692D01*
X115301193Y-47824485D01*
X115327753Y-47804787D01*
X115356116Y-47787787D01*
X115386009Y-47773649D01*
X115417143Y-47762509D01*
X115449219Y-47754475D01*
X115481929Y-47749623D01*
X115514956Y-47748000D01*
X116641044Y-47748000D01*
X116674071Y-47749623D01*
X116674071Y-47749623D01*
G37*
D13*
X116078000Y-48523000D03*
D12*
G36*
X116674071Y-45699623D02*
X116706781Y-45704475D01*
X116738857Y-45712509D01*
X116769991Y-45723649D01*
X116799884Y-45737787D01*
X116828247Y-45754787D01*
X116854807Y-45774485D01*
X116879308Y-45796692D01*
X116901515Y-45821193D01*
X116921213Y-45847753D01*
X116938213Y-45876116D01*
X116952351Y-45906009D01*
X116963491Y-45937143D01*
X116971525Y-45969219D01*
X116976377Y-46001929D01*
X116978000Y-46034956D01*
X116978000Y-46911044D01*
X116976377Y-46944071D01*
X116971525Y-46976781D01*
X116963491Y-47008857D01*
X116952351Y-47039991D01*
X116938213Y-47069884D01*
X116921213Y-47098247D01*
X116901515Y-47124807D01*
X116879308Y-47149308D01*
X116854807Y-47171515D01*
X116828247Y-47191213D01*
X116799884Y-47208213D01*
X116769991Y-47222351D01*
X116738857Y-47233491D01*
X116706781Y-47241525D01*
X116674071Y-47246377D01*
X116641044Y-47248000D01*
X115514956Y-47248000D01*
X115481929Y-47246377D01*
X115449219Y-47241525D01*
X115417143Y-47233491D01*
X115386009Y-47222351D01*
X115356116Y-47208213D01*
X115327753Y-47191213D01*
X115301193Y-47171515D01*
X115276692Y-47149308D01*
X115254485Y-47124807D01*
X115234787Y-47098247D01*
X115217787Y-47069884D01*
X115203649Y-47039991D01*
X115192509Y-47008857D01*
X115184475Y-46976781D01*
X115179623Y-46944071D01*
X115178000Y-46911044D01*
X115178000Y-46034956D01*
X115179623Y-46001929D01*
X115184475Y-45969219D01*
X115192509Y-45937143D01*
X115203649Y-45906009D01*
X115217787Y-45876116D01*
X115234787Y-45847753D01*
X115254485Y-45821193D01*
X115276692Y-45796692D01*
X115301193Y-45774485D01*
X115327753Y-45754787D01*
X115356116Y-45737787D01*
X115386009Y-45723649D01*
X115417143Y-45712509D01*
X115449219Y-45704475D01*
X115481929Y-45699623D01*
X115514956Y-45698000D01*
X116641044Y-45698000D01*
X116674071Y-45699623D01*
X116674071Y-45699623D01*
G37*
D13*
X116078000Y-46473000D03*
G04 #@! TD*
D14*
G04 #@! TO.C,U2*
X95737000Y-52915500D03*
X95737000Y-50375500D03*
X95737000Y-47835500D03*
X95737000Y-45295500D03*
G04 #@! TD*
G04 #@! TO.C,U4*
X100774500Y-45275500D03*
X100774500Y-47815500D03*
X100774500Y-50355500D03*
X100774500Y-52895500D03*
G04 #@! TD*
D15*
G04 #@! TO.C,J1*
X130130000Y-44040000D03*
D16*
X130130000Y-46580000D03*
X130130000Y-49120000D03*
X130130000Y-51660000D03*
X130130000Y-54200000D03*
G04 #@! TD*
G04 #@! TO.C,J2*
X133940000Y-54200000D03*
X133940000Y-51660000D03*
X133940000Y-49120000D03*
X133940000Y-46580000D03*
D15*
X133940000Y-44040000D03*
G04 #@! TD*
M02*
